  0
SECTION
  2
HEADER
  9
$ACADVER
  1
AC1009
  9
$DWGCODEPAGE
  3
ansi_1252
  9
$INSBASE
 10
0.0
 20
0.0
 30
0.0
  9
$EXTMIN
 10
0.8799999999971009
 20
0.8960876643706952
 30
0.0
  9
$EXTMAX
 10
95.1200000000029
 20
47.04236868137086
 30
0.0
  9
$LIMMIN
 10
0.0
 20
0.0
  9
$LIMMAX
 10
12.0
 20
9.0
  9
$ORTHOMODE
 70
     0
  9
$REGENMODE
 70
     1
  9
$FILLMODE
 70
     1
  9
$QTEXTMODE
 70
     0
  9
$MIRRTEXT
 70
     1
  9
$DRAGMODE
 70
     2
  9
$LTSCALE
 40
1.0
  9
$OSMODE
 70
    37
  9
$ATTMODE
 70
     1
  9
$TEXTSIZE
 40
0.2
  9
$TRACEWID
 40
0.05
  9
$TEXTSTYLE
  7
STANDARD
  9
$CLAYER
  8
0
  9
$CELTYPE
  6
BYLAYER
  9
$CECOLOR
 62
   256
  9
$DIMSCALE
 40
1.0
  9
$DIMASZ
 40
0.18
  9
$DIMEXO
 40
0.0625
  9
$DIMDLI
 40
0.38
  9
$DIMRND
 40
0.0
  9
$DIMDLE
 40
0.0
  9
$DIMEXE
 40
0.18
  9
$DIMTP
 40
0.0
  9
$DIMTM
 40
0.0
  9
$DIMTXT
 40
0.18
  9
$DIMCEN
 40
0.09
  9
$DIMTSZ
 40
0.0
  9
$DIMTOL
 70
     0
  9
$DIMLIM
 70
     0
  9
$DIMTIH
 70
     1
  9
$DIMTOH
 70
     1
  9
$DIMSE1
 70
     0
  9
$DIMSE2
 70
     0
  9
$DIMTAD
 70
     0
  9
$DIMZIN
 70
     0
  9
$DIMBLK
  1

  9
$DIMASO
 70
     1
  9
$DIMSHO
 70
     1
  9
$DIMPOST
  1

  9
$DIMAPOST
  1

  9
$DIMALT
 70
     0
  9
$DIMALTD
 70
     2
  9
$DIMALTF
 40
25.4
  9
$DIMLFAC
 40
1.0
  9
$DIMTOFL
 70
     0
  9
$DIMTVP
 40
0.0
  9
$DIMTIX
 70
     0
  9
$DIMSOXD
 70
     0
  9
$DIMSAH
 70
     0
  9
$DIMBLK1
  1

  9
$DIMBLK2
  1

  9
$DIMSTYLE
  2
STANDARD
  9
$DIMCLRD
 70
     0
  9
$DIMCLRE
 70
     0
  9
$DIMCLRT
 70
     0
  9
$DIMTFAC
 40
1.0
  9
$DIMGAP
 40
0.09
  9
$LUNITS
 70
     2
  9
$LUPREC
 70
     4
  9
$SKETCHINC
 40
0.1
  9
$FILLETRAD
 40
0.5
  9
$AUNITS
 70
     0
  9
$AUPREC
 70
     0
  9
$MENU
  1
.
  9
$ELEVATION
 40
0.0
  9
$PELEVATION
 40
0.0
  9
$THICKNESS
 40
0.0
  9
$LIMCHECK
 70
     0
  9
$CHAMFERA
 40
0.0
  9
$CHAMFERB
 40
0.0
  9
$SKPOLY
 70
     0
  9
$TDCREATE
 40
2454910.5
  9
$TDUPDATE
 40
2457917.300208947
  9
$TDINDWG
 40
0.0000000116
  9
$TDUSRTIMER
 40
0.0000000116
  9
$USRTIMER
 70
     1
  9
$ANGBASE
 50
0.0
  9
$ANGDIR
 70
     0
  9
$PDMODE
 70
     0
  9
$PDSIZE
 40
0.0
  9
$PLINEWID
 40
0.0
  9
$COORDS
 70
     1
  9
$SPLFRAME
 70
     0
  9
$SPLINETYPE
 70
     6
  9
$SPLINESEGS
 70
     8
  9
$ATTDIA
 70
     0
  9
$ATTREQ
 70
     1
  9
$HANDLING
 70
     1
  9
$HANDSEED
  5
340
  9
$SURFTAB1
 70
     6
  9
$SURFTAB2
 70
     6
  9
$SURFTYPE
 70
     6
  9
$SURFU
 70
     6
  9
$SURFV
 70
     6
  9
$UCSNAME
  2

  9
$UCSORG
 10
0.0
 20
0.0
 30
0.0
  9
$UCSXDIR
 10
1.0
 20
0.0
 30
0.0
  9
$UCSYDIR
 10
0.0
 20
1.0
 30
0.0
  9
$PUCSNAME
  2

  9
$PUCSORG
 10
0.0
 20
0.0
 30
0.0
  9
$PUCSXDIR
 10
1.0
 20
0.0
 30
0.0
  9
$PUCSYDIR
 10
0.0
 20
1.0
 30
0.0
  9
$USERI1
 70
     0
  9
$USERI2
 70
     0
  9
$USERI3
 70
     0
  9
$USERI4
 70
     0
  9
$USERI5
 70
     0
  9
$USERR1
 40
0.0
  9
$USERR2
 40
0.0
  9
$USERR3
 40
0.0
  9
$USERR4
 40
0.0
  9
$USERR5
 40
0.0
  9
$WORLDVIEW
 70
     1
  9
$SHADEDGE
 70
     3
  9
$SHADEDIF
 70
    70
  9
$TILEMODE
 70
     1
  9
$MAXACTVP
 70
    64
  9
$PLIMCHECK
 70
     0
  9
$PEXTMIN
 10
1.000000000000000E+20
 20
1.000000000000000E+20
 30
1.000000000000000E+20
  9
$PEXTMAX
 10
-1.000000000000000E+20
 20
-1.000000000000000E+20
 30
-1.000000000000000E+20
  9
$PLIMMIN
 10
0.0
 20
0.0
  9
$PLIMMAX
 10
12.0
 20
9.0
  9
$UNITMODE
 70
     0
  9
$VISRETAIN
 70
     1
  9
$PLINEGEN
 70
     0
  9
$PSLTSCALE
 70
     1
  0
ENDSEC
  0
SECTION
  2
TABLES
  0
TABLE
  2
VPORT
 70
     1
  0
VPORT
  2
*ACTIVE
 70
     0
 10
0.0
 20
0.0
 11
1.0
 21
1.0
 12
10.42990654205607
 22
4.5
 13
0.0
 23
0.0
 14
0.5
 24
0.5
 15
0.5
 25
0.5
 16
0.0
 26
0.0
 36
1.0
 17
0.0
 27
0.0
 37
0.0
 40
9.0
 41
1.972972972850329
 42
50.0
 43
0.0
 44
0.0
 50
0.0
 51
0.0
 71
     0
 72
   100
 73
     1
 74
     3
 75
     0
 76
     0
 77
     0
 78
     0
  0
ENDTAB
  0
TABLE
  2
LTYPE
 70
     2
  0
LTYPE
  2
CONTINUOUS
 70
     0
  3
Solid line
 72
    65
 73
     0
 40
0.0
  0
LTYPE
  2
CONTINUOUS2
 70
     0
  3
Solid Line
 72
    65
 73
     0
 40
0.0
  0
ENDTAB
  0
TABLE
  2
LAYER
 70
     4
  0
LAYER
  2
0
 70
     0
 62
     7
  6
CONTINUOUS
  0
LAYER
  2
THRUCUT
 70
     0
 62
    18
  6
CONTINUOUS
  0
LAYER
  2
SCREW_LOCATION_MARKERS
 70
     0
 62
     1
  6
CONTINUOUS
  0
LAYER
  2
THRUCUT_FLUSH_WEDGES_SPIRA
 70
     0
 62
     3
  6
CONTINUOUS
  0
ENDTAB
  0
TABLE
  2
STYLE
 70
     1
  0
STYLE
  2
STANDARD
 70
     0
 40
0.0
 41
1.0
 50
0.0
 71
     0
 42
0.2
  3
txt
  4

  0
ENDTAB
  0
TABLE
  2
VIEW
 70
     0
  0
ENDTAB
  0
TABLE
  2
UCS
 70
     0
  0
ENDTAB
  0
TABLE
  2
APPID
 70
     1
  0
APPID
  2
ACAD
 70
     0
  0
ENDTAB
  0
TABLE
  2
DIMSTYLE
 70
     1
  0
DIMSTYLE
  2
STANDARD
 70
     0
  3

  4

  5

  6

  7

 40
1.0
 41
0.18
 42
0.0625
 43
0.38
 44
0.18
 45
0.0
 46
0.0
 47
0.0
 48
0.0
140
0.18
141
0.09
142
0.0
143
25.4
144
1.0
145
0.0
146
1.0
147
0.09
 71
     0
 72
     0
 73
     1
 74
     1
 75
     0
 76
     0
 77
     0
 78
     0
170
     0
171
     2
172
     0
173
     0
174
     0
175
     0
176
     0
177
     0
178
     0
  0
ENDTAB
  0
ENDSEC
  0
SECTION
  2
BLOCKS
  0
BLOCK
  8
0
  2
$MODEL_SPACE
 70
     0
 10
0.0
 20
0.0
 30
0.0
  3
$MODEL_SPACE
  1

  0
ENDBLK
  5
21
  8
0
  0
BLOCK
 67
     1
  8
0
  2
$PAPER_SPACE
 70
     0
 10
0.0
 20
0.0
 30
0.0
  3
$PAPER_SPACE
  1

  0
ENDBLK
  5
1D
 67
     1
  8
0
  0
ENDSEC
  0
SECTION
  2
ENTITIES
  0
POLYLINE
  5
70
  8
THRUCUT
 66
     1
 10
0.0
 20
0.0
 30
0.0
 70
     1
  0
VERTEX
  5
BA
  8
THRUCUT
 10
59.22268037295169
 20
6.500173893334927
 30
0.0
  0
VERTEX
  5
BB
  8
THRUCUT
 10
70.11249999999956
 20
6.500173893334671
 30
0.0
 42
-0.4142135623736434
  0
VERTEX
  5
BC
  8
THRUCUT
 10
70.24249999999967
 20
6.370173893334676
 30
0.0
  0
VERTEX
  5
BD
  8
THRUCUT
 10
70.24249999999967
 20
6.184021656443202
 30
0.0
 42
1.0
  0
VERTEX
  5
BE
  8
THRUCUT
 10
70.42634776310803
 20
6.000173893334671
 30
0.0
  0
VERTEX
  5
BF
  8
THRUCUT
 10
70.55865223689108
 20
6.000173893334671
 30
0.0
 42
1.0
  0
VERTEX
  5
C0
  8
THRUCUT
 10
70.74249999999967
 20
6.184021656443202
 30
0.0
  0
VERTEX
  5
C1
  8
THRUCUT
 10
70.74249999999967
 20
6.370173893334676
 30
0.0
 42
-0.4142135623732267
  0
VERTEX
  5
C2
  8
THRUCUT
 10
70.87249999999955
 20
6.500173893334671
 30
0.0
  0
VERTEX
  5
C3
  8
THRUCUT
 10
92.62000000000089
 20
6.50017389333518
 30
0.0
 42
-0.4142135623485056
  0
VERTEX
  5
C4
  8
THRUCUT
 10
92.75000000000088
 20
6.370173893336384
 30
0.0
  0
VERTEX
  5
C5
  8
THRUCUT
 10
92.75000000000261
 20
6.184021656443728
 30
0.0
 42
1.0
  0
VERTEX
  5
C6
  8
THRUCUT
 10
92.9338477631112
 20
6.000173893335197
 30
0.0
  0
VERTEX
  5
C7
  8
THRUCUT
 10
93.06615223689414
 20
6.000173893335197
 30
0.0
 42
1.0
  0
VERTEX
  5
C8
  8
THRUCUT
 10
93.25000000000261
 20
6.184021656443728
 30
0.0
  0
VERTEX
  5
C9
  8
THRUCUT
 10
93.25000000000279
 20
6.370173893335826
 30
0.0
 42
-0.4142135623022076
  0
VERTEX
  5
CA
  8
THRUCUT
 10
93.38000000000278
 20
6.500173893335709
 30
0.0
  0
VERTEX
  5
CB
  8
THRUCUT
 10
94.62000000000288
 20
6.500173893335712
 30
0.0
 42
-0.414213562372271
  0
VERTEX
  5
CC
  8
THRUCUT
 10
95.1200000000029
 20
6.000173893335712
 30
0.0
  0
VERTEX
  5
CD
  8
THRUCUT
 10
95.1200000000029
 20
4.000173893335281
 30
0.0
 42
-0.4142135623679323
  0
VERTEX
  5
CE
  8
THRUCUT
 10
94.62000000000288
 20
3.500173893335282
 30
0.0
  0
VERTEX
  5
CF
  8
THRUCUT
 10
93.38000000000278
 20
3.500173893335285
 30
0.0
 42
-0.4142135622912967
  0
VERTEX
  5
D0
  8
THRUCUT
 10
93.25000000000279
 20
3.630173893335168
 30
0.0
  0
VERTEX
  5
D1
  8
THRUCUT
 10
93.25000000000261
 20
3.816326130226724
 30
0.0
 42
1.0
  0
VERTEX
  5
D2
  8
THRUCUT
 10
93.06615223689414
 20
4.0001738933352
 30
0.0
  0
VERTEX
  5
D3
  8
THRUCUT
 10
92.9338477631112
 20
4.0001738933352
 30
0.0
 42
1.0
  0
VERTEX
  5
D4
  8
THRUCUT
 10
92.75000000000261
 20
3.816326130226724
 30
0.0
  0
VERTEX
  5
D5
  8
THRUCUT
 10
92.75000000000094
 20
3.630173893334026
 30
0.0
 42
-0.4142135623565731
  0
VERTEX
  5
D6
  8
THRUCUT
 10
92.62000000000094
 20
3.500173893335183
 30
0.0
  0
VERTEX
  5
D7
  8
THRUCUT
 10
70.87249999999955
 20
3.500173893334759
 30
0.0
 42
-0.4142135623736935
  0
VERTEX
  5
D8
  8
THRUCUT
 10
70.74249999999967
 20
3.630173893334726
 30
0.0
  0
VERTEX
  5
D9
  8
THRUCUT
 10
70.74249999999967
 20
3.816326130226199
 30
0.0
 42
1.0
  0
VERTEX
  5
DA
  8
THRUCUT
 10
70.55865223689108
 20
4.000173893334674
 30
0.0
  0
VERTEX
  5
DB
  8
THRUCUT
 10
70.42634776310803
 20
4.000173893334674
 30
0.0
 42
1.0
  0
VERTEX
  5
DC
  8
THRUCUT
 10
70.24249999999967
 20
3.816326130226199
 30
0.0
  0
VERTEX
  5
DD
  8
THRUCUT
 10
70.24249999999967
 20
3.630173893334726
 30
0.0
 42
-0.4142135623747849
  0
VERTEX
  5
DE
  8
THRUCUT
 10
70.11249999999956
 20
3.500173893334759
 30
0.0
  0
VERTEX
  5
DF
  8
THRUCUT
 10
48.37999999999964
 20
3.500173893335214
 30
0.0
 42
-0.4142135623736935
  0
VERTEX
  5
E0
  8
THRUCUT
 10
48.24999999999965
 20
3.630173893335181
 30
0.0
  0
VERTEX
  5
E1
  8
THRUCUT
 10
48.24999999999965
 20
3.816326130226711
 30
0.0
 42
1.0
  0
VERTEX
  5
E2
  8
THRUCUT
 10
48.06615223689117
 20
4.000173893335186
 30
0.0
  0
VERTEX
  5
E3
  8
THRUCUT
 10
47.93384776310813
 20
4.000173893335186
 30
0.0
 42
1.0
  0
VERTEX
  5
E4
  8
THRUCUT
 10
47.74999999999965
 20
3.816326130226711
 30
0.0
  0
VERTEX
  5
E5
  8
THRUCUT
 10
47.74999999999965
 20
3.630173893335181
 30
0.0
 42
-0.4142135623747849
  0
VERTEX
  5
E6
  8
THRUCUT
 10
47.61999999999966
 20
3.500173893335214
 30
0.0
  0
VERTEX
  5
E7
  8
THRUCUT
 10
25.88750000000001
 20
3.500173893334762
 30
0.0
 42
-0.4142135623695907
  0
VERTEX
  5
E8
  8
THRUCUT
 10
25.75750000000001
 20
3.630173893334645
 30
0.0
  0
VERTEX
  5
E9
  8
THRUCUT
 10
25.75749999999984
 20
3.816326130226199
 30
0.0
 42
1.0
  0
VERTEX
  5
EA
  8
THRUCUT
 10
25.57365223689137
 20
4.000173893334674
 30
0.0
  0
VERTEX
  5
EB
  8
THRUCUT
 10
25.44134776310843
 20
4.000173893334674
 30
0.0
 42
1.0
  0
VERTEX
  5
EC
  8
THRUCUT
 10
25.25749999999984
 20
3.816326130226199
 30
0.0
  0
VERTEX
  5
ED
  8
THRUCUT
 10
25.25749999999812
 20
3.630173893333532
 30
0.0
 42
-0.4142135623659175
  0
VERTEX
  5
EE
  8
THRUCUT
 10
25.12749999999812
 20
3.500173893334733
 30
0.0
  0
VERTEX
  5
EF
  8
THRUCUT
 10
3.380000000000187
 20
3.500173893334985
 30
0.0
 42
-0.4142135623726492
  0
VERTEX
  5
F0
  8
THRUCUT
 10
3.250000000000189
 20
3.630173893334868
 30
0.0
  0
VERTEX
  5
F1
  8
THRUCUT
 10
3.250000000000021
 20
3.816326130226199
 30
0.0
 42
1.0
  0
VERTEX
  5
F2
  8
THRUCUT
 10
3.066152236891547
 20
4.000173893334674
 30
0.0
  0
VERTEX
  5
F3
  8
THRUCUT
 10
2.933847763108609
 20
4.000173893334674
 30
0.0
 42
1.0
  0
VERTEX
  5
F4
  8
THRUCUT
 10
2.750000000000021
 20
3.816326130226199
 30
0.0
  0
VERTEX
  5
F5
  8
THRUCUT
 10
2.749999999998302
 20
3.63017389333353
 30
0.0
 42
-0.4142135623704618
  0
VERTEX
  5
F6
  8
THRUCUT
 10
2.619999999998302
 20
3.500173893334731
 30
0.0
  0
VERTEX
  5
F7
  8
THRUCUT
 10
1.379999999997101
 20
3.500173893334731
 30
0.0
 42
-0.414213562373096
  0
VERTEX
  5
F8
  8
THRUCUT
 10
0.8799999999971009
 20
4.000173893334731
 30
0.0
  0
VERTEX
  5
F9
  8
THRUCUT
 10
0.8799999999971009
 20
6.00017389333466
 30
0.0
 42
-0.4142135623730968
  0
VERTEX
  5
FA
  8
THRUCUT
 10
1.379999999997112
 20
6.50017389333466
 30
0.0
  0
VERTEX
  5
FB
  8
THRUCUT
 10
2.619999999998302
 20
6.500173893334657
 30
0.0
 42
-0.414213562370103
  0
VERTEX
  5
FC
  8
THRUCUT
 10
2.749999999998302
 20
6.370173893335858
 30
0.0
  0
VERTEX
  5
FD
  8
THRUCUT
 10
2.750000000000021
 20
6.184021656443202
 30
0.0
 42
1.0
  0
VERTEX
  5
FE
  8
THRUCUT
 10
2.933847763108609
 20
6.000173893334671
 30
0.0
  0
VERTEX
  5
FF
  8
THRUCUT
 10
3.066152236891547
 20
6.000173893334671
 30
0.0
 42
1.0
  0
VERTEX
  5
100
  8
THRUCUT
 10
3.250000000000021
 20
6.184021656443202
 30
0.0
  0
VERTEX
  5
101
  8
THRUCUT
 10
3.250000000000189
 20
6.370173893335297
 30
0.0
 42
-0.4142135623729941
  0
VERTEX
  5
102
  8
THRUCUT
 10
3.380000000000192
 20
6.50017389333518
 30
0.0
  0
VERTEX
  5
103
  8
THRUCUT
 10
25.12749999999813
 20
6.50017389333466
 30
0.0
 42
-0.41421356237052
  0
VERTEX
  5
104
  8
THRUCUT
 10
25.25749999999812
 20
6.370173893335861
 30
0.0
  0
VERTEX
  5
105
  8
THRUCUT
 10
25.25749999999984
 20
6.184021656443202
 30
0.0
 42
1.0
  0
VERTEX
  5
106
  8
THRUCUT
 10
25.44134776310843
 20
6.000173893334671
 30
0.0
  0
VERTEX
  5
107
  8
THRUCUT
 10
25.57365223689137
 20
6.000173893334671
 30
0.0
 42
1.0
  0
VERTEX
  5
108
  8
THRUCUT
 10
25.75749999999984
 20
6.184021656443202
 30
0.0
  0
VERTEX
  5
109
  8
THRUCUT
 10
25.75750000000001
 20
6.370173893335195
 30
0.0
 42
-0.4142135623722393
  0
VERTEX
  5
10A
  8
THRUCUT
 10
25.88750000000011
 20
6.500173893335077
 30
0.0
  0
VERTEX
  5
10B
  8
THRUCUT
 10
47.61999999999966
 20
6.500173893335183
 30
0.0
 42
-0.4142135623736434
  0
VERTEX
  5
10C
  8
THRUCUT
 10
47.74999999999965
 20
6.370173893335187
 30
0.0
  0
VERTEX
  5
10D
  8
THRUCUT
 10
47.74999999999965
 20
6.184021656443657
 30
0.0
 42
1.0
  0
VERTEX
  5
10E
  8
THRUCUT
 10
47.93384776310813
 20
6.000173893335183
 30
0.0
  0
VERTEX
  5
10F
  8
THRUCUT
 10
48.06615223689117
 20
6.000173893335183
 30
0.0
 42
1.0
  0
VERTEX
  5
110
  8
THRUCUT
 10
48.24999999999965
 20
6.184021656443657
 30
0.0
  0
VERTEX
  5
111
  8
THRUCUT
 10
48.24999999999965
 20
6.370173893335187
 30
0.0
 42
-0.4142135623732267
  0
VERTEX
  5
112
  8
THRUCUT
 10
48.37999999999964
 20
6.500173893335183
 30
0.0
  0
SEQEND
  5
2FF
  8
THRUCUT
  0
POLYLINE
  5
71
  8
THRUCUT
 66
     1
 10
0.0
 20
0.0
 30
0.0
 70
     1
  0
VERTEX
  5
113
  8
THRUCUT
 10
59.06157303370787
 20
47.04236291716019
 30
0.0
  0
VERTEX
  5
114
  8
THRUCUT
 10
48.25002560854335
 20
47.04236291716022
 30
0.0
  0
VERTEX
  5
115
  8
THRUCUT
 10
48.25002560854329
 20
45.80236291716021
 30
0.0
 42
-1.0
  0
VERTEX
  5
116
  8
THRUCUT
 10
48.25002560854329
 20
45.54236291716022
 30
0.0
  0
VERTEX
  5
117
  8
THRUCUT
 10
47.75002560854329
 20
45.54236291716022
 30
0.0
 42
-1.0
  0
VERTEX
  5
118
  8
THRUCUT
 10
47.75002560854329
 20
45.80236291716021
 30
0.0
  0
VERTEX
  5
119
  8
THRUCUT
 10
47.75002560854323
 20
47.04236291716022
 30
0.0
  0
VERTEX
  5
11A
  8
THRUCUT
 10
25.75752560854391
 20
47.04236291716016
 30
0.0
  0
VERTEX
  5
11B
  8
THRUCUT
 10
25.75752560854391
 20
45.80236291716015
 30
0.0
 42
-1.0
  0
VERTEX
  5
11C
  8
THRUCUT
 10
25.75752560854391
 20
45.54236291716016
 30
0.0
  0
VERTEX
  5
11D
  8
THRUCUT
 10
25.25752560854391
 20
45.54236291716016
 30
0.0
 42
-1.0
  0
VERTEX
  5
11E
  8
THRUCUT
 10
25.25752560854391
 20
45.80236291716015
 30
0.0
  0
VERTEX
  5
11F
  8
THRUCUT
 10
25.25752560854391
 20
47.04236291716016
 30
0.0
  0
VERTEX
  5
120
  8
THRUCUT
 10
3.250000000000107
 20
47.04236291716016
 30
0.0
  0
VERTEX
  5
121
  8
THRUCUT
 10
2.880015783008268
 20
47.0423686813708
 30
0.0
 42
0.4142200173852707
  0
VERTEX
  5
122
  8
THRUCUT
 10
2.7500137576614
 20
46.91236784171524
 30
0.0
  0
VERTEX
  5
123
  8
THRUCUT
 10
2.750024996276231
 20
45.18737765670033
 30
0.0
 42
0.4142116705503768
  0
VERTEX
  5
124
  8
THRUCUT
 10
2.880024996273498
 20
45.05737849637171
 30
0.0
  0
VERTEX
  5
125
  8
THRUCUT
 10
3.250025835942601
 20
45.05737849637148
 30
0.0
 42
-1.0
  0
VERTEX
  5
126
  8
THRUCUT
 10
3.250025608544426
 20
44.79737849637161
 30
0.0
  0
VERTEX
  5
127
  8
THRUCUT
 10
3.250023228249153
 20
41.47987654893191
 30
0.0
  0
VERTEX
  5
128
  8
THRUCUT
 10
3.850021738785579
 20
41.47987654900993
 30
0.0
  0
VERTEX
  5
129
  8
THRUCUT
 10
3.850021716130293
 20
42.16603395969916
 30
0.0
 42
-1.0
  0
VERTEX
  5
12A
  8
THRUCUT
 10
4.033871767608268
 20
42.34988172886362
 30
0.0
  0
VERTEX
  5
12B
  8
THRUCUT
 10
4.166176216063711
 20
42.34988008205839
 30
0.0
 42
-1.0
  0
VERTEX
  5
12C
  8
THRUCUT
 10
4.350021690802684
 20
42.16603231896151
 30
0.0
  0
VERTEX
  5
12D
  8
THRUCUT
 10
4.35002169079268
 20
41.47987654900993
 30
0.0
  0
VERTEX
  5
12E
  8
THRUCUT
 10
4.850021716935423
 20
41.47987654900993
 30
0.0
  0
VERTEX
  5
12F
  8
THRUCUT
 10
4.850021716935423
 20
41.21987654900994
 30
0.0
  0
VERTEX
  5
130
  8
THRUCUT
 10
4.35002169079268
 20
41.21987654900994
 30
0.0
  0
VERTEX
  5
131
  8
THRUCUT
 10
4.350021690791998
 20
40.53372431211726
 30
0.0
 42
-1.0
  0
VERTEX
  5
132
  8
THRUCUT
 10
4.166173927682273
 20
40.3498765490089
 30
0.0
  0
VERTEX
  5
133
  8
THRUCUT
 10
4.033869533132808
 20
40.34987654900981
 30
0.0
 42
-1.0
  0
VERTEX
  5
134
  8
THRUCUT
 10
3.850021770025812
 20
40.5337243060481
 30
0.0
  0
VERTEX
  5
135
  8
THRUCUT
 10
3.850021747370526
 20
41.21987654900994
 30
0.0
  0
VERTEX
  5
136
  8
THRUCUT
 10
3.250021984650128
 20
41.21987654900992
 30
0.0
  0
VERTEX
  5
137
  8
THRUCUT
 10
3.250019604354854
 20
37.90237460156979
 30
0.0
 42
-1.0
  0
VERTEX
  5
138
  8
THRUCUT
 10
3.250019376956736
 20
37.64237460156991
 30
0.0
  0
VERTEX
  5
139
  8
THRUCUT
 10
2.880019376956675
 20
37.64237460156917
 30
0.0
 42
0.4142135623883668
  0
VERTEX
  5
13A
  8
THRUCUT
 10
2.750019376956907
 20
37.51237460156918
 30
0.0
  0
VERTEX
  5
13B
  8
THRUCUT
 10
2.750019376956679
 20
35.80237460156906
 30
0.0
 42
0.4142135623194727
  0
VERTEX
  5
13C
  8
THRUCUT
 10
2.880019376956788
 20
35.67237460156906
 30
0.0
  0
VERTEX
  5
13D
  8
THRUCUT
 10
3.250019376956736
 20
35.67237460156929
 30
0.0
 42
-1.0
  0
VERTEX
  5
13E
  8
THRUCUT
 10
3.250019149558561
 20
35.41237460156941
 30
0.0
  0
VERTEX
  5
13F
  8
THRUCUT
 10
3.2500161605983
 20
31.97989007790103
 30
0.0
  0
VERTEX
  5
140
  8
THRUCUT
 10
3.25001314536933
 20
28.51737070676596
 30
0.0
 42
-1.0
  0
VERTEX
  5
141
  8
THRUCUT
 10
3.250012917971155
 20
28.25737070676603
 30
0.0
  0
VERTEX
  5
142
  8
THRUCUT
 10
2.880012917971378
 20
28.25737070676609
 30
0.0
 42
0.4142135623900057
  0
VERTEX
  5
143
  8
THRUCUT
 10
2.750012917971326
 20
28.12737070676609
 30
0.0
  0
VERTEX
  5
144
  8
THRUCUT
 10
2.750012917971041
 20
26.41737070676574
 30
0.0
 42
0.4142135623722412
  0
VERTEX
  5
145
  8
THRUCUT
 10
2.880012917970923
 20
26.28737070676575
 30
0.0
  0
VERTEX
  5
146
  8
THRUCUT
 10
3.250012917971212
 20
26.2873707067654
 30
0.0
 42
-1.0
  0
VERTEX
  5
147
  8
THRUCUT
 10
3.250012690573151
 20
26.02737070676553
 30
0.0
  0
VERTEX
  5
148
  8
THRUCUT
 10
3.250010310279299
 20
22.70986875932521
 30
0.0
  0
VERTEX
  5
149
  8
THRUCUT
 10
3.85000882081575
 20
22.70986875940321
 30
0.0
  0
VERTEX
  5
14A
  8
THRUCUT
 10
3.850008798160465
 20
23.39602617009246
 30
0.0
 42
-1.0
  0
VERTEX
  5
14B
  8
THRUCUT
 10
4.03385884963844
 20
23.57987393925692
 30
0.0
  0
VERTEX
  5
14C
  8
THRUCUT
 10
4.166163298093883
 20
23.57987229245169
 30
0.0
 42
-1.0
  0
VERTEX
  5
14D
  8
THRUCUT
 10
4.350008772832856
 20
23.39602452935481
 30
0.0
  0
VERTEX
  5
14E
  8
THRUCUT
 10
4.350008772822852
 20
22.70986875940321
 30
0.0
  0
VERTEX
  5
14F
  8
THRUCUT
 10
4.850008798965595
 20
22.70986875940321
 30
0.0
  0
VERTEX
  5
150
  8
THRUCUT
 10
4.850008798965595
 20
22.44986875940322
 30
0.0
  0
VERTEX
  5
151
  8
THRUCUT
 10
4.350008772822852
 20
22.44986875940322
 30
0.0
  0
VERTEX
  5
152
  8
THRUCUT
 10
4.35000877282217
 20
21.76371652251055
 30
0.0
 42
-1.0
  0
VERTEX
  5
153
  8
THRUCUT
 10
4.166161009712445
 20
21.57986875940219
 30
0.0
  0
VERTEX
  5
154
  8
THRUCUT
 10
4.03385661516298
 20
21.5798687594031
 30
0.0
 42
-1.0
  0
VERTEX
  5
155
  8
THRUCUT
 10
3.850008852055984
 20
21.76371651644138
 30
0.0
  0
VERTEX
  5
156
  8
THRUCUT
 10
3.850008829400698
 20
22.44986875940322
 30
0.0
  0
VERTEX
  5
157
  8
THRUCUT
 10
3.250009066680329
 20
22.44986875940321
 30
0.0
  0
VERTEX
  5
158
  8
THRUCUT
 10
3.250006686386477
 20
19.13236681196246
 30
0.0
 42
-1.0
  0
VERTEX
  5
159
  8
THRUCUT
 10
3.250006458988416
 20
18.87236681196258
 30
0.0
  0
VERTEX
  5
15A
  8
THRUCUT
 10
2.880006458988298
 20
18.87236681196258
 30
0.0
 42
0.4142135623707276
  0
VERTEX
  5
15B
  8
THRUCUT
 10
2.750006458988303
 20
18.74236681196259
 30
0.0
  0
VERTEX
  5
15C
  8
THRUCUT
 10
2.75000645898847
 20
17.03236681195613
 30
0.0
 42
0.4142135623617728
  0
VERTEX
  5
15D
  8
THRUCUT
 10
2.880006458988582
 20
16.90236681196225
 30
0.0
  0
VERTEX
  5
15E
  8
THRUCUT
 10
3.250006458988416
 20
16.90236681196259
 30
0.0
 42
-1.0
  0
VERTEX
  5
15F
  8
THRUCUT
 10
3.250006231590184
 20
16.64236681196268
 30
0.0
  0
VERTEX
  5
160
  8
THRUCUT
 10
3.250000536821624
 20
9.997362901370181
 30
0.0
 42
-1.0
  0
VERTEX
  5
161
  8
THRUCUT
 10
3.250000000000107
 20
9.737362917160157
 30
0.0
  0
VERTEX
  5
162
  8
THRUCUT
 10
2.880000000000102
 20
9.737362917160157
 30
0.0
 42
0.4142135624166349
  0
VERTEX
  5
163
  8
THRUCUT
 10
2.750000000000107
 20
9.607362917160163
 30
0.0
  0
VERTEX
  5
164
  8
THRUCUT
 10
2.750000000000107
 20
7.647362917160207
 30
0.0
 42
0.414213562355516
  0
VERTEX
  5
165
  8
THRUCUT
 10
2.880000000000102
 20
7.517362917160212
 30
0.0
  0
VERTEX
  5
166
  8
THRUCUT
 10
25.12752560854391
 20
7.517362917160155
 30
0.0
 42
0.4142135623743218
  0
VERTEX
  5
167
  8
THRUCUT
 10
25.25752560854391
 20
7.647362917160157
 30
0.0
  0
VERTEX
  5
168
  8
THRUCUT
 10
25.25752560854391
 20
8.757362917160165
 30
0.0
 42
-1.0
  0
VERTEX
  5
169
  8
THRUCUT
 10
25.25752560854391
 20
9.017362917160156
 30
0.0
  0
VERTEX
  5
16A
  8
THRUCUT
 10
25.75752560854391
 20
9.017362917160156
 30
0.0
 42
-1.0
  0
VERTEX
  5
16B
  8
THRUCUT
 10
25.75752560854391
 20
8.757362917160165
 30
0.0
  0
VERTEX
  5
16C
  8
THRUCUT
 10
25.75752560854391
 20
7.647362917160153
 30
0.0
 42
0.4142135623725299
  0
VERTEX
  5
16D
  8
THRUCUT
 10
25.8875256085439
 20
7.517362917160155
 30
0.0
  0
VERTEX
  5
16E
  8
THRUCUT
 10
47.62002560854323
 20
7.517362917160184
 30
0.0
 42
0.4142135623723871
  0
VERTEX
  5
16F
  8
THRUCUT
 10
47.75002560854324
 20
7.647362917160178
 30
0.0
  0
VERTEX
  5
170
  8
THRUCUT
 10
47.75002560854329
 20
8.757362917160165
 30
0.0
 42
-1.0
  0
VERTEX
  5
171
  8
THRUCUT
 10
47.75002560854329
 20
9.017362917160185
 30
0.0
  0
VERTEX
  5
172
  8
THRUCUT
 10
48.25002560854329
 20
9.017362917160185
 30
0.0
 42
-1.0
  0
VERTEX
  5
173
  8
THRUCUT
 10
48.25002560854329
 20
8.757362917160194
 30
0.0
  0
VERTEX
  5
174
  8
THRUCUT
 10
48.25002560854335
 20
7.647362917160178
 30
0.0
 42
0.4142135623572061
  0
VERTEX
  5
175
  8
THRUCUT
 10
48.38002560854334
 20
7.517362917160184
 30
0.0
  0
VERTEX
  5
176
  8
THRUCUT
 10
70.1125256085432
 20
7.517362917160184
 30
0.0
 42
0.4142135623586948
  0
VERTEX
  5
177
  8
THRUCUT
 10
70.24252560854319
 20
7.647362917160171
 30
0.0
  0
VERTEX
  5
178
  8
THRUCUT
 10
70.2425256085433
 20
8.757362917160194
 30
0.0
 42
-1.0
  0
VERTEX
  5
179
  8
THRUCUT
 10
70.2425256085433
 20
9.017362917160213
 30
0.0
  0
VERTEX
  5
17A
  8
THRUCUT
 10
70.7425256085433
 20
9.017362917160213
 30
0.0
 42
-1.0
  0
VERTEX
  5
17B
  8
THRUCUT
 10
70.7425256085433
 20
8.757362917160194
 30
0.0
  0
VERTEX
  5
17C
  8
THRUCUT
 10
70.7425256085433
 20
7.647362917160184
 30
0.0
 42
0.4142135623647332
  0
VERTEX
  5
17D
  8
THRUCUT
 10
70.8725256085433
 20
7.517362917160184
 30
0.0
  0
VERTEX
  5
17E
  8
THRUCUT
 10
92.74999999999983
 20
7.517362917160184
 30
0.0
  0
VERTEX
  5
17F
  8
THRUCUT
 10
93.11999999999983
 20
7.517362917160212
 30
0.0
 42
0.414213562355516
  0
VERTEX
  5
180
  8
THRUCUT
 10
93.24999999999983
 20
7.647362916926717
 30
0.0
  0
VERTEX
  5
181
  8
THRUCUT
 10
93.24999999999983
 20
9.607362917160192
 30
0.0
 42
0.4142135624166349
  0
VERTEX
  5
182
  8
THRUCUT
 10
93.11999999999983
 20
9.737362917160185
 30
0.0
  0
VERTEX
  5
183
  8
THRUCUT
 10
92.74999999999983
 20
9.737362917160185
 30
0.0
 42
-1.0
  0
VERTEX
  5
184
  8
THRUCUT
 10
92.74999956879344
 20
9.997362906970311
 30
0.0
  0
VERTEX
  5
185
  8
THRUCUT
 10
92.7499967049475
 20
13.27822648549603
 30
0.0
  0
VERTEX
  5
186
  8
THRUCUT
 10
92.74999376840981
 20
16.64236681196271
 30
0.0
 42
-1.0
  0
VERTEX
  5
187
  8
THRUCUT
 10
92.74999354101158
 20
16.90236681196259
 30
0.0
  0
VERTEX
  5
188
  8
THRUCUT
 10
93.11999354101135
 20
16.90236681196228
 30
0.0
 42
0.4142135623617728
  0
VERTEX
  5
189
  8
THRUCUT
 10
93.24999354101146
 20
17.03236681196224
 30
0.0
  0
VERTEX
  5
18A
  8
THRUCUT
 10
93.24999354101163
 20
18.74236681196259
 30
0.0
 42
0.4142135623707276
  0
VERTEX
  5
18B
  8
THRUCUT
 10
93.11999354101164
 20
18.87236681196258
 30
0.0
  0
VERTEX
  5
18C
  8
THRUCUT
 10
92.74999354101158
 20
18.87236681196258
 30
0.0
 42
-1.0
  0
VERTEX
  5
18D
  8
THRUCUT
 10
92.74999331361352
 20
19.13236681196246
 30
0.0
  0
VERTEX
  5
18E
  8
THRUCUT
 10
92.74998980341971
 20
22.44986875940376
 30
0.0
  0
VERTEX
  5
18F
  8
THRUCUT
 10
92.14999117918424
 20
22.44986875932478
 30
0.0
  0
VERTEX
  5
190
  8
THRUCUT
 10
92.14999120183953
 20
21.76371134863553
 30
0.0
 42
-1.0
  0
VERTEX
  5
191
  8
THRUCUT
 10
91.96614115036155
 20
21.57986357947107
 30
0.0
  0
VERTEX
  5
192
  8
THRUCUT
 10
91.83383670190611
 20
21.5798652262763
 30
0.0
 42
-1.0
  0
VERTEX
  5
193
  8
THRUCUT
 10
91.64999122716713
 20
21.76371298937318
 30
0.0
  0
VERTEX
  5
194
  8
THRUCUT
 10
91.64999122717714
 20
22.44986875932478
 30
0.0
  0
VERTEX
  5
195
  8
THRUCUT
 10
91.1499912010344
 20
22.44986875932478
 30
0.0
  0
VERTEX
  5
196
  8
THRUCUT
 10
91.1499912010344
 20
22.70986875932477
 30
0.0
  0
VERTEX
  5
197
  8
THRUCUT
 10
91.64999122717714
 20
22.70986875932477
 30
0.0
  0
VERTEX
  5
198
  8
THRUCUT
 10
91.64999122717782
 20
23.39602099621743
 30
0.0
 42
-1.0
  0
VERTEX
  5
199
  8
THRUCUT
 10
91.83383899028755
 20
23.57986875932579
 30
0.0
  0
VERTEX
  5
19A
  8
THRUCUT
 10
91.96614338483701
 20
23.57986875932488
 30
0.0
 42
-1.0
  0
VERTEX
  5
19B
  8
THRUCUT
 10
92.14999114794401
 20
23.39602100228661
 30
0.0
  0
VERTEX
  5
19C
  8
THRUCUT
 10
92.1499911705993
 20
22.70986875932477
 30
0.0
  0
VERTEX
  5
19D
  8
THRUCUT
 10
92.74999081962062
 20
22.70986875932422
 30
0.0
  0
VERTEX
  5
19E
  8
THRUCUT
 10
92.74998730942684
 20
26.02737070676553
 30
0.0
 42
-1.0
  0
VERTEX
  5
19F
  8
THRUCUT
 10
92.74998708202878
 20
26.2873707067654
 30
0.0
  0
VERTEX
  5
1A0
  8
THRUCUT
 10
93.11998708202901
 20
26.28737070676575
 30
0.0
 42
0.4142135623722412
  0
VERTEX
  5
1A1
  8
THRUCUT
 10
93.24998708202895
 20
26.41737070676574
 30
0.0
  0
VERTEX
  5
1A2
  8
THRUCUT
 10
93.24998708202867
 20
28.12737070676615
 30
0.0
 42
0.4142135623900057
  0
VERTEX
  5
1A3
  8
THRUCUT
 10
93.11998708202862
 20
28.25737070676609
 30
0.0
  0
VERTEX
  5
1A4
  8
THRUCUT
 10
92.74998708202878
 20
28.25737070676603
 30
0.0
 42
-1.0
  0
VERTEX
  5
1A5
  8
THRUCUT
 10
92.7499868546306
 20
28.51737070676596
 30
0.0
  0
VERTEX
  5
1A6
  8
THRUCUT
 10
92.74998381682926
 20
32.0058770463284
 30
0.0
  0
VERTEX
  5
1A7
  8
THRUCUT
 10
92.74998085044143
 20
35.41237460156941
 30
0.0
 42
-1.0
  0
VERTEX
  5
1A8
  8
THRUCUT
 10
92.74998062304326
 20
35.67237460156929
 30
0.0
  0
VERTEX
  5
1A9
  8
THRUCUT
 10
93.1199806230432
 20
35.67237460156906
 30
0.0
 42
0.4142135623194727
  0
VERTEX
  5
1AA
  8
THRUCUT
 10
93.24998062304326
 20
35.80237460156906
 30
0.0
  0
VERTEX
  5
1AB
  8
THRUCUT
 10
93.24998062304309
 20
37.51237460156923
 30
0.0
 42
0.4142135623883668
  0
VERTEX
  5
1AC
  8
THRUCUT
 10
93.11998062304332
 20
37.64237460156917
 30
0.0
  0
VERTEX
  5
1AD
  8
THRUCUT
 10
92.74998062304326
 20
37.64237460156991
 30
0.0
 42
-1.0
  0
VERTEX
  5
1AE
  8
THRUCUT
 10
92.74998039564508
 20
37.90237460156979
 30
0.0
  0
VERTEX
  5
1AF
  8
THRUCUT
 10
92.74997688544985
 20
41.21987654901048
 30
0.0
  0
VERTEX
  5
1B0
  8
THRUCUT
 10
92.14997826121436
 20
41.21987654893148
 30
0.0
  0
VERTEX
  5
1B1
  8
THRUCUT
 10
92.14997828386964
 20
40.53371913824223
 30
0.0
 42
-1.0
  0
VERTEX
  5
1B2
  8
THRUCUT
 10
91.96612823239167
 20
40.34987136907779
 30
0.0
  0
VERTEX
  5
1B3
  8
THRUCUT
 10
91.83382378393623
 20
40.34987301588302
 30
0.0
 42
-1.0
  0
VERTEX
  5
1B4
  8
THRUCUT
 10
91.64997830919725
 20
40.53372077897988
 30
0.0
  0
VERTEX
  5
1B5
  8
THRUCUT
 10
91.64997830920726
 20
41.21987654893148
 30
0.0
  0
VERTEX
  5
1B6
  8
THRUCUT
 10
91.14997828306451
 20
41.21987654893148
 30
0.0
  0
VERTEX
  5
1B7
  8
THRUCUT
 10
91.14997828306451
 20
41.47987654893147
 30
0.0
  0
VERTEX
  5
1B8
  8
THRUCUT
 10
91.64997830920726
 20
41.47987654893147
 30
0.0
  0
VERTEX
  5
1B9
  8
THRUCUT
 10
91.64997830920794
 20
42.16602878582414
 30
0.0
 42
-1.0
  0
VERTEX
  5
1BA
  8
THRUCUT
 10
91.83382607231766
 20
42.3498765489325
 30
0.0
  0
VERTEX
  5
1BB
  8
THRUCUT
 10
91.96613046686713
 20
42.34987654893159
 30
0.0
 42
-1.0
  0
VERTEX
  5
1BC
  8
THRUCUT
 10
92.14997822997412
 20
42.16602879189331
 30
0.0
  0
VERTEX
  5
1BD
  8
THRUCUT
 10
92.14997825262941
 20
41.47987654893147
 30
0.0
  0
VERTEX
  5
1BE
  8
THRUCUT
 10
92.74997790165071
 20
41.47987654893093
 30
0.0
  0
VERTEX
  5
1BF
  8
THRUCUT
 10
92.74997439145551
 20
44.79737849637161
 30
0.0
 42
-1.0
  0
VERTEX
  5
1C0
  8
THRUCUT
 10
92.74997416405733
 20
45.05737849637148
 30
0.0
  0
VERTEX
  5
1C1
  8
THRUCUT
 10
93.1199750037265
 20
45.05737849637171
 30
0.0
 42
0.4142116705503768
  0
VERTEX
  5
1C2
  8
THRUCUT
 10
93.2499750037237
 20
45.18737765670033
 30
0.0
  0
VERTEX
  5
1C3
  8
THRUCUT
 10
93.2499862423386
 20
46.91236784171524
 30
0.0
 42
0.4142200173852707
  0
VERTEX
  5
1C4
  8
THRUCUT
 10
93.11998421699167
 20
47.04236868137086
 30
0.0
  0
VERTEX
  5
1C5
  8
THRUCUT
 10
92.74999999999983
 20
47.04236291716022
 30
0.0
  0
VERTEX
  5
1C6
  8
THRUCUT
 10
70.7425256085433
 20
47.04236291716016
 30
0.0
  0
VERTEX
  5
1C7
  8
THRUCUT
 10
70.7425256085433
 20
45.80236291716021
 30
0.0
 42
-1.0
  0
VERTEX
  5
1C8
  8
THRUCUT
 10
70.7425256085433
 20
45.54236291716016
 30
0.0
  0
VERTEX
  5
1C9
  8
THRUCUT
 10
70.2425256085433
 20
45.54236291716016
 30
0.0
 42
-1.0
  0
VERTEX
  5
1CA
  8
THRUCUT
 10
70.2425256085433
 20
45.80236291716021
 30
0.0
  0
VERTEX
  5
1CB
  8
THRUCUT
 10
70.24252560854313
 20
47.04236291716016
 30
0.0
  0
SEQEND
  5
300
  8
THRUCUT
  0
POLYLINE
  5
72
  8
THRUCUT
 66
     1
 10
0.0
 20
0.0
 30
0.0
 70
     1
  0
VERTEX
  5
1CC
  8
THRUCUT
 10
10.49999999969287
 20
9.75236291715942
 30
0.0
  0
VERTEX
  5
1CD
  8
THRUCUT
 10
10.49999999969287
 20
9.002362917160099
 30
0.0
 42
1.0
  0
VERTEX
  5
1CE
  8
THRUCUT
 10
10.75999999969286
 20
9.002362917160099
 30
0.0
  0
VERTEX
  5
1CF
  8
THRUCUT
 10
13.23999999969248
 20
9.002362917160099
 30
0.0
 42
1.0
  0
VERTEX
  5
1D0
  8
THRUCUT
 10
13.49999999969247
 20
9.002362917160099
 30
0.0
  0
VERTEX
  5
1D1
  8
THRUCUT
 10
13.49999999969247
 20
9.75236291715942
 30
0.0
 42
1.0
  0
VERTEX
  5
1D2
  8
THRUCUT
 10
13.23999999969248
 20
9.75236291715942
 30
0.0
  0
VERTEX
  5
1D3
  8
THRUCUT
 10
10.75999999969286
 20
9.75236291715942
 30
0.0
 42
1.0
  0
SEQEND
  5
301
  8
THRUCUT
  0
POLYLINE
  5
73
  8
THRUCUT
 66
     1
 10
0.0
 20
0.0
 30
0.0
 70
     1
  0
VERTEX
  5
1D4
  8
THRUCUT
 10
34.49999999969258
 20
9.75236291715942
 30
0.0
  0
VERTEX
  5
1D5
  8
THRUCUT
 10
34.49999999969258
 20
9.002362917160099
 30
0.0
 42
1.0
  0
VERTEX
  5
1D6
  8
THRUCUT
 10
34.75999999969257
 20
9.002362917160099
 30
0.0
  0
VERTEX
  5
1D7
  8
THRUCUT
 10
37.23999999969225
 20
9.002362917160099
 30
0.0
 42
1.0
  0
VERTEX
  5
1D8
  8
THRUCUT
 10
37.49999999969224
 20
9.002362917160099
 30
0.0
  0
VERTEX
  5
1D9
  8
THRUCUT
 10
37.49999999969224
 20
9.75236291715942
 30
0.0
 42
1.0
  0
VERTEX
  5
1DA
  8
THRUCUT
 10
37.23999999969225
 20
9.75236291715942
 30
0.0
  0
VERTEX
  5
1DB
  8
THRUCUT
 10
34.75999999969257
 20
9.75236291715942
 30
0.0
 42
1.0
  0
SEQEND
  5
302
  8
THRUCUT
  0
POLYLINE
  5
74
  8
THRUCUT
 66
     1
 10
0.0
 20
0.0
 30
0.0
 70
     1
  0
VERTEX
  5
1DC
  8
THRUCUT
 10
58.49999999969252
 20
9.75236291715942
 30
0.0
  0
VERTEX
  5
1DD
  8
THRUCUT
 10
58.49999999969252
 20
9.002362917160099
 30
0.0
 42
1.0
  0
VERTEX
  5
1DE
  8
THRUCUT
 10
58.75999999969251
 20
9.002362917160099
 30
0.0
  0
VERTEX
  5
1DF
  8
THRUCUT
 10
61.23999999969219
 20
9.002362917160099
 30
0.0
 42
1.0
  0
VERTEX
  5
1E0
  8
THRUCUT
 10
61.49999999969219
 20
9.002362917160099
 30
0.0
  0
VERTEX
  5
1E1
  8
THRUCUT
 10
61.49999999969219
 20
9.75236291715942
 30
0.0
 42
1.0
  0
VERTEX
  5
1E2
  8
THRUCUT
 10
61.23999999969219
 20
9.75236291715942
 30
0.0
  0
VERTEX
  5
1E3
  8
THRUCUT
 10
58.75999999969251
 20
9.75236291715942
 30
0.0
 42
1.0
  0
SEQEND
  5
303
  8
THRUCUT
  0
POLYLINE
  5
75
  8
THRUCUT
 66
     1
 10
0.0
 20
0.0
 30
0.0
 70
     1
  0
VERTEX
  5
1E4
  8
THRUCUT
 10
82.49999166015687
 20
9.75236291715942
 30
0.0
  0
VERTEX
  5
1E5
  8
THRUCUT
 10
82.49999166015687
 20
9.002362917160099
 30
0.0
 42
1.0
  0
VERTEX
  5
1E6
  8
THRUCUT
 10
82.75999166015691
 20
9.002362917160099
 30
0.0
  0
VERTEX
  5
1E7
  8
THRUCUT
 10
85.23999166015653
 20
9.002362917160099
 30
0.0
 42
1.0
  0
VERTEX
  5
1E8
  8
THRUCUT
 10
85.49999166015652
 20
9.002362917160099
 30
0.0
  0
VERTEX
  5
1E9
  8
THRUCUT
 10
85.49999166015652
 20
9.75236291715942
 30
0.0
 42
1.0
  0
VERTEX
  5
1EA
  8
THRUCUT
 10
85.23999166015653
 20
9.75236291715942
 30
0.0
  0
VERTEX
  5
1EB
  8
THRUCUT
 10
82.75999166015691
 20
9.75236291715942
 30
0.0
 42
1.0
  0
SEQEND
  5
304
  8
THRUCUT
  0
POLYLINE
  5
77
  8
SCREW_LOCATION_MARKERS
 66
     1
 10
0.0
 20
0.0
 30
0.0
 70
     1
  0
VERTEX
  5
1EC
  8
SCREW_LOCATION_MARKERS
 10
2.999999999999993
 20
5.135233192025173
 30
0.0
 42
0.4142135623730951
  0
VERTEX
  5
1ED
  8
SCREW_LOCATION_MARKERS
 10
2.864999999999993
 20
5.000233192025173
 30
0.0
 42
0.4142135623730951
  0
VERTEX
  5
1EE
  8
SCREW_LOCATION_MARKERS
 10
2.999999999999993
 20
4.865233192025173
 30
0.0
 42
0.4142135623730951
  0
VERTEX
  5
1EF
  8
SCREW_LOCATION_MARKERS
 10
3.134999999999993
 20
5.000233192025173
 30
0.0
 42
0.4142135623730951
  0
SEQEND
  5
305
  8
SCREW_LOCATION_MARKERS
  0
POLYLINE
  5
78
  8
SCREW_LOCATION_MARKERS
 66
     1
 10
0.0
 20
0.0
 30
0.0
 70
     1
  0
VERTEX
  5
1F0
  8
SCREW_LOCATION_MARKERS
 10
25.50749999999999
 20
5.135233192025172
 30
0.0
 42
0.4142135623730951
  0
VERTEX
  5
1F1
  8
SCREW_LOCATION_MARKERS
 10
25.37249999999999
 20
5.000233192025173
 30
0.0
 42
0.4142135623730951
  0
VERTEX
  5
1F2
  8
SCREW_LOCATION_MARKERS
 10
25.50749999999999
 20
4.865233192025175
 30
0.0
 42
0.4142135623730951
  0
VERTEX
  5
1F3
  8
SCREW_LOCATION_MARKERS
 10
25.64249999999999
 20
5.000233192025173
 30
0.0
 42
0.4142135623730951
  0
SEQEND
  5
306
  8
SCREW_LOCATION_MARKERS
  0
POLYLINE
  5
79
  8
SCREW_LOCATION_MARKERS
 66
     1
 10
0.0
 20
0.0
 30
0.0
 70
     1
  0
VERTEX
  5
1F4
  8
SCREW_LOCATION_MARKERS
 10
47.9988
 20
5.135133192025172
 30
0.0
 42
0.4142135623730951
  0
VERTEX
  5
1F5
  8
SCREW_LOCATION_MARKERS
 10
47.86379999999999
 20
5.000133192025173
 30
0.0
 42
0.4142135623730951
  0
VERTEX
  5
1F6
  8
SCREW_LOCATION_MARKERS
 10
47.9988
 20
4.865133192025175
 30
0.0
 42
0.4142135623730951
  0
VERTEX
  5
1F7
  8
SCREW_LOCATION_MARKERS
 10
48.13379999999999
 20
5.000133192025173
 30
0.0
 42
0.4142135623730951
  0
SEQEND
  5
307
  8
SCREW_LOCATION_MARKERS
  0
POLYLINE
  5
7A
  8
SCREW_LOCATION_MARKERS
 66
     1
 10
0.0
 20
0.0
 30
0.0
 70
     1
  0
VERTEX
  5
1F8
  8
SCREW_LOCATION_MARKERS
 10
70.4925
 20
5.135233192025172
 30
0.0
 42
0.4142135623730951
  0
VERTEX
  5
1F9
  8
SCREW_LOCATION_MARKERS
 10
70.35750000000002
 20
5.000233192025173
 30
0.0
 42
0.4142135623730951
  0
VERTEX
  5
1FA
  8
SCREW_LOCATION_MARKERS
 10
70.4925
 20
4.865233192025175
 30
0.0
 42
0.4142135623730951
  0
VERTEX
  5
1FB
  8
SCREW_LOCATION_MARKERS
 10
70.6275
 20
5.000233192025173
 30
0.0
 42
0.4142135623730951
  0
SEQEND
  5
308
  8
SCREW_LOCATION_MARKERS
  0
POLYLINE
  5
7B
  8
SCREW_LOCATION_MARKERS
 66
     1
 10
0.0
 20
0.0
 30
0.0
 70
     1
  0
VERTEX
  5
1FC
  8
SCREW_LOCATION_MARKERS
 10
93.0
 20
5.135233192025172
 30
0.0
 42
0.4142135623730951
  0
VERTEX
  5
1FD
  8
SCREW_LOCATION_MARKERS
 10
92.86499999999998
 20
5.000233192025173
 30
0.0
 42
0.4142135623730951
  0
VERTEX
  5
1FE
  8
SCREW_LOCATION_MARKERS
 10
93.0
 20
4.865233192025175
 30
0.0
 42
0.4142135623730951
  0
VERTEX
  5
1FF
  8
SCREW_LOCATION_MARKERS
 10
93.13499999999999
 20
5.000233192025173
 30
0.0
 42
0.4142135623730951
  0
SEQEND
  5
309
  8
SCREW_LOCATION_MARKERS
  0
POLYLINE
  5
7C
  8
SCREW_LOCATION_MARKERS
 66
     1
 10
0.0
 20
0.0
 30
0.0
 70
     1
  0
VERTEX
  5
200
  8
SCREW_LOCATION_MARKERS
 10
44.0001
 20
9.51232646732522
 30
0.0
 42
0.4142135623730951
  0
VERTEX
  5
201
  8
SCREW_LOCATION_MARKERS
 10
43.86510000000001
 20
9.37732646732522
 30
0.0
 42
0.4142135623730951
  0
VERTEX
  5
202
  8
SCREW_LOCATION_MARKERS
 10
44.0001
 20
9.24232646732522
 30
0.0
 42
0.4142135623730951
  0
VERTEX
  5
203
  8
SCREW_LOCATION_MARKERS
 10
44.13509999999999
 20
9.37732646732522
 30
0.0
 42
0.4142135623730951
  0
SEQEND
  5
30A
  8
SCREW_LOCATION_MARKERS
  0
POLYLINE
  5
7D
  8
SCREW_LOCATION_MARKERS
 66
     1
 10
0.0
 20
0.0
 30
0.0
 70
     1
  0
VERTEX
  5
204
  8
SCREW_LOCATION_MARKERS
 10
52.0001
 20
9.51232646732522
 30
0.0
 42
0.4142135623730951
  0
VERTEX
  5
205
  8
SCREW_LOCATION_MARKERS
 10
51.86510000000001
 20
9.37732646732522
 30
0.0
 42
0.4142135623730951
  0
VERTEX
  5
206
  8
SCREW_LOCATION_MARKERS
 10
52.0001
 20
9.24232646732522
 30
0.0
 42
0.4142135623730951
  0
VERTEX
  5
207
  8
SCREW_LOCATION_MARKERS
 10
52.13509999999999
 20
9.37732646732522
 30
0.0
 42
0.4142135623730951
  0
SEQEND
  5
30B
  8
SCREW_LOCATION_MARKERS
  0
POLYLINE
  5
7E
  8
SCREW_LOCATION_MARKERS
 66
     1
 10
0.0
 20
0.0
 30
0.0
 70
     1
  0
VERTEX
  5
208
  8
SCREW_LOCATION_MARKERS
 10
66.49259999999998
 20
9.51232646732522
 30
0.0
 42
0.4142135623730951
  0
VERTEX
  5
209
  8
SCREW_LOCATION_MARKERS
 10
66.35759999999999
 20
9.37732646732522
 30
0.0
 42
0.4142135623730951
  0
VERTEX
  5
20A
  8
SCREW_LOCATION_MARKERS
 10
66.49259999999998
 20
9.24232646732522
 30
0.0
 42
0.4142135623730951
  0
VERTEX
  5
20B
  8
SCREW_LOCATION_MARKERS
 10
66.6276
 20
9.37732646732522
 30
0.0
 42
0.4142135623730951
  0
SEQEND
  5
30C
  8
SCREW_LOCATION_MARKERS
  0
POLYLINE
  5
7F
  8
SCREW_LOCATION_MARKERS
 66
     1
 10
0.0
 20
0.0
 30
0.0
 70
     1
  0
VERTEX
  5
20C
  8
SCREW_LOCATION_MARKERS
 10
76.49259999999998
 20
9.51232646732522
 30
0.0
 42
0.4142135623730951
  0
VERTEX
  5
20D
  8
SCREW_LOCATION_MARKERS
 10
76.35759999999999
 20
9.37732646732522
 30
0.0
 42
0.4142135623730951
  0
VERTEX
  5
20E
  8
SCREW_LOCATION_MARKERS
 10
76.49259999999998
 20
9.24232646732522
 30
0.0
 42
0.4142135623730951
  0
VERTEX
  5
20F
  8
SCREW_LOCATION_MARKERS
 10
76.6276
 20
9.37732646732522
 30
0.0
 42
0.4142135623730951
  0
SEQEND
  5
30D
  8
SCREW_LOCATION_MARKERS
  0
POLYLINE
  5
80
  8
SCREW_LOCATION_MARKERS
 66
     1
 10
0.0
 20
0.0
 30
0.0
 70
     1
  0
VERTEX
  5
210
  8
SCREW_LOCATION_MARKERS
 10
29.50759999999999
 20
9.51232646732522
 30
0.0
 42
0.4142135623730951
  0
VERTEX
  5
211
  8
SCREW_LOCATION_MARKERS
 10
29.37259999999999
 20
9.37732646732522
 30
0.0
 42
0.4142135623730951
  0
VERTEX
  5
212
  8
SCREW_LOCATION_MARKERS
 10
29.50759999999999
 20
9.24232646732522
 30
0.0
 42
0.4142135623730951
  0
VERTEX
  5
213
  8
SCREW_LOCATION_MARKERS
 10
29.64259999999999
 20
9.37732646732522
 30
0.0
 42
0.4142135623730951
  0
SEQEND
  5
30E
  8
SCREW_LOCATION_MARKERS
  0
POLYLINE
  5
81
  8
SCREW_LOCATION_MARKERS
 66
     1
 10
0.0
 20
0.0
 30
0.0
 70
     1
  0
VERTEX
  5
214
  8
SCREW_LOCATION_MARKERS
 10
25.50752560844525
 20
28.89469029106378
 30
0.0
 42
0.4142135623730951
  0
VERTEX
  5
215
  8
SCREW_LOCATION_MARKERS
 10
25.37752560844526
 20
28.76469029106378
 30
0.0
 42
0.4142135623730951
  0
VERTEX
  5
216
  8
SCREW_LOCATION_MARKERS
 10
25.50752560844525
 20
28.63469029106379
 30
0.0
 42
0.4142135623730951
  0
VERTEX
  5
217
  8
SCREW_LOCATION_MARKERS
 10
25.63752560844525
 20
28.76469029106378
 30
0.0
 42
0.4142135623730951
  0
SEQEND
  5
30F
  8
SCREW_LOCATION_MARKERS
  0
POLYLINE
  5
82
  8
SCREW_LOCATION_MARKERS
 66
     1
 10
0.0
 20
0.0
 30
0.0
 70
     1
  0
VERTEX
  5
218
  8
SCREW_LOCATION_MARKERS
 10
48.00002560844463
 20
28.89469029106383
 30
0.0
 42
0.4142135623730951
  0
VERTEX
  5
219
  8
SCREW_LOCATION_MARKERS
 10
47.87002560844464
 20
28.76469029106384
 30
0.0
 42
0.4142135623730951
  0
VERTEX
  5
21A
  8
SCREW_LOCATION_MARKERS
 10
48.00002560844463
 20
28.63469029106384
 30
0.0
 42
0.4142135623730951
  0
VERTEX
  5
21B
  8
SCREW_LOCATION_MARKERS
 10
48.13002560844469
 20
28.76469029106384
 30
0.0
 42
0.4142135623730951
  0
SEQEND
  5
310
  8
SCREW_LOCATION_MARKERS
  0
POLYLINE
  5
83
  8
SCREW_LOCATION_MARKERS
 66
     1
 10
0.0
 20
0.0
 30
0.0
 70
     1
  0
VERTEX
  5
21C
  8
SCREW_LOCATION_MARKERS
 10
70.49252560844465
 20
28.89469029106383
 30
0.0
 42
0.4142135623730951
  0
VERTEX
  5
21D
  8
SCREW_LOCATION_MARKERS
 10
70.36252560844466
 20
28.76469029106378
 30
0.0
 42
0.4142135623730951
  0
VERTEX
  5
21E
  8
SCREW_LOCATION_MARKERS
 10
70.49252560844465
 20
28.63469029106379
 30
0.0
 42
0.4142135623730951
  0
VERTEX
  5
21F
  8
SCREW_LOCATION_MARKERS
 10
70.62252560844465
 20
28.76469029106378
 30
0.0
 42
0.4142135623730951
  0
SEQEND
  5
311
  8
SCREW_LOCATION_MARKERS
  0
POLYLINE
  5
84
  8
SCREW_LOCATION_MARKERS
 66
     1
 10
0.0
 20
0.0
 30
0.0
 70
     1
  0
VERTEX
  5
220
  8
SCREW_LOCATION_MARKERS
 10
25.50752560867182
 20
42.39470759815899
 30
0.0
 42
0.4142135623730951
  0
VERTEX
  5
221
  8
SCREW_LOCATION_MARKERS
 10
25.37752560867183
 20
42.26470759815899
 30
0.0
 42
0.4142135623730951
  0
VERTEX
  5
222
  8
SCREW_LOCATION_MARKERS
 10
25.50752560867182
 20
42.134707598159
 30
0.0
 42
0.4142135623730951
  0
VERTEX
  5
223
  8
SCREW_LOCATION_MARKERS
 10
25.63752560867182
 20
42.26470759815899
 30
0.0
 42
0.4142135623730951
  0
SEQEND
  5
312
  8
SCREW_LOCATION_MARKERS
  0
POLYLINE
  5
85
  8
SCREW_LOCATION_MARKERS
 66
     1
 10
0.0
 20
0.0
 30
0.0
 70
     1
  0
VERTEX
  5
224
  8
SCREW_LOCATION_MARKERS
 10
48.0000256086712
 20
42.39470759815899
 30
0.0
 42
0.4142135623730951
  0
VERTEX
  5
225
  8
SCREW_LOCATION_MARKERS
 10
47.87002560867121
 20
42.26470759815899
 30
0.0
 42
0.4142135623730951
  0
VERTEX
  5
226
  8
SCREW_LOCATION_MARKERS
 10
48.0000256086712
 20
42.134707598159
 30
0.0
 42
0.4142135623730951
  0
VERTEX
  5
227
  8
SCREW_LOCATION_MARKERS
 10
48.13002560867119
 20
42.26470759815899
 30
0.0
 42
0.4142135623730951
  0
SEQEND
  5
313
  8
SCREW_LOCATION_MARKERS
  0
POLYLINE
  5
86
  8
SCREW_LOCATION_MARKERS
 66
     1
 10
0.0
 20
0.0
 30
0.0
 70
     1
  0
VERTEX
  5
228
  8
SCREW_LOCATION_MARKERS
 10
70.49252560867114
 20
42.39470759815899
 30
0.0
 42
0.4142135623730951
  0
VERTEX
  5
229
  8
SCREW_LOCATION_MARKERS
 10
70.36252560867115
 20
42.26470759815899
 30
0.0
 42
0.4142135623730951
  0
VERTEX
  5
22A
  8
SCREW_LOCATION_MARKERS
 10
70.49252560867114
 20
42.134707598159
 30
0.0
 42
0.4142135623730951
  0
VERTEX
  5
22B
  8
SCREW_LOCATION_MARKERS
 10
70.62252560867114
 20
42.26470759815899
 30
0.0
 42
0.4142135623730951
  0
SEQEND
  5
314
  8
SCREW_LOCATION_MARKERS
  0
POLYLINE
  5
87
  8
SCREW_LOCATION_MARKERS
 66
     1
 10
0.0
 20
0.0
 30
0.0
 70
     1
  0
VERTEX
  5
22C
  8
SCREW_LOCATION_MARKERS
 10
25.50752560854468
 20
12.39469026988972
 30
0.0
 42
0.4142135623730951
  0
VERTEX
  5
22D
  8
SCREW_LOCATION_MARKERS
 10
25.37752560854468
 20
12.26469026988972
 30
0.0
 42
0.4142135623730951
  0
VERTEX
  5
22E
  8
SCREW_LOCATION_MARKERS
 10
25.50752560854468
 20
12.13469026988973
 30
0.0
 42
0.4142135623730951
  0
VERTEX
  5
22F
  8
SCREW_LOCATION_MARKERS
 10
25.63752560854467
 20
12.26469026988972
 30
0.0
 42
0.4142135623730951
  0
SEQEND
  5
315
  8
SCREW_LOCATION_MARKERS
  0
POLYLINE
  5
88
  8
SCREW_LOCATION_MARKERS
 66
     1
 10
0.0
 20
0.0
 30
0.0
 70
     1
  0
VERTEX
  5
230
  8
SCREW_LOCATION_MARKERS
 10
48.00002560854411
 20
12.39469026988977
 30
0.0
 42
0.4142135623730951
  0
VERTEX
  5
231
  8
SCREW_LOCATION_MARKERS
 10
47.87002560854413
 20
12.26469026988975
 30
0.0
 42
0.4142135623730951
  0
VERTEX
  5
232
  8
SCREW_LOCATION_MARKERS
 10
48.00002560854411
 20
12.13469026988976
 30
0.0
 42
0.4142135623730951
  0
VERTEX
  5
233
  8
SCREW_LOCATION_MARKERS
 10
48.13002560854412
 20
12.26469026988975
 30
0.0
 42
0.4142135623730951
  0
SEQEND
  5
316
  8
SCREW_LOCATION_MARKERS
  0
POLYLINE
  5
89
  8
SCREW_LOCATION_MARKERS
 66
     1
 10
0.0
 20
0.0
 30
0.0
 70
     1
  0
VERTEX
  5
234
  8
SCREW_LOCATION_MARKERS
 10
70.49252560854407
 20
12.39469026988975
 30
0.0
 42
0.4142135623730951
  0
VERTEX
  5
235
  8
SCREW_LOCATION_MARKERS
 10
70.36252560854408
 20
12.26469026988975
 30
0.0
 42
0.4142135623730951
  0
VERTEX
  5
236
  8
SCREW_LOCATION_MARKERS
 10
70.49252560854407
 20
12.13469026988976
 30
0.0
 42
0.4142135623730951
  0
VERTEX
  5
237
  8
SCREW_LOCATION_MARKERS
 10
70.62252560854407
 20
12.26469026988975
 30
0.0
 42
0.4142135623730951
  0
SEQEND
  5
317
  8
SCREW_LOCATION_MARKERS
  0
POLYLINE
  5
8A
  8
SCREW_LOCATION_MARKERS
 66
     1
 10
0.0
 20
0.0
 30
0.0
 70
     1
  0
VERTEX
  5
238
  8
SCREW_LOCATION_MARKERS
 10
19.50759999999005
 20
9.512326467321028
 30
0.0
 42
0.4142135623730951
  0
VERTEX
  5
239
  8
SCREW_LOCATION_MARKERS
 10
19.37259999999005
 20
9.377326467321028
 30
0.0
 42
0.4142135623730951
  0
VERTEX
  5
23A
  8
SCREW_LOCATION_MARKERS
 10
19.50759999999005
 20
9.242326467321028
 30
0.0
 42
0.4142135623730951
  0
VERTEX
  5
23B
  8
SCREW_LOCATION_MARKERS
 10
19.64259999999005
 20
9.377326467321028
 30
0.0
 42
0.4142135623730951
  0
SEQEND
  5
318
  8
SCREW_LOCATION_MARKERS
  0
POLYLINE
  5
8B
  8
SCREW_LOCATION_MARKERS
 66
     1
 10
0.0
 20
0.0
 30
0.0
 70
     1
  0
VERTEX
  5
23C
  8
SCREW_LOCATION_MARKERS
 10
5.500008339843454
 20
9.512362917159779
 30
0.0
 42
-0.4142135623730951
  0
VERTEX
  5
23D
  8
SCREW_LOCATION_MARKERS
 10
5.635008339843459
 20
9.377362917159779
 30
0.0
 42
-0.4142135623730951
  0
VERTEX
  5
23E
  8
SCREW_LOCATION_MARKERS
 10
5.500008339843454
 20
9.24236291715978
 30
0.0
 42
-0.4142135623730951
  0
VERTEX
  5
23F
  8
SCREW_LOCATION_MARKERS
 10
5.365008339843449
 20
9.377362917159779
 30
0.0
 42
-0.4142135623730951
  0
SEQEND
  5
319
  8
SCREW_LOCATION_MARKERS
  0
POLYLINE
  5
8C
  8
SCREW_LOCATION_MARKERS
 66
     1
 10
0.0
 20
0.0
 30
0.0
 70
     1
  0
VERTEX
  5
240
  8
SCREW_LOCATION_MARKERS
 10
90.49999166015652
 20
9.512362917159779
 30
0.0
 42
0.4142135623730951
  0
VERTEX
  5
241
  8
SCREW_LOCATION_MARKERS
 10
90.36499166015653
 20
9.377362917159779
 30
0.0
 42
0.4142135623730951
  0
VERTEX
  5
242
  8
SCREW_LOCATION_MARKERS
 10
90.49999166015652
 20
9.24236291715978
 30
0.0
 42
0.4142135623730951
  0
VERTEX
  5
243
  8
SCREW_LOCATION_MARKERS
 10
90.63499166015654
 20
9.377362917159779
 30
0.0
 42
0.4142135623730951
  0
SEQEND
  5
31A
  8
SCREW_LOCATION_MARKERS
  0
POLYLINE
  5
8E
  8
THRUCUT_FLUSH_WEDGES_SPIRA
 66
     1
 10
0.0
 20
0.0
 30
0.0
 70
     1
  0
VERTEX
  5
244
  8
THRUCUT_FLUSH_WEDGES_SPIRA
 10
2.712938357065244
 20
1.896087664370656
 30
0.0
  0
VERTEX
  5
245
  8
THRUCUT_FLUSH_WEDGES_SPIRA
 10
1.732319143246134
 20
1.896087664370656
 30
0.0
  0
VERTEX
  5
246
  8
THRUCUT_FLUSH_WEDGES_SPIRA
 10
1.667076422539285
 20
0.8960876643706952
 30
0.0
  0
VERTEX
  5
247
  8
THRUCUT_FLUSH_WEDGES_SPIRA
 10
3.685072291591215
 20
0.8960876643706983
 30
0.0
  0
VERTEX
  5
248
  8
THRUCUT_FLUSH_WEDGES_SPIRA
 10
3.619829570884352
 20
1.896087664370656
 30
0.0
  0
SEQEND
  5
31B
  8
THRUCUT_FLUSH_WEDGES_SPIRA
  0
POLYLINE
  5
8F
  8
THRUCUT_FLUSH_WEDGES_SPIRA
 66
     1
 10
0.0
 20
0.0
 30
0.0
 70
     1
  0
VERTEX
  5
249
  8
THRUCUT_FLUSH_WEDGES_SPIRA
 10
5.230934226117174
 20
1.896087664370656
 30
0.0
  0
VERTEX
  5
24A
  8
THRUCUT_FLUSH_WEDGES_SPIRA
 10
4.250315012298064
 20
1.896087664370656
 30
0.0
  0
VERTEX
  5
24B
  8
THRUCUT_FLUSH_WEDGES_SPIRA
 10
4.185072291591215
 20
0.8960876643706952
 30
0.0
  0
VERTEX
  5
24C
  8
THRUCUT_FLUSH_WEDGES_SPIRA
 10
6.203068160643145
 20
0.8960876643706983
 30
0.0
  0
VERTEX
  5
24D
  8
THRUCUT_FLUSH_WEDGES_SPIRA
 10
6.137825439936282
 20
1.896087664370656
 30
0.0
  0
SEQEND
  5
31C
  8
THRUCUT_FLUSH_WEDGES_SPIRA
  0
POLYLINE
  5
90
  8
THRUCUT_FLUSH_WEDGES_SPIRA
 66
     1
 10
0.0
 20
0.0
 30
0.0
 70
     1
  0
VERTEX
  5
24E
  8
THRUCUT_FLUSH_WEDGES_SPIRA
 10
7.748930095169105
 20
1.896087664370656
 30
0.0
  0
VERTEX
  5
24F
  8
THRUCUT_FLUSH_WEDGES_SPIRA
 10
6.768310881349994
 20
1.896087664370656
 30
0.0
  0
VERTEX
  5
250
  8
THRUCUT_FLUSH_WEDGES_SPIRA
 10
6.703068160643145
 20
0.8960876643706952
 30
0.0
  0
VERTEX
  5
251
  8
THRUCUT_FLUSH_WEDGES_SPIRA
 10
8.721064029695075
 20
0.8960876643706983
 30
0.0
  0
VERTEX
  5
252
  8
THRUCUT_FLUSH_WEDGES_SPIRA
 10
8.655821308988212
 20
1.896087664370656
 30
0.0
  0
SEQEND
  5
31D
  8
THRUCUT_FLUSH_WEDGES_SPIRA
  0
POLYLINE
  5
91
  8
THRUCUT_FLUSH_WEDGES_SPIRA
 66
     1
 10
0.0
 20
0.0
 30
0.0
 70
     1
  0
VERTEX
  5
253
  8
THRUCUT_FLUSH_WEDGES_SPIRA
 10
10.26692596422104
 20
1.896087664370656
 30
0.0
  0
VERTEX
  5
254
  8
THRUCUT_FLUSH_WEDGES_SPIRA
 10
9.286306750401925
 20
1.896087664370656
 30
0.0
  0
VERTEX
  5
255
  8
THRUCUT_FLUSH_WEDGES_SPIRA
 10
9.221064029695077
 20
0.8960876643706952
 30
0.0
  0
VERTEX
  5
256
  8
THRUCUT_FLUSH_WEDGES_SPIRA
 10
11.23905989874701
 20
0.8960876643706983
 30
0.0
  0
VERTEX
  5
257
  8
THRUCUT_FLUSH_WEDGES_SPIRA
 10
11.17381717804014
 20
1.896087664370656
 30
0.0
  0
SEQEND
  5
31E
  8
THRUCUT_FLUSH_WEDGES_SPIRA
  0
POLYLINE
  5
92
  8
THRUCUT_FLUSH_WEDGES_SPIRA
 66
     1
 10
0.0
 20
0.0
 30
0.0
 70
     1
  0
VERTEX
  5
258
  8
THRUCUT_FLUSH_WEDGES_SPIRA
 10
12.78492183327297
 20
1.896087664370656
 30
0.0
  0
VERTEX
  5
259
  8
THRUCUT_FLUSH_WEDGES_SPIRA
 10
11.80430261945386
 20
1.896087664370656
 30
0.0
  0
VERTEX
  5
25A
  8
THRUCUT_FLUSH_WEDGES_SPIRA
 10
11.73905989874701
 20
0.8960876643706952
 30
0.0
  0
VERTEX
  5
25B
  8
THRUCUT_FLUSH_WEDGES_SPIRA
 10
13.75705576779894
 20
0.8960876643706983
 30
0.0
  0
VERTEX
  5
25C
  8
THRUCUT_FLUSH_WEDGES_SPIRA
 10
13.69181304709207
 20
1.896087664370656
 30
0.0
  0
SEQEND
  5
31F
  8
THRUCUT_FLUSH_WEDGES_SPIRA
  0
POLYLINE
  5
93
  8
THRUCUT_FLUSH_WEDGES_SPIRA
 66
     1
 10
0.0
 20
0.0
 30
0.0
 70
     1
  0
VERTEX
  5
25D
  8
THRUCUT_FLUSH_WEDGES_SPIRA
 10
15.3029177023249
 20
1.896087664370656
 30
0.0
  0
VERTEX
  5
25E
  8
THRUCUT_FLUSH_WEDGES_SPIRA
 10
14.32229848850579
 20
1.896087664370656
 30
0.0
  0
VERTEX
  5
25F
  8
THRUCUT_FLUSH_WEDGES_SPIRA
 10
14.25705576779894
 20
0.8960876643706952
 30
0.0
  0
VERTEX
  5
260
  8
THRUCUT_FLUSH_WEDGES_SPIRA
 10
16.27505163685087
 20
0.8960876643706983
 30
0.0
  0
VERTEX
  5
261
  8
THRUCUT_FLUSH_WEDGES_SPIRA
 10
16.20980891614401
 20
1.896087664370656
 30
0.0
  0
SEQEND
  5
320
  8
THRUCUT_FLUSH_WEDGES_SPIRA
  0
POLYLINE
  5
94
  8
THRUCUT_FLUSH_WEDGES_SPIRA
 66
     1
 10
0.0
 20
0.0
 30
0.0
 70
     1
  0
VERTEX
  5
262
  8
THRUCUT_FLUSH_WEDGES_SPIRA
 10
17.82091357137683
 20
1.896087664370656
 30
0.0
  0
VERTEX
  5
263
  8
THRUCUT_FLUSH_WEDGES_SPIRA
 10
16.84029435755772
 20
1.896087664370656
 30
0.0
  0
VERTEX
  5
264
  8
THRUCUT_FLUSH_WEDGES_SPIRA
 10
16.77505163685087
 20
0.8960876643706952
 30
0.0
  0
VERTEX
  5
265
  8
THRUCUT_FLUSH_WEDGES_SPIRA
 10
18.7930475059028
 20
0.8960876643706983
 30
0.0
  0
VERTEX
  5
266
  8
THRUCUT_FLUSH_WEDGES_SPIRA
 10
18.72780478519594
 20
1.896087664370656
 30
0.0
  0
SEQEND
  5
321
  8
THRUCUT_FLUSH_WEDGES_SPIRA
  0
POLYLINE
  5
95
  8
THRUCUT_FLUSH_WEDGES_SPIRA
 66
     1
 10
0.0
 20
0.0
 30
0.0
 70
     1
  0
VERTEX
  5
267
  8
THRUCUT_FLUSH_WEDGES_SPIRA
 10
20.33890944042876
 20
1.896087664370656
 30
0.0
  0
VERTEX
  5
268
  8
THRUCUT_FLUSH_WEDGES_SPIRA
 10
19.35829022660965
 20
1.896087664370656
 30
0.0
  0
VERTEX
  5
269
  8
THRUCUT_FLUSH_WEDGES_SPIRA
 10
19.2930475059028
 20
0.8960876643706952
 30
0.0
  0
VERTEX
  5
26A
  8
THRUCUT_FLUSH_WEDGES_SPIRA
 10
21.31104337495473
 20
0.8960876643706983
 30
0.0
  0
VERTEX
  5
26B
  8
THRUCUT_FLUSH_WEDGES_SPIRA
 10
21.24580065424787
 20
1.896087664370656
 30
0.0
  0
SEQEND
  5
322
  8
THRUCUT_FLUSH_WEDGES_SPIRA
  0
POLYLINE
  5
96
  8
THRUCUT_FLUSH_WEDGES_SPIRA
 66
     1
 10
0.0
 20
0.0
 30
0.0
 70
     1
  0
VERTEX
  5
26C
  8
THRUCUT_FLUSH_WEDGES_SPIRA
 10
22.85690530948069
 20
1.896087664370656
 30
0.0
  0
VERTEX
  5
26D
  8
THRUCUT_FLUSH_WEDGES_SPIRA
 10
21.87628609566158
 20
1.896087664370656
 30
0.0
  0
VERTEX
  5
26E
  8
THRUCUT_FLUSH_WEDGES_SPIRA
 10
21.81104337495473
 20
0.8960876643706952
 30
0.0
  0
VERTEX
  5
26F
  8
THRUCUT_FLUSH_WEDGES_SPIRA
 10
23.82903924400666
 20
0.8960876643706983
 30
0.0
  0
VERTEX
  5
270
  8
THRUCUT_FLUSH_WEDGES_SPIRA
 10
23.7637965232998
 20
1.896087664370656
 30
0.0
  0
SEQEND
  5
323
  8
THRUCUT_FLUSH_WEDGES_SPIRA
  0
POLYLINE
  5
97
  8
THRUCUT_FLUSH_WEDGES_SPIRA
 66
     1
 10
0.0
 20
0.0
 30
0.0
 70
     1
  0
VERTEX
  5
271
  8
THRUCUT_FLUSH_WEDGES_SPIRA
 10
25.37490117853262
 20
1.896087664370656
 30
0.0
  0
VERTEX
  5
272
  8
THRUCUT_FLUSH_WEDGES_SPIRA
 10
24.39428196471351
 20
1.896087664370656
 30
0.0
  0
VERTEX
  5
273
  8
THRUCUT_FLUSH_WEDGES_SPIRA
 10
24.32903924400666
 20
0.8960876643706952
 30
0.0
  0
VERTEX
  5
274
  8
THRUCUT_FLUSH_WEDGES_SPIRA
 10
26.34703511305859
 20
0.8960876643706983
 30
0.0
  0
VERTEX
  5
275
  8
THRUCUT_FLUSH_WEDGES_SPIRA
 10
26.28179239235173
 20
1.896087664370656
 30
0.0
  0
SEQEND
  5
324
  8
THRUCUT_FLUSH_WEDGES_SPIRA
  0
POLYLINE
  5
98
  8
THRUCUT_FLUSH_WEDGES_SPIRA
 66
     1
 10
0.0
 20
0.0
 30
0.0
 70
     1
  0
VERTEX
  5
276
  8
THRUCUT_FLUSH_WEDGES_SPIRA
 10
27.89289704758455
 20
1.896087664370656
 30
0.0
  0
VERTEX
  5
277
  8
THRUCUT_FLUSH_WEDGES_SPIRA
 10
26.91227783376544
 20
1.896087664370656
 30
0.0
  0
VERTEX
  5
278
  8
THRUCUT_FLUSH_WEDGES_SPIRA
 10
26.84703511305859
 20
0.8960876643706952
 30
0.0
  0
VERTEX
  5
279
  8
THRUCUT_FLUSH_WEDGES_SPIRA
 10
28.86503098211052
 20
0.8960876643706983
 30
0.0
  0
VERTEX
  5
27A
  8
THRUCUT_FLUSH_WEDGES_SPIRA
 10
28.79978826140366
 20
1.896087664370656
 30
0.0
  0
SEQEND
  5
325
  8
THRUCUT_FLUSH_WEDGES_SPIRA
  0
POLYLINE
  5
99
  8
THRUCUT_FLUSH_WEDGES_SPIRA
 66
     1
 10
0.0
 20
0.0
 30
0.0
 70
     1
  0
VERTEX
  5
27B
  8
THRUCUT_FLUSH_WEDGES_SPIRA
 10
30.41089291663648
 20
1.896087664370656
 30
0.0
  0
VERTEX
  5
27C
  8
THRUCUT_FLUSH_WEDGES_SPIRA
 10
29.43027370281737
 20
1.896087664370656
 30
0.0
  0
VERTEX
  5
27D
  8
THRUCUT_FLUSH_WEDGES_SPIRA
 10
29.36503098211052
 20
0.8960876643706952
 30
0.0
  0
VERTEX
  5
27E
  8
THRUCUT_FLUSH_WEDGES_SPIRA
 10
31.38302685116245
 20
0.8960876643706983
 30
0.0
  0
VERTEX
  5
27F
  8
THRUCUT_FLUSH_WEDGES_SPIRA
 10
31.31778413045559
 20
1.896087664370656
 30
0.0
  0
SEQEND
  5
326
  8
THRUCUT_FLUSH_WEDGES_SPIRA
  0
POLYLINE
  5
9A
  8
THRUCUT_FLUSH_WEDGES_SPIRA
 66
     1
 10
0.0
 20
0.0
 30
0.0
 70
     1
  0
VERTEX
  5
280
  8
THRUCUT_FLUSH_WEDGES_SPIRA
 10
32.92888878568841
 20
1.896087664370656
 30
0.0
  0
VERTEX
  5
281
  8
THRUCUT_FLUSH_WEDGES_SPIRA
 10
31.9482695718693
 20
1.896087664370656
 30
0.0
  0
VERTEX
  5
282
  8
THRUCUT_FLUSH_WEDGES_SPIRA
 10
31.88302685116245
 20
0.8960876643706952
 30
0.0
  0
VERTEX
  5
283
  8
THRUCUT_FLUSH_WEDGES_SPIRA
 10
33.90102272021438
 20
0.8960876643706983
 30
0.0
  0
VERTEX
  5
284
  8
THRUCUT_FLUSH_WEDGES_SPIRA
 10
33.83577999950752
 20
1.896087664370656
 30
0.0
  0
SEQEND
  5
327
  8
THRUCUT_FLUSH_WEDGES_SPIRA
  0
POLYLINE
  5
9B
  8
THRUCUT_FLUSH_WEDGES_SPIRA
 66
     1
 10
0.0
 20
0.0
 30
0.0
 70
     1
  0
VERTEX
  5
285
  8
THRUCUT_FLUSH_WEDGES_SPIRA
 10
35.44688465474034
 20
1.896087664370656
 30
0.0
  0
VERTEX
  5
286
  8
THRUCUT_FLUSH_WEDGES_SPIRA
 10
34.46626544092123
 20
1.896087664370656
 30
0.0
  0
VERTEX
  5
287
  8
THRUCUT_FLUSH_WEDGES_SPIRA
 10
34.40102272021438
 20
0.8960876643706952
 30
0.0
  0
VERTEX
  5
288
  8
THRUCUT_FLUSH_WEDGES_SPIRA
 10
36.41901858926631
 20
0.8960876643706983
 30
0.0
  0
VERTEX
  5
289
  8
THRUCUT_FLUSH_WEDGES_SPIRA
 10
36.35377586855945
 20
1.896087664370656
 30
0.0
  0
SEQEND
  5
328
  8
THRUCUT_FLUSH_WEDGES_SPIRA
  0
POLYLINE
  5
9C
  8
THRUCUT_FLUSH_WEDGES_SPIRA
 66
     1
 10
0.0
 20
0.0
 30
0.0
 70
     1
  0
VERTEX
  5
28A
  8
THRUCUT_FLUSH_WEDGES_SPIRA
 10
37.96488052379227
 20
1.896087664370656
 30
0.0
  0
VERTEX
  5
28B
  8
THRUCUT_FLUSH_WEDGES_SPIRA
 10
36.98426130997316
 20
1.896087664370656
 30
0.0
  0
VERTEX
  5
28C
  8
THRUCUT_FLUSH_WEDGES_SPIRA
 10
36.91901858926631
 20
0.8960876643706952
 30
0.0
  0
VERTEX
  5
28D
  8
THRUCUT_FLUSH_WEDGES_SPIRA
 10
38.93701445831824
 20
0.8960876643706983
 30
0.0
  0
VERTEX
  5
28E
  8
THRUCUT_FLUSH_WEDGES_SPIRA
 10
38.87177173761138
 20
1.896087664370656
 30
0.0
  0
SEQEND
  5
329
  8
THRUCUT_FLUSH_WEDGES_SPIRA
  0
POLYLINE
  5
9D
  8
THRUCUT_FLUSH_WEDGES_SPIRA
 66
     1
 10
0.0
 20
0.0
 30
0.0
 70
     1
  0
VERTEX
  5
28F
  8
THRUCUT_FLUSH_WEDGES_SPIRA
 10
40.4828763928442
 20
1.896087664370656
 30
0.0
  0
VERTEX
  5
290
  8
THRUCUT_FLUSH_WEDGES_SPIRA
 10
39.50225717902509
 20
1.896087664370656
 30
0.0
  0
VERTEX
  5
291
  8
THRUCUT_FLUSH_WEDGES_SPIRA
 10
39.43701445831824
 20
0.8960876643706952
 30
0.0
  0
VERTEX
  5
292
  8
THRUCUT_FLUSH_WEDGES_SPIRA
 10
41.45501032737017
 20
0.8960876643706983
 30
0.0
  0
VERTEX
  5
293
  8
THRUCUT_FLUSH_WEDGES_SPIRA
 10
41.38976760666331
 20
1.896087664370656
 30
0.0
  0
SEQEND
  5
32A
  8
THRUCUT_FLUSH_WEDGES_SPIRA
  0
POLYLINE
  5
9E
  8
THRUCUT_FLUSH_WEDGES_SPIRA
 66
     1
 10
0.0
 20
0.0
 30
0.0
 70
     1
  0
VERTEX
  5
294
  8
THRUCUT_FLUSH_WEDGES_SPIRA
 10
43.00087226189613
 20
1.896087664370656
 30
0.0
  0
VERTEX
  5
295
  8
THRUCUT_FLUSH_WEDGES_SPIRA
 10
42.02025304807702
 20
1.896087664370656
 30
0.0
  0
VERTEX
  5
296
  8
THRUCUT_FLUSH_WEDGES_SPIRA
 10
41.95501032737017
 20
0.8960876643706952
 30
0.0
  0
VERTEX
  5
297
  8
THRUCUT_FLUSH_WEDGES_SPIRA
 10
43.9730061964221
 20
0.8960876643706983
 30
0.0
  0
VERTEX
  5
298
  8
THRUCUT_FLUSH_WEDGES_SPIRA
 10
43.90776347571524
 20
1.896087664370656
 30
0.0
  0
SEQEND
  5
32B
  8
THRUCUT_FLUSH_WEDGES_SPIRA
  0
POLYLINE
  5
9F
  8
THRUCUT_FLUSH_WEDGES_SPIRA
 66
     1
 10
0.0
 20
0.0
 30
0.0
 70
     1
  0
VERTEX
  5
299
  8
THRUCUT_FLUSH_WEDGES_SPIRA
 10
45.51886813094806
 20
1.896087664370656
 30
0.0
  0
VERTEX
  5
29A
  8
THRUCUT_FLUSH_WEDGES_SPIRA
 10
44.53824891712895
 20
1.896087664370656
 30
0.0
  0
VERTEX
  5
29B
  8
THRUCUT_FLUSH_WEDGES_SPIRA
 10
44.4730061964221
 20
0.8960876643706952
 30
0.0
  0
VERTEX
  5
29C
  8
THRUCUT_FLUSH_WEDGES_SPIRA
 10
46.49100206547403
 20
0.8960876643706983
 30
0.0
  0
VERTEX
  5
29D
  8
THRUCUT_FLUSH_WEDGES_SPIRA
 10
46.42575934476717
 20
1.896087664370656
 30
0.0
  0
SEQEND
  5
32C
  8
THRUCUT_FLUSH_WEDGES_SPIRA
  0
POLYLINE
  5
A0
  8
THRUCUT_FLUSH_WEDGES_SPIRA
 66
     1
 10
0.0
 20
0.0
 30
0.0
 70
     1
  0
VERTEX
  5
29E
  8
THRUCUT_FLUSH_WEDGES_SPIRA
 10
48.03686399999999
 20
1.896087664370656
 30
0.0
  0
VERTEX
  5
29F
  8
THRUCUT_FLUSH_WEDGES_SPIRA
 10
47.05624478618088
 20
1.896087664370656
 30
0.0
  0
VERTEX
  5
2A0
  8
THRUCUT_FLUSH_WEDGES_SPIRA
 10
46.99100206547403
 20
0.8960876643706952
 30
0.0
  0
VERTEX
  5
2A1
  8
THRUCUT_FLUSH_WEDGES_SPIRA
 10
49.00899793452596
 20
0.8960876643706983
 30
0.0
  0
VERTEX
  5
2A2
  8
THRUCUT_FLUSH_WEDGES_SPIRA
 10
48.9437552138191
 20
1.896087664370656
 30
0.0
  0
SEQEND
  5
32D
  8
THRUCUT_FLUSH_WEDGES_SPIRA
  0
POLYLINE
  5
A1
  8
THRUCUT_FLUSH_WEDGES_SPIRA
 66
     1
 10
0.0
 20
0.0
 30
0.0
 70
     1
  0
VERTEX
  5
2A3
  8
THRUCUT_FLUSH_WEDGES_SPIRA
 10
50.55485986905192
 20
1.896087664370656
 30
0.0
  0
VERTEX
  5
2A4
  8
THRUCUT_FLUSH_WEDGES_SPIRA
 10
49.57424065523281
 20
1.896087664370656
 30
0.0
  0
VERTEX
  5
2A5
  8
THRUCUT_FLUSH_WEDGES_SPIRA
 10
49.50899793452596
 20
0.8960876643706952
 30
0.0
  0
VERTEX
  5
2A6
  8
THRUCUT_FLUSH_WEDGES_SPIRA
 10
51.52699380357789
 20
0.8960876643706983
 30
0.0
  0
VERTEX
  5
2A7
  8
THRUCUT_FLUSH_WEDGES_SPIRA
 10
51.46175108287103
 20
1.896087664370656
 30
0.0
  0
SEQEND
  5
32E
  8
THRUCUT_FLUSH_WEDGES_SPIRA
  0
POLYLINE
  5
A2
  8
THRUCUT_FLUSH_WEDGES_SPIRA
 66
     1
 10
0.0
 20
0.0
 30
0.0
 70
     1
  0
VERTEX
  5
2A8
  8
THRUCUT_FLUSH_WEDGES_SPIRA
 10
53.07285573810385
 20
1.896087664370656
 30
0.0
  0
VERTEX
  5
2A9
  8
THRUCUT_FLUSH_WEDGES_SPIRA
 10
52.09223652428474
 20
1.896087664370656
 30
0.0
  0
VERTEX
  5
2AA
  8
THRUCUT_FLUSH_WEDGES_SPIRA
 10
52.02699380357789
 20
0.8960876643706952
 30
0.0
  0
VERTEX
  5
2AB
  8
THRUCUT_FLUSH_WEDGES_SPIRA
 10
54.04498967262982
 20
0.8960876643706983
 30
0.0
  0
VERTEX
  5
2AC
  8
THRUCUT_FLUSH_WEDGES_SPIRA
 10
53.97974695192296
 20
1.896087664370656
 30
0.0
  0
SEQEND
  5
32F
  8
THRUCUT_FLUSH_WEDGES_SPIRA
  0
POLYLINE
  5
A3
  8
THRUCUT_FLUSH_WEDGES_SPIRA
 66
     1
 10
0.0
 20
0.0
 30
0.0
 70
     1
  0
VERTEX
  5
2AD
  8
THRUCUT_FLUSH_WEDGES_SPIRA
 10
55.59085160715578
 20
1.896087664370656
 30
0.0
  0
VERTEX
  5
2AE
  8
THRUCUT_FLUSH_WEDGES_SPIRA
 10
54.61023239333667
 20
1.896087664370656
 30
0.0
  0
VERTEX
  5
2AF
  8
THRUCUT_FLUSH_WEDGES_SPIRA
 10
54.54498967262982
 20
0.8960876643706952
 30
0.0
  0
VERTEX
  5
2B0
  8
THRUCUT_FLUSH_WEDGES_SPIRA
 10
56.56298554168175
 20
0.8960876643706983
 30
0.0
  0
VERTEX
  5
2B1
  8
THRUCUT_FLUSH_WEDGES_SPIRA
 10
56.49774282097489
 20
1.896087664370656
 30
0.0
  0
SEQEND
  5
330
  8
THRUCUT_FLUSH_WEDGES_SPIRA
  0
POLYLINE
  5
A4
  8
THRUCUT_FLUSH_WEDGES_SPIRA
 66
     1
 10
0.0
 20
0.0
 30
0.0
 70
     1
  0
VERTEX
  5
2B2
  8
THRUCUT_FLUSH_WEDGES_SPIRA
 10
58.10884747620771
 20
1.896087664370656
 30
0.0
  0
VERTEX
  5
2B3
  8
THRUCUT_FLUSH_WEDGES_SPIRA
 10
57.1282282623886
 20
1.896087664370656
 30
0.0
  0
VERTEX
  5
2B4
  8
THRUCUT_FLUSH_WEDGES_SPIRA
 10
57.06298554168175
 20
0.8960876643706952
 30
0.0
  0
VERTEX
  5
2B5
  8
THRUCUT_FLUSH_WEDGES_SPIRA
 10
59.08098141073368
 20
0.8960876643706983
 30
0.0
  0
VERTEX
  5
2B6
  8
THRUCUT_FLUSH_WEDGES_SPIRA
 10
59.01573869002682
 20
1.896087664370656
 30
0.0
  0
SEQEND
  5
331
  8
THRUCUT_FLUSH_WEDGES_SPIRA
  0
POLYLINE
  5
A5
  8
THRUCUT_FLUSH_WEDGES_SPIRA
 66
     1
 10
0.0
 20
0.0
 30
0.0
 70
     1
  0
VERTEX
  5
2B7
  8
THRUCUT_FLUSH_WEDGES_SPIRA
 10
60.62684334525964
 20
1.896087664370656
 30
0.0
  0
VERTEX
  5
2B8
  8
THRUCUT_FLUSH_WEDGES_SPIRA
 10
59.64622413144053
 20
1.896087664370656
 30
0.0
  0
VERTEX
  5
2B9
  8
THRUCUT_FLUSH_WEDGES_SPIRA
 10
59.58098141073368
 20
0.8960876643706952
 30
0.0
  0
VERTEX
  5
2BA
  8
THRUCUT_FLUSH_WEDGES_SPIRA
 10
61.59897727978561
 20
0.8960876643706983
 30
0.0
  0
VERTEX
  5
2BB
  8
THRUCUT_FLUSH_WEDGES_SPIRA
 10
61.53373455907875
 20
1.896087664370656
 30
0.0
  0
SEQEND
  5
332
  8
THRUCUT_FLUSH_WEDGES_SPIRA
  0
POLYLINE
  5
A6
  8
THRUCUT_FLUSH_WEDGES_SPIRA
 66
     1
 10
0.0
 20
0.0
 30
0.0
 70
     1
  0
VERTEX
  5
2BC
  8
THRUCUT_FLUSH_WEDGES_SPIRA
 10
63.14483921431158
 20
1.896087664370656
 30
0.0
  0
VERTEX
  5
2BD
  8
THRUCUT_FLUSH_WEDGES_SPIRA
 10
62.16422000049247
 20
1.896087664370656
 30
0.0
  0
VERTEX
  5
2BE
  8
THRUCUT_FLUSH_WEDGES_SPIRA
 10
62.09897727978561
 20
0.8960876643706952
 30
0.0
  0
VERTEX
  5
2BF
  8
THRUCUT_FLUSH_WEDGES_SPIRA
 10
64.11697314883756
 20
0.8960876643706983
 30
0.0
  0
VERTEX
  5
2C0
  8
THRUCUT_FLUSH_WEDGES_SPIRA
 10
64.0517304281307
 20
1.896087664370656
 30
0.0
  0
SEQEND
  5
333
  8
THRUCUT_FLUSH_WEDGES_SPIRA
  0
POLYLINE
  5
A7
  8
THRUCUT_FLUSH_WEDGES_SPIRA
 66
     1
 10
0.0
 20
0.0
 30
0.0
 70
     1
  0
VERTEX
  5
2C1
  8
THRUCUT_FLUSH_WEDGES_SPIRA
 10
65.66283508336352
 20
1.896087664370656
 30
0.0
  0
VERTEX
  5
2C2
  8
THRUCUT_FLUSH_WEDGES_SPIRA
 10
64.6822158695444
 20
1.896087664370656
 30
0.0
  0
VERTEX
  5
2C3
  8
THRUCUT_FLUSH_WEDGES_SPIRA
 10
64.61697314883754
 20
0.8960876643706952
 30
0.0
  0
VERTEX
  5
2C4
  8
THRUCUT_FLUSH_WEDGES_SPIRA
 10
66.63496901788949
 20
0.8960876643706983
 30
0.0
  0
VERTEX
  5
2C5
  8
THRUCUT_FLUSH_WEDGES_SPIRA
 10
66.56972629718263
 20
1.896087664370656
 30
0.0
  0
SEQEND
  5
334
  8
THRUCUT_FLUSH_WEDGES_SPIRA
  0
POLYLINE
  5
A8
  8
THRUCUT_FLUSH_WEDGES_SPIRA
 66
     1
 10
0.0
 20
0.0
 30
0.0
 70
     1
  0
VERTEX
  5
2C6
  8
THRUCUT_FLUSH_WEDGES_SPIRA
 10
68.18083095241545
 20
1.896087664370656
 30
0.0
  0
VERTEX
  5
2C7
  8
THRUCUT_FLUSH_WEDGES_SPIRA
 10
67.20021173859632
 20
1.896087664370656
 30
0.0
  0
VERTEX
  5
2C8
  8
THRUCUT_FLUSH_WEDGES_SPIRA
 10
67.13496901788949
 20
0.8960876643706952
 30
0.0
  0
VERTEX
  5
2C9
  8
THRUCUT_FLUSH_WEDGES_SPIRA
 10
69.15296488694142
 20
0.8960876643706983
 30
0.0
  0
VERTEX
  5
2CA
  8
THRUCUT_FLUSH_WEDGES_SPIRA
 10
69.08772216623456
 20
1.896087664370656
 30
0.0
  0
SEQEND
  5
335
  8
THRUCUT_FLUSH_WEDGES_SPIRA
  0
POLYLINE
  5
A9
  8
THRUCUT_FLUSH_WEDGES_SPIRA
 66
     1
 10
0.0
 20
0.0
 30
0.0
 70
     1
  0
VERTEX
  5
2CB
  8
THRUCUT_FLUSH_WEDGES_SPIRA
 10
70.69882682146738
 20
1.896087664370656
 30
0.0
  0
VERTEX
  5
2CC
  8
THRUCUT_FLUSH_WEDGES_SPIRA
 10
69.71820760764825
 20
1.896087664370656
 30
0.0
  0
VERTEX
  5
2CD
  8
THRUCUT_FLUSH_WEDGES_SPIRA
 10
69.65296488694142
 20
0.8960876643706952
 30
0.0
  0
VERTEX
  5
2CE
  8
THRUCUT_FLUSH_WEDGES_SPIRA
 10
71.67096075599335
 20
0.8960876643706983
 30
0.0
  0
VERTEX
  5
2CF
  8
THRUCUT_FLUSH_WEDGES_SPIRA
 10
71.60571803528649
 20
1.896087664370656
 30
0.0
  0
SEQEND
  5
336
  8
THRUCUT_FLUSH_WEDGES_SPIRA
  0
POLYLINE
  5
AA
  8
THRUCUT_FLUSH_WEDGES_SPIRA
 66
     1
 10
0.0
 20
0.0
 30
0.0
 70
     1
  0
VERTEX
  5
2D0
  8
THRUCUT_FLUSH_WEDGES_SPIRA
 10
73.21682269051931
 20
1.896087664370656
 30
0.0
  0
VERTEX
  5
2D1
  8
THRUCUT_FLUSH_WEDGES_SPIRA
 10
72.23620347670018
 20
1.896087664370656
 30
0.0
  0
VERTEX
  5
2D2
  8
THRUCUT_FLUSH_WEDGES_SPIRA
 10
72.17096075599335
 20
0.8960876643706952
 30
0.0
  0
VERTEX
  5
2D3
  8
THRUCUT_FLUSH_WEDGES_SPIRA
 10
74.18895662504528
 20
0.8960876643706983
 30
0.0
  0
VERTEX
  5
2D4
  8
THRUCUT_FLUSH_WEDGES_SPIRA
 10
74.12371390433842
 20
1.896087664370656
 30
0.0
  0
SEQEND
  5
337
  8
THRUCUT_FLUSH_WEDGES_SPIRA
  0
POLYLINE
  5
AB
  8
THRUCUT_FLUSH_WEDGES_SPIRA
 66
     1
 10
0.0
 20
0.0
 30
0.0
 70
     1
  0
VERTEX
  5
2D5
  8
THRUCUT_FLUSH_WEDGES_SPIRA
 10
75.73481855957124
 20
1.896087664370656
 30
0.0
  0
VERTEX
  5
2D6
  8
THRUCUT_FLUSH_WEDGES_SPIRA
 10
74.75419934575211
 20
1.896087664370656
 30
0.0
  0
VERTEX
  5
2D7
  8
THRUCUT_FLUSH_WEDGES_SPIRA
 10
74.68895662504528
 20
0.8960876643706952
 30
0.0
  0
VERTEX
  5
2D8
  8
THRUCUT_FLUSH_WEDGES_SPIRA
 10
76.70695249409721
 20
0.8960876643706983
 30
0.0
  0
VERTEX
  5
2D9
  8
THRUCUT_FLUSH_WEDGES_SPIRA
 10
76.64170977339035
 20
1.896087664370656
 30
0.0
  0
SEQEND
  5
338
  8
THRUCUT_FLUSH_WEDGES_SPIRA
  0
POLYLINE
  5
AC
  8
THRUCUT_FLUSH_WEDGES_SPIRA
 66
     1
 10
0.0
 20
0.0
 30
0.0
 70
     1
  0
VERTEX
  5
2DA
  8
THRUCUT_FLUSH_WEDGES_SPIRA
 10
78.25281442862317
 20
1.896087664370656
 30
0.0
  0
VERTEX
  5
2DB
  8
THRUCUT_FLUSH_WEDGES_SPIRA
 10
77.27219521480404
 20
1.896087664370656
 30
0.0
  0
VERTEX
  5
2DC
  8
THRUCUT_FLUSH_WEDGES_SPIRA
 10
77.20695249409721
 20
0.8960876643706952
 30
0.0
  0
VERTEX
  5
2DD
  8
THRUCUT_FLUSH_WEDGES_SPIRA
 10
79.22494836314914
 20
0.8960876643706983
 30
0.0
  0
VERTEX
  5
2DE
  8
THRUCUT_FLUSH_WEDGES_SPIRA
 10
79.15970564244228
 20
1.896087664370656
 30
0.0
  0
SEQEND
  5
339
  8
THRUCUT_FLUSH_WEDGES_SPIRA
  0
POLYLINE
  5
AD
  8
THRUCUT_FLUSH_WEDGES_SPIRA
 66
     1
 10
0.0
 20
0.0
 30
0.0
 70
     1
  0
VERTEX
  5
2DF
  8
THRUCUT_FLUSH_WEDGES_SPIRA
 10
80.7708102976751
 20
1.896087664370656
 30
0.0
  0
VERTEX
  5
2E0
  8
THRUCUT_FLUSH_WEDGES_SPIRA
 10
79.79019108385597
 20
1.896087664370656
 30
0.0
  0
VERTEX
  5
2E1
  8
THRUCUT_FLUSH_WEDGES_SPIRA
 10
79.72494836314914
 20
0.8960876643706952
 30
0.0
  0
VERTEX
  5
2E2
  8
THRUCUT_FLUSH_WEDGES_SPIRA
 10
81.74294423220107
 20
0.8960876643706983
 30
0.0
  0
VERTEX
  5
2E3
  8
THRUCUT_FLUSH_WEDGES_SPIRA
 10
81.6777015114942
 20
1.896087664370656
 30
0.0
  0
SEQEND
  5
33A
  8
THRUCUT_FLUSH_WEDGES_SPIRA
  0
POLYLINE
  5
AE
  8
THRUCUT_FLUSH_WEDGES_SPIRA
 66
     1
 10
0.0
 20
0.0
 30
0.0
 70
     1
  0
VERTEX
  5
2E4
  8
THRUCUT_FLUSH_WEDGES_SPIRA
 10
83.28880616672703
 20
1.896087664370656
 30
0.0
  0
VERTEX
  5
2E5
  8
THRUCUT_FLUSH_WEDGES_SPIRA
 10
82.3081869529079
 20
1.896087664370656
 30
0.0
  0
VERTEX
  5
2E6
  8
THRUCUT_FLUSH_WEDGES_SPIRA
 10
82.24294423220107
 20
0.8960876643706952
 30
0.0
  0
VERTEX
  5
2E7
  8
THRUCUT_FLUSH_WEDGES_SPIRA
 10
84.260940101253
 20
0.8960876643706983
 30
0.0
  0
VERTEX
  5
2E8
  8
THRUCUT_FLUSH_WEDGES_SPIRA
 10
84.19569738054614
 20
1.896087664370656
 30
0.0
  0
SEQEND
  5
33B
  8
THRUCUT_FLUSH_WEDGES_SPIRA
  0
POLYLINE
  5
AF
  8
THRUCUT_FLUSH_WEDGES_SPIRA
 66
     1
 10
0.0
 20
0.0
 30
0.0
 70
     1
  0
VERTEX
  5
2E9
  8
THRUCUT_FLUSH_WEDGES_SPIRA
 10
85.80680203577896
 20
1.896087664370656
 30
0.0
  0
VERTEX
  5
2EA
  8
THRUCUT_FLUSH_WEDGES_SPIRA
 10
84.82618282195983
 20
1.896087664370656
 30
0.0
  0
VERTEX
  5
2EB
  8
THRUCUT_FLUSH_WEDGES_SPIRA
 10
84.760940101253
 20
0.8960876643706952
 30
0.0
  0
VERTEX
  5
2EC
  8
THRUCUT_FLUSH_WEDGES_SPIRA
 10
86.77893597030493
 20
0.8960876643706983
 30
0.0
  0
VERTEX
  5
2ED
  8
THRUCUT_FLUSH_WEDGES_SPIRA
 10
86.71369324959807
 20
1.896087664370656
 30
0.0
  0
SEQEND
  5
33C
  8
THRUCUT_FLUSH_WEDGES_SPIRA
  0
POLYLINE
  5
B0
  8
THRUCUT_FLUSH_WEDGES_SPIRA
 66
     1
 10
0.0
 20
0.0
 30
0.0
 70
     1
  0
VERTEX
  5
2EE
  8
THRUCUT_FLUSH_WEDGES_SPIRA
 10
88.32479790483089
 20
1.896087664370656
 30
0.0
  0
VERTEX
  5
2EF
  8
THRUCUT_FLUSH_WEDGES_SPIRA
 10
87.34417869101176
 20
1.896087664370656
 30
0.0
  0
VERTEX
  5
2F0
  8
THRUCUT_FLUSH_WEDGES_SPIRA
 10
87.27893597030493
 20
0.8960876643706952
 30
0.0
  0
VERTEX
  5
2F1
  8
THRUCUT_FLUSH_WEDGES_SPIRA
 10
89.29693183935686
 20
0.8960876643706983
 30
0.0
  0
VERTEX
  5
2F2
  8
THRUCUT_FLUSH_WEDGES_SPIRA
 10
89.23168911865
 20
1.896087664370656
 30
0.0
  0
SEQEND
  5
33D
  8
THRUCUT_FLUSH_WEDGES_SPIRA
  0
POLYLINE
  5
B1
  8
THRUCUT_FLUSH_WEDGES_SPIRA
 66
     1
 10
0.0
 20
0.0
 30
0.0
 70
     1
  0
VERTEX
  5
2F3
  8
THRUCUT_FLUSH_WEDGES_SPIRA
 10
90.84279377388282
 20
1.896087664370656
 30
0.0
  0
VERTEX
  5
2F4
  8
THRUCUT_FLUSH_WEDGES_SPIRA
 10
89.86217456006369
 20
1.896087664370656
 30
0.0
  0
VERTEX
  5
2F5
  8
THRUCUT_FLUSH_WEDGES_SPIRA
 10
89.79693183935686
 20
0.8960876643706952
 30
0.0
  0
VERTEX
  5
2F6
  8
THRUCUT_FLUSH_WEDGES_SPIRA
 10
91.81492770840879
 20
0.8960876643706983
 30
0.0
  0
VERTEX
  5
2F7
  8
THRUCUT_FLUSH_WEDGES_SPIRA
 10
91.74968498770193
 20
1.896087664370656
 30
0.0
  0
SEQEND
  5
33E
  8
THRUCUT_FLUSH_WEDGES_SPIRA
  0
POLYLINE
  5
B2
  8
THRUCUT_FLUSH_WEDGES_SPIRA
 66
     1
 10
0.0
 20
0.0
 30
0.0
 70
     1
  0
VERTEX
  5
2F8
  8
THRUCUT_FLUSH_WEDGES_SPIRA
 10
93.36078964293475
 20
1.896087664370656
 30
0.0
  0
VERTEX
  5
2F9
  8
THRUCUT_FLUSH_WEDGES_SPIRA
 10
92.38017042911562
 20
1.896087664370656
 30
0.0
  0
VERTEX
  5
2FA
  8
THRUCUT_FLUSH_WEDGES_SPIRA
 10
92.31492770840879
 20
0.8960876643706952
 30
0.0
  0
VERTEX
  5
2FB
  8
THRUCUT_FLUSH_WEDGES_SPIRA
 10
94.33292357746072
 20
0.8960876643706983
 30
0.0
  0
VERTEX
  5
2FC
  8
THRUCUT_FLUSH_WEDGES_SPIRA
 10
94.26768085675386
 20
1.896087664370656
 30
0.0
  0
SEQEND
  5
33F
  8
THRUCUT_FLUSH_WEDGES_SPIRA
  0
ENDSEC
  0
EOF
