  0
SECTION
  2
HEADER
  9
$ACADVER
  1
AC1009
  9
$DWGCODEPAGE
  3
ansi_1252
  9
$INSBASE
 10
0.0
 20
0.0
 30
0.0
  9
$EXTMIN
 10
0.8799999999971009
 20
1.29689520481014
 30
0.0
  9
$EXTMAX
 10
95.1200000000029
 20
46.16105720596103
 30
0.0
  9
$LIMMIN
 10
0.0
 20
0.0
  9
$LIMMAX
 10
12.0
 20
9.0
  9
$ORTHOMODE
 70
     0
  9
$REGENMODE
 70
     1
  9
$FILLMODE
 70
     1
  9
$QTEXTMODE
 70
     0
  9
$MIRRTEXT
 70
     1
  9
$DRAGMODE
 70
     2
  9
$LTSCALE
 40
1.0
  9
$OSMODE
 70
    37
  9
$ATTMODE
 70
     1
  9
$TEXTSIZE
 40
0.2
  9
$TRACEWID
 40
0.05
  9
$TEXTSTYLE
  7
STANDARD
  9
$CLAYER
  8
0
  9
$CELTYPE
  6
BYLAYER
  9
$CECOLOR
 62
   256
  9
$DIMSCALE
 40
1.0
  9
$DIMASZ
 40
0.18
  9
$DIMEXO
 40
0.0625
  9
$DIMDLI
 40
0.38
  9
$DIMRND
 40
0.0
  9
$DIMDLE
 40
0.0
  9
$DIMEXE
 40
0.18
  9
$DIMTP
 40
0.0
  9
$DIMTM
 40
0.0
  9
$DIMTXT
 40
0.18
  9
$DIMCEN
 40
0.09
  9
$DIMTSZ
 40
0.0
  9
$DIMTOL
 70
     0
  9
$DIMLIM
 70
     0
  9
$DIMTIH
 70
     1
  9
$DIMTOH
 70
     1
  9
$DIMSE1
 70
     0
  9
$DIMSE2
 70
     0
  9
$DIMTAD
 70
     0
  9
$DIMZIN
 70
     0
  9
$DIMBLK
  1

  9
$DIMASO
 70
     1
  9
$DIMSHO
 70
     1
  9
$DIMPOST
  1

  9
$DIMAPOST
  1

  9
$DIMALT
 70
     0
  9
$DIMALTD
 70
     2
  9
$DIMALTF
 40
25.4
  9
$DIMLFAC
 40
1.0
  9
$DIMTOFL
 70
     0
  9
$DIMTVP
 40
0.0
  9
$DIMTIX
 70
     0
  9
$DIMSOXD
 70
     0
  9
$DIMSAH
 70
     0
  9
$DIMBLK1
  1

  9
$DIMBLK2
  1

  9
$DIMSTYLE
  2
STANDARD
  9
$DIMCLRD
 70
     0
  9
$DIMCLRE
 70
     0
  9
$DIMCLRT
 70
     0
  9
$DIMTFAC
 40
1.0
  9
$DIMGAP
 40
0.09
  9
$LUNITS
 70
     2
  9
$LUPREC
 70
     4
  9
$SKETCHINC
 40
0.1
  9
$FILLETRAD
 40
0.5
  9
$AUNITS
 70
     0
  9
$AUPREC
 70
     0
  9
$MENU
  1
.
  9
$ELEVATION
 40
0.0
  9
$PELEVATION
 40
0.0
  9
$THICKNESS
 40
0.0
  9
$LIMCHECK
 70
     0
  9
$CHAMFERA
 40
0.0
  9
$CHAMFERB
 40
0.0
  9
$SKPOLY
 70
     0
  9
$TDCREATE
 40
2454910.5
  9
$TDUPDATE
 40
2457887.541932303
  9
$TDINDWG
 40
0.0000000116
  9
$TDUSRTIMER
 40
0.0000000116
  9
$USRTIMER
 70
     1
  9
$ANGBASE
 50
0.0
  9
$ANGDIR
 70
     0
  9
$PDMODE
 70
     0
  9
$PDSIZE
 40
0.0
  9
$PLINEWID
 40
0.0
  9
$COORDS
 70
     1
  9
$SPLFRAME
 70
     0
  9
$SPLINETYPE
 70
     6
  9
$SPLINESEGS
 70
     8
  9
$ATTDIA
 70
     0
  9
$ATTREQ
 70
     1
  9
$HANDLING
 70
     1
  9
$HANDSEED
  5
23D
  9
$SURFTAB1
 70
     6
  9
$SURFTAB2
 70
     6
  9
$SURFTYPE
 70
     6
  9
$SURFU
 70
     6
  9
$SURFV
 70
     6
  9
$UCSNAME
  2

  9
$UCSORG
 10
0.0
 20
0.0
 30
0.0
  9
$UCSXDIR
 10
1.0
 20
0.0
 30
0.0
  9
$UCSYDIR
 10
0.0
 20
1.0
 30
0.0
  9
$PUCSNAME
  2

  9
$PUCSORG
 10
0.0
 20
0.0
 30
0.0
  9
$PUCSXDIR
 10
1.0
 20
0.0
 30
0.0
  9
$PUCSYDIR
 10
0.0
 20
1.0
 30
0.0
  9
$USERI1
 70
     0
  9
$USERI2
 70
     0
  9
$USERI3
 70
     0
  9
$USERI4
 70
     0
  9
$USERI5
 70
     0
  9
$USERR1
 40
0.0
  9
$USERR2
 40
0.0
  9
$USERR3
 40
0.0
  9
$USERR4
 40
0.0
  9
$USERR5
 40
0.0
  9
$WORLDVIEW
 70
     1
  9
$SHADEDGE
 70
     3
  9
$SHADEDIF
 70
    70
  9
$TILEMODE
 70
     1
  9
$MAXACTVP
 70
    64
  9
$PLIMCHECK
 70
     0
  9
$PEXTMIN
 10
1.000000000000000E+20
 20
1.000000000000000E+20
 30
1.000000000000000E+20
  9
$PEXTMAX
 10
-1.000000000000000E+20
 20
-1.000000000000000E+20
 30
-1.000000000000000E+20
  9
$PLIMMIN
 10
0.0
 20
0.0
  9
$PLIMMAX
 10
12.0
 20
9.0
  9
$UNITMODE
 70
     0
  9
$VISRETAIN
 70
     1
  9
$PLINEGEN
 70
     0
  9
$PSLTSCALE
 70
     1
  0
ENDSEC
  0
SECTION
  2
TABLES
  0
TABLE
  2
VPORT
 70
     1
  0
VPORT
  2
*ACTIVE
 70
     0
 10
0.0
 20
0.0
 11
1.0
 21
1.0
 12
10.42990654205607
 22
4.5
 13
0.0
 23
0.0
 14
0.5
 24
0.5
 15
0.5
 25
0.5
 16
0.0
 26
0.0
 36
1.0
 17
0.0
 27
0.0
 37
0.0
 40
9.0
 41
1.972972972850329
 42
50.0
 43
0.0
 44
0.0
 50
0.0
 51
0.0
 71
     0
 72
   100
 73
     1
 74
     3
 75
     0
 76
     0
 77
     0
 78
     0
  0
ENDTAB
  0
TABLE
  2
LTYPE
 70
     2
  0
LTYPE
  2
CONTINUOUS
 70
     0
  3
Solid line
 72
    65
 73
     0
 40
0.0
  0
LTYPE
  2
CONTINUOUS2
 70
     0
  3
Solid Line
 72
    65
 73
     0
 40
0.0
  0
ENDTAB
  0
TABLE
  2
LAYER
 70
     3
  0
LAYER
  2
0
 70
     0
 62
     7
  6
CONTINUOUS
  0
LAYER
  2
CUTOUT
 70
     0
 62
    18
  6
CONTINUOUS
  0
LAYER
  2
SCREW_HOLE_LOCATION_MARKER
 70
     0
 62
     1
  6
CONTINUOUS
  0
ENDTAB
  0
TABLE
  2
STYLE
 70
     1
  0
STYLE
  2
STANDARD
 70
     0
 40
0.0
 41
1.0
 50
0.0
 71
     0
 42
0.2
  3
txt
  4

  0
ENDTAB
  0
TABLE
  2
VIEW
 70
     0
  0
ENDTAB
  0
TABLE
  2
UCS
 70
     0
  0
ENDTAB
  0
TABLE
  2
APPID
 70
     1
  0
APPID
  2
ACAD
 70
     0
  0
ENDTAB
  0
TABLE
  2
DIMSTYLE
 70
     1
  0
DIMSTYLE
  2
STANDARD
 70
     0
  3

  4

  5

  6

  7

 40
1.0
 41
0.18
 42
0.0625
 43
0.38
 44
0.18
 45
0.0
 46
0.0
 47
0.0
 48
0.0
140
0.18
141
0.09
142
0.0
143
25.4
144
1.0
145
0.0
146
1.0
147
0.09
 71
     0
 72
     0
 73
     1
 74
     1
 75
     0
 76
     0
 77
     0
 78
     0
170
     0
171
     2
172
     0
173
     0
174
     0
175
     0
176
     0
177
     0
178
     0
  0
ENDTAB
  0
ENDSEC
  0
SECTION
  2
BLOCKS
  0
BLOCK
  8
0
  2
$MODEL_SPACE
 70
     0
 10
0.0
 20
0.0
 30
0.0
  3
$MODEL_SPACE
  1

  0
ENDBLK
  5
21
  8
0
  0
BLOCK
 67
     1
  8
0
  2
$PAPER_SPACE
 70
     0
 10
0.0
 20
0.0
 30
0.0
  3
$PAPER_SPACE
  1

  0
ENDBLK
  5
1D
 67
     1
  8
0
  0
ENDSEC
  0
SECTION
  2
ENTITIES
  0
POLYLINE
  5
70
  8
CUTOUT
 66
     1
 10
0.0
 20
0.0
 30
0.0
 70
     1
  0
VERTEX
  5
94
  8
CUTOUT
 10
25.12749999999813
 20
4.296895204810069
 30
0.0
 42
-0.41421356237052
  0
VERTEX
  5
95
  8
CUTOUT
 10
25.25749999999812
 20
4.16689520481127
 30
0.0
  0
VERTEX
  5
96
  8
CUTOUT
 10
25.25749999999984
 20
3.980742967918612
 30
0.0
 42
1.0
  0
VERTEX
  5
97
  8
CUTOUT
 10
25.44134776310843
 20
3.796895204810081
 30
0.0
  0
VERTEX
  5
98
  8
CUTOUT
 10
25.57365223689137
 20
3.796895204810081
 30
0.0
 42
1.0
  0
VERTEX
  5
99
  8
CUTOUT
 10
25.75749999999984
 20
3.980742967918612
 30
0.0
  0
VERTEX
  5
9A
  8
CUTOUT
 10
25.75750000000001
 20
4.166895204810604
 30
0.0
 42
-0.4142135623722393
  0
VERTEX
  5
9B
  8
CUTOUT
 10
25.88750000000011
 20
4.296895204810487
 30
0.0
  0
VERTEX
  5
9C
  8
CUTOUT
 10
26.38749999999984
 20
4.296895204810081
 30
0.0
  0
VERTEX
  5
9D
  8
CUTOUT
 10
47.61999999999966
 20
4.296895204810593
 30
0.0
 42
-0.4142135623736434
  0
VERTEX
  5
9E
  8
CUTOUT
 10
47.74999999999965
 20
4.166895204810597
 30
0.0
  0
VERTEX
  5
9F
  8
CUTOUT
 10
47.74999999999965
 20
3.980742967919067
 30
0.0
 42
1.0
  0
VERTEX
  5
A0
  8
CUTOUT
 10
47.93384776310813
 20
3.796895204810593
 30
0.0
  0
VERTEX
  5
A1
  8
CUTOUT
 10
48.06615223689117
 20
3.796895204810593
 30
0.0
 42
1.0
  0
VERTEX
  5
A2
  8
CUTOUT
 10
48.24999999999965
 20
3.980742967919067
 30
0.0
  0
VERTEX
  5
A3
  8
CUTOUT
 10
48.24999999999965
 20
4.166895204810597
 30
0.0
 42
-0.4142135623732267
  0
VERTEX
  5
A4
  8
CUTOUT
 10
48.37999999999964
 20
4.296895204810593
 30
0.0
  0
VERTEX
  5
A5
  8
CUTOUT
 10
59.22268037295169
 20
4.296895204810337
 30
0.0
  0
VERTEX
  5
A6
  8
CUTOUT
 10
70.11249999999956
 20
4.296895204810081
 30
0.0
 42
-0.4142135623736434
  0
VERTEX
  5
A7
  8
CUTOUT
 10
70.24249999999967
 20
4.166895204810086
 30
0.0
  0
VERTEX
  5
A8
  8
CUTOUT
 10
70.24249999999967
 20
3.980742967918612
 30
0.0
 42
1.0
  0
VERTEX
  5
A9
  8
CUTOUT
 10
70.42634776310803
 20
3.796895204810081
 30
0.0
  0
VERTEX
  5
AA
  8
CUTOUT
 10
70.55865223689108
 20
3.796895204810081
 30
0.0
 42
1.0
  0
VERTEX
  5
AB
  8
CUTOUT
 10
70.74249999999967
 20
3.980742967918612
 30
0.0
  0
VERTEX
  5
AC
  8
CUTOUT
 10
70.74249999999967
 20
4.166895204810086
 30
0.0
 42
-0.4142135623732267
  0
VERTEX
  5
AD
  8
CUTOUT
 10
70.87249999999955
 20
4.296895204810081
 30
0.0
  0
VERTEX
  5
AE
  8
CUTOUT
 10
92.62000000000089
 20
4.29689520481059
 30
0.0
 42
-0.4142135623485056
  0
VERTEX
  5
AF
  8
CUTOUT
 10
92.75000000000088
 20
4.166895204811794
 30
0.0
  0
VERTEX
  5
B0
  8
CUTOUT
 10
92.75000000000261
 20
3.980742967919138
 30
0.0
 42
1.0
  0
VERTEX
  5
B1
  8
CUTOUT
 10
92.9338477631112
 20
3.796895204810607
 30
0.0
  0
VERTEX
  5
B2
  8
CUTOUT
 10
93.06615223689414
 20
3.796895204810607
 30
0.0
 42
1.0
  0
VERTEX
  5
B3
  8
CUTOUT
 10
93.25000000000261
 20
3.980742967919138
 30
0.0
  0
VERTEX
  5
B4
  8
CUTOUT
 10
93.25000000000279
 20
4.166895204811236
 30
0.0
 42
-0.4142135623022076
  0
VERTEX
  5
B5
  8
CUTOUT
 10
93.38000000000278
 20
4.296895204811118
 30
0.0
  0
VERTEX
  5
B6
  8
CUTOUT
 10
94.62000000000288
 20
4.296895204811122
 30
0.0
 42
-0.414213562372271
  0
VERTEX
  5
B7
  8
CUTOUT
 10
95.1200000000029
 20
3.796895204811122
 30
0.0
  0
VERTEX
  5
B8
  8
CUTOUT
 10
95.1200000000029
 20
1.79689520481069
 30
0.0
 42
-0.4142135623679323
  0
VERTEX
  5
B9
  8
CUTOUT
 10
94.62000000000288
 20
1.296895204810692
 30
0.0
  0
VERTEX
  5
BA
  8
CUTOUT
 10
93.38000000000278
 20
1.296895204810695
 30
0.0
 42
-0.4142135622912967
  0
VERTEX
  5
BB
  8
CUTOUT
 10
93.25000000000279
 20
1.426895204810577
 30
0.0
  0
VERTEX
  5
BC
  8
CUTOUT
 10
93.25000000000261
 20
1.613047441702134
 30
0.0
 42
1.0
  0
VERTEX
  5
BD
  8
CUTOUT
 10
93.06615223689414
 20
1.796895204810609
 30
0.0
  0
VERTEX
  5
BE
  8
CUTOUT
 10
92.9338477631112
 20
1.796895204810609
 30
0.0
 42
1.0
  0
VERTEX
  5
BF
  8
CUTOUT
 10
92.75000000000261
 20
1.613047441702134
 30
0.0
  0
VERTEX
  5
C0
  8
CUTOUT
 10
92.75000000000094
 20
1.426895204809436
 30
0.0
 42
-0.4142135623565731
  0
VERTEX
  5
C1
  8
CUTOUT
 10
92.62000000000094
 20
1.296895204810592
 30
0.0
  0
VERTEX
  5
C2
  8
CUTOUT
 10
70.87249999999955
 20
1.296895204810169
 30
0.0
 42
-0.4142135623736935
  0
VERTEX
  5
C3
  8
CUTOUT
 10
70.74249999999967
 20
1.426895204810136
 30
0.0
  0
VERTEX
  5
C4
  8
CUTOUT
 10
70.74249999999967
 20
1.613047441701609
 30
0.0
 42
1.0
  0
VERTEX
  5
C5
  8
CUTOUT
 10
70.55865223689108
 20
1.796895204810083
 30
0.0
  0
VERTEX
  5
C6
  8
CUTOUT
 10
70.42634776310803
 20
1.796895204810083
 30
0.0
 42
1.0
  0
VERTEX
  5
C7
  8
CUTOUT
 10
70.24249999999967
 20
1.613047441701609
 30
0.0
  0
VERTEX
  5
C8
  8
CUTOUT
 10
70.24249999999967
 20
1.426895204810136
 30
0.0
 42
-0.4142135623747849
  0
VERTEX
  5
C9
  8
CUTOUT
 10
70.11249999999956
 20
1.296895204810169
 30
0.0
  0
VERTEX
  5
CA
  8
CUTOUT
 10
48.37999999999964
 20
1.296895204810623
 30
0.0
 42
-0.4142135623736935
  0
VERTEX
  5
CB
  8
CUTOUT
 10
48.24999999999965
 20
1.426895204810591
 30
0.0
  0
VERTEX
  5
CC
  8
CUTOUT
 10
48.24999999999965
 20
1.613047441702121
 30
0.0
 42
1.0
  0
VERTEX
  5
CD
  8
CUTOUT
 10
48.06615223689117
 20
1.796895204810596
 30
0.0
  0
VERTEX
  5
CE
  8
CUTOUT
 10
47.93384776310813
 20
1.796895204810596
 30
0.0
 42
1.0
  0
VERTEX
  5
CF
  8
CUTOUT
 10
47.74999999999965
 20
1.613047441702121
 30
0.0
  0
VERTEX
  5
D0
  8
CUTOUT
 10
47.74999999999965
 20
1.426895204810591
 30
0.0
 42
-0.4142135623747849
  0
VERTEX
  5
D1
  8
CUTOUT
 10
47.61999999999966
 20
1.296895204810623
 30
0.0
  0
VERTEX
  5
D2
  8
CUTOUT
 10
25.88750000000001
 20
1.296895204810171
 30
0.0
 42
-0.4142135623695907
  0
VERTEX
  5
D3
  8
CUTOUT
 10
25.75750000000001
 20
1.426895204810055
 30
0.0
  0
VERTEX
  5
D4
  8
CUTOUT
 10
25.75749999999984
 20
1.613047441701609
 30
0.0
 42
1.0
  0
VERTEX
  5
D5
  8
CUTOUT
 10
25.57365223689137
 20
1.796895204810083
 30
0.0
  0
VERTEX
  5
D6
  8
CUTOUT
 10
25.44134776310843
 20
1.796895204810083
 30
0.0
 42
1.0
  0
VERTEX
  5
D7
  8
CUTOUT
 10
25.25749999999984
 20
1.613047441701609
 30
0.0
  0
VERTEX
  5
D8
  8
CUTOUT
 10
25.25749999999812
 20
1.426895204808941
 30
0.0
 42
-0.4142135623659175
  0
VERTEX
  5
D9
  8
CUTOUT
 10
25.12749999999812
 20
1.296895204810142
 30
0.0
  0
VERTEX
  5
DA
  8
CUTOUT
 10
3.380000000000187
 20
1.296895204810394
 30
0.0
 42
-0.4142135623726492
  0
VERTEX
  5
DB
  8
CUTOUT
 10
3.250000000000189
 20
1.426895204810278
 30
0.0
  0
VERTEX
  5
DC
  8
CUTOUT
 10
3.250000000000021
 20
1.613047441701609
 30
0.0
 42
1.0
  0
VERTEX
  5
DD
  8
CUTOUT
 10
3.066152236891547
 20
1.796895204810083
 30
0.0
  0
VERTEX
  5
DE
  8
CUTOUT
 10
2.933847763108609
 20
1.796895204810083
 30
0.0
 42
1.0
  0
VERTEX
  5
DF
  8
CUTOUT
 10
2.750000000000021
 20
1.613047441701609
 30
0.0
  0
VERTEX
  5
E0
  8
CUTOUT
 10
2.749999999998302
 20
1.426895204808939
 30
0.0
 42
-0.4142135623704618
  0
VERTEX
  5
E1
  8
CUTOUT
 10
2.619999999998302
 20
1.29689520481014
 30
0.0
  0
VERTEX
  5
E2
  8
CUTOUT
 10
1.379999999997101
 20
1.29689520481014
 30
0.0
 42
-0.414213562373096
  0
VERTEX
  5
E3
  8
CUTOUT
 10
0.8799999999971009
 20
1.79689520481014
 30
0.0
  0
VERTEX
  5
E4
  8
CUTOUT
 10
0.8799999999971009
 20
3.796895204810069
 30
0.0
 42
-0.4142135623730968
  0
VERTEX
  5
E5
  8
CUTOUT
 10
1.379999999997112
 20
4.296895204810069
 30
0.0
  0
VERTEX
  5
E6
  8
CUTOUT
 10
2.619999999998302
 20
4.296895204810067
 30
0.0
 42
-0.414213562370103
  0
VERTEX
  5
E7
  8
CUTOUT
 10
2.749999999998302
 20
4.166895204811268
 30
0.0
  0
VERTEX
  5
E8
  8
CUTOUT
 10
2.750000000000021
 20
3.980742967918612
 30
0.0
 42
1.0
  0
VERTEX
  5
E9
  8
CUTOUT
 10
2.933847763108609
 20
3.796895204810081
 30
0.0
  0
VERTEX
  5
EA
  8
CUTOUT
 10
3.066152236891547
 20
3.796895204810081
 30
0.0
 42
1.0
  0
VERTEX
  5
EB
  8
CUTOUT
 10
3.250000000000021
 20
3.980742967918612
 30
0.0
  0
VERTEX
  5
EC
  8
CUTOUT
 10
3.250000000000189
 20
4.166895204810706
 30
0.0
 42
-0.4142135623729941
  0
VERTEX
  5
ED
  8
CUTOUT
 10
3.380000000000192
 20
4.29689520481059
 30
0.0
  0
SEQEND
  5
221
  8
CUTOUT
  0
POLYLINE
  5
71
  8
CUTOUT
 66
     1
 10
0.0
 20
0.0
 30
0.0
 70
     1
  0
VERTEX
  5
EE
  8
CUTOUT
 10
92.74998381682926
 20
31.12456557091856
 30
0.0
  0
VERTEX
  5
EF
  8
CUTOUT
 10
92.74998085044143
 20
34.53106312615958
 30
0.0
 42
-1.0
  0
VERTEX
  5
F0
  8
CUTOUT
 10
92.74998062304326
 20
34.79106312615946
 30
0.0
  0
VERTEX
  5
F1
  8
CUTOUT
 10
93.1199806230432
 20
34.79106312615923
 30
0.0
 42
0.4142135623194727
  0
VERTEX
  5
F2
  8
CUTOUT
 10
93.24998062304326
 20
34.92106312615923
 30
0.0
  0
VERTEX
  5
F3
  8
CUTOUT
 10
93.24998062304309
 20
36.6310631261594
 30
0.0
 42
0.4142135623883668
  0
VERTEX
  5
F4
  8
CUTOUT
 10
93.11998062304332
 20
36.76106312615934
 30
0.0
  0
VERTEX
  5
F5
  8
CUTOUT
 10
92.74998062304326
 20
36.76106312616008
 30
0.0
 42
-1.0
  0
VERTEX
  5
F6
  8
CUTOUT
 10
92.74998039564508
 20
37.02106312615996
 30
0.0
  0
VERTEX
  5
F7
  8
CUTOUT
 10
92.74997688544985
 20
40.33856507360065
 30
0.0
  0
VERTEX
  5
F8
  8
CUTOUT
 10
92.14997826121436
 20
40.33856507352165
 30
0.0
  0
VERTEX
  5
F9
  8
CUTOUT
 10
92.14997828386964
 20
39.6524076628324
 30
0.0
 42
-1.0
  0
VERTEX
  5
FA
  8
CUTOUT
 10
91.96612823239167
 20
39.46855989366796
 30
0.0
  0
VERTEX
  5
FB
  8
CUTOUT
 10
91.83382378393623
 20
39.46856154047319
 30
0.0
 42
-1.0
  0
VERTEX
  5
FC
  8
CUTOUT
 10
91.64997830919725
 20
39.65240930357005
 30
0.0
  0
VERTEX
  5
FD
  8
CUTOUT
 10
91.64997830920726
 20
40.33856507352165
 30
0.0
  0
VERTEX
  5
FE
  8
CUTOUT
 10
91.14997828306451
 20
40.33856507352165
 30
0.0
  0
VERTEX
  5
FF
  8
CUTOUT
 10
91.14997828306451
 20
40.59856507352164
 30
0.0
  0
VERTEX
  5
100
  8
CUTOUT
 10
91.64997830920726
 20
40.59856507352164
 30
0.0
  0
VERTEX
  5
101
  8
CUTOUT
 10
91.64997830920794
 20
41.28471731041431
 30
0.0
 42
-1.0
  0
VERTEX
  5
102
  8
CUTOUT
 10
91.83382607231766
 20
41.46856507352267
 30
0.0
  0
VERTEX
  5
103
  8
CUTOUT
 10
91.96613046686713
 20
41.46856507352176
 30
0.0
 42
-1.0
  0
VERTEX
  5
104
  8
CUTOUT
 10
92.14997822997412
 20
41.28471731648348
 30
0.0
  0
VERTEX
  5
105
  8
CUTOUT
 10
92.14997825262941
 20
40.59856507352164
 30
0.0
  0
VERTEX
  5
106
  8
CUTOUT
 10
92.74997790165071
 20
40.5985650735211
 30
0.0
  0
VERTEX
  5
107
  8
CUTOUT
 10
92.74997439145551
 20
43.91606702096178
 30
0.0
 42
-1.0
  0
VERTEX
  5
108
  8
CUTOUT
 10
92.74997416405733
 20
44.17606702096165
 30
0.0
  0
VERTEX
  5
109
  8
CUTOUT
 10
93.1199750037265
 20
44.17606702096188
 30
0.0
 42
0.4142116705503768
  0
VERTEX
  5
10A
  8
CUTOUT
 10
93.2499750037237
 20
44.3060661812905
 30
0.0
  0
VERTEX
  5
10B
  8
CUTOUT
 10
93.2499862423386
 20
46.03105636630541
 30
0.0
 42
0.4142200173852707
  0
VERTEX
  5
10C
  8
CUTOUT
 10
93.11998421699167
 20
46.16105720596103
 30
0.0
  0
VERTEX
  5
10D
  8
CUTOUT
 10
92.74999999999983
 20
46.16105144175039
 30
0.0
  0
VERTEX
  5
10E
  8
CUTOUT
 10
70.7425256085433
 20
46.16105144175033
 30
0.0
  0
VERTEX
  5
10F
  8
CUTOUT
 10
70.7425256085433
 20
44.92105144175038
 30
0.0
 42
-1.0
  0
VERTEX
  5
110
  8
CUTOUT
 10
70.7425256085433
 20
44.66105144175033
 30
0.0
  0
VERTEX
  5
111
  8
CUTOUT
 10
70.2425256085433
 20
44.66105144175033
 30
0.0
 42
-1.0
  0
VERTEX
  5
112
  8
CUTOUT
 10
70.2425256085433
 20
44.92105144175038
 30
0.0
  0
VERTEX
  5
113
  8
CUTOUT
 10
70.24252560854313
 20
46.16105144175033
 30
0.0
  0
VERTEX
  5
114
  8
CUTOUT
 10
59.06157303370787
 20
46.16105144175036
 30
0.0
  0
VERTEX
  5
115
  8
CUTOUT
 10
48.25002560854335
 20
46.16105144175039
 30
0.0
  0
VERTEX
  5
116
  8
CUTOUT
 10
48.25002560854329
 20
44.92105144175038
 30
0.0
 42
-1.0
  0
VERTEX
  5
117
  8
CUTOUT
 10
48.25002560854329
 20
44.66105144175039
 30
0.0
  0
VERTEX
  5
118
  8
CUTOUT
 10
47.75002560854329
 20
44.66105144175039
 30
0.0
 42
-1.0
  0
VERTEX
  5
119
  8
CUTOUT
 10
47.75002560854329
 20
44.92105144175038
 30
0.0
  0
VERTEX
  5
11A
  8
CUTOUT
 10
47.75002560854323
 20
46.16105144175039
 30
0.0
  0
VERTEX
  5
11B
  8
CUTOUT
 10
25.75752560854391
 20
46.16105144175033
 30
0.0
  0
VERTEX
  5
11C
  8
CUTOUT
 10
25.75752560854391
 20
44.92105144175032
 30
0.0
 42
-1.0
  0
VERTEX
  5
11D
  8
CUTOUT
 10
25.75752560854391
 20
44.66105144175033
 30
0.0
  0
VERTEX
  5
11E
  8
CUTOUT
 10
25.25752560854391
 20
44.66105144175033
 30
0.0
 42
-1.0
  0
VERTEX
  5
11F
  8
CUTOUT
 10
25.25752560854391
 20
44.92105144175032
 30
0.0
  0
VERTEX
  5
120
  8
CUTOUT
 10
25.25752560854391
 20
46.16105144175033
 30
0.0
  0
VERTEX
  5
121
  8
CUTOUT
 10
3.250000000000107
 20
46.16105144175033
 30
0.0
  0
VERTEX
  5
122
  8
CUTOUT
 10
2.880015783008268
 20
46.16105720596097
 30
0.0
 42
0.4142200173852707
  0
VERTEX
  5
123
  8
CUTOUT
 10
2.7500137576614
 20
46.03105636630541
 30
0.0
  0
VERTEX
  5
124
  8
CUTOUT
 10
2.750024996276231
 20
44.3060661812905
 30
0.0
 42
0.4142116705503768
  0
VERTEX
  5
125
  8
CUTOUT
 10
2.880024996273498
 20
44.17606702096188
 30
0.0
  0
VERTEX
  5
126
  8
CUTOUT
 10
3.250025835942601
 20
44.17606702096165
 30
0.0
 42
-1.0
  0
VERTEX
  5
127
  8
CUTOUT
 10
3.250025608544426
 20
43.91606702096178
 30
0.0
  0
VERTEX
  5
128
  8
CUTOUT
 10
3.250023228249153
 20
40.59856507352208
 30
0.0
  0
VERTEX
  5
129
  8
CUTOUT
 10
3.850021738785579
 20
40.5985650736001
 30
0.0
  0
VERTEX
  5
12A
  8
CUTOUT
 10
3.850021716130293
 20
41.28472248428933
 30
0.0
 42
-1.0
  0
VERTEX
  5
12B
  8
CUTOUT
 10
4.033871767608268
 20
41.46857025345379
 30
0.0
  0
VERTEX
  5
12C
  8
CUTOUT
 10
4.166176216063711
 20
41.46856860664856
 30
0.0
 42
-1.0
  0
VERTEX
  5
12D
  8
CUTOUT
 10
4.350021690802684
 20
41.28472084355168
 30
0.0
  0
VERTEX
  5
12E
  8
CUTOUT
 10
4.35002169079268
 20
40.5985650736001
 30
0.0
  0
VERTEX
  5
12F
  8
CUTOUT
 10
4.850021716935423
 20
40.5985650736001
 30
0.0
  0
VERTEX
  5
130
  8
CUTOUT
 10
4.850021716935423
 20
40.33856507360011
 30
0.0
  0
VERTEX
  5
131
  8
CUTOUT
 10
4.35002169079268
 20
40.33856507360011
 30
0.0
  0
VERTEX
  5
132
  8
CUTOUT
 10
4.350021690791998
 20
39.65241283670743
 30
0.0
 42
-1.0
  0
VERTEX
  5
133
  8
CUTOUT
 10
4.166173927682273
 20
39.46856507359907
 30
0.0
  0
VERTEX
  5
134
  8
CUTOUT
 10
4.033869533132808
 20
39.46856507359998
 30
0.0
 42
-1.0
  0
VERTEX
  5
135
  8
CUTOUT
 10
3.850021770025812
 20
39.65241283063827
 30
0.0
  0
VERTEX
  5
136
  8
CUTOUT
 10
3.850021747370526
 20
40.33856507360011
 30
0.0
  0
VERTEX
  5
137
  8
CUTOUT
 10
3.250021984650128
 20
40.33856507360009
 30
0.0
  0
VERTEX
  5
138
  8
CUTOUT
 10
3.250019604354854
 20
37.02106312615996
 30
0.0
 42
-1.0
  0
VERTEX
  5
139
  8
CUTOUT
 10
3.250019376956736
 20
36.76106312616008
 30
0.0
  0
VERTEX
  5
13A
  8
CUTOUT
 10
2.880019376956675
 20
36.76106312615934
 30
0.0
 42
0.4142135623883668
  0
VERTEX
  5
13B
  8
CUTOUT
 10
2.750019376956907
 20
36.63106312615935
 30
0.0
  0
VERTEX
  5
13C
  8
CUTOUT
 10
2.750019376956679
 20
34.92106312615923
 30
0.0
 42
0.4142135623194727
  0
VERTEX
  5
13D
  8
CUTOUT
 10
2.880019376956788
 20
34.79106312615923
 30
0.0
  0
VERTEX
  5
13E
  8
CUTOUT
 10
3.250019376956736
 20
34.79106312615946
 30
0.0
 42
-1.0
  0
VERTEX
  5
13F
  8
CUTOUT
 10
3.250019149558561
 20
34.53106312615958
 30
0.0
  0
VERTEX
  5
140
  8
CUTOUT
 10
3.2500161605983
 20
31.09857860249119
 30
0.0
  0
VERTEX
  5
141
  8
CUTOUT
 10
3.25001314536933
 20
27.63605923135612
 30
0.0
 42
-1.0
  0
VERTEX
  5
142
  8
CUTOUT
 10
3.250012917971155
 20
27.37605923135619
 30
0.0
  0
VERTEX
  5
143
  8
CUTOUT
 10
2.880012917971378
 20
27.37605923135625
 30
0.0
 42
0.4142135623900057
  0
VERTEX
  5
144
  8
CUTOUT
 10
2.750012917971326
 20
27.24605923135625
 30
0.0
  0
VERTEX
  5
145
  8
CUTOUT
 10
2.750012917971041
 20
25.5360592313559
 30
0.0
 42
0.4142135623722412
  0
VERTEX
  5
146
  8
CUTOUT
 10
2.880012917970923
 20
25.40605923135591
 30
0.0
  0
VERTEX
  5
147
  8
CUTOUT
 10
3.250012917971212
 20
25.40605923135556
 30
0.0
 42
-1.0
  0
VERTEX
  5
148
  8
CUTOUT
 10
3.250012690573151
 20
25.14605923135569
 30
0.0
  0
VERTEX
  5
149
  8
CUTOUT
 10
3.250010310279299
 20
21.82855728391537
 30
0.0
  0
VERTEX
  5
14A
  8
CUTOUT
 10
3.85000882081575
 20
21.82855728399337
 30
0.0
  0
VERTEX
  5
14B
  8
CUTOUT
 10
3.850008798160465
 20
22.51471469468262
 30
0.0
 42
-1.0
  0
VERTEX
  5
14C
  8
CUTOUT
 10
4.03385884963844
 20
22.69856246384708
 30
0.0
  0
VERTEX
  5
14D
  8
CUTOUT
 10
4.166163298093883
 20
22.69856081704185
 30
0.0
 42
-1.0
  0
VERTEX
  5
14E
  8
CUTOUT
 10
4.350008772832856
 20
22.51471305394497
 30
0.0
  0
VERTEX
  5
14F
  8
CUTOUT
 10
4.350008772822852
 20
21.82855728399337
 30
0.0
  0
VERTEX
  5
150
  8
CUTOUT
 10
4.850008798965595
 20
21.82855728399337
 30
0.0
  0
VERTEX
  5
151
  8
CUTOUT
 10
4.850008798965595
 20
21.56855728399338
 30
0.0
  0
VERTEX
  5
152
  8
CUTOUT
 10
4.350008772822852
 20
21.56855728399338
 30
0.0
  0
VERTEX
  5
153
  8
CUTOUT
 10
4.35000877282217
 20
20.88240504710071
 30
0.0
 42
-1.0
  0
VERTEX
  5
154
  8
CUTOUT
 10
4.166161009712445
 20
20.69855728399235
 30
0.0
  0
VERTEX
  5
155
  8
CUTOUT
 10
4.03385661516298
 20
20.69855728399326
 30
0.0
 42
-1.0
  0
VERTEX
  5
156
  8
CUTOUT
 10
3.850008852055984
 20
20.88240504103154
 30
0.0
  0
VERTEX
  5
157
  8
CUTOUT
 10
3.850008829400698
 20
21.56855728399338
 30
0.0
  0
VERTEX
  5
158
  8
CUTOUT
 10
3.250009066680329
 20
21.56855728399337
 30
0.0
  0
VERTEX
  5
159
  8
CUTOUT
 10
3.250006686386477
 20
18.25105533655262
 30
0.0
 42
-1.0
  0
VERTEX
  5
15A
  8
CUTOUT
 10
3.250006458988416
 20
17.99105533655274
 30
0.0
  0
VERTEX
  5
15B
  8
CUTOUT
 10
2.880006458988298
 20
17.99105533655274
 30
0.0
 42
0.4142135623707276
  0
VERTEX
  5
15C
  8
CUTOUT
 10
2.750006458988303
 20
17.86105533655275
 30
0.0
  0
VERTEX
  5
15D
  8
CUTOUT
 10
2.75000645898847
 20
16.15105533654629
 30
0.0
 42
0.4142135623617728
  0
VERTEX
  5
15E
  8
CUTOUT
 10
2.880006458988582
 20
16.02105533655241
 30
0.0
  0
VERTEX
  5
15F
  8
CUTOUT
 10
3.250006458988416
 20
16.02105533655275
 30
0.0
 42
-1.0
  0
VERTEX
  5
160
  8
CUTOUT
 10
3.250006231590184
 20
15.76105533655284
 30
0.0
  0
VERTEX
  5
161
  8
CUTOUT
 10
3.250000536821624
 20
9.116051425960343
 30
0.0
 42
-1.0
  0
VERTEX
  5
162
  8
CUTOUT
 10
3.250000000000107
 20
8.856051441750319
 30
0.0
  0
VERTEX
  5
163
  8
CUTOUT
 10
2.880000000000102
 20
8.856051441750319
 30
0.0
 42
0.4142135624166349
  0
VERTEX
  5
164
  8
CUTOUT
 10
2.750000000000107
 20
8.726051441750325
 30
0.0
  0
VERTEX
  5
165
  8
CUTOUT
 10
2.750000000000107
 20
6.766051441750371
 30
0.0
 42
0.414213562355516
  0
VERTEX
  5
166
  8
CUTOUT
 10
2.880000000000102
 20
6.636051441750376
 30
0.0
  0
VERTEX
  5
167
  8
CUTOUT
 10
25.12752560854391
 20
6.636051441750319
 30
0.0
 42
0.4142135623743218
  0
VERTEX
  5
168
  8
CUTOUT
 10
25.25752560854391
 20
6.766051441750321
 30
0.0
  0
VERTEX
  5
169
  8
CUTOUT
 10
25.25752560854391
 20
7.876051441750327
 30
0.0
 42
-1.0
  0
VERTEX
  5
16A
  8
CUTOUT
 10
25.25752560854391
 20
8.136051441750318
 30
0.0
  0
VERTEX
  5
16B
  8
CUTOUT
 10
25.75752560854391
 20
8.136051441750318
 30
0.0
 42
-1.0
  0
VERTEX
  5
16C
  8
CUTOUT
 10
25.75752560854391
 20
7.876051441750327
 30
0.0
  0
VERTEX
  5
16D
  8
CUTOUT
 10
25.75752560854391
 20
6.766051441750317
 30
0.0
 42
0.4142135623725299
  0
VERTEX
  5
16E
  8
CUTOUT
 10
25.8875256085439
 20
6.636051441750319
 30
0.0
  0
VERTEX
  5
16F
  8
CUTOUT
 10
47.62002560854323
 20
6.636051441750348
 30
0.0
 42
0.4142135623723871
  0
VERTEX
  5
170
  8
CUTOUT
 10
47.75002560854324
 20
6.766051441750342
 30
0.0
  0
VERTEX
  5
171
  8
CUTOUT
 10
47.75002560854329
 20
7.876051441750327
 30
0.0
 42
-1.0
  0
VERTEX
  5
172
  8
CUTOUT
 10
47.75002560854329
 20
8.136051441750347
 30
0.0
  0
VERTEX
  5
173
  8
CUTOUT
 10
48.25002560854329
 20
8.136051441750347
 30
0.0
 42
-1.0
  0
VERTEX
  5
174
  8
CUTOUT
 10
48.25002560854329
 20
7.876051441750356
 30
0.0
  0
VERTEX
  5
175
  8
CUTOUT
 10
48.25002560854335
 20
6.766051441750342
 30
0.0
 42
0.4142135623572061
  0
VERTEX
  5
176
  8
CUTOUT
 10
48.38002560854334
 20
6.636051441750348
 30
0.0
  0
VERTEX
  5
177
  8
CUTOUT
 10
70.1125256085432
 20
6.636051441750348
 30
0.0
 42
0.4142135623586948
  0
VERTEX
  5
178
  8
CUTOUT
 10
70.24252560854319
 20
6.766051441750335
 30
0.0
  0
VERTEX
  5
179
  8
CUTOUT
 10
70.2425256085433
 20
7.876051441750356
 30
0.0
 42
-1.0
  0
VERTEX
  5
17A
  8
CUTOUT
 10
70.2425256085433
 20
8.136051441750375
 30
0.0
  0
VERTEX
  5
17B
  8
CUTOUT
 10
70.7425256085433
 20
8.136051441750375
 30
0.0
 42
-1.0
  0
VERTEX
  5
17C
  8
CUTOUT
 10
70.7425256085433
 20
7.876051441750356
 30
0.0
  0
VERTEX
  5
17D
  8
CUTOUT
 10
70.7425256085433
 20
6.766051441750347
 30
0.0
 42
0.4142135623647332
  0
VERTEX
  5
17E
  8
CUTOUT
 10
70.8725256085433
 20
6.636051441750348
 30
0.0
  0
VERTEX
  5
17F
  8
CUTOUT
 10
92.74999999999983
 20
6.636051441750348
 30
0.0
  0
VERTEX
  5
180
  8
CUTOUT
 10
93.11999999999983
 20
6.636051441750376
 30
0.0
 42
0.414213562355516
  0
VERTEX
  5
181
  8
CUTOUT
 10
93.24999999999983
 20
6.766051441516881
 30
0.0
  0
VERTEX
  5
182
  8
CUTOUT
 10
93.24999999999983
 20
8.726051441750354
 30
0.0
 42
0.4142135624166349
  0
VERTEX
  5
183
  8
CUTOUT
 10
93.11999999999983
 20
8.856051441750347
 30
0.0
  0
VERTEX
  5
184
  8
CUTOUT
 10
92.74999999999983
 20
8.856051441750347
 30
0.0
 42
-1.0
  0
VERTEX
  5
185
  8
CUTOUT
 10
92.74999956879344
 20
9.116051431560473
 30
0.0
  0
VERTEX
  5
186
  8
CUTOUT
 10
92.7499967049475
 20
12.39691501008619
 30
0.0
  0
VERTEX
  5
187
  8
CUTOUT
 10
92.74999376840981
 20
15.76105533655287
 30
0.0
 42
-1.0
  0
VERTEX
  5
188
  8
CUTOUT
 10
92.74999354101158
 20
16.02105533655275
 30
0.0
  0
VERTEX
  5
189
  8
CUTOUT
 10
93.11999354101135
 20
16.02105533655244
 30
0.0
 42
0.4142135623617728
  0
VERTEX
  5
18A
  8
CUTOUT
 10
93.24999354101146
 20
16.1510553365524
 30
0.0
  0
VERTEX
  5
18B
  8
CUTOUT
 10
93.24999354101163
 20
17.86105533655275
 30
0.0
 42
0.4142135623707276
  0
VERTEX
  5
18C
  8
CUTOUT
 10
93.11999354101164
 20
17.99105533655274
 30
0.0
  0
VERTEX
  5
18D
  8
CUTOUT
 10
92.74999354101158
 20
17.99105533655274
 30
0.0
 42
-1.0
  0
VERTEX
  5
18E
  8
CUTOUT
 10
92.74999331361352
 20
18.25105533655262
 30
0.0
  0
VERTEX
  5
18F
  8
CUTOUT
 10
92.74998980341971
 20
21.56855728399392
 30
0.0
  0
VERTEX
  5
190
  8
CUTOUT
 10
92.14999117918424
 20
21.56855728391494
 30
0.0
  0
VERTEX
  5
191
  8
CUTOUT
 10
92.14999120183953
 20
20.88239987322569
 30
0.0
 42
-1.0
  0
VERTEX
  5
192
  8
CUTOUT
 10
91.96614115036155
 20
20.69855210406123
 30
0.0
  0
VERTEX
  5
193
  8
CUTOUT
 10
91.83383670190611
 20
20.69855375086646
 30
0.0
 42
-1.0
  0
VERTEX
  5
194
  8
CUTOUT
 10
91.64999122716713
 20
20.88240151396334
 30
0.0
  0
VERTEX
  5
195
  8
CUTOUT
 10
91.64999122717714
 20
21.56855728391494
 30
0.0
  0
VERTEX
  5
196
  8
CUTOUT
 10
91.1499912010344
 20
21.56855728391494
 30
0.0
  0
VERTEX
  5
197
  8
CUTOUT
 10
91.1499912010344
 20
21.82855728391493
 30
0.0
  0
VERTEX
  5
198
  8
CUTOUT
 10
91.64999122717714
 20
21.82855728391493
 30
0.0
  0
VERTEX
  5
199
  8
CUTOUT
 10
91.64999122717782
 20
22.51470952080759
 30
0.0
 42
-1.0
  0
VERTEX
  5
19A
  8
CUTOUT
 10
91.83383899028755
 20
22.69855728391595
 30
0.0
  0
VERTEX
  5
19B
  8
CUTOUT
 10
91.96614338483701
 20
22.69855728391504
 30
0.0
 42
-1.0
  0
VERTEX
  5
19C
  8
CUTOUT
 10
92.14999114794401
 20
22.51470952687677
 30
0.0
  0
VERTEX
  5
19D
  8
CUTOUT
 10
92.1499911705993
 20
21.82855728391493
 30
0.0
  0
VERTEX
  5
19E
  8
CUTOUT
 10
92.74999081962062
 20
21.82855728391438
 30
0.0
  0
VERTEX
  5
19F
  8
CUTOUT
 10
92.74998730942684
 20
25.14605923135569
 30
0.0
 42
-1.0
  0
VERTEX
  5
1A0
  8
CUTOUT
 10
92.74998708202878
 20
25.40605923135556
 30
0.0
  0
VERTEX
  5
1A1
  8
CUTOUT
 10
93.11998708202901
 20
25.40605923135591
 30
0.0
 42
0.4142135623722412
  0
VERTEX
  5
1A2
  8
CUTOUT
 10
93.24998708202895
 20
25.5360592313559
 30
0.0
  0
VERTEX
  5
1A3
  8
CUTOUT
 10
93.24998708202867
 20
27.24605923135631
 30
0.0
 42
0.4142135623900057
  0
VERTEX
  5
1A4
  8
CUTOUT
 10
93.11998708202862
 20
27.37605923135625
 30
0.0
  0
VERTEX
  5
1A5
  8
CUTOUT
 10
92.74998708202878
 20
27.37605923135619
 30
0.0
 42
-1.0
  0
VERTEX
  5
1A6
  8
CUTOUT
 10
92.7499868546306
 20
27.63605923135612
 30
0.0
  0
SEQEND
  5
222
  8
CUTOUT
  0
POLYLINE
  5
72
  8
CUTOUT
 66
     1
 10
0.0
 20
0.0
 30
0.0
 70
     1
  0
VERTEX
  5
1A7
  8
CUTOUT
 10
10.49999999969287
 20
8.871051441749582
 30
0.0
  0
VERTEX
  5
1A8
  8
CUTOUT
 10
10.49999999969287
 20
8.12105144175026
 30
0.0
 42
1.0
  0
VERTEX
  5
1A9
  8
CUTOUT
 10
10.75999999969286
 20
8.12105144175026
 30
0.0
  0
VERTEX
  5
1AA
  8
CUTOUT
 10
13.23999999969248
 20
8.12105144175026
 30
0.0
 42
1.0
  0
VERTEX
  5
1AB
  8
CUTOUT
 10
13.49999999969247
 20
8.12105144175026
 30
0.0
  0
VERTEX
  5
1AC
  8
CUTOUT
 10
13.49999999969247
 20
8.871051441749582
 30
0.0
 42
1.0
  0
VERTEX
  5
1AD
  8
CUTOUT
 10
13.23999999969248
 20
8.871051441749582
 30
0.0
  0
VERTEX
  5
1AE
  8
CUTOUT
 10
10.75999999969286
 20
8.871051441749582
 30
0.0
 42
1.0
  0
SEQEND
  5
223
  8
CUTOUT
  0
POLYLINE
  5
73
  8
CUTOUT
 66
     1
 10
0.0
 20
0.0
 30
0.0
 70
     1
  0
VERTEX
  5
1AF
  8
CUTOUT
 10
34.49999999969258
 20
8.871051441749582
 30
0.0
  0
VERTEX
  5
1B0
  8
CUTOUT
 10
34.49999999969258
 20
8.12105144175026
 30
0.0
 42
1.0
  0
VERTEX
  5
1B1
  8
CUTOUT
 10
34.75999999969257
 20
8.12105144175026
 30
0.0
  0
VERTEX
  5
1B2
  8
CUTOUT
 10
37.23999999969225
 20
8.12105144175026
 30
0.0
 42
1.0
  0
VERTEX
  5
1B3
  8
CUTOUT
 10
37.49999999969224
 20
8.12105144175026
 30
0.0
  0
VERTEX
  5
1B4
  8
CUTOUT
 10
37.49999999969224
 20
8.871051441749582
 30
0.0
 42
1.0
  0
VERTEX
  5
1B5
  8
CUTOUT
 10
37.23999999969225
 20
8.871051441749582
 30
0.0
  0
VERTEX
  5
1B6
  8
CUTOUT
 10
34.75999999969257
 20
8.871051441749582
 30
0.0
 42
1.0
  0
SEQEND
  5
224
  8
CUTOUT
  0
POLYLINE
  5
74
  8
CUTOUT
 66
     1
 10
0.0
 20
0.0
 30
0.0
 70
     1
  0
VERTEX
  5
1B7
  8
CUTOUT
 10
58.49999999969252
 20
8.871051441749582
 30
0.0
  0
VERTEX
  5
1B8
  8
CUTOUT
 10
58.49999999969252
 20
8.12105144175026
 30
0.0
 42
1.0
  0
VERTEX
  5
1B9
  8
CUTOUT
 10
58.75999999969251
 20
8.12105144175026
 30
0.0
  0
VERTEX
  5
1BA
  8
CUTOUT
 10
61.23999999969219
 20
8.12105144175026
 30
0.0
 42
1.0
  0
VERTEX
  5
1BB
  8
CUTOUT
 10
61.49999999969219
 20
8.12105144175026
 30
0.0
  0
VERTEX
  5
1BC
  8
CUTOUT
 10
61.49999999969219
 20
8.871051441749582
 30
0.0
 42
1.0
  0
VERTEX
  5
1BD
  8
CUTOUT
 10
61.23999999969219
 20
8.871051441749582
 30
0.0
  0
VERTEX
  5
1BE
  8
CUTOUT
 10
58.75999999969251
 20
8.871051441749582
 30
0.0
 42
1.0
  0
SEQEND
  5
225
  8
CUTOUT
  0
POLYLINE
  5
75
  8
CUTOUT
 66
     1
 10
0.0
 20
0.0
 30
0.0
 70
     1
  0
VERTEX
  5
1BF
  8
CUTOUT
 10
82.49999166015687
 20
8.871051441749582
 30
0.0
  0
VERTEX
  5
1C0
  8
CUTOUT
 10
82.49999166015687
 20
8.12105144175026
 30
0.0
 42
1.0
  0
VERTEX
  5
1C1
  8
CUTOUT
 10
82.75999166015691
 20
8.12105144175026
 30
0.0
  0
VERTEX
  5
1C2
  8
CUTOUT
 10
85.23999166015653
 20
8.12105144175026
 30
0.0
 42
1.0
  0
VERTEX
  5
1C3
  8
CUTOUT
 10
85.49999166015652
 20
8.12105144175026
 30
0.0
  0
VERTEX
  5
1C4
  8
CUTOUT
 10
85.49999166015652
 20
8.871051441749582
 30
0.0
 42
1.0
  0
VERTEX
  5
1C5
  8
CUTOUT
 10
85.23999166015653
 20
8.871051441749582
 30
0.0
  0
VERTEX
  5
1C6
  8
CUTOUT
 10
82.75999166015691
 20
8.871051441749582
 30
0.0
 42
1.0
  0
SEQEND
  5
226
  8
CUTOUT
  0
POLYLINE
  5
77
  8
SCREW_HOLE_LOCATION_MARKER
 66
     1
 10
0.0
 20
0.0
 30
0.0
 70
     1
  0
VERTEX
  5
1C7
  8
SCREW_HOLE_LOCATION_MARKER
 10
2.999999999999993
 20
2.931954503500583
 30
0.0
 42
0.4142135623730951
  0
VERTEX
  5
1C8
  8
SCREW_HOLE_LOCATION_MARKER
 10
2.864999999999993
 20
2.796954503500583
 30
0.0
 42
0.4142135623730951
  0
VERTEX
  5
1C9
  8
SCREW_HOLE_LOCATION_MARKER
 10
2.999999999999993
 20
2.661954503500583
 30
0.0
 42
0.4142135623730951
  0
VERTEX
  5
1CA
  8
SCREW_HOLE_LOCATION_MARKER
 10
3.134999999999993
 20
2.796954503500583
 30
0.0
 42
0.4142135623730951
  0
SEQEND
  5
227
  8
SCREW_HOLE_LOCATION_MARKER
  0
POLYLINE
  5
78
  8
SCREW_HOLE_LOCATION_MARKER
 66
     1
 10
0.0
 20
0.0
 30
0.0
 70
     1
  0
VERTEX
  5
1CB
  8
SCREW_HOLE_LOCATION_MARKER
 10
25.50749999999999
 20
2.931954503500582
 30
0.0
 42
0.4142135623730951
  0
VERTEX
  5
1CC
  8
SCREW_HOLE_LOCATION_MARKER
 10
25.37249999999999
 20
2.796954503500583
 30
0.0
 42
0.4142135623730951
  0
VERTEX
  5
1CD
  8
SCREW_HOLE_LOCATION_MARKER
 10
25.50749999999999
 20
2.661954503500585
 30
0.0
 42
0.4142135623730951
  0
VERTEX
  5
1CE
  8
SCREW_HOLE_LOCATION_MARKER
 10
25.64249999999999
 20
2.796954503500583
 30
0.0
 42
0.4142135623730951
  0
SEQEND
  5
228
  8
SCREW_HOLE_LOCATION_MARKER
  0
POLYLINE
  5
79
  8
SCREW_HOLE_LOCATION_MARKER
 66
     1
 10
0.0
 20
0.0
 30
0.0
 70
     1
  0
VERTEX
  5
1CF
  8
SCREW_HOLE_LOCATION_MARKER
 10
47.9988
 20
2.931854503500582
 30
0.0
 42
0.4142135623730951
  0
VERTEX
  5
1D0
  8
SCREW_HOLE_LOCATION_MARKER
 10
47.86379999999999
 20
2.796854503500583
 30
0.0
 42
0.4142135623730951
  0
VERTEX
  5
1D1
  8
SCREW_HOLE_LOCATION_MARKER
 10
47.9988
 20
2.661854503500584
 30
0.0
 42
0.4142135623730951
  0
VERTEX
  5
1D2
  8
SCREW_HOLE_LOCATION_MARKER
 10
48.13379999999999
 20
2.796854503500583
 30
0.0
 42
0.4142135623730951
  0
SEQEND
  5
229
  8
SCREW_HOLE_LOCATION_MARKER
  0
POLYLINE
  5
7A
  8
SCREW_HOLE_LOCATION_MARKER
 66
     1
 10
0.0
 20
0.0
 30
0.0
 70
     1
  0
VERTEX
  5
1D3
  8
SCREW_HOLE_LOCATION_MARKER
 10
70.4925
 20
2.931954503500582
 30
0.0
 42
0.4142135623730951
  0
VERTEX
  5
1D4
  8
SCREW_HOLE_LOCATION_MARKER
 10
70.35750000000002
 20
2.796954503500583
 30
0.0
 42
0.4142135623730951
  0
VERTEX
  5
1D5
  8
SCREW_HOLE_LOCATION_MARKER
 10
70.4925
 20
2.661954503500585
 30
0.0
 42
0.4142135623730951
  0
VERTEX
  5
1D6
  8
SCREW_HOLE_LOCATION_MARKER
 10
70.6275
 20
2.796954503500583
 30
0.0
 42
0.4142135623730951
  0
SEQEND
  5
22A
  8
SCREW_HOLE_LOCATION_MARKER
  0
POLYLINE
  5
7B
  8
SCREW_HOLE_LOCATION_MARKER
 66
     1
 10
0.0
 20
0.0
 30
0.0
 70
     1
  0
VERTEX
  5
1D7
  8
SCREW_HOLE_LOCATION_MARKER
 10
93.0
 20
2.931954503500582
 30
0.0
 42
0.4142135623730951
  0
VERTEX
  5
1D8
  8
SCREW_HOLE_LOCATION_MARKER
 10
92.86499999999998
 20
2.796954503500583
 30
0.0
 42
0.4142135623730951
  0
VERTEX
  5
1D9
  8
SCREW_HOLE_LOCATION_MARKER
 10
93.0
 20
2.661954503500585
 30
0.0
 42
0.4142135623730951
  0
VERTEX
  5
1DA
  8
SCREW_HOLE_LOCATION_MARKER
 10
93.13499999999999
 20
2.796954503500583
 30
0.0
 42
0.4142135623730951
  0
SEQEND
  5
22B
  8
SCREW_HOLE_LOCATION_MARKER
  0
POLYLINE
  5
7C
  8
SCREW_HOLE_LOCATION_MARKER
 66
     1
 10
0.0
 20
0.0
 30
0.0
 70
     1
  0
VERTEX
  5
1DB
  8
SCREW_HOLE_LOCATION_MARKER
 10
44.0001
 20
8.631014991915382
 30
0.0
 42
0.4142135623730951
  0
VERTEX
  5
1DC
  8
SCREW_HOLE_LOCATION_MARKER
 10
43.86510000000001
 20
8.496014991915382
 30
0.0
 42
0.4142135623730951
  0
VERTEX
  5
1DD
  8
SCREW_HOLE_LOCATION_MARKER
 10
44.0001
 20
8.361014991915383
 30
0.0
 42
0.4142135623730951
  0
VERTEX
  5
1DE
  8
SCREW_HOLE_LOCATION_MARKER
 10
44.13509999999999
 20
8.496014991915382
 30
0.0
 42
0.4142135623730951
  0
SEQEND
  5
22C
  8
SCREW_HOLE_LOCATION_MARKER
  0
POLYLINE
  5
7D
  8
SCREW_HOLE_LOCATION_MARKER
 66
     1
 10
0.0
 20
0.0
 30
0.0
 70
     1
  0
VERTEX
  5
1DF
  8
SCREW_HOLE_LOCATION_MARKER
 10
52.0001
 20
8.631014991915382
 30
0.0
 42
0.4142135623730951
  0
VERTEX
  5
1E0
  8
SCREW_HOLE_LOCATION_MARKER
 10
51.86510000000001
 20
8.496014991915382
 30
0.0
 42
0.4142135623730951
  0
VERTEX
  5
1E1
  8
SCREW_HOLE_LOCATION_MARKER
 10
52.0001
 20
8.361014991915383
 30
0.0
 42
0.4142135623730951
  0
VERTEX
  5
1E2
  8
SCREW_HOLE_LOCATION_MARKER
 10
52.13509999999999
 20
8.496014991915382
 30
0.0
 42
0.4142135623730951
  0
SEQEND
  5
22D
  8
SCREW_HOLE_LOCATION_MARKER
  0
POLYLINE
  5
7E
  8
SCREW_HOLE_LOCATION_MARKER
 66
     1
 10
0.0
 20
0.0
 30
0.0
 70
     1
  0
VERTEX
  5
1E3
  8
SCREW_HOLE_LOCATION_MARKER
 10
66.49259999999998
 20
8.631014991915382
 30
0.0
 42
0.4142135623730951
  0
VERTEX
  5
1E4
  8
SCREW_HOLE_LOCATION_MARKER
 10
66.35759999999999
 20
8.496014991915382
 30
0.0
 42
0.4142135623730951
  0
VERTEX
  5
1E5
  8
SCREW_HOLE_LOCATION_MARKER
 10
66.49259999999998
 20
8.361014991915383
 30
0.0
 42
0.4142135623730951
  0
VERTEX
  5
1E6
  8
SCREW_HOLE_LOCATION_MARKER
 10
66.6276
 20
8.496014991915382
 30
0.0
 42
0.4142135623730951
  0
SEQEND
  5
22E
  8
SCREW_HOLE_LOCATION_MARKER
  0
POLYLINE
  5
7F
  8
SCREW_HOLE_LOCATION_MARKER
 66
     1
 10
0.0
 20
0.0
 30
0.0
 70
     1
  0
VERTEX
  5
1E7
  8
SCREW_HOLE_LOCATION_MARKER
 10
76.49259999999998
 20
8.631014991915382
 30
0.0
 42
0.4142135623730951
  0
VERTEX
  5
1E8
  8
SCREW_HOLE_LOCATION_MARKER
 10
76.35759999999999
 20
8.496014991915382
 30
0.0
 42
0.4142135623730951
  0
VERTEX
  5
1E9
  8
SCREW_HOLE_LOCATION_MARKER
 10
76.49259999999998
 20
8.361014991915383
 30
0.0
 42
0.4142135623730951
  0
VERTEX
  5
1EA
  8
SCREW_HOLE_LOCATION_MARKER
 10
76.6276
 20
8.496014991915382
 30
0.0
 42
0.4142135623730951
  0
SEQEND
  5
22F
  8
SCREW_HOLE_LOCATION_MARKER
  0
POLYLINE
  5
80
  8
SCREW_HOLE_LOCATION_MARKER
 66
     1
 10
0.0
 20
0.0
 30
0.0
 70
     1
  0
VERTEX
  5
1EB
  8
SCREW_HOLE_LOCATION_MARKER
 10
29.50759999999999
 20
8.631014991915382
 30
0.0
 42
0.4142135623730951
  0
VERTEX
  5
1EC
  8
SCREW_HOLE_LOCATION_MARKER
 10
29.37259999999999
 20
8.496014991915382
 30
0.0
 42
0.4142135623730951
  0
VERTEX
  5
1ED
  8
SCREW_HOLE_LOCATION_MARKER
 10
29.50759999999999
 20
8.361014991915383
 30
0.0
 42
0.4142135623730951
  0
VERTEX
  5
1EE
  8
SCREW_HOLE_LOCATION_MARKER
 10
29.64259999999999
 20
8.496014991915382
 30
0.0
 42
0.4142135623730951
  0
SEQEND
  5
230
  8
SCREW_HOLE_LOCATION_MARKER
  0
POLYLINE
  5
81
  8
SCREW_HOLE_LOCATION_MARKER
 66
     1
 10
0.0
 20
0.0
 30
0.0
 70
     1
  0
VERTEX
  5
1EF
  8
SCREW_HOLE_LOCATION_MARKER
 10
25.50752560844525
 20
28.01337881565394
 30
0.0
 42
0.4142135623730951
  0
VERTEX
  5
1F0
  8
SCREW_HOLE_LOCATION_MARKER
 10
25.37752560844526
 20
27.88337881565394
 30
0.0
 42
0.4142135623730951
  0
VERTEX
  5
1F1
  8
SCREW_HOLE_LOCATION_MARKER
 10
25.50752560844525
 20
27.75337881565395
 30
0.0
 42
0.4142135623730951
  0
VERTEX
  5
1F2
  8
SCREW_HOLE_LOCATION_MARKER
 10
25.63752560844525
 20
27.88337881565394
 30
0.0
 42
0.4142135623730951
  0
SEQEND
  5
231
  8
SCREW_HOLE_LOCATION_MARKER
  0
POLYLINE
  5
82
  8
SCREW_HOLE_LOCATION_MARKER
 66
     1
 10
0.0
 20
0.0
 30
0.0
 70
     1
  0
VERTEX
  5
1F3
  8
SCREW_HOLE_LOCATION_MARKER
 10
48.00002560844463
 20
28.01337881565399
 30
0.0
 42
0.4142135623730951
  0
VERTEX
  5
1F4
  8
SCREW_HOLE_LOCATION_MARKER
 10
47.87002560844464
 20
27.883378815654
 30
0.0
 42
0.4142135623730951
  0
VERTEX
  5
1F5
  8
SCREW_HOLE_LOCATION_MARKER
 10
48.00002560844463
 20
27.753378815654
 30
0.0
 42
0.4142135623730951
  0
VERTEX
  5
1F6
  8
SCREW_HOLE_LOCATION_MARKER
 10
48.13002560844469
 20
27.883378815654
 30
0.0
 42
0.4142135623730951
  0
SEQEND
  5
232
  8
SCREW_HOLE_LOCATION_MARKER
  0
POLYLINE
  5
83
  8
SCREW_HOLE_LOCATION_MARKER
 66
     1
 10
0.0
 20
0.0
 30
0.0
 70
     1
  0
VERTEX
  5
1F7
  8
SCREW_HOLE_LOCATION_MARKER
 10
70.49252560844465
 20
28.01337881565399
 30
0.0
 42
0.4142135623730951
  0
VERTEX
  5
1F8
  8
SCREW_HOLE_LOCATION_MARKER
 10
70.36252560844466
 20
27.88337881565394
 30
0.0
 42
0.4142135623730951
  0
VERTEX
  5
1F9
  8
SCREW_HOLE_LOCATION_MARKER
 10
70.49252560844465
 20
27.75337881565395
 30
0.0
 42
0.4142135623730951
  0
VERTEX
  5
1FA
  8
SCREW_HOLE_LOCATION_MARKER
 10
70.62252560844465
 20
27.88337881565394
 30
0.0
 42
0.4142135623730951
  0
SEQEND
  5
233
  8
SCREW_HOLE_LOCATION_MARKER
  0
POLYLINE
  5
84
  8
SCREW_HOLE_LOCATION_MARKER
 66
     1
 10
0.0
 20
0.0
 30
0.0
 70
     1
  0
VERTEX
  5
1FB
  8
SCREW_HOLE_LOCATION_MARKER
 10
25.50752560867182
 20
41.51339612274916
 30
0.0
 42
0.4142135623730951
  0
VERTEX
  5
1FC
  8
SCREW_HOLE_LOCATION_MARKER
 10
25.37752560867183
 20
41.38339612274916
 30
0.0
 42
0.4142135623730951
  0
VERTEX
  5
1FD
  8
SCREW_HOLE_LOCATION_MARKER
 10
25.50752560867182
 20
41.25339612274917
 30
0.0
 42
0.4142135623730951
  0
VERTEX
  5
1FE
  8
SCREW_HOLE_LOCATION_MARKER
 10
25.63752560867182
 20
41.38339612274916
 30
0.0
 42
0.4142135623730951
  0
SEQEND
  5
234
  8
SCREW_HOLE_LOCATION_MARKER
  0
POLYLINE
  5
85
  8
SCREW_HOLE_LOCATION_MARKER
 66
     1
 10
0.0
 20
0.0
 30
0.0
 70
     1
  0
VERTEX
  5
1FF
  8
SCREW_HOLE_LOCATION_MARKER
 10
48.0000256086712
 20
41.51339612274916
 30
0.0
 42
0.4142135623730951
  0
VERTEX
  5
200
  8
SCREW_HOLE_LOCATION_MARKER
 10
47.87002560867121
 20
41.38339612274916
 30
0.0
 42
0.4142135623730951
  0
VERTEX
  5
201
  8
SCREW_HOLE_LOCATION_MARKER
 10
48.0000256086712
 20
41.25339612274917
 30
0.0
 42
0.4142135623730951
  0
VERTEX
  5
202
  8
SCREW_HOLE_LOCATION_MARKER
 10
48.13002560867119
 20
41.38339612274916
 30
0.0
 42
0.4142135623730951
  0
SEQEND
  5
235
  8
SCREW_HOLE_LOCATION_MARKER
  0
POLYLINE
  5
86
  8
SCREW_HOLE_LOCATION_MARKER
 66
     1
 10
0.0
 20
0.0
 30
0.0
 70
     1
  0
VERTEX
  5
203
  8
SCREW_HOLE_LOCATION_MARKER
 10
70.49252560867114
 20
41.51339612274916
 30
0.0
 42
0.4142135623730951
  0
VERTEX
  5
204
  8
SCREW_HOLE_LOCATION_MARKER
 10
70.36252560867115
 20
41.38339612274916
 30
0.0
 42
0.4142135623730951
  0
VERTEX
  5
205
  8
SCREW_HOLE_LOCATION_MARKER
 10
70.49252560867114
 20
41.25339612274917
 30
0.0
 42
0.4142135623730951
  0
VERTEX
  5
206
  8
SCREW_HOLE_LOCATION_MARKER
 10
70.62252560867114
 20
41.38339612274916
 30
0.0
 42
0.4142135623730951
  0
SEQEND
  5
236
  8
SCREW_HOLE_LOCATION_MARKER
  0
POLYLINE
  5
87
  8
SCREW_HOLE_LOCATION_MARKER
 66
     1
 10
0.0
 20
0.0
 30
0.0
 70
     1
  0
VERTEX
  5
207
  8
SCREW_HOLE_LOCATION_MARKER
 10
25.50752560854468
 20
11.51337879447988
 30
0.0
 42
0.4142135623730951
  0
VERTEX
  5
208
  8
SCREW_HOLE_LOCATION_MARKER
 10
25.37752560854468
 20
11.38337879447988
 30
0.0
 42
0.4142135623730951
  0
VERTEX
  5
209
  8
SCREW_HOLE_LOCATION_MARKER
 10
25.50752560854468
 20
11.25337879447989
 30
0.0
 42
0.4142135623730951
  0
VERTEX
  5
20A
  8
SCREW_HOLE_LOCATION_MARKER
 10
25.63752560854467
 20
11.38337879447988
 30
0.0
 42
0.4142135623730951
  0
SEQEND
  5
237
  8
SCREW_HOLE_LOCATION_MARKER
  0
POLYLINE
  5
88
  8
SCREW_HOLE_LOCATION_MARKER
 66
     1
 10
0.0
 20
0.0
 30
0.0
 70
     1
  0
VERTEX
  5
20B
  8
SCREW_HOLE_LOCATION_MARKER
 10
48.00002560854411
 20
11.51337879447993
 30
0.0
 42
0.4142135623730951
  0
VERTEX
  5
20C
  8
SCREW_HOLE_LOCATION_MARKER
 10
47.87002560854413
 20
11.38337879447991
 30
0.0
 42
0.4142135623730951
  0
VERTEX
  5
20D
  8
SCREW_HOLE_LOCATION_MARKER
 10
48.00002560854411
 20
11.25337879447992
 30
0.0
 42
0.4142135623730951
  0
VERTEX
  5
20E
  8
SCREW_HOLE_LOCATION_MARKER
 10
48.13002560854412
 20
11.38337879447991
 30
0.0
 42
0.4142135623730951
  0
SEQEND
  5
238
  8
SCREW_HOLE_LOCATION_MARKER
  0
POLYLINE
  5
89
  8
SCREW_HOLE_LOCATION_MARKER
 66
     1
 10
0.0
 20
0.0
 30
0.0
 70
     1
  0
VERTEX
  5
20F
  8
SCREW_HOLE_LOCATION_MARKER
 10
70.49252560854407
 20
11.51337879447991
 30
0.0
 42
0.4142135623730951
  0
VERTEX
  5
210
  8
SCREW_HOLE_LOCATION_MARKER
 10
70.36252560854408
 20
11.38337879447991
 30
0.0
 42
0.4142135623730951
  0
VERTEX
  5
211
  8
SCREW_HOLE_LOCATION_MARKER
 10
70.49252560854407
 20
11.25337879447992
 30
0.0
 42
0.4142135623730951
  0
VERTEX
  5
212
  8
SCREW_HOLE_LOCATION_MARKER
 10
70.62252560854407
 20
11.38337879447991
 30
0.0
 42
0.4142135623730951
  0
SEQEND
  5
239
  8
SCREW_HOLE_LOCATION_MARKER
  0
POLYLINE
  5
8A
  8
SCREW_HOLE_LOCATION_MARKER
 66
     1
 10
0.0
 20
0.0
 30
0.0
 70
     1
  0
VERTEX
  5
213
  8
SCREW_HOLE_LOCATION_MARKER
 10
19.50759999999005
 20
8.63101499191119
 30
0.0
 42
0.4142135623730951
  0
VERTEX
  5
214
  8
SCREW_HOLE_LOCATION_MARKER
 10
19.37259999999005
 20
8.49601499191119
 30
0.0
 42
0.4142135623730951
  0
VERTEX
  5
215
  8
SCREW_HOLE_LOCATION_MARKER
 10
19.50759999999005
 20
8.36101499191119
 30
0.0
 42
0.4142135623730951
  0
VERTEX
  5
216
  8
SCREW_HOLE_LOCATION_MARKER
 10
19.64259999999005
 20
8.49601499191119
 30
0.0
 42
0.4142135623730951
  0
SEQEND
  5
23A
  8
SCREW_HOLE_LOCATION_MARKER
  0
POLYLINE
  5
8B
  8
SCREW_HOLE_LOCATION_MARKER
 66
     1
 10
0.0
 20
0.0
 30
0.0
 70
     1
  0
VERTEX
  5
217
  8
SCREW_HOLE_LOCATION_MARKER
 10
5.500008339843454
 20
8.63105144174994
 30
0.0
 42
-0.4142135623730951
  0
VERTEX
  5
218
  8
SCREW_HOLE_LOCATION_MARKER
 10
5.635008339843459
 20
8.496051441749941
 30
0.0
 42
-0.4142135623730951
  0
VERTEX
  5
219
  8
SCREW_HOLE_LOCATION_MARKER
 10
5.500008339843454
 20
8.361051441749941
 30
0.0
 42
-0.4142135623730951
  0
VERTEX
  5
21A
  8
SCREW_HOLE_LOCATION_MARKER
 10
5.365008339843449
 20
8.496051441749941
 30
0.0
 42
-0.4142135623730951
  0
SEQEND
  5
23B
  8
SCREW_HOLE_LOCATION_MARKER
  0
POLYLINE
  5
8C
  8
SCREW_HOLE_LOCATION_MARKER
 66
     1
 10
0.0
 20
0.0
 30
0.0
 70
     1
  0
VERTEX
  5
21B
  8
SCREW_HOLE_LOCATION_MARKER
 10
90.49999166015652
 20
8.63105144174994
 30
0.0
 42
0.4142135623730951
  0
VERTEX
  5
21C
  8
SCREW_HOLE_LOCATION_MARKER
 10
90.36499166015653
 20
8.496051441749941
 30
0.0
 42
0.4142135623730951
  0
VERTEX
  5
21D
  8
SCREW_HOLE_LOCATION_MARKER
 10
90.49999166015652
 20
8.361051441749941
 30
0.0
 42
0.4142135623730951
  0
VERTEX
  5
21E
  8
SCREW_HOLE_LOCATION_MARKER
 10
90.63499166015654
 20
8.496051441749941
 30
0.0
 42
0.4142135623730951
  0
SEQEND
  5
23C
  8
SCREW_HOLE_LOCATION_MARKER
  0
ENDSEC
  0
EOF
