  0
SECTION
  2
HEADER
  9
$ACADVER
  1
AC1009
  9
$DWGCODEPAGE
  3
ansi_1252
  9
$INSBASE
 10
0.0
 20
0.0
 30
0.0
  9
$EXTMIN
 10
0.8799999999971009
 20
1.499999999993619
 30
0.0
  9
$EXTMAX
 10
95.1200000000029
 20
46.50000000000638
 30
0.0
  9
$LIMMIN
 10
0.0
 20
0.0
  9
$LIMMAX
 10
12.0
 20
9.0
  9
$ORTHOMODE
 70
     0
  9
$REGENMODE
 70
     1
  9
$FILLMODE
 70
     1
  9
$QTEXTMODE
 70
     0
  9
$MIRRTEXT
 70
     1
  9
$DRAGMODE
 70
     2
  9
$LTSCALE
 40
1.0
  9
$OSMODE
 70
    37
  9
$ATTMODE
 70
     1
  9
$TEXTSIZE
 40
0.2
  9
$TRACEWID
 40
0.05
  9
$TEXTSTYLE
  7
STANDARD
  9
$CLAYER
  8
0
  9
$CELTYPE
  6
BYLAYER
  9
$CECOLOR
 62
   256
  9
$DIMSCALE
 40
1.0
  9
$DIMASZ
 40
0.18
  9
$DIMEXO
 40
0.0625
  9
$DIMDLI
 40
0.38
  9
$DIMRND
 40
0.0
  9
$DIMDLE
 40
0.0
  9
$DIMEXE
 40
0.18
  9
$DIMTP
 40
0.0
  9
$DIMTM
 40
0.0
  9
$DIMTXT
 40
0.18
  9
$DIMCEN
 40
0.09
  9
$DIMTSZ
 40
0.0
  9
$DIMTOL
 70
     0
  9
$DIMLIM
 70
     0
  9
$DIMTIH
 70
     1
  9
$DIMTOH
 70
     1
  9
$DIMSE1
 70
     0
  9
$DIMSE2
 70
     0
  9
$DIMTAD
 70
     0
  9
$DIMZIN
 70
     0
  9
$DIMBLK
  1

  9
$DIMASO
 70
     1
  9
$DIMSHO
 70
     1
  9
$DIMPOST
  1

  9
$DIMAPOST
  1

  9
$DIMALT
 70
     0
  9
$DIMALTD
 70
     2
  9
$DIMALTF
 40
25.4
  9
$DIMLFAC
 40
1.0
  9
$DIMTOFL
 70
     0
  9
$DIMTVP
 40
0.0
  9
$DIMTIX
 70
     0
  9
$DIMSOXD
 70
     0
  9
$DIMSAH
 70
     0
  9
$DIMBLK1
  1

  9
$DIMBLK2
  1

  9
$DIMSTYLE
  2
STANDARD
  9
$DIMCLRD
 70
     0
  9
$DIMCLRE
 70
     0
  9
$DIMCLRT
 70
     0
  9
$DIMTFAC
 40
1.0
  9
$DIMGAP
 40
0.09
  9
$LUNITS
 70
     2
  9
$LUPREC
 70
     4
  9
$SKETCHINC
 40
0.1
  9
$FILLETRAD
 40
0.5
  9
$AUNITS
 70
     0
  9
$AUPREC
 70
     0
  9
$MENU
  1
.
  9
$ELEVATION
 40
0.0
  9
$PELEVATION
 40
0.0
  9
$THICKNESS
 40
0.0
  9
$LIMCHECK
 70
     0
  9
$CHAMFERA
 40
0.0
  9
$CHAMFERB
 40
0.0
  9
$SKPOLY
 70
     0
  9
$TDCREATE
 40
2454910.5
  9
$TDUPDATE
 40
2457887.542269201
  9
$TDINDWG
 40
0.0000000116
  9
$TDUSRTIMER
 40
0.0000000116
  9
$USRTIMER
 70
     1
  9
$ANGBASE
 50
0.0
  9
$ANGDIR
 70
     0
  9
$PDMODE
 70
     0
  9
$PDSIZE
 40
0.0
  9
$PLINEWID
 40
0.0
  9
$COORDS
 70
     1
  9
$SPLFRAME
 70
     0
  9
$SPLINETYPE
 70
     6
  9
$SPLINESEGS
 70
     8
  9
$ATTDIA
 70
     0
  9
$ATTREQ
 70
     1
  9
$HANDLING
 70
     1
  9
$HANDSEED
  5
69F
  9
$SURFTAB1
 70
     6
  9
$SURFTAB2
 70
     6
  9
$SURFTYPE
 70
     6
  9
$SURFU
 70
     6
  9
$SURFV
 70
     6
  9
$UCSNAME
  2

  9
$UCSORG
 10
0.0
 20
0.0
 30
0.0
  9
$UCSXDIR
 10
1.0
 20
0.0
 30
0.0
  9
$UCSYDIR
 10
0.0
 20
1.0
 30
0.0
  9
$PUCSNAME
  2

  9
$PUCSORG
 10
0.0
 20
0.0
 30
0.0
  9
$PUCSXDIR
 10
1.0
 20
0.0
 30
0.0
  9
$PUCSYDIR
 10
0.0
 20
1.0
 30
0.0
  9
$USERI1
 70
     0
  9
$USERI2
 70
     0
  9
$USERI3
 70
     0
  9
$USERI4
 70
     0
  9
$USERI5
 70
     0
  9
$USERR1
 40
0.0
  9
$USERR2
 40
0.0
  9
$USERR3
 40
0.0
  9
$USERR4
 40
0.0
  9
$USERR5
 40
0.0
  9
$WORLDVIEW
 70
     1
  9
$SHADEDGE
 70
     3
  9
$SHADEDIF
 70
    70
  9
$TILEMODE
 70
     1
  9
$MAXACTVP
 70
    64
  9
$PLIMCHECK
 70
     0
  9
$PEXTMIN
 10
1.000000000000000E+20
 20
1.000000000000000E+20
 30
1.000000000000000E+20
  9
$PEXTMAX
 10
-1.000000000000000E+20
 20
-1.000000000000000E+20
 30
-1.000000000000000E+20
  9
$PLIMMIN
 10
0.0
 20
0.0
  9
$PLIMMAX
 10
12.0
 20
9.0
  9
$UNITMODE
 70
     0
  9
$VISRETAIN
 70
     1
  9
$PLINEGEN
 70
     0
  9
$PSLTSCALE
 70
     1
  0
ENDSEC
  0
SECTION
  2
TABLES
  0
TABLE
  2
VPORT
 70
     1
  0
VPORT
  2
*ACTIVE
 70
     0
 10
0.0
 20
0.0
 11
1.0
 21
1.0
 12
10.42990654205607
 22
4.5
 13
0.0
 23
0.0
 14
0.5
 24
0.5
 15
0.5
 25
0.5
 16
0.0
 26
0.0
 36
1.0
 17
0.0
 27
0.0
 37
0.0
 40
9.0
 41
1.972972972850329
 42
50.0
 43
0.0
 44
0.0
 50
0.0
 51
0.0
 71
     0
 72
   100
 73
     1
 74
     3
 75
     0
 76
     0
 77
     0
 78
     0
  0
ENDTAB
  0
TABLE
  2
LTYPE
 70
     2
  0
LTYPE
  2
CONTINUOUS
 70
     0
  3
Solid line
 72
    65
 73
     0
 40
0.0
  0
LTYPE
  2
CONTINUOUS2
 70
     0
  3
Solid Line
 72
    65
 73
     0
 40
0.0
  0
ENDTAB
  0
TABLE
  2
LAYER
 70
     3
  0
LAYER
  2
0
 70
     0
 62
     7
  6
CONTINUOUS
  0
LAYER
  2
THRUCUT
 70
     0
 62
    18
  6
CONTINUOUS
  0
LAYER
  2
SCREW_LOCATION_MARKS
 70
     0
 62
     1
  6
CONTINUOUS
  0
ENDTAB
  0
TABLE
  2
STYLE
 70
     1
  0
STYLE
  2
STANDARD
 70
     0
 40
0.0
 41
1.0
 50
0.0
 71
     0
 42
0.2
  3
txt
  4

  0
ENDTAB
  0
TABLE
  2
VIEW
 70
     0
  0
ENDTAB
  0
TABLE
  2
UCS
 70
     0
  0
ENDTAB
  0
TABLE
  2
APPID
 70
     1
  0
APPID
  2
ACAD
 70
     0
  0
ENDTAB
  0
TABLE
  2
DIMSTYLE
 70
     1
  0
DIMSTYLE
  2
STANDARD
 70
     0
  3

  4

  5

  6

  7

 40
1.0
 41
0.18
 42
0.0625
 43
0.38
 44
0.18
 45
0.0
 46
0.0
 47
0.0
 48
0.0
140
0.18
141
0.09
142
0.0
143
25.4
144
1.0
145
0.0
146
1.0
147
0.09
 71
     0
 72
     0
 73
     1
 74
     1
 75
     0
 76
     0
 77
     0
 78
     0
170
     0
171
     2
172
     0
173
     0
174
     0
175
     0
176
     0
177
     0
178
     0
  0
ENDTAB
  0
ENDSEC
  0
SECTION
  2
BLOCKS
  0
BLOCK
  8
0
  2
$MODEL_SPACE
 70
     0
 10
0.0
 20
0.0
 30
0.0
  3
$MODEL_SPACE
  1

  0
ENDBLK
  5
21
  8
0
  0
BLOCK
 67
     1
  8
0
  2
$PAPER_SPACE
 70
     0
 10
0.0
 20
0.0
 30
0.0
  3
$PAPER_SPACE
  1

  0
ENDBLK
  5
1D
 67
     1
  8
0
  0
ENDSEC
  0
SECTION
  2
ENTITIES
  0
POLYLINE
  5
70
  8
THRUCUT
 66
     1
 10
0.0
 20
0.0
 30
0.0
 70
     1
  0
VERTEX
  5
C6
  8
THRUCUT
 10
25.12749999999813
 20
4.49999999999355
 30
0.0
 42
-0.4142135623708788
  0
VERTEX
  5
C7
  8
THRUCUT
 10
25.25749999999812
 20
4.369999999994751
 30
0.0
  0
VERTEX
  5
C8
  8
THRUCUT
 10
25.25749999999984
 20
4.183847763102092
 30
0.0
 42
1.0
  0
VERTEX
  5
C9
  8
THRUCUT
 10
25.44134776310843
 20
3.999999999993561
 30
0.0
  0
VERTEX
  5
CA
  8
THRUCUT
 10
25.57365223689137
 20
3.999999999993561
 30
0.0
 42
1.0
  0
VERTEX
  5
CB
  8
THRUCUT
 10
25.75749999999984
 20
4.183847763102092
 30
0.0
  0
VERTEX
  5
CC
  8
THRUCUT
 10
25.75750000000001
 20
4.369999999994084
 30
0.0
 42
-0.4142135623697945
  0
VERTEX
  5
CD
  8
THRUCUT
 10
25.88750000000011
 20
4.499999999993967
 30
0.0
  0
VERTEX
  5
CE
  8
THRUCUT
 10
26.38749999999984
 20
4.499999999993561
 30
0.0
  0
VERTEX
  5
CF
  8
THRUCUT
 10
47.61999999999966
 20
4.499999999994072
 30
0.0
 42
-0.4142135623736434
  0
VERTEX
  5
D0
  8
THRUCUT
 10
47.74999999999965
 20
4.369999999994077
 30
0.0
  0
VERTEX
  5
D1
  8
THRUCUT
 10
47.74999999999965
 20
4.183847763102547
 30
0.0
 42
1.0
  0
VERTEX
  5
D2
  8
THRUCUT
 10
47.93384776310813
 20
3.999999999994073
 30
0.0
  0
VERTEX
  5
D3
  8
THRUCUT
 10
48.06615223689117
 20
3.999999999994073
 30
0.0
 42
1.0
  0
VERTEX
  5
D4
  8
THRUCUT
 10
48.24999999999965
 20
4.183847763102547
 30
0.0
  0
VERTEX
  5
D5
  8
THRUCUT
 10
48.24999999999965
 20
4.369999999994077
 30
0.0
 42
-0.4142135623732267
  0
VERTEX
  5
D6
  8
THRUCUT
 10
48.37999999999964
 20
4.499999999994072
 30
0.0
  0
VERTEX
  5
D7
  8
THRUCUT
 10
70.11249999999956
 20
4.499999999993561
 30
0.0
 42
-0.4142135623736434
  0
VERTEX
  5
D8
  8
THRUCUT
 10
70.24249999999967
 20
4.369999999993565
 30
0.0
  0
VERTEX
  5
D9
  8
THRUCUT
 10
70.24249999999967
 20
4.183847763102092
 30
0.0
 42
1.0
  0
VERTEX
  5
DA
  8
THRUCUT
 10
70.42634776310803
 20
3.999999999993561
 30
0.0
  0
VERTEX
  5
DB
  8
THRUCUT
 10
70.55865223689108
 20
3.999999999993561
 30
0.0
 42
1.0
  0
VERTEX
  5
DC
  8
THRUCUT
 10
70.74249999999967
 20
4.183847763102092
 30
0.0
  0
VERTEX
  5
DD
  8
THRUCUT
 10
70.74249999999967
 20
4.369999999993565
 30
0.0
 42
-0.4142135623732267
  0
VERTEX
  5
DE
  8
THRUCUT
 10
70.87249999999955
 20
4.499999999993561
 30
0.0
  0
VERTEX
  5
DF
  8
THRUCUT
 10
92.62000000000089
 20
4.499999999994069
 30
0.0
 42
-0.4142135623929817
  0
VERTEX
  5
E0
  8
THRUCUT
 10
92.75000000000088
 20
4.369999999995272
 30
0.0
  0
VERTEX
  5
E1
  8
THRUCUT
 10
92.75000000000261
 20
4.183847763102618
 30
0.0
 42
1.0
  0
VERTEX
  5
E2
  8
THRUCUT
 10
92.9338477631112
 20
3.999999999994087
 30
0.0
  0
VERTEX
  5
E3
  8
THRUCUT
 10
93.06615223689414
 20
3.999999999994087
 30
0.0
 42
1.0
  0
VERTEX
  5
E4
  8
THRUCUT
 10
93.25000000000261
 20
4.183847763102618
 30
0.0
  0
VERTEX
  5
E5
  8
THRUCUT
 10
93.25000000000279
 20
4.369999999994716
 30
0.0
 42
-0.4142135623381356
  0
VERTEX
  5
E6
  8
THRUCUT
 10
93.38000000000278
 20
4.499999999994599
 30
0.0
  0
VERTEX
  5
E7
  8
THRUCUT
 10
94.62000000000288
 20
4.499999999994602
 30
0.0
 42
-0.414213562372271
  0
VERTEX
  5
E8
  8
THRUCUT
 10
95.1200000000029
 20
3.999999999994602
 30
0.0
  0
VERTEX
  5
E9
  8
THRUCUT
 10
95.1200000000029
 20
1.999999999994171
 30
0.0
 42
-0.4142135623679323
  0
VERTEX
  5
EA
  8
THRUCUT
 10
94.62000000000288
 20
1.49999999999417
 30
0.0
  0
VERTEX
  5
EB
  8
THRUCUT
 10
93.38000000000278
 20
1.499999999994173
 30
0.0
 42
-0.4142135623449497
  0
VERTEX
  5
EC
  8
THRUCUT
 10
93.25000000000279
 20
1.629999999994057
 30
0.0
  0
VERTEX
  5
ED
  8
THRUCUT
 10
93.25000000000261
 20
1.816152236885614
 30
0.0
 42
1.0
  0
VERTEX
  5
EE
  8
THRUCUT
 10
93.06615223689414
 20
1.999999999994088
 30
0.0
  0
VERTEX
  5
EF
  8
THRUCUT
 10
92.9338477631112
 20
1.999999999994088
 30
0.0
 42
1.0
  0
VERTEX
  5
F0
  8
THRUCUT
 10
92.75000000000261
 20
1.816152236885614
 30
0.0
  0
VERTEX
  5
F1
  8
THRUCUT
 10
92.75000000000094
 20
1.629999999992915
 30
0.0
 42
-0.4142135623571974
  0
VERTEX
  5
F2
  8
THRUCUT
 10
92.62000000000094
 20
1.499999999994072
 30
0.0
  0
VERTEX
  5
F3
  8
THRUCUT
 10
70.87249999999955
 20
1.499999999993648
 30
0.0
 42
-0.4142135623736935
  0
VERTEX
  5
F4
  8
THRUCUT
 10
70.74249999999967
 20
1.629999999993615
 30
0.0
  0
VERTEX
  5
F5
  8
THRUCUT
 10
70.74249999999967
 20
1.816152236885088
 30
0.0
 42
1.0
  0
VERTEX
  5
F6
  8
THRUCUT
 10
70.55865223689108
 20
1.999999999993562
 30
0.0
  0
VERTEX
  5
F7
  8
THRUCUT
 10
70.42634776310803
 20
1.999999999993562
 30
0.0
 42
1.0
  0
VERTEX
  5
F8
  8
THRUCUT
 10
70.24249999999967
 20
1.816152236885088
 30
0.0
  0
VERTEX
  5
F9
  8
THRUCUT
 10
70.24249999999967
 20
1.629999999993615
 30
0.0
 42
-0.4142135623747849
  0
VERTEX
  5
FA
  8
THRUCUT
 10
70.11249999999956
 20
1.499999999993648
 30
0.0
  0
VERTEX
  5
FB
  8
THRUCUT
 10
48.37999999999964
 20
1.499999999994102
 30
0.0
 42
-0.4142135623736935
  0
VERTEX
  5
FC
  8
THRUCUT
 10
48.24999999999965
 20
1.62999999999407
 30
0.0
  0
VERTEX
  5
FD
  8
THRUCUT
 10
48.24999999999965
 20
1.8161522368856
 30
0.0
 42
1.0
  0
VERTEX
  5
FE
  8
THRUCUT
 10
48.06615223689117
 20
1.999999999994074
 30
0.0
  0
VERTEX
  5
FF
  8
THRUCUT
 10
47.93384776310813
 20
1.999999999994074
 30
0.0
 42
1.0
  0
VERTEX
  5
100
  8
THRUCUT
 10
47.74999999999965
 20
1.8161522368856
 30
0.0
  0
VERTEX
  5
101
  8
THRUCUT
 10
47.74999999999965
 20
1.62999999999407
 30
0.0
 42
-0.4142135623747849
  0
VERTEX
  5
102
  8
THRUCUT
 10
47.61999999999966
 20
1.499999999994102
 30
0.0
  0
VERTEX
  5
103
  8
THRUCUT
 10
25.88750000000001
 20
1.49999999999365
 30
0.0
 42
-0.4142135623702022
  0
VERTEX
  5
104
  8
THRUCUT
 10
25.75750000000001
 20
1.629999999993534
 30
0.0
  0
VERTEX
  5
105
  8
THRUCUT
 10
25.75749999999984
 20
1.816152236885088
 30
0.0
 42
1.0
  0
VERTEX
  5
106
  8
THRUCUT
 10
25.57365223689137
 20
1.999999999993562
 30
0.0
  0
VERTEX
  5
107
  8
THRUCUT
 10
25.44134776310843
 20
1.999999999993562
 30
0.0
 42
1.0
  0
VERTEX
  5
108
  8
THRUCUT
 10
25.25749999999984
 20
1.816152236885088
 30
0.0
  0
VERTEX
  5
109
  8
THRUCUT
 10
25.25749999999812
 20
1.62999999999242
 30
0.0
 42
-0.4142135623674379
  0
VERTEX
  5
10A
  8
THRUCUT
 10
25.12749999999812
 20
1.499999999993621
 30
0.0
  0
VERTEX
  5
10B
  8
THRUCUT
 10
3.380000000000187
 20
1.499999999993874
 30
0.0
 42
-0.4142135623727946
  0
VERTEX
  5
10C
  8
THRUCUT
 10
3.250000000000189
 20
1.629999999993757
 30
0.0
  0
VERTEX
  5
10D
  8
THRUCUT
 10
3.250000000000021
 20
1.816152236885088
 30
0.0
 42
1.0
  0
VERTEX
  5
10E
  8
THRUCUT
 10
3.066152236891547
 20
1.999999999993562
 30
0.0
  0
VERTEX
  5
10F
  8
THRUCUT
 10
2.933847763108609
 20
1.999999999993562
 30
0.0
 42
1.0
  0
VERTEX
  5
110
  8
THRUCUT
 10
2.750000000000021
 20
1.816152236885088
 30
0.0
  0
VERTEX
  5
111
  8
THRUCUT
 10
2.749999999998302
 20
1.629999999992419
 30
0.0
 42
-0.4142135623704057
  0
VERTEX
  5
112
  8
THRUCUT
 10
2.619999999998302
 20
1.499999999993619
 30
0.0
  0
VERTEX
  5
113
  8
THRUCUT
 10
1.379999999997101
 20
1.499999999993619
 30
0.0
 42
-0.414213562373096
  0
VERTEX
  5
114
  8
THRUCUT
 10
0.8799999999971009
 20
1.99999999999362
 30
0.0
  0
VERTEX
  5
115
  8
THRUCUT
 10
0.8799999999971009
 20
3.999999999993549
 30
0.0
 42
-0.4142135623730968
  0
VERTEX
  5
116
  8
THRUCUT
 10
1.379999999997112
 20
4.499999999993548
 30
0.0
  0
VERTEX
  5
117
  8
THRUCUT
 10
2.619999999998302
 20
4.499999999993546
 30
0.0
 42
-0.4142135623703808
  0
VERTEX
  5
118
  8
THRUCUT
 10
2.749999999998302
 20
4.369999999994748
 30
0.0
  0
VERTEX
  5
119
  8
THRUCUT
 10
2.750000000000021
 20
4.183847763102092
 30
0.0
 42
1.0
  0
VERTEX
  5
11A
  8
THRUCUT
 10
2.933847763108609
 20
3.999999999993561
 30
0.0
  0
VERTEX
  5
11B
  8
THRUCUT
 10
3.066152236891547
 20
3.999999999993561
 30
0.0
 42
1.0
  0
VERTEX
  5
11C
  8
THRUCUT
 10
3.250000000000021
 20
4.183847763102092
 30
0.0
  0
VERTEX
  5
11D
  8
THRUCUT
 10
3.250000000000189
 20
4.369999999994185
 30
0.0
 42
-0.4142135623729316
  0
VERTEX
  5
11E
  8
THRUCUT
 10
3.380000000000192
 20
4.499999999994069
 30
0.0
  0
SEQEND
  5
651
  8
THRUCUT
  0
POLYLINE
  5
71
  8
THRUCUT
 66
     1
 10
0.0
 20
0.0
 30
0.0
 70
     1
  0
VERTEX
  5
11F
  8
THRUCUT
 10
25.12749999999813
 20
7.999999999994532
 30
0.0
 42
-0.4142135623708788
  0
VERTEX
  5
120
  8
THRUCUT
 10
25.25749999999812
 20
7.869999999995732
 30
0.0
  0
VERTEX
  5
121
  8
THRUCUT
 10
25.25749999999984
 20
7.683847763103074
 30
0.0
 42
1.0
  0
VERTEX
  5
122
  8
THRUCUT
 10
25.44134776310843
 20
7.499999999994543
 30
0.0
  0
VERTEX
  5
123
  8
THRUCUT
 10
25.57365223689137
 20
7.499999999994543
 30
0.0
 42
1.0
  0
VERTEX
  5
124
  8
THRUCUT
 10
25.75749999999984
 20
7.683847763103074
 30
0.0
  0
VERTEX
  5
125
  8
THRUCUT
 10
25.75750000000001
 20
7.869999999995065
 30
0.0
 42
-0.4142135623697945
  0
VERTEX
  5
126
  8
THRUCUT
 10
25.88750000000011
 20
7.999999999994949
 30
0.0
  0
VERTEX
  5
127
  8
THRUCUT
 10
26.38749999999984
 20
7.999999999994543
 30
0.0
  0
VERTEX
  5
128
  8
THRUCUT
 10
47.61999999999966
 20
7.999999999995055
 30
0.0
 42
-0.4142135623736434
  0
VERTEX
  5
129
  8
THRUCUT
 10
47.74999999999965
 20
7.869999999995059
 30
0.0
  0
VERTEX
  5
12A
  8
THRUCUT
 10
47.74999999999965
 20
7.683847763103529
 30
0.0
 42
1.0
  0
VERTEX
  5
12B
  8
THRUCUT
 10
47.93384776310813
 20
7.499999999995055
 30
0.0
  0
VERTEX
  5
12C
  8
THRUCUT
 10
48.06615223689117
 20
7.499999999995055
 30
0.0
 42
1.0
  0
VERTEX
  5
12D
  8
THRUCUT
 10
48.24999999999965
 20
7.683847763103529
 30
0.0
  0
VERTEX
  5
12E
  8
THRUCUT
 10
48.24999999999965
 20
7.869999999995059
 30
0.0
 42
-0.4142135623732267
  0
VERTEX
  5
12F
  8
THRUCUT
 10
48.37999999999964
 20
7.999999999995055
 30
0.0
  0
VERTEX
  5
130
  8
THRUCUT
 10
70.11249999999956
 20
7.999999999994543
 30
0.0
 42
-0.4142135623736434
  0
VERTEX
  5
131
  8
THRUCUT
 10
70.24249999999967
 20
7.869999999994548
 30
0.0
  0
VERTEX
  5
132
  8
THRUCUT
 10
70.24249999999967
 20
7.683847763103074
 30
0.0
 42
1.0
  0
VERTEX
  5
133
  8
THRUCUT
 10
70.42634776310803
 20
7.499999999994543
 30
0.0
  0
VERTEX
  5
134
  8
THRUCUT
 10
70.55865223689108
 20
7.499999999994543
 30
0.0
 42
1.0
  0
VERTEX
  5
135
  8
THRUCUT
 10
70.74249999999967
 20
7.683847763103074
 30
0.0
  0
VERTEX
  5
136
  8
THRUCUT
 10
70.74249999999967
 20
7.869999999994548
 30
0.0
 42
-0.4142135623732267
  0
VERTEX
  5
137
  8
THRUCUT
 10
70.87249999999955
 20
7.999999999994543
 30
0.0
  0
VERTEX
  5
138
  8
THRUCUT
 10
92.62000000000089
 20
7.999999999995051
 30
0.0
 42
-0.4142135623929817
  0
VERTEX
  5
139
  8
THRUCUT
 10
92.75000000000088
 20
7.869999999996256
 30
0.0
  0
VERTEX
  5
13A
  8
THRUCUT
 10
92.75000000000261
 20
7.6838477631036
 30
0.0
 42
1.0
  0
VERTEX
  5
13B
  8
THRUCUT
 10
92.9338477631112
 20
7.499999999995069
 30
0.0
  0
VERTEX
  5
13C
  8
THRUCUT
 10
93.06615223689414
 20
7.499999999995069
 30
0.0
 42
1.0
  0
VERTEX
  5
13D
  8
THRUCUT
 10
93.25000000000261
 20
7.6838477631036
 30
0.0
  0
VERTEX
  5
13E
  8
THRUCUT
 10
93.25000000000279
 20
7.869999999995698
 30
0.0
 42
-0.4142135623381356
  0
VERTEX
  5
13F
  8
THRUCUT
 10
93.38000000000278
 20
7.99999999999558
 30
0.0
  0
VERTEX
  5
140
  8
THRUCUT
 10
94.62000000000288
 20
7.999999999995584
 30
0.0
 42
-0.414213562372271
  0
VERTEX
  5
141
  8
THRUCUT
 10
95.1200000000029
 20
7.499999999995584
 30
0.0
  0
VERTEX
  5
142
  8
THRUCUT
 10
95.1200000000029
 20
5.499999999995153
 30
0.0
 42
-0.4142135623679323
  0
VERTEX
  5
143
  8
THRUCUT
 10
94.62000000000288
 20
4.999999999995153
 30
0.0
  0
VERTEX
  5
144
  8
THRUCUT
 10
93.38000000000278
 20
4.999999999995156
 30
0.0
 42
-0.4142135623449497
  0
VERTEX
  5
145
  8
THRUCUT
 10
93.25000000000279
 20
5.129999999995039
 30
0.0
  0
VERTEX
  5
146
  8
THRUCUT
 10
93.25000000000261
 20
5.316152236886597
 30
0.0
 42
1.0
  0
VERTEX
  5
147
  8
THRUCUT
 10
93.06615223689414
 20
5.499999999995071
 30
0.0
  0
VERTEX
  5
148
  8
THRUCUT
 10
92.9338477631112
 20
5.499999999995071
 30
0.0
 42
1.0
  0
VERTEX
  5
149
  8
THRUCUT
 10
92.75000000000261
 20
5.316152236886597
 30
0.0
  0
VERTEX
  5
14A
  8
THRUCUT
 10
92.75000000000094
 20
5.129999999993897
 30
0.0
 42
-0.4142135623571974
  0
VERTEX
  5
14B
  8
THRUCUT
 10
92.62000000000094
 20
4.999999999995054
 30
0.0
  0
VERTEX
  5
14C
  8
THRUCUT
 10
70.87249999999955
 20
4.99999999999463
 30
0.0
 42
-0.4142135623736935
  0
VERTEX
  5
14D
  8
THRUCUT
 10
70.74249999999967
 20
5.129999999994597
 30
0.0
  0
VERTEX
  5
14E
  8
THRUCUT
 10
70.74249999999967
 20
5.316152236886071
 30
0.0
 42
1.0
  0
VERTEX
  5
14F
  8
THRUCUT
 10
70.55865223689108
 20
5.499999999994545
 30
0.0
  0
VERTEX
  5
150
  8
THRUCUT
 10
70.42634776310803
 20
5.499999999994545
 30
0.0
 42
1.0
  0
VERTEX
  5
151
  8
THRUCUT
 10
70.24249999999967
 20
5.316152236886071
 30
0.0
  0
VERTEX
  5
152
  8
THRUCUT
 10
70.24249999999967
 20
5.129999999994597
 30
0.0
 42
-0.4142135623747849
  0
VERTEX
  5
153
  8
THRUCUT
 10
70.11249999999956
 20
4.99999999999463
 30
0.0
  0
VERTEX
  5
154
  8
THRUCUT
 10
48.37999999999964
 20
4.999999999995085
 30
0.0
 42
-0.4142135623736935
  0
VERTEX
  5
155
  8
THRUCUT
 10
48.24999999999965
 20
5.129999999995052
 30
0.0
  0
VERTEX
  5
156
  8
THRUCUT
 10
48.24999999999965
 20
5.316152236886582
 30
0.0
 42
1.0
  0
VERTEX
  5
157
  8
THRUCUT
 10
48.06615223689117
 20
5.499999999995056
 30
0.0
  0
VERTEX
  5
158
  8
THRUCUT
 10
47.93384776310813
 20
5.499999999995056
 30
0.0
 42
1.0
  0
VERTEX
  5
159
  8
THRUCUT
 10
47.74999999999965
 20
5.316152236886582
 30
0.0
  0
VERTEX
  5
15A
  8
THRUCUT
 10
47.74999999999965
 20
5.129999999995052
 30
0.0
 42
-0.4142135623747849
  0
VERTEX
  5
15B
  8
THRUCUT
 10
47.61999999999966
 20
4.999999999995085
 30
0.0
  0
VERTEX
  5
15C
  8
THRUCUT
 10
25.88750000000001
 20
4.999999999994633
 30
0.0
 42
-0.4142135623702022
  0
VERTEX
  5
15D
  8
THRUCUT
 10
25.75750000000001
 20
5.129999999994515
 30
0.0
  0
VERTEX
  5
15E
  8
THRUCUT
 10
25.75749999999984
 20
5.316152236886071
 30
0.0
 42
1.0
  0
VERTEX
  5
15F
  8
THRUCUT
 10
25.57365223689137
 20
5.499999999994545
 30
0.0
  0
VERTEX
  5
160
  8
THRUCUT
 10
25.44134776310843
 20
5.499999999994545
 30
0.0
 42
1.0
  0
VERTEX
  5
161
  8
THRUCUT
 10
25.25749999999984
 20
5.316152236886071
 30
0.0
  0
VERTEX
  5
162
  8
THRUCUT
 10
25.25749999999812
 20
5.129999999993403
 30
0.0
 42
-0.4142135623674379
  0
VERTEX
  5
163
  8
THRUCUT
 10
25.12749999999812
 20
4.999999999994603
 30
0.0
  0
VERTEX
  5
164
  8
THRUCUT
 10
3.380000000000187
 20
4.999999999994856
 30
0.0
 42
-0.4142135623727946
  0
VERTEX
  5
165
  8
THRUCUT
 10
3.250000000000189
 20
5.129999999994739
 30
0.0
  0
VERTEX
  5
166
  8
THRUCUT
 10
3.250000000000021
 20
5.316152236886071
 30
0.0
 42
1.0
  0
VERTEX
  5
167
  8
THRUCUT
 10
3.066152236891547
 20
5.499999999994545
 30
0.0
  0
VERTEX
  5
168
  8
THRUCUT
 10
2.933847763108609
 20
5.499999999994545
 30
0.0
 42
1.0
  0
VERTEX
  5
169
  8
THRUCUT
 10
2.750000000000021
 20
5.316152236886071
 30
0.0
  0
VERTEX
  5
16A
  8
THRUCUT
 10
2.749999999998302
 20
5.129999999993401
 30
0.0
 42
-0.4142135623704057
  0
VERTEX
  5
16B
  8
THRUCUT
 10
2.619999999998302
 20
4.999999999994602
 30
0.0
  0
VERTEX
  5
16C
  8
THRUCUT
 10
1.379999999997101
 20
4.999999999994602
 30
0.0
 42
-0.414213562373096
  0
VERTEX
  5
16D
  8
THRUCUT
 10
0.8799999999971009
 20
5.499999999994602
 30
0.0
  0
VERTEX
  5
16E
  8
THRUCUT
 10
0.8799999999971009
 20
7.499999999994531
 30
0.0
 42
-0.4142135623730968
  0
VERTEX
  5
16F
  8
THRUCUT
 10
1.379999999997112
 20
7.999999999994531
 30
0.0
  0
VERTEX
  5
170
  8
THRUCUT
 10
2.619999999998302
 20
7.999999999994529
 30
0.0
 42
-0.4142135623703808
  0
VERTEX
  5
171
  8
THRUCUT
 10
2.749999999998302
 20
7.86999999999573
 30
0.0
  0
VERTEX
  5
172
  8
THRUCUT
 10
2.750000000000021
 20
7.683847763103074
 30
0.0
 42
1.0
  0
VERTEX
  5
173
  8
THRUCUT
 10
2.933847763108609
 20
7.499999999994543
 30
0.0
  0
VERTEX
  5
174
  8
THRUCUT
 10
3.066152236891547
 20
7.499999999994543
 30
0.0
 42
1.0
  0
VERTEX
  5
175
  8
THRUCUT
 10
3.250000000000021
 20
7.683847763103074
 30
0.0
  0
VERTEX
  5
176
  8
THRUCUT
 10
3.250000000000189
 20
7.869999999995168
 30
0.0
 42
-0.4142135623729316
  0
VERTEX
  5
177
  8
THRUCUT
 10
3.380000000000192
 20
7.999999999995051
 30
0.0
  0
SEQEND
  5
652
  8
THRUCUT
  0
POLYLINE
  5
72
  8
THRUCUT
 66
     1
 10
0.0
 20
0.0
 30
0.0
 70
     1
  0
VERTEX
  5
178
  8
THRUCUT
 10
25.12749999999813
 20
11.49999999999551
 30
0.0
 42
-0.4142135623708788
  0
VERTEX
  5
179
  8
THRUCUT
 10
25.25749999999812
 20
11.36999999999671
 30
0.0
  0
VERTEX
  5
17A
  8
THRUCUT
 10
25.25749999999984
 20
11.18384776310405
 30
0.0
 42
1.0
  0
VERTEX
  5
17B
  8
THRUCUT
 10
25.44134776310843
 20
10.99999999999552
 30
0.0
  0
VERTEX
  5
17C
  8
THRUCUT
 10
25.57365223689137
 20
10.99999999999552
 30
0.0
 42
1.0
  0
VERTEX
  5
17D
  8
THRUCUT
 10
25.75749999999984
 20
11.18384776310405
 30
0.0
  0
VERTEX
  5
17E
  8
THRUCUT
 10
25.75750000000001
 20
11.36999999999605
 30
0.0
 42
-0.4142135623697945
  0
VERTEX
  5
17F
  8
THRUCUT
 10
25.88750000000011
 20
11.49999999999593
 30
0.0
  0
VERTEX
  5
180
  8
THRUCUT
 10
26.38749999999984
 20
11.49999999999552
 30
0.0
  0
VERTEX
  5
181
  8
THRUCUT
 10
47.61999999999966
 20
11.49999999999603
 30
0.0
 42
-0.4142135623736434
  0
VERTEX
  5
182
  8
THRUCUT
 10
47.74999999999965
 20
11.36999999999604
 30
0.0
  0
VERTEX
  5
183
  8
THRUCUT
 10
47.74999999999965
 20
11.18384776310451
 30
0.0
 42
1.0
  0
VERTEX
  5
184
  8
THRUCUT
 10
47.93384776310813
 20
10.99999999999603
 30
0.0
  0
VERTEX
  5
185
  8
THRUCUT
 10
48.06615223689117
 20
10.99999999999603
 30
0.0
 42
1.0
  0
VERTEX
  5
186
  8
THRUCUT
 10
48.24999999999965
 20
11.18384776310451
 30
0.0
  0
VERTEX
  5
187
  8
THRUCUT
 10
48.24999999999965
 20
11.36999999999604
 30
0.0
 42
-0.4142135623732267
  0
VERTEX
  5
188
  8
THRUCUT
 10
48.37999999999964
 20
11.49999999999603
 30
0.0
  0
VERTEX
  5
189
  8
THRUCUT
 10
70.11249999999956
 20
11.49999999999552
 30
0.0
 42
-0.4142135623736434
  0
VERTEX
  5
18A
  8
THRUCUT
 10
70.24249999999967
 20
11.36999999999553
 30
0.0
  0
VERTEX
  5
18B
  8
THRUCUT
 10
70.24249999999967
 20
11.18384776310405
 30
0.0
 42
1.0
  0
VERTEX
  5
18C
  8
THRUCUT
 10
70.42634776310803
 20
10.99999999999552
 30
0.0
  0
VERTEX
  5
18D
  8
THRUCUT
 10
70.55865223689108
 20
10.99999999999552
 30
0.0
 42
1.0
  0
VERTEX
  5
18E
  8
THRUCUT
 10
70.74249999999967
 20
11.18384776310405
 30
0.0
  0
VERTEX
  5
18F
  8
THRUCUT
 10
70.74249999999967
 20
11.36999999999553
 30
0.0
 42
-0.4142135623732267
  0
VERTEX
  5
190
  8
THRUCUT
 10
70.87249999999955
 20
11.49999999999552
 30
0.0
  0
VERTEX
  5
191
  8
THRUCUT
 10
92.62000000000089
 20
11.49999999999603
 30
0.0
 42
-0.4142135623929817
  0
VERTEX
  5
192
  8
THRUCUT
 10
92.75000000000088
 20
11.36999999999723
 30
0.0
  0
VERTEX
  5
193
  8
THRUCUT
 10
92.75000000000261
 20
11.18384776310458
 30
0.0
 42
1.0
  0
VERTEX
  5
194
  8
THRUCUT
 10
92.9338477631112
 20
10.99999999999605
 30
0.0
  0
VERTEX
  5
195
  8
THRUCUT
 10
93.06615223689414
 20
10.99999999999605
 30
0.0
 42
1.0
  0
VERTEX
  5
196
  8
THRUCUT
 10
93.25000000000261
 20
11.18384776310458
 30
0.0
  0
VERTEX
  5
197
  8
THRUCUT
 10
93.25000000000279
 20
11.36999999999668
 30
0.0
 42
-0.4142135623381356
  0
VERTEX
  5
198
  8
THRUCUT
 10
93.38000000000278
 20
11.49999999999656
 30
0.0
  0
VERTEX
  5
199
  8
THRUCUT
 10
94.62000000000288
 20
11.49999999999656
 30
0.0
 42
-0.414213562372271
  0
VERTEX
  5
19A
  8
THRUCUT
 10
95.1200000000029
 20
10.99999999999656
 30
0.0
  0
VERTEX
  5
19B
  8
THRUCUT
 10
95.1200000000029
 20
8.999999999996135
 30
0.0
 42
-0.4142135623679323
  0
VERTEX
  5
19C
  8
THRUCUT
 10
94.62000000000288
 20
8.499999999996135
 30
0.0
  0
VERTEX
  5
19D
  8
THRUCUT
 10
93.38000000000278
 20
8.499999999996138
 30
0.0
 42
-0.4142135623449497
  0
VERTEX
  5
19E
  8
THRUCUT
 10
93.25000000000279
 20
8.629999999996022
 30
0.0
  0
VERTEX
  5
19F
  8
THRUCUT
 10
93.25000000000261
 20
8.816152236887579
 30
0.0
 42
1.0
  0
VERTEX
  5
1A0
  8
THRUCUT
 10
93.06615223689414
 20
8.999999999996053
 30
0.0
  0
VERTEX
  5
1A1
  8
THRUCUT
 10
92.9338477631112
 20
8.999999999996053
 30
0.0
 42
1.0
  0
VERTEX
  5
1A2
  8
THRUCUT
 10
92.75000000000261
 20
8.816152236887579
 30
0.0
  0
VERTEX
  5
1A3
  8
THRUCUT
 10
92.75000000000094
 20
8.62999999999488
 30
0.0
 42
-0.4142135623571974
  0
VERTEX
  5
1A4
  8
THRUCUT
 10
92.62000000000094
 20
8.499999999996035
 30
0.0
  0
VERTEX
  5
1A5
  8
THRUCUT
 10
70.87249999999955
 20
8.499999999995612
 30
0.0
 42
-0.4142135623736935
  0
VERTEX
  5
1A6
  8
THRUCUT
 10
70.74249999999967
 20
8.62999999999558
 30
0.0
  0
VERTEX
  5
1A7
  8
THRUCUT
 10
70.74249999999967
 20
8.816152236887053
 30
0.0
 42
1.0
  0
VERTEX
  5
1A8
  8
THRUCUT
 10
70.55865223689108
 20
8.999999999995527
 30
0.0
  0
VERTEX
  5
1A9
  8
THRUCUT
 10
70.42634776310803
 20
8.999999999995527
 30
0.0
 42
1.0
  0
VERTEX
  5
1AA
  8
THRUCUT
 10
70.24249999999967
 20
8.816152236887053
 30
0.0
  0
VERTEX
  5
1AB
  8
THRUCUT
 10
70.24249999999967
 20
8.62999999999558
 30
0.0
 42
-0.4142135623747849
  0
VERTEX
  5
1AC
  8
THRUCUT
 10
70.11249999999956
 20
8.499999999995612
 30
0.0
  0
VERTEX
  5
1AD
  8
THRUCUT
 10
48.37999999999964
 20
8.499999999996067
 30
0.0
 42
-0.4142135623736935
  0
VERTEX
  5
1AE
  8
THRUCUT
 10
48.24999999999965
 20
8.629999999996034
 30
0.0
  0
VERTEX
  5
1AF
  8
THRUCUT
 10
48.24999999999965
 20
8.816152236887564
 30
0.0
 42
1.0
  0
VERTEX
  5
1B0
  8
THRUCUT
 10
48.06615223689117
 20
8.999999999996039
 30
0.0
  0
VERTEX
  5
1B1
  8
THRUCUT
 10
47.93384776310813
 20
8.999999999996039
 30
0.0
 42
1.0
  0
VERTEX
  5
1B2
  8
THRUCUT
 10
47.74999999999965
 20
8.816152236887564
 30
0.0
  0
VERTEX
  5
1B3
  8
THRUCUT
 10
47.74999999999965
 20
8.629999999996034
 30
0.0
 42
-0.4142135623747849
  0
VERTEX
  5
1B4
  8
THRUCUT
 10
47.61999999999966
 20
8.499999999996067
 30
0.0
  0
VERTEX
  5
1B5
  8
THRUCUT
 10
25.88750000000001
 20
8.499999999995616
 30
0.0
 42
-0.4142135623702022
  0
VERTEX
  5
1B6
  8
THRUCUT
 10
25.75750000000001
 20
8.629999999995498
 30
0.0
  0
VERTEX
  5
1B7
  8
THRUCUT
 10
25.75749999999984
 20
8.816152236887053
 30
0.0
 42
1.0
  0
VERTEX
  5
1B8
  8
THRUCUT
 10
25.57365223689137
 20
8.999999999995527
 30
0.0
  0
VERTEX
  5
1B9
  8
THRUCUT
 10
25.44134776310843
 20
8.999999999995527
 30
0.0
 42
1.0
  0
VERTEX
  5
1BA
  8
THRUCUT
 10
25.25749999999984
 20
8.816152236887053
 30
0.0
  0
VERTEX
  5
1BB
  8
THRUCUT
 10
25.25749999999812
 20
8.629999999994386
 30
0.0
 42
-0.4142135623674379
  0
VERTEX
  5
1BC
  8
THRUCUT
 10
25.12749999999812
 20
8.499999999995586
 30
0.0
  0
VERTEX
  5
1BD
  8
THRUCUT
 10
3.380000000000187
 20
8.499999999995838
 30
0.0
 42
-0.4142135623727946
  0
VERTEX
  5
1BE
  8
THRUCUT
 10
3.250000000000189
 20
8.629999999995722
 30
0.0
  0
VERTEX
  5
1BF
  8
THRUCUT
 10
3.250000000000021
 20
8.816152236887053
 30
0.0
 42
1.0
  0
VERTEX
  5
1C0
  8
THRUCUT
 10
3.066152236891547
 20
8.999999999995527
 30
0.0
  0
VERTEX
  5
1C1
  8
THRUCUT
 10
2.933847763108609
 20
8.999999999995527
 30
0.0
 42
1.0
  0
VERTEX
  5
1C2
  8
THRUCUT
 10
2.750000000000021
 20
8.816152236887053
 30
0.0
  0
VERTEX
  5
1C3
  8
THRUCUT
 10
2.749999999998302
 20
8.629999999994384
 30
0.0
 42
-0.4142135623704057
  0
VERTEX
  5
1C4
  8
THRUCUT
 10
2.619999999998302
 20
8.499999999995584
 30
0.0
  0
VERTEX
  5
1C5
  8
THRUCUT
 10
1.379999999997101
 20
8.499999999995584
 30
0.0
 42
-0.414213562373096
  0
VERTEX
  5
1C6
  8
THRUCUT
 10
0.8799999999971009
 20
8.999999999995584
 30
0.0
  0
VERTEX
  5
1C7
  8
THRUCUT
 10
0.8799999999971009
 20
10.99999999999551
 30
0.0
 42
-0.4142135623730968
  0
VERTEX
  5
1C8
  8
THRUCUT
 10
1.379999999997112
 20
11.49999999999551
 30
0.0
  0
VERTEX
  5
1C9
  8
THRUCUT
 10
2.619999999998302
 20
11.49999999999551
 30
0.0
 42
-0.4142135623703808
  0
VERTEX
  5
1CA
  8
THRUCUT
 10
2.749999999998302
 20
11.36999999999671
 30
0.0
  0
VERTEX
  5
1CB
  8
THRUCUT
 10
2.750000000000021
 20
11.18384776310405
 30
0.0
 42
1.0
  0
VERTEX
  5
1CC
  8
THRUCUT
 10
2.933847763108609
 20
10.99999999999552
 30
0.0
  0
VERTEX
  5
1CD
  8
THRUCUT
 10
3.066152236891547
 20
10.99999999999552
 30
0.0
 42
1.0
  0
VERTEX
  5
1CE
  8
THRUCUT
 10
3.250000000000021
 20
11.18384776310405
 30
0.0
  0
VERTEX
  5
1CF
  8
THRUCUT
 10
3.250000000000189
 20
11.36999999999615
 30
0.0
 42
-0.4142135623729316
  0
VERTEX
  5
1D0
  8
THRUCUT
 10
3.380000000000192
 20
11.49999999999603
 30
0.0
  0
SEQEND
  5
653
  8
THRUCUT
  0
POLYLINE
  5
73
  8
THRUCUT
 66
     1
 10
0.0
 20
0.0
 30
0.0
 70
     1
  0
VERTEX
  5
1D1
  8
THRUCUT
 10
25.12749999999813
 20
14.99999999999649
 30
0.0
 42
-0.4142135623708788
  0
VERTEX
  5
1D2
  8
THRUCUT
 10
25.25749999999812
 20
14.86999999999769
 30
0.0
  0
VERTEX
  5
1D3
  8
THRUCUT
 10
25.25749999999984
 20
14.68384776310504
 30
0.0
 42
1.0
  0
VERTEX
  5
1D4
  8
THRUCUT
 10
25.44134776310843
 20
14.4999999999965
 30
0.0
  0
VERTEX
  5
1D5
  8
THRUCUT
 10
25.57365223689137
 20
14.4999999999965
 30
0.0
 42
1.0
  0
VERTEX
  5
1D6
  8
THRUCUT
 10
25.75749999999984
 20
14.68384776310504
 30
0.0
  0
VERTEX
  5
1D7
  8
THRUCUT
 10
25.75750000000001
 20
14.86999999999703
 30
0.0
 42
-0.4142135623697945
  0
VERTEX
  5
1D8
  8
THRUCUT
 10
25.88750000000011
 20
14.99999999999691
 30
0.0
  0
VERTEX
  5
1D9
  8
THRUCUT
 10
26.38749999999984
 20
14.9999999999965
 30
0.0
  0
VERTEX
  5
1DA
  8
THRUCUT
 10
47.61999999999966
 20
14.99999999999702
 30
0.0
 42
-0.4142135623736434
  0
VERTEX
  5
1DB
  8
THRUCUT
 10
47.74999999999965
 20
14.86999999999702
 30
0.0
  0
VERTEX
  5
1DC
  8
THRUCUT
 10
47.74999999999965
 20
14.68384776310549
 30
0.0
 42
1.0
  0
VERTEX
  5
1DD
  8
THRUCUT
 10
47.93384776310813
 20
14.49999999999702
 30
0.0
  0
VERTEX
  5
1DE
  8
THRUCUT
 10
48.06615223689117
 20
14.49999999999702
 30
0.0
 42
1.0
  0
VERTEX
  5
1DF
  8
THRUCUT
 10
48.24999999999965
 20
14.68384776310549
 30
0.0
  0
VERTEX
  5
1E0
  8
THRUCUT
 10
48.24999999999965
 20
14.86999999999702
 30
0.0
 42
-0.4142135623732267
  0
VERTEX
  5
1E1
  8
THRUCUT
 10
48.37999999999964
 20
14.99999999999702
 30
0.0
  0
VERTEX
  5
1E2
  8
THRUCUT
 10
70.11249999999956
 20
14.9999999999965
 30
0.0
 42
-0.4142135623736434
  0
VERTEX
  5
1E3
  8
THRUCUT
 10
70.24249999999967
 20
14.86999999999651
 30
0.0
  0
VERTEX
  5
1E4
  8
THRUCUT
 10
70.24249999999967
 20
14.68384776310504
 30
0.0
 42
1.0
  0
VERTEX
  5
1E5
  8
THRUCUT
 10
70.42634776310803
 20
14.4999999999965
 30
0.0
  0
VERTEX
  5
1E6
  8
THRUCUT
 10
70.55865223689108
 20
14.4999999999965
 30
0.0
 42
1.0
  0
VERTEX
  5
1E7
  8
THRUCUT
 10
70.74249999999967
 20
14.68384776310504
 30
0.0
  0
VERTEX
  5
1E8
  8
THRUCUT
 10
70.74249999999967
 20
14.86999999999651
 30
0.0
 42
-0.4142135623732267
  0
VERTEX
  5
1E9
  8
THRUCUT
 10
70.87249999999955
 20
14.9999999999965
 30
0.0
  0
VERTEX
  5
1EA
  8
THRUCUT
 10
92.62000000000089
 20
14.99999999999701
 30
0.0
 42
-0.4142135623929817
  0
VERTEX
  5
1EB
  8
THRUCUT
 10
92.75000000000088
 20
14.86999999999822
 30
0.0
  0
VERTEX
  5
1EC
  8
THRUCUT
 10
92.75000000000261
 20
14.68384776310556
 30
0.0
 42
1.0
  0
VERTEX
  5
1ED
  8
THRUCUT
 10
92.9338477631112
 20
14.49999999999703
 30
0.0
  0
VERTEX
  5
1EE
  8
THRUCUT
 10
93.06615223689414
 20
14.49999999999703
 30
0.0
 42
1.0
  0
VERTEX
  5
1EF
  8
THRUCUT
 10
93.25000000000261
 20
14.68384776310556
 30
0.0
  0
VERTEX
  5
1F0
  8
THRUCUT
 10
93.25000000000279
 20
14.86999999999766
 30
0.0
 42
-0.4142135623381356
  0
VERTEX
  5
1F1
  8
THRUCUT
 10
93.38000000000278
 20
14.99999999999754
 30
0.0
  0
VERTEX
  5
1F2
  8
THRUCUT
 10
94.62000000000288
 20
14.99999999999755
 30
0.0
 42
-0.414213562372271
  0
VERTEX
  5
1F3
  8
THRUCUT
 10
95.1200000000029
 20
14.49999999999755
 30
0.0
  0
VERTEX
  5
1F4
  8
THRUCUT
 10
95.1200000000029
 20
12.49999999999711
 30
0.0
 42
-0.4142135623679323
  0
VERTEX
  5
1F5
  8
THRUCUT
 10
94.62000000000288
 20
11.99999999999711
 30
0.0
  0
VERTEX
  5
1F6
  8
THRUCUT
 10
93.38000000000278
 20
11.99999999999712
 30
0.0
 42
-0.4142135623449497
  0
VERTEX
  5
1F7
  8
THRUCUT
 10
93.25000000000279
 20
12.129999999997
 30
0.0
  0
VERTEX
  5
1F8
  8
THRUCUT
 10
93.25000000000261
 20
12.31615223688856
 30
0.0
 42
1.0
  0
VERTEX
  5
1F9
  8
THRUCUT
 10
93.06615223689414
 20
12.49999999999703
 30
0.0
  0
VERTEX
  5
1FA
  8
THRUCUT
 10
92.9338477631112
 20
12.49999999999703
 30
0.0
 42
1.0
  0
VERTEX
  5
1FB
  8
THRUCUT
 10
92.75000000000261
 20
12.31615223688856
 30
0.0
  0
VERTEX
  5
1FC
  8
THRUCUT
 10
92.75000000000094
 20
12.12999999999586
 30
0.0
 42
-0.4142135623571974
  0
VERTEX
  5
1FD
  8
THRUCUT
 10
92.62000000000094
 20
11.99999999999702
 30
0.0
  0
VERTEX
  5
1FE
  8
THRUCUT
 10
70.87249999999955
 20
11.99999999999659
 30
0.0
 42
-0.4142135623736935
  0
VERTEX
  5
1FF
  8
THRUCUT
 10
70.74249999999967
 20
12.12999999999656
 30
0.0
  0
VERTEX
  5
200
  8
THRUCUT
 10
70.74249999999967
 20
12.31615223688803
 30
0.0
 42
1.0
  0
VERTEX
  5
201
  8
THRUCUT
 10
70.55865223689108
 20
12.49999999999651
 30
0.0
  0
VERTEX
  5
202
  8
THRUCUT
 10
70.42634776310803
 20
12.49999999999651
 30
0.0
 42
1.0
  0
VERTEX
  5
203
  8
THRUCUT
 10
70.24249999999967
 20
12.31615223688803
 30
0.0
  0
VERTEX
  5
204
  8
THRUCUT
 10
70.24249999999967
 20
12.12999999999656
 30
0.0
 42
-0.4142135623747849
  0
VERTEX
  5
205
  8
THRUCUT
 10
70.11249999999956
 20
11.99999999999659
 30
0.0
  0
VERTEX
  5
206
  8
THRUCUT
 10
48.37999999999964
 20
11.99999999999705
 30
0.0
 42
-0.4142135623736935
  0
VERTEX
  5
207
  8
THRUCUT
 10
48.24999999999965
 20
12.12999999999701
 30
0.0
  0
VERTEX
  5
208
  8
THRUCUT
 10
48.24999999999965
 20
12.31615223688854
 30
0.0
 42
1.0
  0
VERTEX
  5
209
  8
THRUCUT
 10
48.06615223689117
 20
12.49999999999702
 30
0.0
  0
VERTEX
  5
20A
  8
THRUCUT
 10
47.93384776310813
 20
12.49999999999702
 30
0.0
 42
1.0
  0
VERTEX
  5
20B
  8
THRUCUT
 10
47.74999999999965
 20
12.31615223688854
 30
0.0
  0
VERTEX
  5
20C
  8
THRUCUT
 10
47.74999999999965
 20
12.12999999999701
 30
0.0
 42
-0.4142135623747849
  0
VERTEX
  5
20D
  8
THRUCUT
 10
47.61999999999966
 20
11.99999999999705
 30
0.0
  0
VERTEX
  5
20E
  8
THRUCUT
 10
25.88750000000001
 20
11.9999999999966
 30
0.0
 42
-0.4142135623702022
  0
VERTEX
  5
20F
  8
THRUCUT
 10
25.75750000000001
 20
12.12999999999648
 30
0.0
  0
VERTEX
  5
210
  8
THRUCUT
 10
25.75749999999984
 20
12.31615223688803
 30
0.0
 42
1.0
  0
VERTEX
  5
211
  8
THRUCUT
 10
25.57365223689137
 20
12.49999999999651
 30
0.0
  0
VERTEX
  5
212
  8
THRUCUT
 10
25.44134776310843
 20
12.49999999999651
 30
0.0
 42
1.0
  0
VERTEX
  5
213
  8
THRUCUT
 10
25.25749999999984
 20
12.31615223688803
 30
0.0
  0
VERTEX
  5
214
  8
THRUCUT
 10
25.25749999999812
 20
12.12999999999536
 30
0.0
 42
-0.4142135623674379
  0
VERTEX
  5
215
  8
THRUCUT
 10
25.12749999999812
 20
11.99999999999657
 30
0.0
  0
VERTEX
  5
216
  8
THRUCUT
 10
3.380000000000187
 20
11.99999999999682
 30
0.0
 42
-0.4142135623727946
  0
VERTEX
  5
217
  8
THRUCUT
 10
3.250000000000189
 20
12.1299999999967
 30
0.0
  0
VERTEX
  5
218
  8
THRUCUT
 10
3.250000000000021
 20
12.31615223688803
 30
0.0
 42
1.0
  0
VERTEX
  5
219
  8
THRUCUT
 10
3.066152236891547
 20
12.49999999999651
 30
0.0
  0
VERTEX
  5
21A
  8
THRUCUT
 10
2.933847763108609
 20
12.49999999999651
 30
0.0
 42
1.0
  0
VERTEX
  5
21B
  8
THRUCUT
 10
2.750000000000021
 20
12.31615223688803
 30
0.0
  0
VERTEX
  5
21C
  8
THRUCUT
 10
2.749999999998302
 20
12.12999999999536
 30
0.0
 42
-0.4142135623704057
  0
VERTEX
  5
21D
  8
THRUCUT
 10
2.619999999998302
 20
11.99999999999656
 30
0.0
  0
VERTEX
  5
21E
  8
THRUCUT
 10
1.379999999997101
 20
11.99999999999656
 30
0.0
 42
-0.414213562373096
  0
VERTEX
  5
21F
  8
THRUCUT
 10
0.8799999999971009
 20
12.49999999999656
 30
0.0
  0
VERTEX
  5
220
  8
THRUCUT
 10
0.8799999999971009
 20
14.49999999999649
 30
0.0
 42
-0.4142135623730968
  0
VERTEX
  5
221
  8
THRUCUT
 10
1.379999999997112
 20
14.99999999999649
 30
0.0
  0
VERTEX
  5
222
  8
THRUCUT
 10
2.619999999998302
 20
14.99999999999649
 30
0.0
 42
-0.4142135623703808
  0
VERTEX
  5
223
  8
THRUCUT
 10
2.749999999998302
 20
14.86999999999769
 30
0.0
  0
VERTEX
  5
224
  8
THRUCUT
 10
2.750000000000021
 20
14.68384776310504
 30
0.0
 42
1.0
  0
VERTEX
  5
225
  8
THRUCUT
 10
2.933847763108609
 20
14.4999999999965
 30
0.0
  0
VERTEX
  5
226
  8
THRUCUT
 10
3.066152236891547
 20
14.4999999999965
 30
0.0
 42
1.0
  0
VERTEX
  5
227
  8
THRUCUT
 10
3.250000000000021
 20
14.68384776310504
 30
0.0
  0
VERTEX
  5
228
  8
THRUCUT
 10
3.250000000000189
 20
14.86999999999713
 30
0.0
 42
-0.4142135623729316
  0
VERTEX
  5
229
  8
THRUCUT
 10
3.380000000000192
 20
14.99999999999701
 30
0.0
  0
SEQEND
  5
654
  8
THRUCUT
  0
POLYLINE
  5
74
  8
THRUCUT
 66
     1
 10
0.0
 20
0.0
 30
0.0
 70
     1
  0
VERTEX
  5
22A
  8
THRUCUT
 10
25.12749999999813
 20
18.49999999999747
 30
0.0
 42
-0.4142135623708788
  0
VERTEX
  5
22B
  8
THRUCUT
 10
25.25749999999812
 20
18.36999999999868
 30
0.0
  0
VERTEX
  5
22C
  8
THRUCUT
 10
25.25749999999984
 20
18.18384776310602
 30
0.0
 42
1.0
  0
VERTEX
  5
22D
  8
THRUCUT
 10
25.44134776310843
 20
17.99999999999749
 30
0.0
  0
VERTEX
  5
22E
  8
THRUCUT
 10
25.57365223689137
 20
17.99999999999749
 30
0.0
 42
1.0
  0
VERTEX
  5
22F
  8
THRUCUT
 10
25.75749999999984
 20
18.18384776310602
 30
0.0
  0
VERTEX
  5
230
  8
THRUCUT
 10
25.75750000000001
 20
18.36999999999801
 30
0.0
 42
-0.4142135623697945
  0
VERTEX
  5
231
  8
THRUCUT
 10
25.88750000000011
 20
18.49999999999789
 30
0.0
  0
VERTEX
  5
232
  8
THRUCUT
 10
26.38749999999984
 20
18.49999999999749
 30
0.0
  0
VERTEX
  5
233
  8
THRUCUT
 10
47.61999999999966
 20
18.499999999998
 30
0.0
 42
-0.4142135623736434
  0
VERTEX
  5
234
  8
THRUCUT
 10
47.74999999999965
 20
18.36999999999801
 30
0.0
  0
VERTEX
  5
235
  8
THRUCUT
 10
47.74999999999965
 20
18.18384776310647
 30
0.0
 42
1.0
  0
VERTEX
  5
236
  8
THRUCUT
 10
47.93384776310813
 20
17.999999999998
 30
0.0
  0
VERTEX
  5
237
  8
THRUCUT
 10
48.06615223689117
 20
17.999999999998
 30
0.0
 42
1.0
  0
VERTEX
  5
238
  8
THRUCUT
 10
48.24999999999965
 20
18.18384776310647
 30
0.0
  0
VERTEX
  5
239
  8
THRUCUT
 10
48.24999999999965
 20
18.36999999999801
 30
0.0
 42
-0.4142135623732267
  0
VERTEX
  5
23A
  8
THRUCUT
 10
48.37999999999964
 20
18.499999999998
 30
0.0
  0
VERTEX
  5
23B
  8
THRUCUT
 10
70.11249999999956
 20
18.49999999999749
 30
0.0
 42
-0.4142135623736434
  0
VERTEX
  5
23C
  8
THRUCUT
 10
70.24249999999967
 20
18.36999999999749
 30
0.0
  0
VERTEX
  5
23D
  8
THRUCUT
 10
70.24249999999967
 20
18.18384776310602
 30
0.0
 42
1.0
  0
VERTEX
  5
23E
  8
THRUCUT
 10
70.42634776310803
 20
17.99999999999749
 30
0.0
  0
VERTEX
  5
23F
  8
THRUCUT
 10
70.55865223689108
 20
17.99999999999749
 30
0.0
 42
1.0
  0
VERTEX
  5
240
  8
THRUCUT
 10
70.74249999999967
 20
18.18384776310602
 30
0.0
  0
VERTEX
  5
241
  8
THRUCUT
 10
70.74249999999967
 20
18.36999999999749
 30
0.0
 42
-0.4142135623732267
  0
VERTEX
  5
242
  8
THRUCUT
 10
70.87249999999955
 20
18.49999999999749
 30
0.0
  0
VERTEX
  5
243
  8
THRUCUT
 10
92.62000000000089
 20
18.499999999998
 30
0.0
 42
-0.4142135623929817
  0
VERTEX
  5
244
  8
THRUCUT
 10
92.75000000000088
 20
18.3699999999992
 30
0.0
  0
VERTEX
  5
245
  8
THRUCUT
 10
92.75000000000261
 20
18.18384776310655
 30
0.0
 42
1.0
  0
VERTEX
  5
246
  8
THRUCUT
 10
92.9338477631112
 20
17.99999999999801
 30
0.0
  0
VERTEX
  5
247
  8
THRUCUT
 10
93.06615223689414
 20
17.99999999999801
 30
0.0
 42
1.0
  0
VERTEX
  5
248
  8
THRUCUT
 10
93.25000000000261
 20
18.18384776310655
 30
0.0
  0
VERTEX
  5
249
  8
THRUCUT
 10
93.25000000000279
 20
18.36999999999864
 30
0.0
 42
-0.4142135623381356
  0
VERTEX
  5
24A
  8
THRUCUT
 10
93.38000000000278
 20
18.49999999999853
 30
0.0
  0
VERTEX
  5
24B
  8
THRUCUT
 10
94.62000000000288
 20
18.49999999999853
 30
0.0
 42
-0.414213562372271
  0
VERTEX
  5
24C
  8
THRUCUT
 10
95.1200000000029
 20
17.99999999999853
 30
0.0
  0
VERTEX
  5
24D
  8
THRUCUT
 10
95.1200000000029
 20
15.9999999999981
 30
0.0
 42
-0.4142135623679323
  0
VERTEX
  5
24E
  8
THRUCUT
 10
94.62000000000288
 20
15.4999999999981
 30
0.0
  0
VERTEX
  5
24F
  8
THRUCUT
 10
93.38000000000278
 20
15.4999999999981
 30
0.0
 42
-0.4142135623449497
  0
VERTEX
  5
250
  8
THRUCUT
 10
93.25000000000279
 20
15.62999999999798
 30
0.0
  0
VERTEX
  5
251
  8
THRUCUT
 10
93.25000000000261
 20
15.81615223688954
 30
0.0
 42
1.0
  0
VERTEX
  5
252
  8
THRUCUT
 10
93.06615223689414
 20
15.99999999999801
 30
0.0
  0
VERTEX
  5
253
  8
THRUCUT
 10
92.9338477631112
 20
15.99999999999801
 30
0.0
 42
1.0
  0
VERTEX
  5
254
  8
THRUCUT
 10
92.75000000000261
 20
15.81615223688954
 30
0.0
  0
VERTEX
  5
255
  8
THRUCUT
 10
92.75000000000094
 20
15.62999999999684
 30
0.0
 42
-0.4142135623571974
  0
VERTEX
  5
256
  8
THRUCUT
 10
92.62000000000094
 20
15.499999999998
 30
0.0
  0
VERTEX
  5
257
  8
THRUCUT
 10
70.87249999999955
 20
15.49999999999757
 30
0.0
 42
-0.4142135623736935
  0
VERTEX
  5
258
  8
THRUCUT
 10
70.74249999999967
 20
15.62999999999754
 30
0.0
  0
VERTEX
  5
259
  8
THRUCUT
 10
70.74249999999967
 20
15.81615223688901
 30
0.0
 42
1.0
  0
VERTEX
  5
25A
  8
THRUCUT
 10
70.55865223689108
 20
15.99999999999749
 30
0.0
  0
VERTEX
  5
25B
  8
THRUCUT
 10
70.42634776310803
 20
15.99999999999749
 30
0.0
 42
1.0
  0
VERTEX
  5
25C
  8
THRUCUT
 10
70.24249999999967
 20
15.81615223688901
 30
0.0
  0
VERTEX
  5
25D
  8
THRUCUT
 10
70.24249999999967
 20
15.62999999999754
 30
0.0
 42
-0.4142135623747849
  0
VERTEX
  5
25E
  8
THRUCUT
 10
70.11249999999956
 20
15.49999999999757
 30
0.0
  0
VERTEX
  5
25F
  8
THRUCUT
 10
48.37999999999964
 20
15.49999999999803
 30
0.0
 42
-0.4142135623736935
  0
VERTEX
  5
260
  8
THRUCUT
 10
48.24999999999965
 20
15.629999999998
 30
0.0
  0
VERTEX
  5
261
  8
THRUCUT
 10
48.24999999999965
 20
15.81615223688953
 30
0.0
 42
1.0
  0
VERTEX
  5
262
  8
THRUCUT
 10
48.06615223689117
 20
15.999999999998
 30
0.0
  0
VERTEX
  5
263
  8
THRUCUT
 10
47.93384776310813
 20
15.999999999998
 30
0.0
 42
1.0
  0
VERTEX
  5
264
  8
THRUCUT
 10
47.74999999999965
 20
15.81615223688953
 30
0.0
  0
VERTEX
  5
265
  8
THRUCUT
 10
47.74999999999965
 20
15.629999999998
 30
0.0
 42
-0.4142135623747849
  0
VERTEX
  5
266
  8
THRUCUT
 10
47.61999999999966
 20
15.49999999999803
 30
0.0
  0
VERTEX
  5
267
  8
THRUCUT
 10
25.88750000000001
 20
15.49999999999758
 30
0.0
 42
-0.4142135623702022
  0
VERTEX
  5
268
  8
THRUCUT
 10
25.75750000000001
 20
15.62999999999746
 30
0.0
  0
VERTEX
  5
269
  8
THRUCUT
 10
25.75749999999984
 20
15.81615223688901
 30
0.0
 42
1.0
  0
VERTEX
  5
26A
  8
THRUCUT
 10
25.57365223689137
 20
15.99999999999749
 30
0.0
  0
VERTEX
  5
26B
  8
THRUCUT
 10
25.44134776310843
 20
15.99999999999749
 30
0.0
 42
1.0
  0
VERTEX
  5
26C
  8
THRUCUT
 10
25.25749999999984
 20
15.81615223688901
 30
0.0
  0
VERTEX
  5
26D
  8
THRUCUT
 10
25.25749999999812
 20
15.62999999999635
 30
0.0
 42
-0.4142135623674379
  0
VERTEX
  5
26E
  8
THRUCUT
 10
25.12749999999812
 20
15.49999999999755
 30
0.0
  0
VERTEX
  5
26F
  8
THRUCUT
 10
3.380000000000187
 20
15.4999999999978
 30
0.0
 42
-0.4142135623727946
  0
VERTEX
  5
270
  8
THRUCUT
 10
3.250000000000189
 20
15.62999999999768
 30
0.0
  0
VERTEX
  5
271
  8
THRUCUT
 10
3.250000000000021
 20
15.81615223688901
 30
0.0
 42
1.0
  0
VERTEX
  5
272
  8
THRUCUT
 10
3.066152236891547
 20
15.99999999999749
 30
0.0
  0
VERTEX
  5
273
  8
THRUCUT
 10
2.933847763108609
 20
15.99999999999749
 30
0.0
 42
1.0
  0
VERTEX
  5
274
  8
THRUCUT
 10
2.750000000000021
 20
15.81615223688901
 30
0.0
  0
VERTEX
  5
275
  8
THRUCUT
 10
2.749999999998302
 20
15.62999999999635
 30
0.0
 42
-0.4142135623704057
  0
VERTEX
  5
276
  8
THRUCUT
 10
2.619999999998302
 20
15.49999999999755
 30
0.0
  0
VERTEX
  5
277
  8
THRUCUT
 10
1.379999999997101
 20
15.49999999999755
 30
0.0
 42
-0.414213562373096
  0
VERTEX
  5
278
  8
THRUCUT
 10
0.8799999999971009
 20
15.99999999999755
 30
0.0
  0
VERTEX
  5
279
  8
THRUCUT
 10
0.8799999999971009
 20
17.99999999999747
 30
0.0
 42
-0.4142135623730968
  0
VERTEX
  5
27A
  8
THRUCUT
 10
1.379999999997112
 20
18.49999999999747
 30
0.0
  0
VERTEX
  5
27B
  8
THRUCUT
 10
2.619999999998302
 20
18.49999999999747
 30
0.0
 42
-0.4142135623703808
  0
VERTEX
  5
27C
  8
THRUCUT
 10
2.749999999998302
 20
18.36999999999867
 30
0.0
  0
VERTEX
  5
27D
  8
THRUCUT
 10
2.750000000000021
 20
18.18384776310602
 30
0.0
 42
1.0
  0
VERTEX
  5
27E
  8
THRUCUT
 10
2.933847763108609
 20
17.99999999999749
 30
0.0
  0
VERTEX
  5
27F
  8
THRUCUT
 10
3.066152236891547
 20
17.99999999999749
 30
0.0
 42
1.0
  0
VERTEX
  5
280
  8
THRUCUT
 10
3.250000000000021
 20
18.18384776310602
 30
0.0
  0
VERTEX
  5
281
  8
THRUCUT
 10
3.250000000000189
 20
18.36999999999811
 30
0.0
 42
-0.4142135623729316
  0
VERTEX
  5
282
  8
THRUCUT
 10
3.380000000000192
 20
18.499999999998
 30
0.0
  0
SEQEND
  5
655
  8
THRUCUT
  0
POLYLINE
  5
75
  8
THRUCUT
 66
     1
 10
0.0
 20
0.0
 30
0.0
 70
     1
  0
VERTEX
  5
283
  8
THRUCUT
 10
25.12749999999813
 20
21.99999999999846
 30
0.0
 42
-0.4142135623708788
  0
VERTEX
  5
284
  8
THRUCUT
 10
25.25749999999812
 20
21.86999999999966
 30
0.0
  0
VERTEX
  5
285
  8
THRUCUT
 10
25.25749999999984
 20
21.683847763107
 30
0.0
 42
1.0
  0
VERTEX
  5
286
  8
THRUCUT
 10
25.44134776310843
 20
21.49999999999847
 30
0.0
  0
VERTEX
  5
287
  8
THRUCUT
 10
25.57365223689137
 20
21.49999999999847
 30
0.0
 42
1.0
  0
VERTEX
  5
288
  8
THRUCUT
 10
25.75749999999984
 20
21.683847763107
 30
0.0
  0
VERTEX
  5
289
  8
THRUCUT
 10
25.75750000000001
 20
21.86999999999899
 30
0.0
 42
-0.4142135623697945
  0
VERTEX
  5
28A
  8
THRUCUT
 10
25.88750000000011
 20
21.99999999999887
 30
0.0
  0
VERTEX
  5
28B
  8
THRUCUT
 10
26.38749999999984
 20
21.99999999999847
 30
0.0
  0
VERTEX
  5
28C
  8
THRUCUT
 10
47.61999999999966
 20
21.99999999999898
 30
0.0
 42
-0.4142135623736434
  0
VERTEX
  5
28D
  8
THRUCUT
 10
47.74999999999965
 20
21.86999999999899
 30
0.0
  0
VERTEX
  5
28E
  8
THRUCUT
 10
47.74999999999965
 20
21.68384776310746
 30
0.0
 42
1.0
  0
VERTEX
  5
28F
  8
THRUCUT
 10
47.93384776310813
 20
21.49999999999898
 30
0.0
  0
VERTEX
  5
290
  8
THRUCUT
 10
48.06615223689117
 20
21.49999999999898
 30
0.0
 42
1.0
  0
VERTEX
  5
291
  8
THRUCUT
 10
48.24999999999965
 20
21.68384776310746
 30
0.0
  0
VERTEX
  5
292
  8
THRUCUT
 10
48.24999999999965
 20
21.86999999999899
 30
0.0
 42
-0.4142135623732267
  0
VERTEX
  5
293
  8
THRUCUT
 10
48.37999999999964
 20
21.99999999999898
 30
0.0
  0
VERTEX
  5
294
  8
THRUCUT
 10
70.11249999999956
 20
21.99999999999847
 30
0.0
 42
-0.4142135623736434
  0
VERTEX
  5
295
  8
THRUCUT
 10
70.24249999999967
 20
21.86999999999847
 30
0.0
  0
VERTEX
  5
296
  8
THRUCUT
 10
70.24249999999967
 20
21.683847763107
 30
0.0
 42
1.0
  0
VERTEX
  5
297
  8
THRUCUT
 10
70.42634776310803
 20
21.49999999999847
 30
0.0
  0
VERTEX
  5
298
  8
THRUCUT
 10
70.55865223689108
 20
21.49999999999847
 30
0.0
 42
1.0
  0
VERTEX
  5
299
  8
THRUCUT
 10
70.74249999999967
 20
21.683847763107
 30
0.0
  0
VERTEX
  5
29A
  8
THRUCUT
 10
70.74249999999967
 20
21.86999999999847
 30
0.0
 42
-0.4142135623732267
  0
VERTEX
  5
29B
  8
THRUCUT
 10
70.87249999999955
 20
21.99999999999847
 30
0.0
  0
VERTEX
  5
29C
  8
THRUCUT
 10
92.62000000000089
 20
21.99999999999898
 30
0.0
 42
-0.4142135623929817
  0
VERTEX
  5
29D
  8
THRUCUT
 10
92.75000000000088
 20
21.87000000000018
 30
0.0
  0
VERTEX
  5
29E
  8
THRUCUT
 10
92.75000000000261
 20
21.68384776310753
 30
0.0
 42
1.0
  0
VERTEX
  5
29F
  8
THRUCUT
 10
92.9338477631112
 20
21.499999999999
 30
0.0
  0
VERTEX
  5
2A0
  8
THRUCUT
 10
93.06615223689414
 20
21.499999999999
 30
0.0
 42
1.0
  0
VERTEX
  5
2A1
  8
THRUCUT
 10
93.25000000000261
 20
21.68384776310753
 30
0.0
  0
VERTEX
  5
2A2
  8
THRUCUT
 10
93.25000000000279
 20
21.86999999999962
 30
0.0
 42
-0.4142135623381356
  0
VERTEX
  5
2A3
  8
THRUCUT
 10
93.38000000000278
 20
21.99999999999951
 30
0.0
  0
VERTEX
  5
2A4
  8
THRUCUT
 10
94.62000000000288
 20
21.99999999999951
 30
0.0
 42
-0.414213562372271
  0
VERTEX
  5
2A5
  8
THRUCUT
 10
95.1200000000029
 20
21.49999999999951
 30
0.0
  0
VERTEX
  5
2A6
  8
THRUCUT
 10
95.1200000000029
 20
19.49999999999908
 30
0.0
 42
-0.4142135623679323
  0
VERTEX
  5
2A7
  8
THRUCUT
 10
94.62000000000288
 20
18.99999999999908
 30
0.0
  0
VERTEX
  5
2A8
  8
THRUCUT
 10
93.38000000000278
 20
18.99999999999908
 30
0.0
 42
-0.4142135623449497
  0
VERTEX
  5
2A9
  8
THRUCUT
 10
93.25000000000279
 20
19.12999999999896
 30
0.0
  0
VERTEX
  5
2AA
  8
THRUCUT
 10
93.25000000000261
 20
19.31615223689052
 30
0.0
 42
1.0
  0
VERTEX
  5
2AB
  8
THRUCUT
 10
93.06615223689414
 20
19.499999999999
 30
0.0
  0
VERTEX
  5
2AC
  8
THRUCUT
 10
92.9338477631112
 20
19.499999999999
 30
0.0
 42
1.0
  0
VERTEX
  5
2AD
  8
THRUCUT
 10
92.75000000000261
 20
19.31615223689052
 30
0.0
  0
VERTEX
  5
2AE
  8
THRUCUT
 10
92.75000000000094
 20
19.12999999999782
 30
0.0
 42
-0.4142135623571974
  0
VERTEX
  5
2AF
  8
THRUCUT
 10
92.62000000000094
 20
18.99999999999898
 30
0.0
  0
VERTEX
  5
2B0
  8
THRUCUT
 10
70.87249999999955
 20
18.99999999999855
 30
0.0
 42
-0.4142135623736935
  0
VERTEX
  5
2B1
  8
THRUCUT
 10
70.74249999999967
 20
19.12999999999852
 30
0.0
  0
VERTEX
  5
2B2
  8
THRUCUT
 10
70.74249999999967
 20
19.31615223689
 30
0.0
 42
1.0
  0
VERTEX
  5
2B3
  8
THRUCUT
 10
70.55865223689108
 20
19.49999999999847
 30
0.0
  0
VERTEX
  5
2B4
  8
THRUCUT
 10
70.42634776310803
 20
19.49999999999847
 30
0.0
 42
1.0
  0
VERTEX
  5
2B5
  8
THRUCUT
 10
70.24249999999967
 20
19.31615223689
 30
0.0
  0
VERTEX
  5
2B6
  8
THRUCUT
 10
70.24249999999967
 20
19.12999999999852
 30
0.0
 42
-0.4142135623747849
  0
VERTEX
  5
2B7
  8
THRUCUT
 10
70.11249999999956
 20
18.99999999999855
 30
0.0
  0
VERTEX
  5
2B8
  8
THRUCUT
 10
48.37999999999964
 20
18.99999999999901
 30
0.0
 42
-0.4142135623736935
  0
VERTEX
  5
2B9
  8
THRUCUT
 10
48.24999999999965
 20
19.12999999999898
 30
0.0
  0
VERTEX
  5
2BA
  8
THRUCUT
 10
48.24999999999965
 20
19.31615223689051
 30
0.0
 42
1.0
  0
VERTEX
  5
2BB
  8
THRUCUT
 10
48.06615223689117
 20
19.49999999999898
 30
0.0
  0
VERTEX
  5
2BC
  8
THRUCUT
 10
47.93384776310813
 20
19.49999999999898
 30
0.0
 42
1.0
  0
VERTEX
  5
2BD
  8
THRUCUT
 10
47.74999999999965
 20
19.31615223689051
 30
0.0
  0
VERTEX
  5
2BE
  8
THRUCUT
 10
47.74999999999965
 20
19.12999999999898
 30
0.0
 42
-0.4142135623747849
  0
VERTEX
  5
2BF
  8
THRUCUT
 10
47.61999999999966
 20
18.99999999999901
 30
0.0
  0
VERTEX
  5
2C0
  8
THRUCUT
 10
25.88750000000001
 20
18.99999999999856
 30
0.0
 42
-0.4142135623702022
  0
VERTEX
  5
2C1
  8
THRUCUT
 10
25.75750000000001
 20
19.12999999999844
 30
0.0
  0
VERTEX
  5
2C2
  8
THRUCUT
 10
25.75749999999984
 20
19.31615223689
 30
0.0
 42
1.0
  0
VERTEX
  5
2C3
  8
THRUCUT
 10
25.57365223689137
 20
19.49999999999847
 30
0.0
  0
VERTEX
  5
2C4
  8
THRUCUT
 10
25.44134776310843
 20
19.49999999999847
 30
0.0
 42
1.0
  0
VERTEX
  5
2C5
  8
THRUCUT
 10
25.25749999999984
 20
19.31615223689
 30
0.0
  0
VERTEX
  5
2C6
  8
THRUCUT
 10
25.25749999999812
 20
19.12999999999733
 30
0.0
 42
-0.4142135623674379
  0
VERTEX
  5
2C7
  8
THRUCUT
 10
25.12749999999812
 20
18.99999999999853
 30
0.0
  0
VERTEX
  5
2C8
  8
THRUCUT
 10
3.380000000000187
 20
18.99999999999878
 30
0.0
 42
-0.4142135623727946
  0
VERTEX
  5
2C9
  8
THRUCUT
 10
3.250000000000189
 20
19.12999999999866
 30
0.0
  0
VERTEX
  5
2CA
  8
THRUCUT
 10
3.250000000000021
 20
19.31615223689
 30
0.0
 42
1.0
  0
VERTEX
  5
2CB
  8
THRUCUT
 10
3.066152236891547
 20
19.49999999999847
 30
0.0
  0
VERTEX
  5
2CC
  8
THRUCUT
 10
2.933847763108609
 20
19.49999999999847
 30
0.0
 42
1.0
  0
VERTEX
  5
2CD
  8
THRUCUT
 10
2.750000000000021
 20
19.31615223689
 30
0.0
  0
VERTEX
  5
2CE
  8
THRUCUT
 10
2.749999999998302
 20
19.12999999999732
 30
0.0
 42
-0.4142135623704057
  0
VERTEX
  5
2CF
  8
THRUCUT
 10
2.619999999998302
 20
18.99999999999853
 30
0.0
  0
VERTEX
  5
2D0
  8
THRUCUT
 10
1.379999999997101
 20
18.99999999999853
 30
0.0
 42
-0.414213562373096
  0
VERTEX
  5
2D1
  8
THRUCUT
 10
0.8799999999971009
 20
19.49999999999853
 30
0.0
  0
VERTEX
  5
2D2
  8
THRUCUT
 10
0.8799999999971009
 20
21.49999999999846
 30
0.0
 42
-0.4142135623730968
  0
VERTEX
  5
2D3
  8
THRUCUT
 10
1.379999999997112
 20
21.99999999999846
 30
0.0
  0
VERTEX
  5
2D4
  8
THRUCUT
 10
2.619999999998302
 20
21.99999999999846
 30
0.0
 42
-0.4142135623703808
  0
VERTEX
  5
2D5
  8
THRUCUT
 10
2.749999999998302
 20
21.86999999999965
 30
0.0
  0
VERTEX
  5
2D6
  8
THRUCUT
 10
2.750000000000021
 20
21.683847763107
 30
0.0
 42
1.0
  0
VERTEX
  5
2D7
  8
THRUCUT
 10
2.933847763108609
 20
21.49999999999847
 30
0.0
  0
VERTEX
  5
2D8
  8
THRUCUT
 10
3.066152236891547
 20
21.49999999999847
 30
0.0
 42
1.0
  0
VERTEX
  5
2D9
  8
THRUCUT
 10
3.250000000000021
 20
21.683847763107
 30
0.0
  0
VERTEX
  5
2DA
  8
THRUCUT
 10
3.250000000000189
 20
21.86999999999909
 30
0.0
 42
-0.4142135623729316
  0
VERTEX
  5
2DB
  8
THRUCUT
 10
3.380000000000192
 20
21.99999999999898
 30
0.0
  0
SEQEND
  5
656
  8
THRUCUT
  0
POLYLINE
  5
76
  8
THRUCUT
 66
     1
 10
0.0
 20
0.0
 30
0.0
 70
     1
  0
VERTEX
  5
2DC
  8
THRUCUT
 10
25.12749999999813
 20
25.49999999999944
 30
0.0
 42
-0.4142135623708788
  0
VERTEX
  5
2DD
  8
THRUCUT
 10
25.25749999999812
 20
25.37000000000064
 30
0.0
  0
VERTEX
  5
2DE
  8
THRUCUT
 10
25.25749999999984
 20
25.18384776310798
 30
0.0
 42
1.0
  0
VERTEX
  5
2DF
  8
THRUCUT
 10
25.44134776310843
 20
24.99999999999945
 30
0.0
  0
VERTEX
  5
2E0
  8
THRUCUT
 10
25.57365223689137
 20
24.99999999999945
 30
0.0
 42
1.0
  0
VERTEX
  5
2E1
  8
THRUCUT
 10
25.75749999999984
 20
25.18384776310798
 30
0.0
  0
VERTEX
  5
2E2
  8
THRUCUT
 10
25.75750000000001
 20
25.36999999999997
 30
0.0
 42
-0.4142135623697945
  0
VERTEX
  5
2E3
  8
THRUCUT
 10
25.88750000000011
 20
25.49999999999986
 30
0.0
  0
VERTEX
  5
2E4
  8
THRUCUT
 10
26.38749999999984
 20
25.49999999999945
 30
0.0
  0
VERTEX
  5
2E5
  8
THRUCUT
 10
47.61999999999966
 20
25.49999999999996
 30
0.0
 42
-0.4142135623736434
  0
VERTEX
  5
2E6
  8
THRUCUT
 10
47.74999999999965
 20
25.36999999999997
 30
0.0
  0
VERTEX
  5
2E7
  8
THRUCUT
 10
47.74999999999965
 20
25.18384776310844
 30
0.0
 42
1.0
  0
VERTEX
  5
2E8
  8
THRUCUT
 10
47.93384776310813
 20
24.99999999999996
 30
0.0
  0
VERTEX
  5
2E9
  8
THRUCUT
 10
48.06615223689117
 20
24.99999999999996
 30
0.0
 42
1.0
  0
VERTEX
  5
2EA
  8
THRUCUT
 10
48.24999999999965
 20
25.18384776310844
 30
0.0
  0
VERTEX
  5
2EB
  8
THRUCUT
 10
48.24999999999965
 20
25.36999999999997
 30
0.0
 42
-0.4142135623732267
  0
VERTEX
  5
2EC
  8
THRUCUT
 10
48.37999999999964
 20
25.49999999999996
 30
0.0
  0
VERTEX
  5
2ED
  8
THRUCUT
 10
70.11249999999956
 20
25.49999999999945
 30
0.0
 42
-0.4142135623736434
  0
VERTEX
  5
2EE
  8
THRUCUT
 10
70.24249999999967
 20
25.36999999999945
 30
0.0
  0
VERTEX
  5
2EF
  8
THRUCUT
 10
70.24249999999967
 20
25.18384776310798
 30
0.0
 42
1.0
  0
VERTEX
  5
2F0
  8
THRUCUT
 10
70.42634776310803
 20
24.99999999999945
 30
0.0
  0
VERTEX
  5
2F1
  8
THRUCUT
 10
70.55865223689108
 20
24.99999999999945
 30
0.0
 42
1.0
  0
VERTEX
  5
2F2
  8
THRUCUT
 10
70.74249999999967
 20
25.18384776310798
 30
0.0
  0
VERTEX
  5
2F3
  8
THRUCUT
 10
70.74249999999967
 20
25.36999999999945
 30
0.0
 42
-0.4142135623732267
  0
VERTEX
  5
2F4
  8
THRUCUT
 10
70.87249999999955
 20
25.49999999999945
 30
0.0
  0
VERTEX
  5
2F5
  8
THRUCUT
 10
92.62000000000089
 20
25.49999999999996
 30
0.0
 42
-0.4142135623929817
  0
VERTEX
  5
2F6
  8
THRUCUT
 10
92.75000000000088
 20
25.37000000000116
 30
0.0
  0
VERTEX
  5
2F7
  8
THRUCUT
 10
92.75000000000261
 20
25.18384776310851
 30
0.0
 42
1.0
  0
VERTEX
  5
2F8
  8
THRUCUT
 10
92.9338477631112
 20
24.99999999999998
 30
0.0
  0
VERTEX
  5
2F9
  8
THRUCUT
 10
93.06615223689414
 20
24.99999999999998
 30
0.0
 42
1.0
  0
VERTEX
  5
2FA
  8
THRUCUT
 10
93.25000000000261
 20
25.18384776310851
 30
0.0
  0
VERTEX
  5
2FB
  8
THRUCUT
 10
93.25000000000279
 20
25.37000000000061
 30
0.0
 42
-0.4142135623381356
  0
VERTEX
  5
2FC
  8
THRUCUT
 10
93.38000000000278
 20
25.50000000000049
 30
0.0
  0
VERTEX
  5
2FD
  8
THRUCUT
 10
94.62000000000288
 20
25.50000000000049
 30
0.0
 42
-0.414213562372271
  0
VERTEX
  5
2FE
  8
THRUCUT
 10
95.1200000000029
 20
25.00000000000049
 30
0.0
  0
VERTEX
  5
2FF
  8
THRUCUT
 10
95.1200000000029
 20
23.00000000000006
 30
0.0
 42
-0.4142135623679323
  0
VERTEX
  5
300
  8
THRUCUT
 10
94.62000000000288
 20
22.50000000000006
 30
0.0
  0
VERTEX
  5
301
  8
THRUCUT
 10
93.38000000000278
 20
22.50000000000006
 30
0.0
 42
-0.4142135623449497
  0
VERTEX
  5
302
  8
THRUCUT
 10
93.25000000000279
 20
22.62999999999995
 30
0.0
  0
VERTEX
  5
303
  8
THRUCUT
 10
93.25000000000261
 20
22.81615223689151
 30
0.0
 42
1.0
  0
VERTEX
  5
304
  8
THRUCUT
 10
93.06615223689414
 20
22.99999999999998
 30
0.0
  0
VERTEX
  5
305
  8
THRUCUT
 10
92.9338477631112
 20
22.99999999999998
 30
0.0
 42
1.0
  0
VERTEX
  5
306
  8
THRUCUT
 10
92.75000000000261
 20
22.81615223689151
 30
0.0
  0
VERTEX
  5
307
  8
THRUCUT
 10
92.75000000000094
 20
22.62999999999881
 30
0.0
 42
-0.4142135623571974
  0
VERTEX
  5
308
  8
THRUCUT
 10
92.62000000000094
 20
22.49999999999996
 30
0.0
  0
VERTEX
  5
309
  8
THRUCUT
 10
70.87249999999955
 20
22.49999999999954
 30
0.0
 42
-0.4142135623736935
  0
VERTEX
  5
30A
  8
THRUCUT
 10
70.74249999999967
 20
22.62999999999951
 30
0.0
  0
VERTEX
  5
30B
  8
THRUCUT
 10
70.74249999999967
 20
22.81615223689098
 30
0.0
 42
1.0
  0
VERTEX
  5
30C
  8
THRUCUT
 10
70.55865223689108
 20
22.99999999999945
 30
0.0
  0
VERTEX
  5
30D
  8
THRUCUT
 10
70.42634776310803
 20
22.99999999999945
 30
0.0
 42
1.0
  0
VERTEX
  5
30E
  8
THRUCUT
 10
70.24249999999967
 20
22.81615223689098
 30
0.0
  0
VERTEX
  5
30F
  8
THRUCUT
 10
70.24249999999967
 20
22.62999999999951
 30
0.0
 42
-0.4142135623747849
  0
VERTEX
  5
310
  8
THRUCUT
 10
70.11249999999956
 20
22.49999999999954
 30
0.0
  0
VERTEX
  5
311
  8
THRUCUT
 10
48.37999999999964
 20
22.49999999999999
 30
0.0
 42
-0.4142135623736935
  0
VERTEX
  5
312
  8
THRUCUT
 10
48.24999999999965
 20
22.62999999999996
 30
0.0
  0
VERTEX
  5
313
  8
THRUCUT
 10
48.24999999999965
 20
22.81615223689149
 30
0.0
 42
1.0
  0
VERTEX
  5
314
  8
THRUCUT
 10
48.06615223689117
 20
22.99999999999997
 30
0.0
  0
VERTEX
  5
315
  8
THRUCUT
 10
47.93384776310813
 20
22.99999999999997
 30
0.0
 42
1.0
  0
VERTEX
  5
316
  8
THRUCUT
 10
47.74999999999965
 20
22.81615223689149
 30
0.0
  0
VERTEX
  5
317
  8
THRUCUT
 10
47.74999999999965
 20
22.62999999999996
 30
0.0
 42
-0.4142135623747849
  0
VERTEX
  5
318
  8
THRUCUT
 10
47.61999999999966
 20
22.49999999999999
 30
0.0
  0
VERTEX
  5
319
  8
THRUCUT
 10
25.88750000000001
 20
22.49999999999954
 30
0.0
 42
-0.4142135623702022
  0
VERTEX
  5
31A
  8
THRUCUT
 10
25.75750000000001
 20
22.62999999999942
 30
0.0
  0
VERTEX
  5
31B
  8
THRUCUT
 10
25.75749999999984
 20
22.81615223689098
 30
0.0
 42
1.0
  0
VERTEX
  5
31C
  8
THRUCUT
 10
25.57365223689137
 20
22.99999999999945
 30
0.0
  0
VERTEX
  5
31D
  8
THRUCUT
 10
25.44134776310843
 20
22.99999999999945
 30
0.0
 42
1.0
  0
VERTEX
  5
31E
  8
THRUCUT
 10
25.25749999999984
 20
22.81615223689098
 30
0.0
  0
VERTEX
  5
31F
  8
THRUCUT
 10
25.25749999999812
 20
22.62999999999831
 30
0.0
 42
-0.4142135623674379
  0
VERTEX
  5
320
  8
THRUCUT
 10
25.12749999999812
 20
22.49999999999951
 30
0.0
  0
VERTEX
  5
321
  8
THRUCUT
 10
3.380000000000187
 20
22.49999999999977
 30
0.0
 42
-0.4142135623727946
  0
VERTEX
  5
322
  8
THRUCUT
 10
3.250000000000189
 20
22.62999999999965
 30
0.0
  0
VERTEX
  5
323
  8
THRUCUT
 10
3.250000000000021
 20
22.81615223689098
 30
0.0
 42
1.0
  0
VERTEX
  5
324
  8
THRUCUT
 10
3.066152236891547
 20
22.99999999999945
 30
0.0
  0
VERTEX
  5
325
  8
THRUCUT
 10
2.933847763108609
 20
22.99999999999945
 30
0.0
 42
1.0
  0
VERTEX
  5
326
  8
THRUCUT
 10
2.750000000000021
 20
22.81615223689098
 30
0.0
  0
VERTEX
  5
327
  8
THRUCUT
 10
2.749999999998302
 20
22.62999999999831
 30
0.0
 42
-0.4142135623704057
  0
VERTEX
  5
328
  8
THRUCUT
 10
2.619999999998302
 20
22.49999999999951
 30
0.0
  0
VERTEX
  5
329
  8
THRUCUT
 10
1.379999999997101
 20
22.49999999999951
 30
0.0
 42
-0.414213562373096
  0
VERTEX
  5
32A
  8
THRUCUT
 10
0.8799999999971009
 20
22.99999999999951
 30
0.0
  0
VERTEX
  5
32B
  8
THRUCUT
 10
0.8799999999971009
 20
24.99999999999944
 30
0.0
 42
-0.4142135623730968
  0
VERTEX
  5
32C
  8
THRUCUT
 10
1.379999999997112
 20
25.49999999999944
 30
0.0
  0
VERTEX
  5
32D
  8
THRUCUT
 10
2.619999999998302
 20
25.49999999999944
 30
0.0
 42
-0.4142135623703808
  0
VERTEX
  5
32E
  8
THRUCUT
 10
2.749999999998302
 20
25.37000000000064
 30
0.0
  0
VERTEX
  5
32F
  8
THRUCUT
 10
2.750000000000021
 20
25.18384776310798
 30
0.0
 42
1.0
  0
VERTEX
  5
330
  8
THRUCUT
 10
2.933847763108609
 20
24.99999999999945
 30
0.0
  0
VERTEX
  5
331
  8
THRUCUT
 10
3.066152236891547
 20
24.99999999999945
 30
0.0
 42
1.0
  0
VERTEX
  5
332
  8
THRUCUT
 10
3.250000000000021
 20
25.18384776310798
 30
0.0
  0
VERTEX
  5
333
  8
THRUCUT
 10
3.250000000000189
 20
25.37000000000008
 30
0.0
 42
-0.4142135623729316
  0
VERTEX
  5
334
  8
THRUCUT
 10
3.380000000000192
 20
25.49999999999996
 30
0.0
  0
SEQEND
  5
657
  8
THRUCUT
  0
POLYLINE
  5
77
  8
THRUCUT
 66
     1
 10
0.0
 20
0.0
 30
0.0
 70
     1
  0
VERTEX
  5
335
  8
THRUCUT
 10
25.12749999999813
 20
29.00000000000042
 30
0.0
 42
-0.4142135623708788
  0
VERTEX
  5
336
  8
THRUCUT
 10
25.25749999999812
 20
28.87000000000163
 30
0.0
  0
VERTEX
  5
337
  8
THRUCUT
 10
25.25749999999984
 20
28.68384776310897
 30
0.0
 42
1.0
  0
VERTEX
  5
338
  8
THRUCUT
 10
25.44134776310843
 20
28.50000000000044
 30
0.0
  0
VERTEX
  5
339
  8
THRUCUT
 10
25.57365223689137
 20
28.50000000000044
 30
0.0
 42
1.0
  0
VERTEX
  5
33A
  8
THRUCUT
 10
25.75749999999984
 20
28.68384776310897
 30
0.0
  0
VERTEX
  5
33B
  8
THRUCUT
 10
25.75750000000001
 20
28.87000000000096
 30
0.0
 42
-0.4142135623697945
  0
VERTEX
  5
33C
  8
THRUCUT
 10
25.88750000000011
 20
29.00000000000084
 30
0.0
  0
VERTEX
  5
33D
  8
THRUCUT
 10
26.38749999999984
 20
29.00000000000044
 30
0.0
  0
VERTEX
  5
33E
  8
THRUCUT
 10
47.61999999999966
 20
29.00000000000095
 30
0.0
 42
-0.4142135623736434
  0
VERTEX
  5
33F
  8
THRUCUT
 10
47.74999999999965
 20
28.87000000000095
 30
0.0
  0
VERTEX
  5
340
  8
THRUCUT
 10
47.74999999999965
 20
28.68384776310942
 30
0.0
 42
1.0
  0
VERTEX
  5
341
  8
THRUCUT
 10
47.93384776310813
 20
28.50000000000095
 30
0.0
  0
VERTEX
  5
342
  8
THRUCUT
 10
48.06615223689117
 20
28.50000000000095
 30
0.0
 42
1.0
  0
VERTEX
  5
343
  8
THRUCUT
 10
48.24999999999965
 20
28.68384776310942
 30
0.0
  0
VERTEX
  5
344
  8
THRUCUT
 10
48.24999999999965
 20
28.87000000000095
 30
0.0
 42
-0.4142135623732267
  0
VERTEX
  5
345
  8
THRUCUT
 10
48.37999999999964
 20
29.00000000000095
 30
0.0
  0
VERTEX
  5
346
  8
THRUCUT
 10
70.11249999999956
 20
29.00000000000044
 30
0.0
 42
-0.4142135623736434
  0
VERTEX
  5
347
  8
THRUCUT
 10
70.24249999999967
 20
28.87000000000044
 30
0.0
  0
VERTEX
  5
348
  8
THRUCUT
 10
70.24249999999967
 20
28.68384776310897
 30
0.0
 42
1.0
  0
VERTEX
  5
349
  8
THRUCUT
 10
70.42634776310803
 20
28.50000000000044
 30
0.0
  0
VERTEX
  5
34A
  8
THRUCUT
 10
70.55865223689108
 20
28.50000000000044
 30
0.0
 42
1.0
  0
VERTEX
  5
34B
  8
THRUCUT
 10
70.74249999999967
 20
28.68384776310897
 30
0.0
  0
VERTEX
  5
34C
  8
THRUCUT
 10
70.74249999999967
 20
28.87000000000044
 30
0.0
 42
-0.4142135623732267
  0
VERTEX
  5
34D
  8
THRUCUT
 10
70.87249999999955
 20
29.00000000000044
 30
0.0
  0
VERTEX
  5
34E
  8
THRUCUT
 10
92.62000000000089
 20
29.00000000000095
 30
0.0
 42
-0.4142135623929817
  0
VERTEX
  5
34F
  8
THRUCUT
 10
92.75000000000088
 20
28.87000000000215
 30
0.0
  0
VERTEX
  5
350
  8
THRUCUT
 10
92.75000000000261
 20
28.68384776310949
 30
0.0
 42
1.0
  0
VERTEX
  5
351
  8
THRUCUT
 10
92.9338477631112
 20
28.50000000000096
 30
0.0
  0
VERTEX
  5
352
  8
THRUCUT
 10
93.06615223689414
 20
28.50000000000096
 30
0.0
 42
1.0
  0
VERTEX
  5
353
  8
THRUCUT
 10
93.25000000000261
 20
28.68384776310949
 30
0.0
  0
VERTEX
  5
354
  8
THRUCUT
 10
93.25000000000279
 20
28.87000000000159
 30
0.0
 42
-0.4142135623381356
  0
VERTEX
  5
355
  8
THRUCUT
 10
93.38000000000278
 20
29.00000000000148
 30
0.0
  0
VERTEX
  5
356
  8
THRUCUT
 10
94.62000000000288
 20
29.00000000000148
 30
0.0
 42
-0.414213562372271
  0
VERTEX
  5
357
  8
THRUCUT
 10
95.1200000000029
 20
28.50000000000148
 30
0.0
  0
VERTEX
  5
358
  8
THRUCUT
 10
95.1200000000029
 20
26.50000000000105
 30
0.0
 42
-0.4142135623679323
  0
VERTEX
  5
359
  8
THRUCUT
 10
94.62000000000288
 20
26.00000000000105
 30
0.0
  0
VERTEX
  5
35A
  8
THRUCUT
 10
93.38000000000278
 20
26.00000000000105
 30
0.0
 42
-0.4142135623449497
  0
VERTEX
  5
35B
  8
THRUCUT
 10
93.25000000000279
 20
26.13000000000093
 30
0.0
  0
VERTEX
  5
35C
  8
THRUCUT
 10
93.25000000000261
 20
26.31615223689249
 30
0.0
 42
1.0
  0
VERTEX
  5
35D
  8
THRUCUT
 10
93.06615223689414
 20
26.50000000000096
 30
0.0
  0
VERTEX
  5
35E
  8
THRUCUT
 10
92.9338477631112
 20
26.50000000000096
 30
0.0
 42
1.0
  0
VERTEX
  5
35F
  8
THRUCUT
 10
92.75000000000261
 20
26.31615223689249
 30
0.0
  0
VERTEX
  5
360
  8
THRUCUT
 10
92.75000000000094
 20
26.12999999999979
 30
0.0
 42
-0.4142135623571974
  0
VERTEX
  5
361
  8
THRUCUT
 10
92.62000000000094
 20
26.00000000000095
 30
0.0
  0
VERTEX
  5
362
  8
THRUCUT
 10
70.87249999999955
 20
26.00000000000052
 30
0.0
 42
-0.4142135623736935
  0
VERTEX
  5
363
  8
THRUCUT
 10
70.74249999999967
 20
26.13000000000049
 30
0.0
  0
VERTEX
  5
364
  8
THRUCUT
 10
70.74249999999967
 20
26.31615223689196
 30
0.0
 42
1.0
  0
VERTEX
  5
365
  8
THRUCUT
 10
70.55865223689108
 20
26.50000000000044
 30
0.0
  0
VERTEX
  5
366
  8
THRUCUT
 10
70.42634776310803
 20
26.50000000000044
 30
0.0
 42
1.0
  0
VERTEX
  5
367
  8
THRUCUT
 10
70.24249999999967
 20
26.31615223689196
 30
0.0
  0
VERTEX
  5
368
  8
THRUCUT
 10
70.24249999999967
 20
26.13000000000049
 30
0.0
 42
-0.4142135623747849
  0
VERTEX
  5
369
  8
THRUCUT
 10
70.11249999999956
 20
26.00000000000052
 30
0.0
  0
VERTEX
  5
36A
  8
THRUCUT
 10
48.37999999999964
 20
26.00000000000098
 30
0.0
 42
-0.4142135623736935
  0
VERTEX
  5
36B
  8
THRUCUT
 10
48.24999999999965
 20
26.13000000000094
 30
0.0
  0
VERTEX
  5
36C
  8
THRUCUT
 10
48.24999999999965
 20
26.31615223689248
 30
0.0
 42
1.0
  0
VERTEX
  5
36D
  8
THRUCUT
 10
48.06615223689117
 20
26.50000000000095
 30
0.0
  0
VERTEX
  5
36E
  8
THRUCUT
 10
47.93384776310813
 20
26.50000000000095
 30
0.0
 42
1.0
  0
VERTEX
  5
36F
  8
THRUCUT
 10
47.74999999999965
 20
26.31615223689248
 30
0.0
  0
VERTEX
  5
370
  8
THRUCUT
 10
47.74999999999965
 20
26.13000000000094
 30
0.0
 42
-0.4142135623747849
  0
VERTEX
  5
371
  8
THRUCUT
 10
47.61999999999966
 20
26.00000000000098
 30
0.0
  0
VERTEX
  5
372
  8
THRUCUT
 10
25.88750000000001
 20
26.00000000000053
 30
0.0
 42
-0.4142135623702022
  0
VERTEX
  5
373
  8
THRUCUT
 10
25.75750000000001
 20
26.13000000000041
 30
0.0
  0
VERTEX
  5
374
  8
THRUCUT
 10
25.75749999999984
 20
26.31615223689196
 30
0.0
 42
1.0
  0
VERTEX
  5
375
  8
THRUCUT
 10
25.57365223689137
 20
26.50000000000044
 30
0.0
  0
VERTEX
  5
376
  8
THRUCUT
 10
25.44134776310843
 20
26.50000000000044
 30
0.0
 42
1.0
  0
VERTEX
  5
377
  8
THRUCUT
 10
25.25749999999984
 20
26.31615223689196
 30
0.0
  0
VERTEX
  5
378
  8
THRUCUT
 10
25.25749999999812
 20
26.1299999999993
 30
0.0
 42
-0.4142135623674379
  0
VERTEX
  5
379
  8
THRUCUT
 10
25.12749999999812
 20
26.00000000000049
 30
0.0
  0
VERTEX
  5
37A
  8
THRUCUT
 10
3.380000000000187
 20
26.00000000000075
 30
0.0
 42
-0.4142135623727946
  0
VERTEX
  5
37B
  8
THRUCUT
 10
3.250000000000189
 20
26.13000000000063
 30
0.0
  0
VERTEX
  5
37C
  8
THRUCUT
 10
3.250000000000021
 20
26.31615223689196
 30
0.0
 42
1.0
  0
VERTEX
  5
37D
  8
THRUCUT
 10
3.066152236891547
 20
26.50000000000044
 30
0.0
  0
VERTEX
  5
37E
  8
THRUCUT
 10
2.933847763108609
 20
26.50000000000044
 30
0.0
 42
1.0
  0
VERTEX
  5
37F
  8
THRUCUT
 10
2.750000000000021
 20
26.31615223689196
 30
0.0
  0
VERTEX
  5
380
  8
THRUCUT
 10
2.749999999998302
 20
26.12999999999929
 30
0.0
 42
-0.4142135623704057
  0
VERTEX
  5
381
  8
THRUCUT
 10
2.619999999998302
 20
26.00000000000049
 30
0.0
  0
VERTEX
  5
382
  8
THRUCUT
 10
1.379999999997101
 20
26.00000000000049
 30
0.0
 42
-0.414213562373096
  0
VERTEX
  5
383
  8
THRUCUT
 10
0.8799999999971009
 20
26.50000000000049
 30
0.0
  0
VERTEX
  5
384
  8
THRUCUT
 10
0.8799999999971009
 20
28.50000000000042
 30
0.0
 42
-0.4142135623730968
  0
VERTEX
  5
385
  8
THRUCUT
 10
1.379999999997112
 20
29.00000000000042
 30
0.0
  0
VERTEX
  5
386
  8
THRUCUT
 10
2.619999999998302
 20
29.00000000000042
 30
0.0
 42
-0.4142135623703808
  0
VERTEX
  5
387
  8
THRUCUT
 10
2.749999999998302
 20
28.87000000000162
 30
0.0
  0
VERTEX
  5
388
  8
THRUCUT
 10
2.750000000000021
 20
28.68384776310897
 30
0.0
 42
1.0
  0
VERTEX
  5
389
  8
THRUCUT
 10
2.933847763108609
 20
28.50000000000044
 30
0.0
  0
VERTEX
  5
38A
  8
THRUCUT
 10
3.066152236891547
 20
28.50000000000044
 30
0.0
 42
1.0
  0
VERTEX
  5
38B
  8
THRUCUT
 10
3.250000000000021
 20
28.68384776310897
 30
0.0
  0
VERTEX
  5
38C
  8
THRUCUT
 10
3.250000000000189
 20
28.87000000000106
 30
0.0
 42
-0.4142135623729316
  0
VERTEX
  5
38D
  8
THRUCUT
 10
3.380000000000192
 20
29.00000000000095
 30
0.0
  0
SEQEND
  5
658
  8
THRUCUT
  0
POLYLINE
  5
78
  8
THRUCUT
 66
     1
 10
0.0
 20
0.0
 30
0.0
 70
     1
  0
VERTEX
  5
38E
  8
THRUCUT
 10
25.12749999999813
 20
32.50000000000141
 30
0.0
 42
-0.4142135623708788
  0
VERTEX
  5
38F
  8
THRUCUT
 10
25.25749999999812
 20
32.37000000000261
 30
0.0
  0
VERTEX
  5
390
  8
THRUCUT
 10
25.25749999999984
 20
32.18384776310995
 30
0.0
 42
1.0
  0
VERTEX
  5
391
  8
THRUCUT
 10
25.44134776310843
 20
32.00000000000142
 30
0.0
  0
VERTEX
  5
392
  8
THRUCUT
 10
25.57365223689137
 20
32.00000000000142
 30
0.0
 42
1.0
  0
VERTEX
  5
393
  8
THRUCUT
 10
25.75749999999984
 20
32.18384776310995
 30
0.0
  0
VERTEX
  5
394
  8
THRUCUT
 10
25.75750000000001
 20
32.37000000000194
 30
0.0
 42
-0.4142135623697945
  0
VERTEX
  5
395
  8
THRUCUT
 10
25.88750000000011
 20
32.50000000000182
 30
0.0
  0
VERTEX
  5
396
  8
THRUCUT
 10
26.38749999999984
 20
32.50000000000142
 30
0.0
  0
VERTEX
  5
397
  8
THRUCUT
 10
47.61999999999966
 20
32.50000000000193
 30
0.0
 42
-0.4142135623736434
  0
VERTEX
  5
398
  8
THRUCUT
 10
47.74999999999965
 20
32.37000000000194
 30
0.0
  0
VERTEX
  5
399
  8
THRUCUT
 10
47.74999999999965
 20
32.18384776311041
 30
0.0
 42
1.0
  0
VERTEX
  5
39A
  8
THRUCUT
 10
47.93384776310813
 20
32.00000000000193
 30
0.0
  0
VERTEX
  5
39B
  8
THRUCUT
 10
48.06615223689117
 20
32.00000000000193
 30
0.0
 42
1.0
  0
VERTEX
  5
39C
  8
THRUCUT
 10
48.24999999999965
 20
32.18384776311041
 30
0.0
  0
VERTEX
  5
39D
  8
THRUCUT
 10
48.24999999999965
 20
32.37000000000194
 30
0.0
 42
-0.4142135623732267
  0
VERTEX
  5
39E
  8
THRUCUT
 10
48.37999999999964
 20
32.50000000000193
 30
0.0
  0
VERTEX
  5
39F
  8
THRUCUT
 10
70.11249999999956
 20
32.50000000000142
 30
0.0
 42
-0.4142135623736434
  0
VERTEX
  5
3A0
  8
THRUCUT
 10
70.24249999999967
 20
32.37000000000143
 30
0.0
  0
VERTEX
  5
3A1
  8
THRUCUT
 10
70.24249999999967
 20
32.18384776310995
 30
0.0
 42
1.0
  0
VERTEX
  5
3A2
  8
THRUCUT
 10
70.42634776310803
 20
32.00000000000142
 30
0.0
  0
VERTEX
  5
3A3
  8
THRUCUT
 10
70.55865223689108
 20
32.00000000000142
 30
0.0
 42
1.0
  0
VERTEX
  5
3A4
  8
THRUCUT
 10
70.74249999999967
 20
32.18384776310995
 30
0.0
  0
VERTEX
  5
3A5
  8
THRUCUT
 10
70.74249999999967
 20
32.37000000000143
 30
0.0
 42
-0.4142135623732267
  0
VERTEX
  5
3A6
  8
THRUCUT
 10
70.87249999999955
 20
32.50000000000142
 30
0.0
  0
VERTEX
  5
3A7
  8
THRUCUT
 10
92.62000000000089
 20
32.50000000000193
 30
0.0
 42
-0.4142135623929817
  0
VERTEX
  5
3A8
  8
THRUCUT
 10
92.75000000000088
 20
32.37000000000313
 30
0.0
  0
VERTEX
  5
3A9
  8
THRUCUT
 10
92.75000000000261
 20
32.18384776311048
 30
0.0
 42
1.0
  0
VERTEX
  5
3AA
  8
THRUCUT
 10
92.9338477631112
 20
32.00000000000195
 30
0.0
  0
VERTEX
  5
3AB
  8
THRUCUT
 10
93.06615223689414
 20
32.00000000000195
 30
0.0
 42
1.0
  0
VERTEX
  5
3AC
  8
THRUCUT
 10
93.25000000000261
 20
32.18384776311048
 30
0.0
  0
VERTEX
  5
3AD
  8
THRUCUT
 10
93.25000000000279
 20
32.37000000000258
 30
0.0
 42
-0.4142135623381356
  0
VERTEX
  5
3AE
  8
THRUCUT
 10
93.38000000000278
 20
32.50000000000246
 30
0.0
  0
VERTEX
  5
3AF
  8
THRUCUT
 10
94.62000000000288
 20
32.50000000000246
 30
0.0
 42
-0.414213562372271
  0
VERTEX
  5
3B0
  8
THRUCUT
 10
95.1200000000029
 20
32.00000000000246
 30
0.0
  0
VERTEX
  5
3B1
  8
THRUCUT
 10
95.1200000000029
 20
30.00000000000203
 30
0.0
 42
-0.4142135623679323
  0
VERTEX
  5
3B2
  8
THRUCUT
 10
94.62000000000288
 20
29.50000000000203
 30
0.0
  0
VERTEX
  5
3B3
  8
THRUCUT
 10
93.38000000000278
 20
29.50000000000203
 30
0.0
 42
-0.4142135623449497
  0
VERTEX
  5
3B4
  8
THRUCUT
 10
93.25000000000279
 20
29.63000000000191
 30
0.0
  0
VERTEX
  5
3B5
  8
THRUCUT
 10
93.25000000000261
 20
29.81615223689347
 30
0.0
 42
1.0
  0
VERTEX
  5
3B6
  8
THRUCUT
 10
93.06615223689414
 20
30.00000000000194
 30
0.0
  0
VERTEX
  5
3B7
  8
THRUCUT
 10
92.9338477631112
 20
30.00000000000194
 30
0.0
 42
1.0
  0
VERTEX
  5
3B8
  8
THRUCUT
 10
92.75000000000261
 20
29.81615223689347
 30
0.0
  0
VERTEX
  5
3B9
  8
THRUCUT
 10
92.75000000000094
 20
29.63000000000077
 30
0.0
 42
-0.4142135623571974
  0
VERTEX
  5
3BA
  8
THRUCUT
 10
92.62000000000094
 20
29.50000000000193
 30
0.0
  0
VERTEX
  5
3BB
  8
THRUCUT
 10
70.87249999999955
 20
29.5000000000015
 30
0.0
 42
-0.4142135623736935
  0
VERTEX
  5
3BC
  8
THRUCUT
 10
70.74249999999967
 20
29.63000000000147
 30
0.0
  0
VERTEX
  5
3BD
  8
THRUCUT
 10
70.74249999999967
 20
29.81615223689294
 30
0.0
 42
1.0
  0
VERTEX
  5
3BE
  8
THRUCUT
 10
70.55865223689108
 20
30.00000000000142
 30
0.0
  0
VERTEX
  5
3BF
  8
THRUCUT
 10
70.42634776310803
 20
30.00000000000142
 30
0.0
 42
1.0
  0
VERTEX
  5
3C0
  8
THRUCUT
 10
70.24249999999967
 20
29.81615223689294
 30
0.0
  0
VERTEX
  5
3C1
  8
THRUCUT
 10
70.24249999999967
 20
29.63000000000147
 30
0.0
 42
-0.4142135623747849
  0
VERTEX
  5
3C2
  8
THRUCUT
 10
70.11249999999956
 20
29.5000000000015
 30
0.0
  0
VERTEX
  5
3C3
  8
THRUCUT
 10
48.37999999999964
 20
29.50000000000196
 30
0.0
 42
-0.4142135623736935
  0
VERTEX
  5
3C4
  8
THRUCUT
 10
48.24999999999965
 20
29.63000000000193
 30
0.0
  0
VERTEX
  5
3C5
  8
THRUCUT
 10
48.24999999999965
 20
29.81615223689346
 30
0.0
 42
1.0
  0
VERTEX
  5
3C6
  8
THRUCUT
 10
48.06615223689117
 20
30.00000000000193
 30
0.0
  0
VERTEX
  5
3C7
  8
THRUCUT
 10
47.93384776310813
 20
30.00000000000193
 30
0.0
 42
1.0
  0
VERTEX
  5
3C8
  8
THRUCUT
 10
47.74999999999965
 20
29.81615223689346
 30
0.0
  0
VERTEX
  5
3C9
  8
THRUCUT
 10
47.74999999999965
 20
29.63000000000193
 30
0.0
 42
-0.4142135623747849
  0
VERTEX
  5
3CA
  8
THRUCUT
 10
47.61999999999966
 20
29.50000000000196
 30
0.0
  0
VERTEX
  5
3CB
  8
THRUCUT
 10
25.88750000000001
 20
29.50000000000151
 30
0.0
 42
-0.4142135623702022
  0
VERTEX
  5
3CC
  8
THRUCUT
 10
25.75750000000001
 20
29.63000000000139
 30
0.0
  0
VERTEX
  5
3CD
  8
THRUCUT
 10
25.75749999999984
 20
29.81615223689294
 30
0.0
 42
1.0
  0
VERTEX
  5
3CE
  8
THRUCUT
 10
25.57365223689137
 20
30.00000000000142
 30
0.0
  0
VERTEX
  5
3CF
  8
THRUCUT
 10
25.44134776310843
 20
30.00000000000142
 30
0.0
 42
1.0
  0
VERTEX
  5
3D0
  8
THRUCUT
 10
25.25749999999984
 20
29.81615223689294
 30
0.0
  0
VERTEX
  5
3D1
  8
THRUCUT
 10
25.25749999999812
 20
29.63000000000028
 30
0.0
 42
-0.4142135623674379
  0
VERTEX
  5
3D2
  8
THRUCUT
 10
25.12749999999812
 20
29.50000000000148
 30
0.0
  0
VERTEX
  5
3D3
  8
THRUCUT
 10
3.380000000000187
 20
29.50000000000173
 30
0.0
 42
-0.4142135623727946
  0
VERTEX
  5
3D4
  8
THRUCUT
 10
3.250000000000189
 20
29.63000000000161
 30
0.0
  0
VERTEX
  5
3D5
  8
THRUCUT
 10
3.250000000000021
 20
29.81615223689294
 30
0.0
 42
1.0
  0
VERTEX
  5
3D6
  8
THRUCUT
 10
3.066152236891547
 20
30.00000000000142
 30
0.0
  0
VERTEX
  5
3D7
  8
THRUCUT
 10
2.933847763108609
 20
30.00000000000142
 30
0.0
 42
1.0
  0
VERTEX
  5
3D8
  8
THRUCUT
 10
2.750000000000021
 20
29.81615223689294
 30
0.0
  0
VERTEX
  5
3D9
  8
THRUCUT
 10
2.749999999998302
 20
29.63000000000027
 30
0.0
 42
-0.4142135623704057
  0
VERTEX
  5
3DA
  8
THRUCUT
 10
2.619999999998302
 20
29.50000000000148
 30
0.0
  0
VERTEX
  5
3DB
  8
THRUCUT
 10
1.379999999997101
 20
29.50000000000148
 30
0.0
 42
-0.414213562373096
  0
VERTEX
  5
3DC
  8
THRUCUT
 10
0.8799999999971009
 20
30.00000000000148
 30
0.0
  0
VERTEX
  5
3DD
  8
THRUCUT
 10
0.8799999999971009
 20
32.00000000000141
 30
0.0
 42
-0.4142135623730968
  0
VERTEX
  5
3DE
  8
THRUCUT
 10
1.379999999997112
 20
32.50000000000141
 30
0.0
  0
VERTEX
  5
3DF
  8
THRUCUT
 10
2.619999999998302
 20
32.50000000000141
 30
0.0
 42
-0.4142135623703808
  0
VERTEX
  5
3E0
  8
THRUCUT
 10
2.749999999998302
 20
32.37000000000261
 30
0.0
  0
VERTEX
  5
3E1
  8
THRUCUT
 10
2.750000000000021
 20
32.18384776310995
 30
0.0
 42
1.0
  0
VERTEX
  5
3E2
  8
THRUCUT
 10
2.933847763108609
 20
32.00000000000142
 30
0.0
  0
VERTEX
  5
3E3
  8
THRUCUT
 10
3.066152236891547
 20
32.00000000000142
 30
0.0
 42
1.0
  0
VERTEX
  5
3E4
  8
THRUCUT
 10
3.250000000000021
 20
32.18384776310995
 30
0.0
  0
VERTEX
  5
3E5
  8
THRUCUT
 10
3.250000000000189
 20
32.37000000000204
 30
0.0
 42
-0.4142135623729316
  0
VERTEX
  5
3E6
  8
THRUCUT
 10
3.380000000000192
 20
32.50000000000193
 30
0.0
  0
SEQEND
  5
659
  8
THRUCUT
  0
POLYLINE
  5
79
  8
THRUCUT
 66
     1
 10
0.0
 20
0.0
 30
0.0
 70
     1
  0
VERTEX
  5
3E7
  8
THRUCUT
 10
25.12749999999813
 20
36.00000000000238
 30
0.0
 42
-0.4142135623708788
  0
VERTEX
  5
3E8
  8
THRUCUT
 10
25.25749999999812
 20
35.87000000000359
 30
0.0
  0
VERTEX
  5
3E9
  8
THRUCUT
 10
25.25749999999984
 20
35.68384776311093
 30
0.0
 42
1.0
  0
VERTEX
  5
3EA
  8
THRUCUT
 10
25.44134776310843
 20
35.5000000000024
 30
0.0
  0
VERTEX
  5
3EB
  8
THRUCUT
 10
25.57365223689137
 20
35.5000000000024
 30
0.0
 42
1.0
  0
VERTEX
  5
3EC
  8
THRUCUT
 10
25.75749999999984
 20
35.68384776311093
 30
0.0
  0
VERTEX
  5
3ED
  8
THRUCUT
 10
25.75750000000001
 20
35.87000000000292
 30
0.0
 42
-0.4142135623697945
  0
VERTEX
  5
3EE
  8
THRUCUT
 10
25.88750000000011
 20
36.0000000000028
 30
0.0
  0
VERTEX
  5
3EF
  8
THRUCUT
 10
26.38749999999984
 20
36.0000000000024
 30
0.0
  0
VERTEX
  5
3F0
  8
THRUCUT
 10
47.61999999999966
 20
36.00000000000291
 30
0.0
 42
-0.4142135623736434
  0
VERTEX
  5
3F1
  8
THRUCUT
 10
47.74999999999965
 20
35.87000000000291
 30
0.0
  0
VERTEX
  5
3F2
  8
THRUCUT
 10
47.74999999999965
 20
35.68384776311138
 30
0.0
 42
1.0
  0
VERTEX
  5
3F3
  8
THRUCUT
 10
47.93384776310813
 20
35.50000000000291
 30
0.0
  0
VERTEX
  5
3F4
  8
THRUCUT
 10
48.06615223689117
 20
35.50000000000291
 30
0.0
 42
1.0
  0
VERTEX
  5
3F5
  8
THRUCUT
 10
48.24999999999965
 20
35.68384776311138
 30
0.0
  0
VERTEX
  5
3F6
  8
THRUCUT
 10
48.24999999999965
 20
35.87000000000291
 30
0.0
 42
-0.4142135623732267
  0
VERTEX
  5
3F7
  8
THRUCUT
 10
48.37999999999964
 20
36.00000000000291
 30
0.0
  0
VERTEX
  5
3F8
  8
THRUCUT
 10
70.11249999999956
 20
36.0000000000024
 30
0.0
 42
-0.4142135623736434
  0
VERTEX
  5
3F9
  8
THRUCUT
 10
70.24249999999967
 20
35.87000000000241
 30
0.0
  0
VERTEX
  5
3FA
  8
THRUCUT
 10
70.24249999999967
 20
35.68384776311093
 30
0.0
 42
1.0
  0
VERTEX
  5
3FB
  8
THRUCUT
 10
70.42634776310803
 20
35.5000000000024
 30
0.0
  0
VERTEX
  5
3FC
  8
THRUCUT
 10
70.55865223689108
 20
35.5000000000024
 30
0.0
 42
1.0
  0
VERTEX
  5
3FD
  8
THRUCUT
 10
70.74249999999967
 20
35.68384776311093
 30
0.0
  0
VERTEX
  5
3FE
  8
THRUCUT
 10
70.74249999999967
 20
35.87000000000241
 30
0.0
 42
-0.4142135623732267
  0
VERTEX
  5
3FF
  8
THRUCUT
 10
70.87249999999955
 20
36.0000000000024
 30
0.0
  0
VERTEX
  5
400
  8
THRUCUT
 10
92.62000000000089
 20
36.00000000000291
 30
0.0
 42
-0.4142135623929817
  0
VERTEX
  5
401
  8
THRUCUT
 10
92.75000000000088
 20
35.87000000000411
 30
0.0
  0
VERTEX
  5
402
  8
THRUCUT
 10
92.75000000000261
 20
35.68384776311147
 30
0.0
 42
1.0
  0
VERTEX
  5
403
  8
THRUCUT
 10
92.9338477631112
 20
35.50000000000292
 30
0.0
  0
VERTEX
  5
404
  8
THRUCUT
 10
93.06615223689414
 20
35.50000000000292
 30
0.0
 42
1.0
  0
VERTEX
  5
405
  8
THRUCUT
 10
93.25000000000261
 20
35.68384776311147
 30
0.0
  0
VERTEX
  5
406
  8
THRUCUT
 10
93.25000000000279
 20
35.87000000000355
 30
0.0
 42
-0.4142135623381356
  0
VERTEX
  5
407
  8
THRUCUT
 10
93.38000000000278
 20
36.00000000000345
 30
0.0
  0
VERTEX
  5
408
  8
THRUCUT
 10
94.62000000000288
 20
36.00000000000345
 30
0.0
 42
-0.414213562372271
  0
VERTEX
  5
409
  8
THRUCUT
 10
95.1200000000029
 20
35.50000000000345
 30
0.0
  0
VERTEX
  5
40A
  8
THRUCUT
 10
95.1200000000029
 20
33.50000000000301
 30
0.0
 42
-0.4142135623679323
  0
VERTEX
  5
40B
  8
THRUCUT
 10
94.62000000000288
 20
33.00000000000301
 30
0.0
  0
VERTEX
  5
40C
  8
THRUCUT
 10
93.38000000000278
 20
33.00000000000301
 30
0.0
 42
-0.4142135623449497
  0
VERTEX
  5
40D
  8
THRUCUT
 10
93.25000000000279
 20
33.13000000000289
 30
0.0
  0
VERTEX
  5
40E
  8
THRUCUT
 10
93.25000000000261
 20
33.31615223689445
 30
0.0
 42
1.0
  0
VERTEX
  5
40F
  8
THRUCUT
 10
93.06615223689414
 20
33.50000000000292
 30
0.0
  0
VERTEX
  5
410
  8
THRUCUT
 10
92.9338477631112
 20
33.50000000000292
 30
0.0
 42
1.0
  0
VERTEX
  5
411
  8
THRUCUT
 10
92.75000000000261
 20
33.31615223689445
 30
0.0
  0
VERTEX
  5
412
  8
THRUCUT
 10
92.75000000000094
 20
33.13000000000175
 30
0.0
 42
-0.4142135623571974
  0
VERTEX
  5
413
  8
THRUCUT
 10
92.62000000000094
 20
33.00000000000291
 30
0.0
  0
VERTEX
  5
414
  8
THRUCUT
 10
70.87249999999955
 20
33.00000000000248
 30
0.0
 42
-0.4142135623736935
  0
VERTEX
  5
415
  8
THRUCUT
 10
70.74249999999967
 20
33.13000000000245
 30
0.0
  0
VERTEX
  5
416
  8
THRUCUT
 10
70.74249999999967
 20
33.31615223689392
 30
0.0
 42
1.0
  0
VERTEX
  5
417
  8
THRUCUT
 10
70.55865223689108
 20
33.5000000000024
 30
0.0
  0
VERTEX
  5
418
  8
THRUCUT
 10
70.42634776310803
 20
33.5000000000024
 30
0.0
 42
1.0
  0
VERTEX
  5
419
  8
THRUCUT
 10
70.24249999999967
 20
33.31615223689392
 30
0.0
  0
VERTEX
  5
41A
  8
THRUCUT
 10
70.24249999999967
 20
33.13000000000245
 30
0.0
 42
-0.4142135623747849
  0
VERTEX
  5
41B
  8
THRUCUT
 10
70.11249999999956
 20
33.00000000000248
 30
0.0
  0
VERTEX
  5
41C
  8
THRUCUT
 10
48.37999999999964
 20
33.00000000000294
 30
0.0
 42
-0.4142135623736935
  0
VERTEX
  5
41D
  8
THRUCUT
 10
48.24999999999965
 20
33.13000000000292
 30
0.0
  0
VERTEX
  5
41E
  8
THRUCUT
 10
48.24999999999965
 20
33.31615223689445
 30
0.0
 42
1.0
  0
VERTEX
  5
41F
  8
THRUCUT
 10
48.06615223689117
 20
33.50000000000291
 30
0.0
  0
VERTEX
  5
420
  8
THRUCUT
 10
47.93384776310813
 20
33.50000000000291
 30
0.0
 42
1.0
  0
VERTEX
  5
421
  8
THRUCUT
 10
47.74999999999965
 20
33.31615223689445
 30
0.0
  0
VERTEX
  5
422
  8
THRUCUT
 10
47.74999999999965
 20
33.13000000000292
 30
0.0
 42
-0.4142135623747849
  0
VERTEX
  5
423
  8
THRUCUT
 10
47.61999999999966
 20
33.00000000000294
 30
0.0
  0
VERTEX
  5
424
  8
THRUCUT
 10
25.88750000000001
 20
33.00000000000248
 30
0.0
 42
-0.4142135623702022
  0
VERTEX
  5
425
  8
THRUCUT
 10
25.75750000000001
 20
33.13000000000238
 30
0.0
  0
VERTEX
  5
426
  8
THRUCUT
 10
25.75749999999984
 20
33.31615223689392
 30
0.0
 42
1.0
  0
VERTEX
  5
427
  8
THRUCUT
 10
25.57365223689137
 20
33.5000000000024
 30
0.0
  0
VERTEX
  5
428
  8
THRUCUT
 10
25.44134776310843
 20
33.5000000000024
 30
0.0
 42
1.0
  0
VERTEX
  5
429
  8
THRUCUT
 10
25.25749999999984
 20
33.31615223689392
 30
0.0
  0
VERTEX
  5
42A
  8
THRUCUT
 10
25.25749999999812
 20
33.13000000000126
 30
0.0
 42
-0.4142135623674379
  0
VERTEX
  5
42B
  8
THRUCUT
 10
25.12749999999812
 20
33.00000000000247
 30
0.0
  0
VERTEX
  5
42C
  8
THRUCUT
 10
3.380000000000187
 20
33.00000000000271
 30
0.0
 42
-0.4142135623727946
  0
VERTEX
  5
42D
  8
THRUCUT
 10
3.250000000000189
 20
33.1300000000026
 30
0.0
  0
VERTEX
  5
42E
  8
THRUCUT
 10
3.250000000000021
 20
33.31615223689392
 30
0.0
 42
1.0
  0
VERTEX
  5
42F
  8
THRUCUT
 10
3.066152236891547
 20
33.5000000000024
 30
0.0
  0
VERTEX
  5
430
  8
THRUCUT
 10
2.933847763108609
 20
33.5000000000024
 30
0.0
 42
1.0
  0
VERTEX
  5
431
  8
THRUCUT
 10
2.750000000000021
 20
33.31615223689392
 30
0.0
  0
VERTEX
  5
432
  8
THRUCUT
 10
2.749999999998302
 20
33.13000000000126
 30
0.0
 42
-0.4142135623704057
  0
VERTEX
  5
433
  8
THRUCUT
 10
2.619999999998302
 20
33.00000000000247
 30
0.0
  0
VERTEX
  5
434
  8
THRUCUT
 10
1.379999999997101
 20
33.00000000000247
 30
0.0
 42
-0.414213562373096
  0
VERTEX
  5
435
  8
THRUCUT
 10
0.8799999999971009
 20
33.50000000000247
 30
0.0
  0
VERTEX
  5
436
  8
THRUCUT
 10
0.8799999999971009
 20
35.50000000000238
 30
0.0
 42
-0.4142135623730968
  0
VERTEX
  5
437
  8
THRUCUT
 10
1.379999999997112
 20
36.00000000000238
 30
0.0
  0
VERTEX
  5
438
  8
THRUCUT
 10
2.619999999998302
 20
36.00000000000238
 30
0.0
 42
-0.4142135623703808
  0
VERTEX
  5
439
  8
THRUCUT
 10
2.749999999998302
 20
35.87000000000359
 30
0.0
  0
VERTEX
  5
43A
  8
THRUCUT
 10
2.750000000000021
 20
35.68384776311093
 30
0.0
 42
1.0
  0
VERTEX
  5
43B
  8
THRUCUT
 10
2.933847763108609
 20
35.5000000000024
 30
0.0
  0
VERTEX
  5
43C
  8
THRUCUT
 10
3.066152236891547
 20
35.5000000000024
 30
0.0
 42
1.0
  0
VERTEX
  5
43D
  8
THRUCUT
 10
3.250000000000021
 20
35.68384776311093
 30
0.0
  0
VERTEX
  5
43E
  8
THRUCUT
 10
3.250000000000189
 20
35.87000000000302
 30
0.0
 42
-0.4142135623729316
  0
VERTEX
  5
43F
  8
THRUCUT
 10
3.380000000000192
 20
36.00000000000291
 30
0.0
  0
SEQEND
  5
65A
  8
THRUCUT
  0
POLYLINE
  5
7A
  8
THRUCUT
 66
     1
 10
0.0
 20
0.0
 30
0.0
 70
     1
  0
VERTEX
  5
440
  8
THRUCUT
 10
25.12749999999813
 20
39.50000000000338
 30
0.0
 42
-0.4142135623708788
  0
VERTEX
  5
441
  8
THRUCUT
 10
25.25749999999812
 20
39.37000000000457
 30
0.0
  0
VERTEX
  5
442
  8
THRUCUT
 10
25.25749999999984
 20
39.18384776311191
 30
0.0
 42
1.0
  0
VERTEX
  5
443
  8
THRUCUT
 10
25.44134776310843
 20
39.00000000000338
 30
0.0
  0
VERTEX
  5
444
  8
THRUCUT
 10
25.57365223689137
 20
39.00000000000338
 30
0.0
 42
1.0
  0
VERTEX
  5
445
  8
THRUCUT
 10
25.75749999999984
 20
39.18384776311191
 30
0.0
  0
VERTEX
  5
446
  8
THRUCUT
 10
25.75750000000001
 20
39.37000000000391
 30
0.0
 42
-0.4142135623697945
  0
VERTEX
  5
447
  8
THRUCUT
 10
25.88750000000011
 20
39.50000000000378
 30
0.0
  0
VERTEX
  5
448
  8
THRUCUT
 10
26.38749999999984
 20
39.50000000000338
 30
0.0
  0
VERTEX
  5
449
  8
THRUCUT
 10
47.61999999999966
 20
39.50000000000389
 30
0.0
 42
-0.4142135623736434
  0
VERTEX
  5
44A
  8
THRUCUT
 10
47.74999999999965
 20
39.37000000000391
 30
0.0
  0
VERTEX
  5
44B
  8
THRUCUT
 10
47.74999999999965
 20
39.18384776311238
 30
0.0
 42
1.0
  0
VERTEX
  5
44C
  8
THRUCUT
 10
47.93384776310813
 20
39.00000000000389
 30
0.0
  0
VERTEX
  5
44D
  8
THRUCUT
 10
48.06615223689117
 20
39.00000000000389
 30
0.0
 42
1.0
  0
VERTEX
  5
44E
  8
THRUCUT
 10
48.24999999999965
 20
39.18384776311238
 30
0.0
  0
VERTEX
  5
44F
  8
THRUCUT
 10
48.24999999999965
 20
39.37000000000391
 30
0.0
 42
-0.4142135623732267
  0
VERTEX
  5
450
  8
THRUCUT
 10
48.37999999999964
 20
39.50000000000389
 30
0.0
  0
VERTEX
  5
451
  8
THRUCUT
 10
70.11249999999956
 20
39.50000000000338
 30
0.0
 42
-0.4142135623736434
  0
VERTEX
  5
452
  8
THRUCUT
 10
70.24249999999967
 20
39.37000000000338
 30
0.0
  0
VERTEX
  5
453
  8
THRUCUT
 10
70.24249999999967
 20
39.18384776311191
 30
0.0
 42
1.0
  0
VERTEX
  5
454
  8
THRUCUT
 10
70.42634776310803
 20
39.00000000000338
 30
0.0
  0
VERTEX
  5
455
  8
THRUCUT
 10
70.55865223689108
 20
39.00000000000338
 30
0.0
 42
1.0
  0
VERTEX
  5
456
  8
THRUCUT
 10
70.74249999999967
 20
39.18384776311191
 30
0.0
  0
VERTEX
  5
457
  8
THRUCUT
 10
70.74249999999967
 20
39.37000000000338
 30
0.0
 42
-0.4142135623732267
  0
VERTEX
  5
458
  8
THRUCUT
 10
70.87249999999955
 20
39.50000000000338
 30
0.0
  0
VERTEX
  5
459
  8
THRUCUT
 10
92.62000000000089
 20
39.50000000000388
 30
0.0
 42
-0.4142135623929817
  0
VERTEX
  5
45A
  8
THRUCUT
 10
92.75000000000088
 20
39.37000000000509
 30
0.0
  0
VERTEX
  5
45B
  8
THRUCUT
 10
92.75000000000261
 20
39.18384776311245
 30
0.0
 42
1.0
  0
VERTEX
  5
45C
  8
THRUCUT
 10
92.9338477631112
 20
39.00000000000392
 30
0.0
  0
VERTEX
  5
45D
  8
THRUCUT
 10
93.06615223689414
 20
39.00000000000392
 30
0.0
 42
1.0
  0
VERTEX
  5
45E
  8
THRUCUT
 10
93.25000000000261
 20
39.18384776311245
 30
0.0
  0
VERTEX
  5
45F
  8
THRUCUT
 10
93.25000000000279
 20
39.37000000000454
 30
0.0
 42
-0.4142135623381356
  0
VERTEX
  5
460
  8
THRUCUT
 10
93.38000000000278
 20
39.50000000000442
 30
0.0
  0
VERTEX
  5
461
  8
THRUCUT
 10
94.62000000000288
 20
39.50000000000442
 30
0.0
 42
-0.414213562372271
  0
VERTEX
  5
462
  8
THRUCUT
 10
95.1200000000029
 20
39.00000000000442
 30
0.0
  0
VERTEX
  5
463
  8
THRUCUT
 10
95.1200000000029
 20
37.00000000000399
 30
0.0
 42
-0.4142135623679323
  0
VERTEX
  5
464
  8
THRUCUT
 10
94.62000000000288
 20
36.50000000000399
 30
0.0
  0
VERTEX
  5
465
  8
THRUCUT
 10
93.38000000000278
 20
36.50000000000399
 30
0.0
 42
-0.4142135623449497
  0
VERTEX
  5
466
  8
THRUCUT
 10
93.25000000000279
 20
36.63000000000388
 30
0.0
  0
VERTEX
  5
467
  8
THRUCUT
 10
93.25000000000261
 20
36.81615223689543
 30
0.0
 42
1.0
  0
VERTEX
  5
468
  8
THRUCUT
 10
93.06615223689414
 20
37.00000000000392
 30
0.0
  0
VERTEX
  5
469
  8
THRUCUT
 10
92.9338477631112
 20
37.00000000000392
 30
0.0
 42
1.0
  0
VERTEX
  5
46A
  8
THRUCUT
 10
92.75000000000261
 20
36.81615223689543
 30
0.0
  0
VERTEX
  5
46B
  8
THRUCUT
 10
92.75000000000094
 20
36.63000000000273
 30
0.0
 42
-0.4142135623571974
  0
VERTEX
  5
46C
  8
THRUCUT
 10
92.62000000000094
 20
36.50000000000389
 30
0.0
  0
VERTEX
  5
46D
  8
THRUCUT
 10
70.87249999999955
 20
36.50000000000346
 30
0.0
 42
-0.4142135623736935
  0
VERTEX
  5
46E
  8
THRUCUT
 10
70.74249999999967
 20
36.63000000000343
 30
0.0
  0
VERTEX
  5
46F
  8
THRUCUT
 10
70.74249999999967
 20
36.81615223689492
 30
0.0
 42
1.0
  0
VERTEX
  5
470
  8
THRUCUT
 10
70.55865223689108
 20
37.00000000000338
 30
0.0
  0
VERTEX
  5
471
  8
THRUCUT
 10
70.42634776310803
 20
37.00000000000338
 30
0.0
 42
1.0
  0
VERTEX
  5
472
  8
THRUCUT
 10
70.24249999999967
 20
36.81615223689492
 30
0.0
  0
VERTEX
  5
473
  8
THRUCUT
 10
70.24249999999967
 20
36.63000000000343
 30
0.0
 42
-0.4142135623747849
  0
VERTEX
  5
474
  8
THRUCUT
 10
70.11249999999956
 20
36.50000000000346
 30
0.0
  0
VERTEX
  5
475
  8
THRUCUT
 10
48.37999999999964
 20
36.50000000000392
 30
0.0
 42
-0.4142135623736935
  0
VERTEX
  5
476
  8
THRUCUT
 10
48.24999999999965
 20
36.6300000000039
 30
0.0
  0
VERTEX
  5
477
  8
THRUCUT
 10
48.24999999999965
 20
36.81615223689542
 30
0.0
 42
1.0
  0
VERTEX
  5
478
  8
THRUCUT
 10
48.06615223689117
 20
37.00000000000389
 30
0.0
  0
VERTEX
  5
479
  8
THRUCUT
 10
47.93384776310813
 20
37.00000000000389
 30
0.0
 42
1.0
  0
VERTEX
  5
47A
  8
THRUCUT
 10
47.74999999999965
 20
36.81615223689542
 30
0.0
  0
VERTEX
  5
47B
  8
THRUCUT
 10
47.74999999999965
 20
36.6300000000039
 30
0.0
 42
-0.4142135623747849
  0
VERTEX
  5
47C
  8
THRUCUT
 10
47.61999999999966
 20
36.50000000000392
 30
0.0
  0
VERTEX
  5
47D
  8
THRUCUT
 10
25.88750000000001
 20
36.50000000000346
 30
0.0
 42
-0.4142135623702022
  0
VERTEX
  5
47E
  8
THRUCUT
 10
25.75750000000001
 20
36.63000000000336
 30
0.0
  0
VERTEX
  5
47F
  8
THRUCUT
 10
25.75749999999984
 20
36.81615223689492
 30
0.0
 42
1.0
  0
VERTEX
  5
480
  8
THRUCUT
 10
25.57365223689137
 20
37.00000000000338
 30
0.0
  0
VERTEX
  5
481
  8
THRUCUT
 10
25.44134776310843
 20
37.00000000000338
 30
0.0
 42
1.0
  0
VERTEX
  5
482
  8
THRUCUT
 10
25.25749999999984
 20
36.81615223689492
 30
0.0
  0
VERTEX
  5
483
  8
THRUCUT
 10
25.25749999999812
 20
36.63000000000224
 30
0.0
 42
-0.4142135623674379
  0
VERTEX
  5
484
  8
THRUCUT
 10
25.12749999999812
 20
36.50000000000345
 30
0.0
  0
VERTEX
  5
485
  8
THRUCUT
 10
3.380000000000187
 20
36.50000000000369
 30
0.0
 42
-0.4142135623727946
  0
VERTEX
  5
486
  8
THRUCUT
 10
3.250000000000189
 20
36.63000000000357
 30
0.0
  0
VERTEX
  5
487
  8
THRUCUT
 10
3.250000000000021
 20
36.81615223689492
 30
0.0
 42
1.0
  0
VERTEX
  5
488
  8
THRUCUT
 10
3.066152236891547
 20
37.00000000000338
 30
0.0
  0
VERTEX
  5
489
  8
THRUCUT
 10
2.933847763108609
 20
37.00000000000338
 30
0.0
 42
1.0
  0
VERTEX
  5
48A
  8
THRUCUT
 10
2.750000000000021
 20
36.81615223689492
 30
0.0
  0
VERTEX
  5
48B
  8
THRUCUT
 10
2.749999999998302
 20
36.63000000000224
 30
0.0
 42
-0.4142135623704057
  0
VERTEX
  5
48C
  8
THRUCUT
 10
2.619999999998302
 20
36.50000000000345
 30
0.0
  0
VERTEX
  5
48D
  8
THRUCUT
 10
1.379999999997101
 20
36.50000000000345
 30
0.0
 42
-0.414213562373096
  0
VERTEX
  5
48E
  8
THRUCUT
 10
0.8799999999971009
 20
37.00000000000345
 30
0.0
  0
VERTEX
  5
48F
  8
THRUCUT
 10
0.8799999999971009
 20
39.00000000000338
 30
0.0
 42
-0.4142135623730968
  0
VERTEX
  5
490
  8
THRUCUT
 10
1.379999999997112
 20
39.50000000000338
 30
0.0
  0
VERTEX
  5
491
  8
THRUCUT
 10
2.619999999998302
 20
39.50000000000338
 30
0.0
 42
-0.4142135623703808
  0
VERTEX
  5
492
  8
THRUCUT
 10
2.749999999998302
 20
39.37000000000457
 30
0.0
  0
VERTEX
  5
493
  8
THRUCUT
 10
2.750000000000021
 20
39.18384776311191
 30
0.0
 42
1.0
  0
VERTEX
  5
494
  8
THRUCUT
 10
2.933847763108609
 20
39.00000000000338
 30
0.0
  0
VERTEX
  5
495
  8
THRUCUT
 10
3.066152236891547
 20
39.00000000000338
 30
0.0
 42
1.0
  0
VERTEX
  5
496
  8
THRUCUT
 10
3.250000000000021
 20
39.18384776311191
 30
0.0
  0
VERTEX
  5
497
  8
THRUCUT
 10
3.250000000000189
 20
39.370000000004
 30
0.0
 42
-0.4142135623729316
  0
VERTEX
  5
498
  8
THRUCUT
 10
3.380000000000192
 20
39.50000000000388
 30
0.0
  0
SEQEND
  5
65B
  8
THRUCUT
  0
POLYLINE
  5
7B
  8
THRUCUT
 66
     1
 10
0.0
 20
0.0
 30
0.0
 70
     1
  0
VERTEX
  5
499
  8
THRUCUT
 10
25.12749999999813
 20
43.00000000000436
 30
0.0
 42
-0.4142135623708788
  0
VERTEX
  5
49A
  8
THRUCUT
 10
25.25749999999812
 20
42.87000000000556
 30
0.0
  0
VERTEX
  5
49B
  8
THRUCUT
 10
25.25749999999984
 20
42.6838477631129
 30
0.0
 42
1.0
  0
VERTEX
  5
49C
  8
THRUCUT
 10
25.44134776310843
 20
42.50000000000437
 30
0.0
  0
VERTEX
  5
49D
  8
THRUCUT
 10
25.57365223689137
 20
42.50000000000437
 30
0.0
 42
1.0
  0
VERTEX
  5
49E
  8
THRUCUT
 10
25.75749999999984
 20
42.6838477631129
 30
0.0
  0
VERTEX
  5
49F
  8
THRUCUT
 10
25.75750000000001
 20
42.87000000000489
 30
0.0
 42
-0.4142135623697945
  0
VERTEX
  5
4A0
  8
THRUCUT
 10
25.88750000000011
 20
43.00000000000477
 30
0.0
  0
VERTEX
  5
4A1
  8
THRUCUT
 10
26.38749999999984
 20
43.00000000000437
 30
0.0
  0
VERTEX
  5
4A2
  8
THRUCUT
 10
47.61999999999966
 20
43.00000000000488
 30
0.0
 42
-0.4142135623736434
  0
VERTEX
  5
4A3
  8
THRUCUT
 10
47.74999999999965
 20
42.87000000000489
 30
0.0
  0
VERTEX
  5
4A4
  8
THRUCUT
 10
47.74999999999965
 20
42.68384776311336
 30
0.0
 42
1.0
  0
VERTEX
  5
4A5
  8
THRUCUT
 10
47.93384776310813
 20
42.50000000000488
 30
0.0
  0
VERTEX
  5
4A6
  8
THRUCUT
 10
48.06615223689117
 20
42.50000000000488
 30
0.0
 42
1.0
  0
VERTEX
  5
4A7
  8
THRUCUT
 10
48.24999999999965
 20
42.68384776311336
 30
0.0
  0
VERTEX
  5
4A8
  8
THRUCUT
 10
48.24999999999965
 20
42.87000000000489
 30
0.0
 42
-0.4142135623732267
  0
VERTEX
  5
4A9
  8
THRUCUT
 10
48.37999999999964
 20
43.00000000000488
 30
0.0
  0
VERTEX
  5
4AA
  8
THRUCUT
 10
70.11249999999956
 20
43.00000000000437
 30
0.0
 42
-0.4142135623736434
  0
VERTEX
  5
4AB
  8
THRUCUT
 10
70.24249999999967
 20
42.87000000000437
 30
0.0
  0
VERTEX
  5
4AC
  8
THRUCUT
 10
70.24249999999967
 20
42.6838477631129
 30
0.0
 42
1.0
  0
VERTEX
  5
4AD
  8
THRUCUT
 10
70.42634776310803
 20
42.50000000000437
 30
0.0
  0
VERTEX
  5
4AE
  8
THRUCUT
 10
70.55865223689108
 20
42.50000000000437
 30
0.0
 42
1.0
  0
VERTEX
  5
4AF
  8
THRUCUT
 10
70.74249999999967
 20
42.6838477631129
 30
0.0
  0
VERTEX
  5
4B0
  8
THRUCUT
 10
70.74249999999967
 20
42.87000000000437
 30
0.0
 42
-0.4142135623732267
  0
VERTEX
  5
4B1
  8
THRUCUT
 10
70.87249999999955
 20
43.00000000000437
 30
0.0
  0
VERTEX
  5
4B2
  8
THRUCUT
 10
92.62000000000089
 20
43.00000000000487
 30
0.0
 42
-0.4142135623929817
  0
VERTEX
  5
4B3
  8
THRUCUT
 10
92.75000000000088
 20
42.87000000000608
 30
0.0
  0
VERTEX
  5
4B4
  8
THRUCUT
 10
92.75000000000261
 20
42.68384776311342
 30
0.0
 42
1.0
  0
VERTEX
  5
4B5
  8
THRUCUT
 10
92.9338477631112
 20
42.5000000000049
 30
0.0
  0
VERTEX
  5
4B6
  8
THRUCUT
 10
93.06615223689414
 20
42.5000000000049
 30
0.0
 42
1.0
  0
VERTEX
  5
4B7
  8
THRUCUT
 10
93.25000000000261
 20
42.68384776311342
 30
0.0
  0
VERTEX
  5
4B8
  8
THRUCUT
 10
93.25000000000279
 20
42.87000000000553
 30
0.0
 42
-0.4142135623381356
  0
VERTEX
  5
4B9
  8
THRUCUT
 10
93.38000000000278
 20
43.0000000000054
 30
0.0
  0
VERTEX
  5
4BA
  8
THRUCUT
 10
94.62000000000288
 20
43.0000000000054
 30
0.0
 42
-0.414213562372271
  0
VERTEX
  5
4BB
  8
THRUCUT
 10
95.1200000000029
 20
42.5000000000054
 30
0.0
  0
VERTEX
  5
4BC
  8
THRUCUT
 10
95.1200000000029
 20
40.50000000000498
 30
0.0
 42
-0.4142135623679323
  0
VERTEX
  5
4BD
  8
THRUCUT
 10
94.62000000000288
 20
40.00000000000498
 30
0.0
  0
VERTEX
  5
4BE
  8
THRUCUT
 10
93.38000000000278
 20
40.00000000000498
 30
0.0
 42
-0.4142135623449497
  0
VERTEX
  5
4BF
  8
THRUCUT
 10
93.25000000000279
 20
40.13000000000486
 30
0.0
  0
VERTEX
  5
4C0
  8
THRUCUT
 10
93.25000000000261
 20
40.31615223689642
 30
0.0
 42
1.0
  0
VERTEX
  5
4C1
  8
THRUCUT
 10
93.06615223689414
 20
40.5000000000049
 30
0.0
  0
VERTEX
  5
4C2
  8
THRUCUT
 10
92.9338477631112
 20
40.5000000000049
 30
0.0
 42
1.0
  0
VERTEX
  5
4C3
  8
THRUCUT
 10
92.75000000000261
 20
40.31615223689642
 30
0.0
  0
VERTEX
  5
4C4
  8
THRUCUT
 10
92.75000000000094
 20
40.13000000000373
 30
0.0
 42
-0.4142135623571974
  0
VERTEX
  5
4C5
  8
THRUCUT
 10
92.62000000000094
 20
40.00000000000488
 30
0.0
  0
VERTEX
  5
4C6
  8
THRUCUT
 10
70.87249999999955
 20
40.00000000000446
 30
0.0
 42
-0.4142135623736935
  0
VERTEX
  5
4C7
  8
THRUCUT
 10
70.74249999999967
 20
40.13000000000442
 30
0.0
  0
VERTEX
  5
4C8
  8
THRUCUT
 10
70.74249999999967
 20
40.3161522368959
 30
0.0
 42
1.0
  0
VERTEX
  5
4C9
  8
THRUCUT
 10
70.55865223689108
 20
40.50000000000437
 30
0.0
  0
VERTEX
  5
4CA
  8
THRUCUT
 10
70.42634776310803
 20
40.50000000000437
 30
0.0
 42
1.0
  0
VERTEX
  5
4CB
  8
THRUCUT
 10
70.24249999999967
 20
40.3161522368959
 30
0.0
  0
VERTEX
  5
4CC
  8
THRUCUT
 10
70.24249999999967
 20
40.13000000000442
 30
0.0
 42
-0.4142135623747849
  0
VERTEX
  5
4CD
  8
THRUCUT
 10
70.11249999999956
 20
40.00000000000446
 30
0.0
  0
VERTEX
  5
4CE
  8
THRUCUT
 10
48.37999999999964
 20
40.00000000000491
 30
0.0
 42
-0.4142135623736935
  0
VERTEX
  5
4CF
  8
THRUCUT
 10
48.24999999999965
 20
40.13000000000487
 30
0.0
  0
VERTEX
  5
4D0
  8
THRUCUT
 10
48.24999999999965
 20
40.3161522368964
 30
0.0
 42
1.0
  0
VERTEX
  5
4D1
  8
THRUCUT
 10
48.06615223689117
 20
40.50000000000488
 30
0.0
  0
VERTEX
  5
4D2
  8
THRUCUT
 10
47.93384776310813
 20
40.50000000000488
 30
0.0
 42
1.0
  0
VERTEX
  5
4D3
  8
THRUCUT
 10
47.74999999999965
 20
40.3161522368964
 30
0.0
  0
VERTEX
  5
4D4
  8
THRUCUT
 10
47.74999999999965
 20
40.13000000000487
 30
0.0
 42
-0.4142135623747849
  0
VERTEX
  5
4D5
  8
THRUCUT
 10
47.61999999999966
 20
40.00000000000491
 30
0.0
  0
VERTEX
  5
4D6
  8
THRUCUT
 10
25.88750000000001
 20
40.00000000000446
 30
0.0
 42
-0.4142135623702022
  0
VERTEX
  5
4D7
  8
THRUCUT
 10
25.75750000000001
 20
40.13000000000434
 30
0.0
  0
VERTEX
  5
4D8
  8
THRUCUT
 10
25.75749999999984
 20
40.3161522368959
 30
0.0
 42
1.0
  0
VERTEX
  5
4D9
  8
THRUCUT
 10
25.57365223689137
 20
40.50000000000437
 30
0.0
  0
VERTEX
  5
4DA
  8
THRUCUT
 10
25.44134776310843
 20
40.50000000000437
 30
0.0
 42
1.0
  0
VERTEX
  5
4DB
  8
THRUCUT
 10
25.25749999999984
 20
40.3161522368959
 30
0.0
  0
VERTEX
  5
4DC
  8
THRUCUT
 10
25.25749999999812
 20
40.13000000000324
 30
0.0
 42
-0.4142135623674379
  0
VERTEX
  5
4DD
  8
THRUCUT
 10
25.12749999999812
 20
40.00000000000442
 30
0.0
  0
VERTEX
  5
4DE
  8
THRUCUT
 10
3.380000000000187
 20
40.00000000000468
 30
0.0
 42
-0.4142135623727946
  0
VERTEX
  5
4DF
  8
THRUCUT
 10
3.250000000000189
 20
40.13000000000456
 30
0.0
  0
VERTEX
  5
4E0
  8
THRUCUT
 10
3.250000000000021
 20
40.3161522368959
 30
0.0
 42
1.0
  0
VERTEX
  5
4E1
  8
THRUCUT
 10
3.066152236891547
 20
40.50000000000437
 30
0.0
  0
VERTEX
  5
4E2
  8
THRUCUT
 10
2.933847763108609
 20
40.50000000000437
 30
0.0
 42
1.0
  0
VERTEX
  5
4E3
  8
THRUCUT
 10
2.750000000000021
 20
40.3161522368959
 30
0.0
  0
VERTEX
  5
4E4
  8
THRUCUT
 10
2.749999999998302
 20
40.13000000000324
 30
0.0
 42
-0.4142135623704057
  0
VERTEX
  5
4E5
  8
THRUCUT
 10
2.619999999998302
 20
40.00000000000442
 30
0.0
  0
VERTEX
  5
4E6
  8
THRUCUT
 10
1.379999999997101
 20
40.00000000000442
 30
0.0
 42
-0.414213562373096
  0
VERTEX
  5
4E7
  8
THRUCUT
 10
0.8799999999971009
 20
40.50000000000442
 30
0.0
  0
VERTEX
  5
4E8
  8
THRUCUT
 10
0.8799999999971009
 20
42.50000000000436
 30
0.0
 42
-0.4142135623730968
  0
VERTEX
  5
4E9
  8
THRUCUT
 10
1.379999999997112
 20
43.00000000000436
 30
0.0
  0
VERTEX
  5
4EA
  8
THRUCUT
 10
2.619999999998302
 20
43.00000000000436
 30
0.0
 42
-0.4142135623703808
  0
VERTEX
  5
4EB
  8
THRUCUT
 10
2.749999999998302
 20
42.87000000000555
 30
0.0
  0
VERTEX
  5
4EC
  8
THRUCUT
 10
2.750000000000021
 20
42.6838477631129
 30
0.0
 42
1.0
  0
VERTEX
  5
4ED
  8
THRUCUT
 10
2.933847763108609
 20
42.50000000000437
 30
0.0
  0
VERTEX
  5
4EE
  8
THRUCUT
 10
3.066152236891547
 20
42.50000000000437
 30
0.0
 42
1.0
  0
VERTEX
  5
4EF
  8
THRUCUT
 10
3.250000000000021
 20
42.6838477631129
 30
0.0
  0
VERTEX
  5
4F0
  8
THRUCUT
 10
3.250000000000189
 20
42.87000000000499
 30
0.0
 42
-0.4142135623729316
  0
VERTEX
  5
4F1
  8
THRUCUT
 10
3.380000000000192
 20
43.00000000000487
 30
0.0
  0
SEQEND
  5
65C
  8
THRUCUT
  0
POLYLINE
  5
7C
  8
THRUCUT
 66
     1
 10
0.0
 20
0.0
 30
0.0
 70
     1
  0
VERTEX
  5
4F2
  8
THRUCUT
 10
25.12749999999813
 20
46.50000000000534
 30
0.0
 42
-0.4142135623708788
  0
VERTEX
  5
4F3
  8
THRUCUT
 10
25.25749999999812
 20
46.37000000000654
 30
0.0
  0
VERTEX
  5
4F4
  8
THRUCUT
 10
25.25749999999984
 20
46.18384776311388
 30
0.0
 42
1.0
  0
VERTEX
  5
4F5
  8
THRUCUT
 10
25.44134776310843
 20
46.00000000000535
 30
0.0
  0
VERTEX
  5
4F6
  8
THRUCUT
 10
25.57365223689137
 20
46.00000000000535
 30
0.0
 42
1.0
  0
VERTEX
  5
4F7
  8
THRUCUT
 10
25.75749999999984
 20
46.18384776311388
 30
0.0
  0
VERTEX
  5
4F8
  8
THRUCUT
 10
25.75750000000001
 20
46.37000000000587
 30
0.0
 42
-0.4142135623697945
  0
VERTEX
  5
4F9
  8
THRUCUT
 10
25.88750000000011
 20
46.50000000000576
 30
0.0
  0
VERTEX
  5
4FA
  8
THRUCUT
 10
26.38749999999984
 20
46.50000000000535
 30
0.0
  0
VERTEX
  5
4FB
  8
THRUCUT
 10
47.61999999999966
 20
46.50000000000586
 30
0.0
 42
-0.4142135623736434
  0
VERTEX
  5
4FC
  8
THRUCUT
 10
47.74999999999965
 20
46.37000000000586
 30
0.0
  0
VERTEX
  5
4FD
  8
THRUCUT
 10
47.74999999999965
 20
46.18384776311434
 30
0.0
 42
1.0
  0
VERTEX
  5
4FE
  8
THRUCUT
 10
47.93384776310813
 20
46.00000000000586
 30
0.0
  0
VERTEX
  5
4FF
  8
THRUCUT
 10
48.06615223689117
 20
46.00000000000586
 30
0.0
 42
1.0
  0
VERTEX
  5
500
  8
THRUCUT
 10
48.24999999999965
 20
46.18384776311434
 30
0.0
  0
VERTEX
  5
501
  8
THRUCUT
 10
48.24999999999965
 20
46.37000000000586
 30
0.0
 42
-0.4142135623732267
  0
VERTEX
  5
502
  8
THRUCUT
 10
48.37999999999964
 20
46.50000000000586
 30
0.0
  0
VERTEX
  5
503
  8
THRUCUT
 10
70.11249999999956
 20
46.50000000000535
 30
0.0
 42
-0.4142135623736434
  0
VERTEX
  5
504
  8
THRUCUT
 10
70.24249999999967
 20
46.37000000000535
 30
0.0
  0
VERTEX
  5
505
  8
THRUCUT
 10
70.24249999999967
 20
46.18384776311388
 30
0.0
 42
1.0
  0
VERTEX
  5
506
  8
THRUCUT
 10
70.42634776310803
 20
46.00000000000535
 30
0.0
  0
VERTEX
  5
507
  8
THRUCUT
 10
70.55865223689108
 20
46.00000000000535
 30
0.0
 42
1.0
  0
VERTEX
  5
508
  8
THRUCUT
 10
70.74249999999967
 20
46.18384776311388
 30
0.0
  0
VERTEX
  5
509
  8
THRUCUT
 10
70.74249999999967
 20
46.37000000000535
 30
0.0
 42
-0.4142135623732267
  0
VERTEX
  5
50A
  8
THRUCUT
 10
70.87249999999955
 20
46.50000000000535
 30
0.0
  0
VERTEX
  5
50B
  8
THRUCUT
 10
92.62000000000089
 20
46.50000000000585
 30
0.0
 42
-0.4142135623929817
  0
VERTEX
  5
50C
  8
THRUCUT
 10
92.75000000000088
 20
46.37000000000706
 30
0.0
  0
VERTEX
  5
50D
  8
THRUCUT
 10
92.75000000000261
 20
46.1838477631144
 30
0.0
 42
1.0
  0
VERTEX
  5
50E
  8
THRUCUT
 10
92.9338477631112
 20
46.00000000000588
 30
0.0
  0
VERTEX
  5
50F
  8
THRUCUT
 10
93.06615223689414
 20
46.00000000000588
 30
0.0
 42
1.0
  0
VERTEX
  5
510
  8
THRUCUT
 10
93.25000000000261
 20
46.1838477631144
 30
0.0
  0
VERTEX
  5
511
  8
THRUCUT
 10
93.25000000000279
 20
46.37000000000651
 30
0.0
 42
-0.4142135623381356
  0
VERTEX
  5
512
  8
THRUCUT
 10
93.38000000000278
 20
46.50000000000638
 30
0.0
  0
VERTEX
  5
513
  8
THRUCUT
 10
94.62000000000288
 20
46.50000000000638
 30
0.0
 42
-0.414213562372271
  0
VERTEX
  5
514
  8
THRUCUT
 10
95.1200000000029
 20
46.00000000000638
 30
0.0
  0
VERTEX
  5
515
  8
THRUCUT
 10
95.1200000000029
 20
44.00000000000596
 30
0.0
 42
-0.4142135623679323
  0
VERTEX
  5
516
  8
THRUCUT
 10
94.62000000000288
 20
43.50000000000596
 30
0.0
  0
VERTEX
  5
517
  8
THRUCUT
 10
93.38000000000278
 20
43.50000000000596
 30
0.0
 42
-0.4142135623449497
  0
VERTEX
  5
518
  8
THRUCUT
 10
93.25000000000279
 20
43.63000000000584
 30
0.0
  0
VERTEX
  5
519
  8
THRUCUT
 10
93.25000000000261
 20
43.8161522368974
 30
0.0
 42
1.0
  0
VERTEX
  5
51A
  8
THRUCUT
 10
93.06615223689414
 20
44.00000000000588
 30
0.0
  0
VERTEX
  5
51B
  8
THRUCUT
 10
92.9338477631112
 20
44.00000000000588
 30
0.0
 42
1.0
  0
VERTEX
  5
51C
  8
THRUCUT
 10
92.75000000000261
 20
43.8161522368974
 30
0.0
  0
VERTEX
  5
51D
  8
THRUCUT
 10
92.75000000000094
 20
43.6300000000047
 30
0.0
 42
-0.4142135623571974
  0
VERTEX
  5
51E
  8
THRUCUT
 10
92.62000000000094
 20
43.50000000000586
 30
0.0
  0
VERTEX
  5
51F
  8
THRUCUT
 10
70.87249999999955
 20
43.50000000000544
 30
0.0
 42
-0.4142135623736935
  0
VERTEX
  5
520
  8
THRUCUT
 10
70.74249999999967
 20
43.6300000000054
 30
0.0
  0
VERTEX
  5
521
  8
THRUCUT
 10
70.74249999999967
 20
43.81615223689688
 30
0.0
 42
1.0
  0
VERTEX
  5
522
  8
THRUCUT
 10
70.55865223689108
 20
44.00000000000535
 30
0.0
  0
VERTEX
  5
523
  8
THRUCUT
 10
70.42634776310803
 20
44.00000000000535
 30
0.0
 42
1.0
  0
VERTEX
  5
524
  8
THRUCUT
 10
70.24249999999967
 20
43.81615223689688
 30
0.0
  0
VERTEX
  5
525
  8
THRUCUT
 10
70.24249999999967
 20
43.6300000000054
 30
0.0
 42
-0.4142135623747849
  0
VERTEX
  5
526
  8
THRUCUT
 10
70.11249999999956
 20
43.50000000000544
 30
0.0
  0
VERTEX
  5
527
  8
THRUCUT
 10
48.37999999999964
 20
43.50000000000589
 30
0.0
 42
-0.4142135623736935
  0
VERTEX
  5
528
  8
THRUCUT
 10
48.24999999999965
 20
43.63000000000585
 30
0.0
  0
VERTEX
  5
529
  8
THRUCUT
 10
48.24999999999965
 20
43.81615223689738
 30
0.0
 42
1.0
  0
VERTEX
  5
52A
  8
THRUCUT
 10
48.06615223689117
 20
44.00000000000586
 30
0.0
  0
VERTEX
  5
52B
  8
THRUCUT
 10
47.93384776310813
 20
44.00000000000586
 30
0.0
 42
1.0
  0
VERTEX
  5
52C
  8
THRUCUT
 10
47.74999999999965
 20
43.81615223689738
 30
0.0
  0
VERTEX
  5
52D
  8
THRUCUT
 10
47.74999999999965
 20
43.63000000000585
 30
0.0
 42
-0.4142135623747849
  0
VERTEX
  5
52E
  8
THRUCUT
 10
47.61999999999966
 20
43.50000000000589
 30
0.0
  0
VERTEX
  5
52F
  8
THRUCUT
 10
25.88750000000001
 20
43.50000000000544
 30
0.0
 42
-0.4142135623702022
  0
VERTEX
  5
530
  8
THRUCUT
 10
25.75750000000001
 20
43.63000000000532
 30
0.0
  0
VERTEX
  5
531
  8
THRUCUT
 10
25.75749999999984
 20
43.81615223689688
 30
0.0
 42
1.0
  0
VERTEX
  5
532
  8
THRUCUT
 10
25.57365223689137
 20
44.00000000000535
 30
0.0
  0
VERTEX
  5
533
  8
THRUCUT
 10
25.44134776310843
 20
44.00000000000535
 30
0.0
 42
1.0
  0
VERTEX
  5
534
  8
THRUCUT
 10
25.25749999999984
 20
43.81615223689688
 30
0.0
  0
VERTEX
  5
535
  8
THRUCUT
 10
25.25749999999812
 20
43.63000000000422
 30
0.0
 42
-0.4142135623674379
  0
VERTEX
  5
536
  8
THRUCUT
 10
25.12749999999812
 20
43.5000000000054
 30
0.0
  0
VERTEX
  5
537
  8
THRUCUT
 10
3.380000000000187
 20
43.50000000000566
 30
0.0
 42
-0.4142135623727946
  0
VERTEX
  5
538
  8
THRUCUT
 10
3.250000000000189
 20
43.63000000000554
 30
0.0
  0
VERTEX
  5
539
  8
THRUCUT
 10
3.250000000000021
 20
43.81615223689688
 30
0.0
 42
1.0
  0
VERTEX
  5
53A
  8
THRUCUT
 10
3.066152236891547
 20
44.00000000000535
 30
0.0
  0
VERTEX
  5
53B
  8
THRUCUT
 10
2.933847763108609
 20
44.00000000000535
 30
0.0
 42
1.0
  0
VERTEX
  5
53C
  8
THRUCUT
 10
2.750000000000021
 20
43.81615223689688
 30
0.0
  0
VERTEX
  5
53D
  8
THRUCUT
 10
2.749999999998302
 20
43.63000000000422
 30
0.0
 42
-0.4142135623704057
  0
VERTEX
  5
53E
  8
THRUCUT
 10
2.619999999998302
 20
43.5000000000054
 30
0.0
  0
VERTEX
  5
53F
  8
THRUCUT
 10
1.379999999997101
 20
43.5000000000054
 30
0.0
 42
-0.414213562373096
  0
VERTEX
  5
540
  8
THRUCUT
 10
0.8799999999971009
 20
44.0000000000054
 30
0.0
  0
VERTEX
  5
541
  8
THRUCUT
 10
0.8799999999971009
 20
46.00000000000534
 30
0.0
 42
-0.4142135623730968
  0
VERTEX
  5
542
  8
THRUCUT
 10
1.379999999997112
 20
46.50000000000534
 30
0.0
  0
VERTEX
  5
543
  8
THRUCUT
 10
2.619999999998302
 20
46.50000000000534
 30
0.0
 42
-0.4142135623703808
  0
VERTEX
  5
544
  8
THRUCUT
 10
2.749999999998302
 20
46.37000000000653
 30
0.0
  0
VERTEX
  5
545
  8
THRUCUT
 10
2.750000000000021
 20
46.18384776311388
 30
0.0
 42
1.0
  0
VERTEX
  5
546
  8
THRUCUT
 10
2.933847763108609
 20
46.00000000000535
 30
0.0
  0
VERTEX
  5
547
  8
THRUCUT
 10
3.066152236891547
 20
46.00000000000535
 30
0.0
 42
1.0
  0
VERTEX
  5
548
  8
THRUCUT
 10
3.250000000000021
 20
46.18384776311388
 30
0.0
  0
VERTEX
  5
549
  8
THRUCUT
 10
3.250000000000189
 20
46.37000000000597
 30
0.0
 42
-0.4142135623729316
  0
VERTEX
  5
54A
  8
THRUCUT
 10
3.380000000000192
 20
46.50000000000585
 30
0.0
  0
SEQEND
  5
65D
  8
THRUCUT
  0
POLYLINE
  5
7E
  8
SCREW_LOCATION_MARKS
 66
     1
 10
0.0
 20
0.0
 30
0.0
 70
     1
  0
VERTEX
  5
54B
  8
SCREW_LOCATION_MARKS
 10
2.999999999999993
 20
3.135059298684063
 30
0.0
 42
0.4142135623730951
  0
VERTEX
  5
54C
  8
SCREW_LOCATION_MARKS
 10
2.864999999999993
 20
3.000059298684063
 30
0.0
 42
0.4142135623730951
  0
VERTEX
  5
54D
  8
SCREW_LOCATION_MARKS
 10
2.999999999999993
 20
2.865059298684063
 30
0.0
 42
0.4142135623730951
  0
VERTEX
  5
54E
  8
SCREW_LOCATION_MARKS
 10
3.134999999999993
 20
3.000059298684063
 30
0.0
 42
0.4142135623730951
  0
SEQEND
  5
65E
  8
SCREW_LOCATION_MARKS
  0
POLYLINE
  5
7F
  8
SCREW_LOCATION_MARKS
 66
     1
 10
0.0
 20
0.0
 30
0.0
 70
     1
  0
VERTEX
  5
54F
  8
SCREW_LOCATION_MARKS
 10
25.50749999999999
 20
3.135059298684063
 30
0.0
 42
0.4142135623730951
  0
VERTEX
  5
550
  8
SCREW_LOCATION_MARKS
 10
25.37249999999999
 20
3.000059298684063
 30
0.0
 42
0.4142135623730951
  0
VERTEX
  5
551
  8
SCREW_LOCATION_MARKS
 10
25.50749999999999
 20
2.865059298684063
 30
0.0
 42
0.4142135623730951
  0
VERTEX
  5
552
  8
SCREW_LOCATION_MARKS
 10
25.64249999999999
 20
3.000059298684063
 30
0.0
 42
0.4142135623730951
  0
SEQEND
  5
65F
  8
SCREW_LOCATION_MARKS
  0
POLYLINE
  5
80
  8
SCREW_LOCATION_MARKS
 66
     1
 10
0.0
 20
0.0
 30
0.0
 70
     1
  0
VERTEX
  5
553
  8
SCREW_LOCATION_MARKS
 10
47.99999999999999
 20
3.134959298684063
 30
0.0
 42
0.4142135623730951
  0
VERTEX
  5
554
  8
SCREW_LOCATION_MARKS
 10
47.86499999999999
 20
2.999959298684063
 30
0.0
 42
0.4142135623730951
  0
VERTEX
  5
555
  8
SCREW_LOCATION_MARKS
 10
47.99999999999999
 20
2.864959298684063
 30
0.0
 42
0.4142135623730951
  0
VERTEX
  5
556
  8
SCREW_LOCATION_MARKS
 10
48.13499999999999
 20
2.999959298684063
 30
0.0
 42
0.4142135623730951
  0
SEQEND
  5
660
  8
SCREW_LOCATION_MARKS
  0
POLYLINE
  5
81
  8
SCREW_LOCATION_MARKS
 66
     1
 10
0.0
 20
0.0
 30
0.0
 70
     1
  0
VERTEX
  5
557
  8
SCREW_LOCATION_MARKS
 10
70.4925
 20
3.135059298684063
 30
0.0
 42
0.4142135623730951
  0
VERTEX
  5
558
  8
SCREW_LOCATION_MARKS
 10
70.35749999999999
 20
3.000059298684063
 30
0.0
 42
0.4142135623730951
  0
VERTEX
  5
559
  8
SCREW_LOCATION_MARKS
 10
70.4925
 20
2.865059298684063
 30
0.0
 42
0.4142135623730951
  0
VERTEX
  5
55A
  8
SCREW_LOCATION_MARKS
 10
70.6275
 20
3.000059298684063
 30
0.0
 42
0.4142135623730951
  0
SEQEND
  5
661
  8
SCREW_LOCATION_MARKS
  0
POLYLINE
  5
82
  8
SCREW_LOCATION_MARKS
 66
     1
 10
0.0
 20
0.0
 30
0.0
 70
     1
  0
VERTEX
  5
55B
  8
SCREW_LOCATION_MARKS
 10
93.0
 20
3.135059298684063
 30
0.0
 42
0.4142135623730951
  0
VERTEX
  5
55C
  8
SCREW_LOCATION_MARKS
 10
92.86499999999998
 20
3.000059298684063
 30
0.0
 42
0.4142135623730951
  0
VERTEX
  5
55D
  8
SCREW_LOCATION_MARKS
 10
93.0
 20
2.865059298684063
 30
0.0
 42
0.4142135623730951
  0
VERTEX
  5
55E
  8
SCREW_LOCATION_MARKS
 10
93.13499999999999
 20
3.000059298684063
 30
0.0
 42
0.4142135623730951
  0
SEQEND
  5
662
  8
SCREW_LOCATION_MARKS
  0
POLYLINE
  5
83
  8
SCREW_LOCATION_MARKS
 66
     1
 10
0.0
 20
0.0
 30
0.0
 70
     1
  0
VERTEX
  5
55F
  8
SCREW_LOCATION_MARKS
 10
2.999999999999993
 20
6.635059298685045
 30
0.0
 42
0.4142135623730951
  0
VERTEX
  5
560
  8
SCREW_LOCATION_MARKS
 10
2.864999999999993
 20
6.500059298685045
 30
0.0
 42
0.4142135623730951
  0
VERTEX
  5
561
  8
SCREW_LOCATION_MARKS
 10
2.999999999999993
 20
6.365059298685045
 30
0.0
 42
0.4142135623730951
  0
VERTEX
  5
562
  8
SCREW_LOCATION_MARKS
 10
3.134999999999993
 20
6.500059298685045
 30
0.0
 42
0.4142135623730951
  0
SEQEND
  5
663
  8
SCREW_LOCATION_MARKS
  0
POLYLINE
  5
84
  8
SCREW_LOCATION_MARKS
 66
     1
 10
0.0
 20
0.0
 30
0.0
 70
     1
  0
VERTEX
  5
563
  8
SCREW_LOCATION_MARKS
 10
25.50749999999999
 20
6.635059298685045
 30
0.0
 42
0.4142135623730951
  0
VERTEX
  5
564
  8
SCREW_LOCATION_MARKS
 10
25.37249999999999
 20
6.500059298685045
 30
0.0
 42
0.4142135623730951
  0
VERTEX
  5
565
  8
SCREW_LOCATION_MARKS
 10
25.50749999999999
 20
6.365059298685045
 30
0.0
 42
0.4142135623730951
  0
VERTEX
  5
566
  8
SCREW_LOCATION_MARKS
 10
25.64249999999999
 20
6.500059298685045
 30
0.0
 42
0.4142135623730951
  0
SEQEND
  5
664
  8
SCREW_LOCATION_MARKS
  0
POLYLINE
  5
85
  8
SCREW_LOCATION_MARKS
 66
     1
 10
0.0
 20
0.0
 30
0.0
 70
     1
  0
VERTEX
  5
567
  8
SCREW_LOCATION_MARKS
 10
47.99999999999999
 20
6.634959298685045
 30
0.0
 42
0.4142135623730951
  0
VERTEX
  5
568
  8
SCREW_LOCATION_MARKS
 10
47.86499999999999
 20
6.499959298685045
 30
0.0
 42
0.4142135623730951
  0
VERTEX
  5
569
  8
SCREW_LOCATION_MARKS
 10
47.99999999999999
 20
6.364959298685045
 30
0.0
 42
0.4142135623730951
  0
VERTEX
  5
56A
  8
SCREW_LOCATION_MARKS
 10
48.13499999999999
 20
6.499959298685045
 30
0.0
 42
0.4142135623730951
  0
SEQEND
  5
665
  8
SCREW_LOCATION_MARKS
  0
POLYLINE
  5
86
  8
SCREW_LOCATION_MARKS
 66
     1
 10
0.0
 20
0.0
 30
0.0
 70
     1
  0
VERTEX
  5
56B
  8
SCREW_LOCATION_MARKS
 10
70.4925
 20
6.635059298685045
 30
0.0
 42
0.4142135623730951
  0
VERTEX
  5
56C
  8
SCREW_LOCATION_MARKS
 10
70.35749999999999
 20
6.500059298685045
 30
0.0
 42
0.4142135623730951
  0
VERTEX
  5
56D
  8
SCREW_LOCATION_MARKS
 10
70.4925
 20
6.365059298685045
 30
0.0
 42
0.4142135623730951
  0
VERTEX
  5
56E
  8
SCREW_LOCATION_MARKS
 10
70.6275
 20
6.500059298685045
 30
0.0
 42
0.4142135623730951
  0
SEQEND
  5
666
  8
SCREW_LOCATION_MARKS
  0
POLYLINE
  5
87
  8
SCREW_LOCATION_MARKS
 66
     1
 10
0.0
 20
0.0
 30
0.0
 70
     1
  0
VERTEX
  5
56F
  8
SCREW_LOCATION_MARKS
 10
93.0
 20
6.635059298685045
 30
0.0
 42
0.4142135623730951
  0
VERTEX
  5
570
  8
SCREW_LOCATION_MARKS
 10
92.86499999999998
 20
6.500059298685045
 30
0.0
 42
0.4142135623730951
  0
VERTEX
  5
571
  8
SCREW_LOCATION_MARKS
 10
93.0
 20
6.365059298685045
 30
0.0
 42
0.4142135623730951
  0
VERTEX
  5
572
  8
SCREW_LOCATION_MARKS
 10
93.13499999999999
 20
6.500059298685045
 30
0.0
 42
0.4142135623730951
  0
SEQEND
  5
667
  8
SCREW_LOCATION_MARKS
  0
POLYLINE
  5
88
  8
SCREW_LOCATION_MARKS
 66
     1
 10
0.0
 20
0.0
 30
0.0
 70
     1
  0
VERTEX
  5
573
  8
SCREW_LOCATION_MARKS
 10
2.999999999999993
 20
10.13505929868603
 30
0.0
 42
0.4142135623730951
  0
VERTEX
  5
574
  8
SCREW_LOCATION_MARKS
 10
2.864999999999993
 20
10.00005929868603
 30
0.0
 42
0.4142135623730951
  0
VERTEX
  5
575
  8
SCREW_LOCATION_MARKS
 10
2.999999999999993
 20
9.865059298686027
 30
0.0
 42
0.4142135623730951
  0
VERTEX
  5
576
  8
SCREW_LOCATION_MARKS
 10
3.134999999999993
 20
10.00005929868603
 30
0.0
 42
0.4142135623730951
  0
SEQEND
  5
668
  8
SCREW_LOCATION_MARKS
  0
POLYLINE
  5
89
  8
SCREW_LOCATION_MARKS
 66
     1
 10
0.0
 20
0.0
 30
0.0
 70
     1
  0
VERTEX
  5
577
  8
SCREW_LOCATION_MARKS
 10
25.50749999999999
 20
10.13505929868603
 30
0.0
 42
0.4142135623730951
  0
VERTEX
  5
578
  8
SCREW_LOCATION_MARKS
 10
25.37249999999999
 20
10.00005929868603
 30
0.0
 42
0.4142135623730951
  0
VERTEX
  5
579
  8
SCREW_LOCATION_MARKS
 10
25.50749999999999
 20
9.865059298686027
 30
0.0
 42
0.4142135623730951
  0
VERTEX
  5
57A
  8
SCREW_LOCATION_MARKS
 10
25.64249999999999
 20
10.00005929868603
 30
0.0
 42
0.4142135623730951
  0
SEQEND
  5
669
  8
SCREW_LOCATION_MARKS
  0
POLYLINE
  5
8A
  8
SCREW_LOCATION_MARKS
 66
     1
 10
0.0
 20
0.0
 30
0.0
 70
     1
  0
VERTEX
  5
57B
  8
SCREW_LOCATION_MARKS
 10
47.99999999999999
 20
10.13495929868603
 30
0.0
 42
0.4142135623730951
  0
VERTEX
  5
57C
  8
SCREW_LOCATION_MARKS
 10
47.86499999999999
 20
9.999959298686028
 30
0.0
 42
0.4142135623730951
  0
VERTEX
  5
57D
  8
SCREW_LOCATION_MARKS
 10
47.99999999999999
 20
9.864959298686028
 30
0.0
 42
0.4142135623730951
  0
VERTEX
  5
57E
  8
SCREW_LOCATION_MARKS
 10
48.13499999999999
 20
9.999959298686028
 30
0.0
 42
0.4142135623730951
  0
SEQEND
  5
66A
  8
SCREW_LOCATION_MARKS
  0
POLYLINE
  5
8B
  8
SCREW_LOCATION_MARKS
 66
     1
 10
0.0
 20
0.0
 30
0.0
 70
     1
  0
VERTEX
  5
57F
  8
SCREW_LOCATION_MARKS
 10
70.4925
 20
10.13505929868603
 30
0.0
 42
0.4142135623730951
  0
VERTEX
  5
580
  8
SCREW_LOCATION_MARKS
 10
70.35749999999999
 20
10.00005929868603
 30
0.0
 42
0.4142135623730951
  0
VERTEX
  5
581
  8
SCREW_LOCATION_MARKS
 10
70.4925
 20
9.865059298686027
 30
0.0
 42
0.4142135623730951
  0
VERTEX
  5
582
  8
SCREW_LOCATION_MARKS
 10
70.6275
 20
10.00005929868603
 30
0.0
 42
0.4142135623730951
  0
SEQEND
  5
66B
  8
SCREW_LOCATION_MARKS
  0
POLYLINE
  5
8C
  8
SCREW_LOCATION_MARKS
 66
     1
 10
0.0
 20
0.0
 30
0.0
 70
     1
  0
VERTEX
  5
583
  8
SCREW_LOCATION_MARKS
 10
93.0
 20
10.13505929868603
 30
0.0
 42
0.4142135623730951
  0
VERTEX
  5
584
  8
SCREW_LOCATION_MARKS
 10
92.86499999999998
 20
10.00005929868603
 30
0.0
 42
0.4142135623730951
  0
VERTEX
  5
585
  8
SCREW_LOCATION_MARKS
 10
93.0
 20
9.865059298686027
 30
0.0
 42
0.4142135623730951
  0
VERTEX
  5
586
  8
SCREW_LOCATION_MARKS
 10
93.13499999999999
 20
10.00005929868603
 30
0.0
 42
0.4142135623730951
  0
SEQEND
  5
66C
  8
SCREW_LOCATION_MARKS
  0
POLYLINE
  5
8D
  8
SCREW_LOCATION_MARKS
 66
     1
 10
0.0
 20
0.0
 30
0.0
 70
     1
  0
VERTEX
  5
587
  8
SCREW_LOCATION_MARKS
 10
2.999999999999993
 20
13.63505929868701
 30
0.0
 42
0.4142135623730951
  0
VERTEX
  5
588
  8
SCREW_LOCATION_MARKS
 10
2.864999999999993
 20
13.50005929868701
 30
0.0
 42
0.4142135623730951
  0
VERTEX
  5
589
  8
SCREW_LOCATION_MARKS
 10
2.999999999999993
 20
13.36505929868701
 30
0.0
 42
0.4142135623730951
  0
VERTEX
  5
58A
  8
SCREW_LOCATION_MARKS
 10
3.134999999999993
 20
13.50005929868701
 30
0.0
 42
0.4142135623730951
  0
SEQEND
  5
66D
  8
SCREW_LOCATION_MARKS
  0
POLYLINE
  5
8E
  8
SCREW_LOCATION_MARKS
 66
     1
 10
0.0
 20
0.0
 30
0.0
 70
     1
  0
VERTEX
  5
58B
  8
SCREW_LOCATION_MARKS
 10
25.50749999999999
 20
13.63505929868701
 30
0.0
 42
0.4142135623730951
  0
VERTEX
  5
58C
  8
SCREW_LOCATION_MARKS
 10
25.37249999999999
 20
13.50005929868701
 30
0.0
 42
0.4142135623730951
  0
VERTEX
  5
58D
  8
SCREW_LOCATION_MARKS
 10
25.50749999999999
 20
13.36505929868701
 30
0.0
 42
0.4142135623730951
  0
VERTEX
  5
58E
  8
SCREW_LOCATION_MARKS
 10
25.64249999999999
 20
13.50005929868701
 30
0.0
 42
0.4142135623730951
  0
SEQEND
  5
66E
  8
SCREW_LOCATION_MARKS
  0
POLYLINE
  5
8F
  8
SCREW_LOCATION_MARKS
 66
     1
 10
0.0
 20
0.0
 30
0.0
 70
     1
  0
VERTEX
  5
58F
  8
SCREW_LOCATION_MARKS
 10
47.99999999999999
 20
13.63495929868701
 30
0.0
 42
0.4142135623730951
  0
VERTEX
  5
590
  8
SCREW_LOCATION_MARKS
 10
47.86499999999999
 20
13.49995929868701
 30
0.0
 42
0.4142135623730951
  0
VERTEX
  5
591
  8
SCREW_LOCATION_MARKS
 10
47.99999999999999
 20
13.36495929868701
 30
0.0
 42
0.4142135623730951
  0
VERTEX
  5
592
  8
SCREW_LOCATION_MARKS
 10
48.13499999999999
 20
13.49995929868701
 30
0.0
 42
0.4142135623730951
  0
SEQEND
  5
66F
  8
SCREW_LOCATION_MARKS
  0
POLYLINE
  5
90
  8
SCREW_LOCATION_MARKS
 66
     1
 10
0.0
 20
0.0
 30
0.0
 70
     1
  0
VERTEX
  5
593
  8
SCREW_LOCATION_MARKS
 10
70.4925
 20
13.63505929868701
 30
0.0
 42
0.4142135623730951
  0
VERTEX
  5
594
  8
SCREW_LOCATION_MARKS
 10
70.35749999999999
 20
13.50005929868701
 30
0.0
 42
0.4142135623730951
  0
VERTEX
  5
595
  8
SCREW_LOCATION_MARKS
 10
70.4925
 20
13.36505929868701
 30
0.0
 42
0.4142135623730951
  0
VERTEX
  5
596
  8
SCREW_LOCATION_MARKS
 10
70.6275
 20
13.50005929868701
 30
0.0
 42
0.4142135623730951
  0
SEQEND
  5
670
  8
SCREW_LOCATION_MARKS
  0
POLYLINE
  5
91
  8
SCREW_LOCATION_MARKS
 66
     1
 10
0.0
 20
0.0
 30
0.0
 70
     1
  0
VERTEX
  5
597
  8
SCREW_LOCATION_MARKS
 10
93.0
 20
13.63505929868701
 30
0.0
 42
0.4142135623730951
  0
VERTEX
  5
598
  8
SCREW_LOCATION_MARKS
 10
92.86499999999998
 20
13.50005929868701
 30
0.0
 42
0.4142135623730951
  0
VERTEX
  5
599
  8
SCREW_LOCATION_MARKS
 10
93.0
 20
13.36505929868701
 30
0.0
 42
0.4142135623730951
  0
VERTEX
  5
59A
  8
SCREW_LOCATION_MARKS
 10
93.13499999999999
 20
13.50005929868701
 30
0.0
 42
0.4142135623730951
  0
SEQEND
  5
671
  8
SCREW_LOCATION_MARKS
  0
POLYLINE
  5
92
  8
SCREW_LOCATION_MARKS
 66
     1
 10
0.0
 20
0.0
 30
0.0
 70
     1
  0
VERTEX
  5
59B
  8
SCREW_LOCATION_MARKS
 10
2.999999999999993
 20
17.13505929868799
 30
0.0
 42
0.4142135623730951
  0
VERTEX
  5
59C
  8
SCREW_LOCATION_MARKS
 10
2.864999999999993
 20
17.00005929868799
 30
0.0
 42
0.4142135623730951
  0
VERTEX
  5
59D
  8
SCREW_LOCATION_MARKS
 10
2.999999999999993
 20
16.86505929868799
 30
0.0
 42
0.4142135623730951
  0
VERTEX
  5
59E
  8
SCREW_LOCATION_MARKS
 10
3.134999999999993
 20
17.00005929868799
 30
0.0
 42
0.4142135623730951
  0
SEQEND
  5
672
  8
SCREW_LOCATION_MARKS
  0
POLYLINE
  5
93
  8
SCREW_LOCATION_MARKS
 66
     1
 10
0.0
 20
0.0
 30
0.0
 70
     1
  0
VERTEX
  5
59F
  8
SCREW_LOCATION_MARKS
 10
25.50749999999999
 20
17.13505929868799
 30
0.0
 42
0.4142135623730951
  0
VERTEX
  5
5A0
  8
SCREW_LOCATION_MARKS
 10
25.37249999999999
 20
17.00005929868799
 30
0.0
 42
0.4142135623730951
  0
VERTEX
  5
5A1
  8
SCREW_LOCATION_MARKS
 10
25.50749999999999
 20
16.86505929868799
 30
0.0
 42
0.4142135623730951
  0
VERTEX
  5
5A2
  8
SCREW_LOCATION_MARKS
 10
25.64249999999999
 20
17.00005929868799
 30
0.0
 42
0.4142135623730951
  0
SEQEND
  5
673
  8
SCREW_LOCATION_MARKS
  0
POLYLINE
  5
94
  8
SCREW_LOCATION_MARKS
 66
     1
 10
0.0
 20
0.0
 30
0.0
 70
     1
  0
VERTEX
  5
5A3
  8
SCREW_LOCATION_MARKS
 10
47.99999999999999
 20
17.13495929868799
 30
0.0
 42
0.4142135623730951
  0
VERTEX
  5
5A4
  8
SCREW_LOCATION_MARKS
 10
47.86499999999999
 20
16.99995929868799
 30
0.0
 42
0.4142135623730951
  0
VERTEX
  5
5A5
  8
SCREW_LOCATION_MARKS
 10
47.99999999999999
 20
16.86495929868799
 30
0.0
 42
0.4142135623730951
  0
VERTEX
  5
5A6
  8
SCREW_LOCATION_MARKS
 10
48.13499999999999
 20
16.99995929868799
 30
0.0
 42
0.4142135623730951
  0
SEQEND
  5
674
  8
SCREW_LOCATION_MARKS
  0
POLYLINE
  5
95
  8
SCREW_LOCATION_MARKS
 66
     1
 10
0.0
 20
0.0
 30
0.0
 70
     1
  0
VERTEX
  5
5A7
  8
SCREW_LOCATION_MARKS
 10
70.4925
 20
17.13505929868799
 30
0.0
 42
0.4142135623730951
  0
VERTEX
  5
5A8
  8
SCREW_LOCATION_MARKS
 10
70.35749999999999
 20
17.00005929868799
 30
0.0
 42
0.4142135623730951
  0
VERTEX
  5
5A9
  8
SCREW_LOCATION_MARKS
 10
70.4925
 20
16.86505929868799
 30
0.0
 42
0.4142135623730951
  0
VERTEX
  5
5AA
  8
SCREW_LOCATION_MARKS
 10
70.6275
 20
17.00005929868799
 30
0.0
 42
0.4142135623730951
  0
SEQEND
  5
675
  8
SCREW_LOCATION_MARKS
  0
POLYLINE
  5
96
  8
SCREW_LOCATION_MARKS
 66
     1
 10
0.0
 20
0.0
 30
0.0
 70
     1
  0
VERTEX
  5
5AB
  8
SCREW_LOCATION_MARKS
 10
93.0
 20
17.13505929868799
 30
0.0
 42
0.4142135623730951
  0
VERTEX
  5
5AC
  8
SCREW_LOCATION_MARKS
 10
92.86499999999998
 20
17.00005929868799
 30
0.0
 42
0.4142135623730951
  0
VERTEX
  5
5AD
  8
SCREW_LOCATION_MARKS
 10
93.0
 20
16.86505929868799
 30
0.0
 42
0.4142135623730951
  0
VERTEX
  5
5AE
  8
SCREW_LOCATION_MARKS
 10
93.13499999999999
 20
17.00005929868799
 30
0.0
 42
0.4142135623730951
  0
SEQEND
  5
676
  8
SCREW_LOCATION_MARKS
  0
POLYLINE
  5
97
  8
SCREW_LOCATION_MARKS
 66
     1
 10
0.0
 20
0.0
 30
0.0
 70
     1
  0
VERTEX
  5
5AF
  8
SCREW_LOCATION_MARKS
 10
2.999999999999993
 20
20.63505929868897
 30
0.0
 42
0.4142135623730951
  0
VERTEX
  5
5B0
  8
SCREW_LOCATION_MARKS
 10
2.864999999999993
 20
20.50005929868897
 30
0.0
 42
0.4142135623730951
  0
VERTEX
  5
5B1
  8
SCREW_LOCATION_MARKS
 10
2.999999999999993
 20
20.36505929868897
 30
0.0
 42
0.4142135623730951
  0
VERTEX
  5
5B2
  8
SCREW_LOCATION_MARKS
 10
3.134999999999993
 20
20.50005929868897
 30
0.0
 42
0.4142135623730951
  0
SEQEND
  5
677
  8
SCREW_LOCATION_MARKS
  0
POLYLINE
  5
98
  8
SCREW_LOCATION_MARKS
 66
     1
 10
0.0
 20
0.0
 30
0.0
 70
     1
  0
VERTEX
  5
5B3
  8
SCREW_LOCATION_MARKS
 10
25.50749999999999
 20
20.63505929868897
 30
0.0
 42
0.4142135623730951
  0
VERTEX
  5
5B4
  8
SCREW_LOCATION_MARKS
 10
25.37249999999999
 20
20.50005929868897
 30
0.0
 42
0.4142135623730951
  0
VERTEX
  5
5B5
  8
SCREW_LOCATION_MARKS
 10
25.50749999999999
 20
20.36505929868897
 30
0.0
 42
0.4142135623730951
  0
VERTEX
  5
5B6
  8
SCREW_LOCATION_MARKS
 10
25.64249999999999
 20
20.50005929868897
 30
0.0
 42
0.4142135623730951
  0
SEQEND
  5
678
  8
SCREW_LOCATION_MARKS
  0
POLYLINE
  5
99
  8
SCREW_LOCATION_MARKS
 66
     1
 10
0.0
 20
0.0
 30
0.0
 70
     1
  0
VERTEX
  5
5B7
  8
SCREW_LOCATION_MARKS
 10
47.99999999999999
 20
20.63495929868897
 30
0.0
 42
0.4142135623730951
  0
VERTEX
  5
5B8
  8
SCREW_LOCATION_MARKS
 10
47.86499999999999
 20
20.49995929868897
 30
0.0
 42
0.4142135623730951
  0
VERTEX
  5
5B9
  8
SCREW_LOCATION_MARKS
 10
47.99999999999999
 20
20.36495929868897
 30
0.0
 42
0.4142135623730951
  0
VERTEX
  5
5BA
  8
SCREW_LOCATION_MARKS
 10
48.13499999999999
 20
20.49995929868897
 30
0.0
 42
0.4142135623730951
  0
SEQEND
  5
679
  8
SCREW_LOCATION_MARKS
  0
POLYLINE
  5
9A
  8
SCREW_LOCATION_MARKS
 66
     1
 10
0.0
 20
0.0
 30
0.0
 70
     1
  0
VERTEX
  5
5BB
  8
SCREW_LOCATION_MARKS
 10
70.4925
 20
20.63505929868897
 30
0.0
 42
0.4142135623730951
  0
VERTEX
  5
5BC
  8
SCREW_LOCATION_MARKS
 10
70.35749999999999
 20
20.50005929868897
 30
0.0
 42
0.4142135623730951
  0
VERTEX
  5
5BD
  8
SCREW_LOCATION_MARKS
 10
70.4925
 20
20.36505929868897
 30
0.0
 42
0.4142135623730951
  0
VERTEX
  5
5BE
  8
SCREW_LOCATION_MARKS
 10
70.6275
 20
20.50005929868897
 30
0.0
 42
0.4142135623730951
  0
SEQEND
  5
67A
  8
SCREW_LOCATION_MARKS
  0
POLYLINE
  5
9B
  8
SCREW_LOCATION_MARKS
 66
     1
 10
0.0
 20
0.0
 30
0.0
 70
     1
  0
VERTEX
  5
5BF
  8
SCREW_LOCATION_MARKS
 10
93.0
 20
20.63505929868897
 30
0.0
 42
0.4142135623730951
  0
VERTEX
  5
5C0
  8
SCREW_LOCATION_MARKS
 10
92.86499999999998
 20
20.50005929868897
 30
0.0
 42
0.4142135623730951
  0
VERTEX
  5
5C1
  8
SCREW_LOCATION_MARKS
 10
93.0
 20
20.36505929868897
 30
0.0
 42
0.4142135623730951
  0
VERTEX
  5
5C2
  8
SCREW_LOCATION_MARKS
 10
93.13499999999999
 20
20.50005929868897
 30
0.0
 42
0.4142135623730951
  0
SEQEND
  5
67B
  8
SCREW_LOCATION_MARKS
  0
POLYLINE
  5
9C
  8
SCREW_LOCATION_MARKS
 66
     1
 10
0.0
 20
0.0
 30
0.0
 70
     1
  0
VERTEX
  5
5C3
  8
SCREW_LOCATION_MARKS
 10
2.999999999999993
 20
24.13505929868995
 30
0.0
 42
0.4142135623730951
  0
VERTEX
  5
5C4
  8
SCREW_LOCATION_MARKS
 10
2.864999999999993
 20
24.00005929868995
 30
0.0
 42
0.4142135623730951
  0
VERTEX
  5
5C5
  8
SCREW_LOCATION_MARKS
 10
2.999999999999993
 20
23.86505929868995
 30
0.0
 42
0.4142135623730951
  0
VERTEX
  5
5C6
  8
SCREW_LOCATION_MARKS
 10
3.134999999999993
 20
24.00005929868995
 30
0.0
 42
0.4142135623730951
  0
SEQEND
  5
67C
  8
SCREW_LOCATION_MARKS
  0
POLYLINE
  5
9D
  8
SCREW_LOCATION_MARKS
 66
     1
 10
0.0
 20
0.0
 30
0.0
 70
     1
  0
VERTEX
  5
5C7
  8
SCREW_LOCATION_MARKS
 10
25.50749999999999
 20
24.13505929868995
 30
0.0
 42
0.4142135623730951
  0
VERTEX
  5
5C8
  8
SCREW_LOCATION_MARKS
 10
25.37249999999999
 20
24.00005929868995
 30
0.0
 42
0.4142135623730951
  0
VERTEX
  5
5C9
  8
SCREW_LOCATION_MARKS
 10
25.50749999999999
 20
23.86505929868995
 30
0.0
 42
0.4142135623730951
  0
VERTEX
  5
5CA
  8
SCREW_LOCATION_MARKS
 10
25.64249999999999
 20
24.00005929868995
 30
0.0
 42
0.4142135623730951
  0
SEQEND
  5
67D
  8
SCREW_LOCATION_MARKS
  0
POLYLINE
  5
9E
  8
SCREW_LOCATION_MARKS
 66
     1
 10
0.0
 20
0.0
 30
0.0
 70
     1
  0
VERTEX
  5
5CB
  8
SCREW_LOCATION_MARKS
 10
47.99999999999999
 20
24.13495929868995
 30
0.0
 42
0.4142135623730951
  0
VERTEX
  5
5CC
  8
SCREW_LOCATION_MARKS
 10
47.86499999999999
 20
23.99995929868996
 30
0.0
 42
0.4142135623730951
  0
VERTEX
  5
5CD
  8
SCREW_LOCATION_MARKS
 10
47.99999999999999
 20
23.86495929868995
 30
0.0
 42
0.4142135623730951
  0
VERTEX
  5
5CE
  8
SCREW_LOCATION_MARKS
 10
48.13499999999999
 20
23.99995929868996
 30
0.0
 42
0.4142135623730951
  0
SEQEND
  5
67E
  8
SCREW_LOCATION_MARKS
  0
POLYLINE
  5
9F
  8
SCREW_LOCATION_MARKS
 66
     1
 10
0.0
 20
0.0
 30
0.0
 70
     1
  0
VERTEX
  5
5CF
  8
SCREW_LOCATION_MARKS
 10
70.4925
 20
24.13505929868995
 30
0.0
 42
0.4142135623730951
  0
VERTEX
  5
5D0
  8
SCREW_LOCATION_MARKS
 10
70.35749999999999
 20
24.00005929868995
 30
0.0
 42
0.4142135623730951
  0
VERTEX
  5
5D1
  8
SCREW_LOCATION_MARKS
 10
70.4925
 20
23.86505929868995
 30
0.0
 42
0.4142135623730951
  0
VERTEX
  5
5D2
  8
SCREW_LOCATION_MARKS
 10
70.6275
 20
24.00005929868995
 30
0.0
 42
0.4142135623730951
  0
SEQEND
  5
67F
  8
SCREW_LOCATION_MARKS
  0
POLYLINE
  5
A0
  8
SCREW_LOCATION_MARKS
 66
     1
 10
0.0
 20
0.0
 30
0.0
 70
     1
  0
VERTEX
  5
5D3
  8
SCREW_LOCATION_MARKS
 10
93.0
 20
24.13505929868995
 30
0.0
 42
0.4142135623730951
  0
VERTEX
  5
5D4
  8
SCREW_LOCATION_MARKS
 10
92.86499999999998
 20
24.00005929868995
 30
0.0
 42
0.4142135623730951
  0
VERTEX
  5
5D5
  8
SCREW_LOCATION_MARKS
 10
93.0
 20
23.86505929868995
 30
0.0
 42
0.4142135623730951
  0
VERTEX
  5
5D6
  8
SCREW_LOCATION_MARKS
 10
93.13499999999999
 20
24.00005929868995
 30
0.0
 42
0.4142135623730951
  0
SEQEND
  5
680
  8
SCREW_LOCATION_MARKS
  0
POLYLINE
  5
A1
  8
SCREW_LOCATION_MARKS
 66
     1
 10
0.0
 20
0.0
 30
0.0
 70
     1
  0
VERTEX
  5
5D7
  8
SCREW_LOCATION_MARKS
 10
2.999999999999993
 20
27.63505929869094
 30
0.0
 42
0.4142135623730951
  0
VERTEX
  5
5D8
  8
SCREW_LOCATION_MARKS
 10
2.864999999999993
 20
27.50005929869094
 30
0.0
 42
0.4142135623730951
  0
VERTEX
  5
5D9
  8
SCREW_LOCATION_MARKS
 10
2.999999999999993
 20
27.36505929869094
 30
0.0
 42
0.4142135623730951
  0
VERTEX
  5
5DA
  8
SCREW_LOCATION_MARKS
 10
3.134999999999993
 20
27.50005929869094
 30
0.0
 42
0.4142135623730951
  0
SEQEND
  5
681
  8
SCREW_LOCATION_MARKS
  0
POLYLINE
  5
A2
  8
SCREW_LOCATION_MARKS
 66
     1
 10
0.0
 20
0.0
 30
0.0
 70
     1
  0
VERTEX
  5
5DB
  8
SCREW_LOCATION_MARKS
 10
25.50749999999999
 20
27.63505929869094
 30
0.0
 42
0.4142135623730951
  0
VERTEX
  5
5DC
  8
SCREW_LOCATION_MARKS
 10
25.37249999999999
 20
27.50005929869094
 30
0.0
 42
0.4142135623730951
  0
VERTEX
  5
5DD
  8
SCREW_LOCATION_MARKS
 10
25.50749999999999
 20
27.36505929869094
 30
0.0
 42
0.4142135623730951
  0
VERTEX
  5
5DE
  8
SCREW_LOCATION_MARKS
 10
25.64249999999999
 20
27.50005929869094
 30
0.0
 42
0.4142135623730951
  0
SEQEND
  5
682
  8
SCREW_LOCATION_MARKS
  0
POLYLINE
  5
A3
  8
SCREW_LOCATION_MARKS
 66
     1
 10
0.0
 20
0.0
 30
0.0
 70
     1
  0
VERTEX
  5
5DF
  8
SCREW_LOCATION_MARKS
 10
47.99999999999999
 20
27.63495929869094
 30
0.0
 42
0.4142135623730951
  0
VERTEX
  5
5E0
  8
SCREW_LOCATION_MARKS
 10
47.86499999999999
 20
27.49995929869094
 30
0.0
 42
0.4142135623730951
  0
VERTEX
  5
5E1
  8
SCREW_LOCATION_MARKS
 10
47.99999999999999
 20
27.36495929869094
 30
0.0
 42
0.4142135623730951
  0
VERTEX
  5
5E2
  8
SCREW_LOCATION_MARKS
 10
48.13499999999999
 20
27.49995929869094
 30
0.0
 42
0.4142135623730951
  0
SEQEND
  5
683
  8
SCREW_LOCATION_MARKS
  0
POLYLINE
  5
A4
  8
SCREW_LOCATION_MARKS
 66
     1
 10
0.0
 20
0.0
 30
0.0
 70
     1
  0
VERTEX
  5
5E3
  8
SCREW_LOCATION_MARKS
 10
70.4925
 20
27.63505929869094
 30
0.0
 42
0.4142135623730951
  0
VERTEX
  5
5E4
  8
SCREW_LOCATION_MARKS
 10
70.35749999999999
 20
27.50005929869094
 30
0.0
 42
0.4142135623730951
  0
VERTEX
  5
5E5
  8
SCREW_LOCATION_MARKS
 10
70.4925
 20
27.36505929869094
 30
0.0
 42
0.4142135623730951
  0
VERTEX
  5
5E6
  8
SCREW_LOCATION_MARKS
 10
70.6275
 20
27.50005929869094
 30
0.0
 42
0.4142135623730951
  0
SEQEND
  5
684
  8
SCREW_LOCATION_MARKS
  0
POLYLINE
  5
A5
  8
SCREW_LOCATION_MARKS
 66
     1
 10
0.0
 20
0.0
 30
0.0
 70
     1
  0
VERTEX
  5
5E7
  8
SCREW_LOCATION_MARKS
 10
93.0
 20
27.63505929869094
 30
0.0
 42
0.4142135623730951
  0
VERTEX
  5
5E8
  8
SCREW_LOCATION_MARKS
 10
92.86499999999998
 20
27.50005929869094
 30
0.0
 42
0.4142135623730951
  0
VERTEX
  5
5E9
  8
SCREW_LOCATION_MARKS
 10
93.0
 20
27.36505929869094
 30
0.0
 42
0.4142135623730951
  0
VERTEX
  5
5EA
  8
SCREW_LOCATION_MARKS
 10
93.13499999999999
 20
27.50005929869094
 30
0.0
 42
0.4142135623730951
  0
SEQEND
  5
685
  8
SCREW_LOCATION_MARKS
  0
POLYLINE
  5
A6
  8
SCREW_LOCATION_MARKS
 66
     1
 10
0.0
 20
0.0
 30
0.0
 70
     1
  0
VERTEX
  5
5EB
  8
SCREW_LOCATION_MARKS
 10
2.999999999999993
 20
31.13505929869192
 30
0.0
 42
0.4142135623730951
  0
VERTEX
  5
5EC
  8
SCREW_LOCATION_MARKS
 10
2.864999999999993
 20
31.00005929869192
 30
0.0
 42
0.4142135623730951
  0
VERTEX
  5
5ED
  8
SCREW_LOCATION_MARKS
 10
2.999999999999993
 20
30.86505929869192
 30
0.0
 42
0.4142135623730951
  0
VERTEX
  5
5EE
  8
SCREW_LOCATION_MARKS
 10
3.134999999999993
 20
31.00005929869192
 30
0.0
 42
0.4142135623730951
  0
SEQEND
  5
686
  8
SCREW_LOCATION_MARKS
  0
POLYLINE
  5
A7
  8
SCREW_LOCATION_MARKS
 66
     1
 10
0.0
 20
0.0
 30
0.0
 70
     1
  0
VERTEX
  5
5EF
  8
SCREW_LOCATION_MARKS
 10
25.50749999999999
 20
31.13505929869192
 30
0.0
 42
0.4142135623730951
  0
VERTEX
  5
5F0
  8
SCREW_LOCATION_MARKS
 10
25.37249999999999
 20
31.00005929869192
 30
0.0
 42
0.4142135623730951
  0
VERTEX
  5
5F1
  8
SCREW_LOCATION_MARKS
 10
25.50749999999999
 20
30.86505929869192
 30
0.0
 42
0.4142135623730951
  0
VERTEX
  5
5F2
  8
SCREW_LOCATION_MARKS
 10
25.64249999999999
 20
31.00005929869192
 30
0.0
 42
0.4142135623730951
  0
SEQEND
  5
687
  8
SCREW_LOCATION_MARKS
  0
POLYLINE
  5
A8
  8
SCREW_LOCATION_MARKS
 66
     1
 10
0.0
 20
0.0
 30
0.0
 70
     1
  0
VERTEX
  5
5F3
  8
SCREW_LOCATION_MARKS
 10
47.99999999999999
 20
31.13495929869192
 30
0.0
 42
0.4142135623730951
  0
VERTEX
  5
5F4
  8
SCREW_LOCATION_MARKS
 10
47.86499999999999
 20
30.99995929869192
 30
0.0
 42
0.4142135623730951
  0
VERTEX
  5
5F5
  8
SCREW_LOCATION_MARKS
 10
47.99999999999999
 20
30.86495929869192
 30
0.0
 42
0.4142135623730951
  0
VERTEX
  5
5F6
  8
SCREW_LOCATION_MARKS
 10
48.13499999999999
 20
30.99995929869192
 30
0.0
 42
0.4142135623730951
  0
SEQEND
  5
688
  8
SCREW_LOCATION_MARKS
  0
POLYLINE
  5
A9
  8
SCREW_LOCATION_MARKS
 66
     1
 10
0.0
 20
0.0
 30
0.0
 70
     1
  0
VERTEX
  5
5F7
  8
SCREW_LOCATION_MARKS
 10
70.4925
 20
31.13505929869192
 30
0.0
 42
0.4142135623730951
  0
VERTEX
  5
5F8
  8
SCREW_LOCATION_MARKS
 10
70.35749999999999
 20
31.00005929869192
 30
0.0
 42
0.4142135623730951
  0
VERTEX
  5
5F9
  8
SCREW_LOCATION_MARKS
 10
70.4925
 20
30.86505929869192
 30
0.0
 42
0.4142135623730951
  0
VERTEX
  5
5FA
  8
SCREW_LOCATION_MARKS
 10
70.6275
 20
31.00005929869192
 30
0.0
 42
0.4142135623730951
  0
SEQEND
  5
689
  8
SCREW_LOCATION_MARKS
  0
POLYLINE
  5
AA
  8
SCREW_LOCATION_MARKS
 66
     1
 10
0.0
 20
0.0
 30
0.0
 70
     1
  0
VERTEX
  5
5FB
  8
SCREW_LOCATION_MARKS
 10
93.0
 20
31.13505929869192
 30
0.0
 42
0.4142135623730951
  0
VERTEX
  5
5FC
  8
SCREW_LOCATION_MARKS
 10
92.86499999999998
 20
31.00005929869192
 30
0.0
 42
0.4142135623730951
  0
VERTEX
  5
5FD
  8
SCREW_LOCATION_MARKS
 10
93.0
 20
30.86505929869192
 30
0.0
 42
0.4142135623730951
  0
VERTEX
  5
5FE
  8
SCREW_LOCATION_MARKS
 10
93.13499999999999
 20
31.00005929869192
 30
0.0
 42
0.4142135623730951
  0
SEQEND
  5
68A
  8
SCREW_LOCATION_MARKS
  0
POLYLINE
  5
AB
  8
SCREW_LOCATION_MARKS
 66
     1
 10
0.0
 20
0.0
 30
0.0
 70
     1
  0
VERTEX
  5
5FF
  8
SCREW_LOCATION_MARKS
 10
2.999999999999993
 20
34.6350592986929
 30
0.0
 42
0.4142135623730951
  0
VERTEX
  5
600
  8
SCREW_LOCATION_MARKS
 10
2.864999999999993
 20
34.5000592986929
 30
0.0
 42
0.4142135623730951
  0
VERTEX
  5
601
  8
SCREW_LOCATION_MARKS
 10
2.999999999999993
 20
34.36505929869291
 30
0.0
 42
0.4142135623730951
  0
VERTEX
  5
602
  8
SCREW_LOCATION_MARKS
 10
3.134999999999993
 20
34.5000592986929
 30
0.0
 42
0.4142135623730951
  0
SEQEND
  5
68B
  8
SCREW_LOCATION_MARKS
  0
POLYLINE
  5
AC
  8
SCREW_LOCATION_MARKS
 66
     1
 10
0.0
 20
0.0
 30
0.0
 70
     1
  0
VERTEX
  5
603
  8
SCREW_LOCATION_MARKS
 10
25.50749999999999
 20
34.6350592986929
 30
0.0
 42
0.4142135623730951
  0
VERTEX
  5
604
  8
SCREW_LOCATION_MARKS
 10
25.37249999999999
 20
34.5000592986929
 30
0.0
 42
0.4142135623730951
  0
VERTEX
  5
605
  8
SCREW_LOCATION_MARKS
 10
25.50749999999999
 20
34.36505929869291
 30
0.0
 42
0.4142135623730951
  0
VERTEX
  5
606
  8
SCREW_LOCATION_MARKS
 10
25.64249999999999
 20
34.5000592986929
 30
0.0
 42
0.4142135623730951
  0
SEQEND
  5
68C
  8
SCREW_LOCATION_MARKS
  0
POLYLINE
  5
AD
  8
SCREW_LOCATION_MARKS
 66
     1
 10
0.0
 20
0.0
 30
0.0
 70
     1
  0
VERTEX
  5
607
  8
SCREW_LOCATION_MARKS
 10
47.99999999999999
 20
34.63495929869291
 30
0.0
 42
0.4142135623730951
  0
VERTEX
  5
608
  8
SCREW_LOCATION_MARKS
 10
47.86499999999999
 20
34.4999592986929
 30
0.0
 42
0.4142135623730951
  0
VERTEX
  5
609
  8
SCREW_LOCATION_MARKS
 10
47.99999999999999
 20
34.3649592986929
 30
0.0
 42
0.4142135623730951
  0
VERTEX
  5
60A
  8
SCREW_LOCATION_MARKS
 10
48.13499999999999
 20
34.4999592986929
 30
0.0
 42
0.4142135623730951
  0
SEQEND
  5
68D
  8
SCREW_LOCATION_MARKS
  0
POLYLINE
  5
AE
  8
SCREW_LOCATION_MARKS
 66
     1
 10
0.0
 20
0.0
 30
0.0
 70
     1
  0
VERTEX
  5
60B
  8
SCREW_LOCATION_MARKS
 10
70.4925
 20
34.6350592986929
 30
0.0
 42
0.4142135623730951
  0
VERTEX
  5
60C
  8
SCREW_LOCATION_MARKS
 10
70.35749999999999
 20
34.5000592986929
 30
0.0
 42
0.4142135623730951
  0
VERTEX
  5
60D
  8
SCREW_LOCATION_MARKS
 10
70.4925
 20
34.36505929869291
 30
0.0
 42
0.4142135623730951
  0
VERTEX
  5
60E
  8
SCREW_LOCATION_MARKS
 10
70.6275
 20
34.5000592986929
 30
0.0
 42
0.4142135623730951
  0
SEQEND
  5
68E
  8
SCREW_LOCATION_MARKS
  0
POLYLINE
  5
AF
  8
SCREW_LOCATION_MARKS
 66
     1
 10
0.0
 20
0.0
 30
0.0
 70
     1
  0
VERTEX
  5
60F
  8
SCREW_LOCATION_MARKS
 10
93.0
 20
34.6350592986929
 30
0.0
 42
0.4142135623730951
  0
VERTEX
  5
610
  8
SCREW_LOCATION_MARKS
 10
92.86499999999998
 20
34.5000592986929
 30
0.0
 42
0.4142135623730951
  0
VERTEX
  5
611
  8
SCREW_LOCATION_MARKS
 10
93.0
 20
34.36505929869291
 30
0.0
 42
0.4142135623730951
  0
VERTEX
  5
612
  8
SCREW_LOCATION_MARKS
 10
93.13499999999999
 20
34.5000592986929
 30
0.0
 42
0.4142135623730951
  0
SEQEND
  5
68F
  8
SCREW_LOCATION_MARKS
  0
POLYLINE
  5
B0
  8
SCREW_LOCATION_MARKS
 66
     1
 10
0.0
 20
0.0
 30
0.0
 70
     1
  0
VERTEX
  5
613
  8
SCREW_LOCATION_MARKS
 10
2.999999999999993
 20
38.13505929869388
 30
0.0
 42
0.4142135623730951
  0
VERTEX
  5
614
  8
SCREW_LOCATION_MARKS
 10
2.864999999999993
 20
38.00005929869388
 30
0.0
 42
0.4142135623730951
  0
VERTEX
  5
615
  8
SCREW_LOCATION_MARKS
 10
2.999999999999993
 20
37.86505929869389
 30
0.0
 42
0.4142135623730951
  0
VERTEX
  5
616
  8
SCREW_LOCATION_MARKS
 10
3.134999999999993
 20
38.00005929869388
 30
0.0
 42
0.4142135623730951
  0
SEQEND
  5
690
  8
SCREW_LOCATION_MARKS
  0
POLYLINE
  5
B1
  8
SCREW_LOCATION_MARKS
 66
     1
 10
0.0
 20
0.0
 30
0.0
 70
     1
  0
VERTEX
  5
617
  8
SCREW_LOCATION_MARKS
 10
25.50749999999999
 20
38.13505929869388
 30
0.0
 42
0.4142135623730951
  0
VERTEX
  5
618
  8
SCREW_LOCATION_MARKS
 10
25.37249999999999
 20
38.00005929869388
 30
0.0
 42
0.4142135623730951
  0
VERTEX
  5
619
  8
SCREW_LOCATION_MARKS
 10
25.50749999999999
 20
37.86505929869389
 30
0.0
 42
0.4142135623730951
  0
VERTEX
  5
61A
  8
SCREW_LOCATION_MARKS
 10
25.64249999999999
 20
38.00005929869388
 30
0.0
 42
0.4142135623730951
  0
SEQEND
  5
691
  8
SCREW_LOCATION_MARKS
  0
POLYLINE
  5
B2
  8
SCREW_LOCATION_MARKS
 66
     1
 10
0.0
 20
0.0
 30
0.0
 70
     1
  0
VERTEX
  5
61B
  8
SCREW_LOCATION_MARKS
 10
47.99999999999999
 20
38.13495929869389
 30
0.0
 42
0.4142135623730951
  0
VERTEX
  5
61C
  8
SCREW_LOCATION_MARKS
 10
47.86499999999999
 20
37.99995929869388
 30
0.0
 42
0.4142135623730951
  0
VERTEX
  5
61D
  8
SCREW_LOCATION_MARKS
 10
47.99999999999999
 20
37.86495929869388
 30
0.0
 42
0.4142135623730951
  0
VERTEX
  5
61E
  8
SCREW_LOCATION_MARKS
 10
48.13499999999999
 20
37.99995929869388
 30
0.0
 42
0.4142135623730951
  0
SEQEND
  5
692
  8
SCREW_LOCATION_MARKS
  0
POLYLINE
  5
B3
  8
SCREW_LOCATION_MARKS
 66
     1
 10
0.0
 20
0.0
 30
0.0
 70
     1
  0
VERTEX
  5
61F
  8
SCREW_LOCATION_MARKS
 10
70.4925
 20
38.13505929869388
 30
0.0
 42
0.4142135623730951
  0
VERTEX
  5
620
  8
SCREW_LOCATION_MARKS
 10
70.35749999999999
 20
38.00005929869388
 30
0.0
 42
0.4142135623730951
  0
VERTEX
  5
621
  8
SCREW_LOCATION_MARKS
 10
70.4925
 20
37.86505929869389
 30
0.0
 42
0.4142135623730951
  0
VERTEX
  5
622
  8
SCREW_LOCATION_MARKS
 10
70.6275
 20
38.00005929869388
 30
0.0
 42
0.4142135623730951
  0
SEQEND
  5
693
  8
SCREW_LOCATION_MARKS
  0
POLYLINE
  5
B4
  8
SCREW_LOCATION_MARKS
 66
     1
 10
0.0
 20
0.0
 30
0.0
 70
     1
  0
VERTEX
  5
623
  8
SCREW_LOCATION_MARKS
 10
93.0
 20
38.13505929869388
 30
0.0
 42
0.4142135623730951
  0
VERTEX
  5
624
  8
SCREW_LOCATION_MARKS
 10
92.86499999999998
 20
38.00005929869388
 30
0.0
 42
0.4142135623730951
  0
VERTEX
  5
625
  8
SCREW_LOCATION_MARKS
 10
93.0
 20
37.86505929869389
 30
0.0
 42
0.4142135623730951
  0
VERTEX
  5
626
  8
SCREW_LOCATION_MARKS
 10
93.13499999999999
 20
38.00005929869388
 30
0.0
 42
0.4142135623730951
  0
SEQEND
  5
694
  8
SCREW_LOCATION_MARKS
  0
POLYLINE
  5
B5
  8
SCREW_LOCATION_MARKS
 66
     1
 10
0.0
 20
0.0
 30
0.0
 70
     1
  0
VERTEX
  5
627
  8
SCREW_LOCATION_MARKS
 10
2.999999999999993
 20
41.63505929869487
 30
0.0
 42
0.4142135623730951
  0
VERTEX
  5
628
  8
SCREW_LOCATION_MARKS
 10
2.864999999999993
 20
41.50005929869487
 30
0.0
 42
0.4142135623730951
  0
VERTEX
  5
629
  8
SCREW_LOCATION_MARKS
 10
2.999999999999993
 20
41.36505929869487
 30
0.0
 42
0.4142135623730951
  0
VERTEX
  5
62A
  8
SCREW_LOCATION_MARKS
 10
3.134999999999993
 20
41.50005929869487
 30
0.0
 42
0.4142135623730951
  0
SEQEND
  5
695
  8
SCREW_LOCATION_MARKS
  0
POLYLINE
  5
B6
  8
SCREW_LOCATION_MARKS
 66
     1
 10
0.0
 20
0.0
 30
0.0
 70
     1
  0
VERTEX
  5
62B
  8
SCREW_LOCATION_MARKS
 10
25.50749999999999
 20
41.63505929869487
 30
0.0
 42
0.4142135623730951
  0
VERTEX
  5
62C
  8
SCREW_LOCATION_MARKS
 10
25.37249999999999
 20
41.50005929869487
 30
0.0
 42
0.4142135623730951
  0
VERTEX
  5
62D
  8
SCREW_LOCATION_MARKS
 10
25.50749999999999
 20
41.36505929869487
 30
0.0
 42
0.4142135623730951
  0
VERTEX
  5
62E
  8
SCREW_LOCATION_MARKS
 10
25.64249999999999
 20
41.50005929869487
 30
0.0
 42
0.4142135623730951
  0
SEQEND
  5
696
  8
SCREW_LOCATION_MARKS
  0
POLYLINE
  5
B7
  8
SCREW_LOCATION_MARKS
 66
     1
 10
0.0
 20
0.0
 30
0.0
 70
     1
  0
VERTEX
  5
62F
  8
SCREW_LOCATION_MARKS
 10
47.99999999999999
 20
41.63495929869486
 30
0.0
 42
0.4142135623730951
  0
VERTEX
  5
630
  8
SCREW_LOCATION_MARKS
 10
47.86499999999999
 20
41.49995929869488
 30
0.0
 42
0.4142135623730951
  0
VERTEX
  5
631
  8
SCREW_LOCATION_MARKS
 10
47.99999999999999
 20
41.36495929869487
 30
0.0
 42
0.4142135623730951
  0
VERTEX
  5
632
  8
SCREW_LOCATION_MARKS
 10
48.13499999999999
 20
41.49995929869488
 30
0.0
 42
0.4142135623730951
  0
SEQEND
  5
697
  8
SCREW_LOCATION_MARKS
  0
POLYLINE
  5
B8
  8
SCREW_LOCATION_MARKS
 66
     1
 10
0.0
 20
0.0
 30
0.0
 70
     1
  0
VERTEX
  5
633
  8
SCREW_LOCATION_MARKS
 10
70.4925
 20
41.63505929869487
 30
0.0
 42
0.4142135623730951
  0
VERTEX
  5
634
  8
SCREW_LOCATION_MARKS
 10
70.35749999999999
 20
41.50005929869487
 30
0.0
 42
0.4142135623730951
  0
VERTEX
  5
635
  8
SCREW_LOCATION_MARKS
 10
70.4925
 20
41.36505929869487
 30
0.0
 42
0.4142135623730951
  0
VERTEX
  5
636
  8
SCREW_LOCATION_MARKS
 10
70.6275
 20
41.50005929869487
 30
0.0
 42
0.4142135623730951
  0
SEQEND
  5
698
  8
SCREW_LOCATION_MARKS
  0
POLYLINE
  5
B9
  8
SCREW_LOCATION_MARKS
 66
     1
 10
0.0
 20
0.0
 30
0.0
 70
     1
  0
VERTEX
  5
637
  8
SCREW_LOCATION_MARKS
 10
93.0
 20
41.63505929869487
 30
0.0
 42
0.4142135623730951
  0
VERTEX
  5
638
  8
SCREW_LOCATION_MARKS
 10
92.86499999999998
 20
41.50005929869487
 30
0.0
 42
0.4142135623730951
  0
VERTEX
  5
639
  8
SCREW_LOCATION_MARKS
 10
93.0
 20
41.36505929869487
 30
0.0
 42
0.4142135623730951
  0
VERTEX
  5
63A
  8
SCREW_LOCATION_MARKS
 10
93.13499999999999
 20
41.50005929869487
 30
0.0
 42
0.4142135623730951
  0
SEQEND
  5
699
  8
SCREW_LOCATION_MARKS
  0
POLYLINE
  5
BA
  8
SCREW_LOCATION_MARKS
 66
     1
 10
0.0
 20
0.0
 30
0.0
 70
     1
  0
VERTEX
  5
63B
  8
SCREW_LOCATION_MARKS
 10
2.999999999999993
 20
45.13505929869585
 30
0.0
 42
0.4142135623730951
  0
VERTEX
  5
63C
  8
SCREW_LOCATION_MARKS
 10
2.864999999999993
 20
45.00005929869585
 30
0.0
 42
0.4142135623730951
  0
VERTEX
  5
63D
  8
SCREW_LOCATION_MARKS
 10
2.999999999999993
 20
44.86505929869585
 30
0.0
 42
0.4142135623730951
  0
VERTEX
  5
63E
  8
SCREW_LOCATION_MARKS
 10
3.134999999999993
 20
45.00005929869585
 30
0.0
 42
0.4142135623730951
  0
SEQEND
  5
69A
  8
SCREW_LOCATION_MARKS
  0
POLYLINE
  5
BB
  8
SCREW_LOCATION_MARKS
 66
     1
 10
0.0
 20
0.0
 30
0.0
 70
     1
  0
VERTEX
  5
63F
  8
SCREW_LOCATION_MARKS
 10
25.50749999999999
 20
45.13505929869585
 30
0.0
 42
0.4142135623730951
  0
VERTEX
  5
640
  8
SCREW_LOCATION_MARKS
 10
25.37249999999999
 20
45.00005929869585
 30
0.0
 42
0.4142135623730951
  0
VERTEX
  5
641
  8
SCREW_LOCATION_MARKS
 10
25.50749999999999
 20
44.86505929869585
 30
0.0
 42
0.4142135623730951
  0
VERTEX
  5
642
  8
SCREW_LOCATION_MARKS
 10
25.64249999999999
 20
45.00005929869585
 30
0.0
 42
0.4142135623730951
  0
SEQEND
  5
69B
  8
SCREW_LOCATION_MARKS
  0
POLYLINE
  5
BC
  8
SCREW_LOCATION_MARKS
 66
     1
 10
0.0
 20
0.0
 30
0.0
 70
     1
  0
VERTEX
  5
643
  8
SCREW_LOCATION_MARKS
 10
47.99999999999999
 20
45.13495929869584
 30
0.0
 42
0.4142135623730951
  0
VERTEX
  5
644
  8
SCREW_LOCATION_MARKS
 10
47.86499999999999
 20
44.99995929869586
 30
0.0
 42
0.4142135623730951
  0
VERTEX
  5
645
  8
SCREW_LOCATION_MARKS
 10
47.99999999999999
 20
44.86495929869585
 30
0.0
 42
0.4142135623730951
  0
VERTEX
  5
646
  8
SCREW_LOCATION_MARKS
 10
48.13499999999999
 20
44.99995929869586
 30
0.0
 42
0.4142135623730951
  0
SEQEND
  5
69C
  8
SCREW_LOCATION_MARKS
  0
POLYLINE
  5
BD
  8
SCREW_LOCATION_MARKS
 66
     1
 10
0.0
 20
0.0
 30
0.0
 70
     1
  0
VERTEX
  5
647
  8
SCREW_LOCATION_MARKS
 10
70.4925
 20
45.13505929869585
 30
0.0
 42
0.4142135623730951
  0
VERTEX
  5
648
  8
SCREW_LOCATION_MARKS
 10
70.35749999999999
 20
45.00005929869585
 30
0.0
 42
0.4142135623730951
  0
VERTEX
  5
649
  8
SCREW_LOCATION_MARKS
 10
70.4925
 20
44.86505929869585
 30
0.0
 42
0.4142135623730951
  0
VERTEX
  5
64A
  8
SCREW_LOCATION_MARKS
 10
70.6275
 20
45.00005929869585
 30
0.0
 42
0.4142135623730951
  0
SEQEND
  5
69D
  8
SCREW_LOCATION_MARKS
  0
POLYLINE
  5
BE
  8
SCREW_LOCATION_MARKS
 66
     1
 10
0.0
 20
0.0
 30
0.0
 70
     1
  0
VERTEX
  5
64B
  8
SCREW_LOCATION_MARKS
 10
93.0
 20
45.13505929869585
 30
0.0
 42
0.4142135623730951
  0
VERTEX
  5
64C
  8
SCREW_LOCATION_MARKS
 10
92.86499999999998
 20
45.00005929869585
 30
0.0
 42
0.4142135623730951
  0
VERTEX
  5
64D
  8
SCREW_LOCATION_MARKS
 10
93.0
 20
44.86505929869585
 30
0.0
 42
0.4142135623730951
  0
VERTEX
  5
64E
  8
SCREW_LOCATION_MARKS
 10
93.13499999999999
 20
45.00005929869585
 30
0.0
 42
0.4142135623730951
  0
SEQEND
  5
69E
  8
SCREW_LOCATION_MARKS
  0
ENDSEC
  0
EOF
