  0
SECTION
  2
HEADER
  9
$ACADVER
  1
AC1009
  9
$DWGCODEPAGE
  3
ansi_1252
  9
$INSBASE
 10
0.0
 20
0.0
 30
0.0
  9
$EXTMIN
 10
0.6069179999995811
 20
0.7110206637381421
 30
0.0
  9
$EXTMAX
 10
95.39308200000042
 20
47.24452782861094
 30
0.0
  9
$LIMMIN
 10
0.0
 20
0.0
  9
$LIMMAX
 10
12.0
 20
9.0
  9
$ORTHOMODE
 70
     0
  9
$REGENMODE
 70
     1
  9
$FILLMODE
 70
     1
  9
$QTEXTMODE
 70
     0
  9
$MIRRTEXT
 70
     1
  9
$DRAGMODE
 70
     2
  9
$LTSCALE
 40
1.0
  9
$OSMODE
 70
    37
  9
$ATTMODE
 70
     1
  9
$TEXTSIZE
 40
0.2
  9
$TRACEWID
 40
0.05
  9
$TEXTSTYLE
  7
STANDARD
  9
$CLAYER
  8
0
  9
$CELTYPE
  6
BYLAYER
  9
$CECOLOR
 62
   256
  9
$DIMSCALE
 40
1.0
  9
$DIMASZ
 40
0.18
  9
$DIMEXO
 40
0.0625
  9
$DIMDLI
 40
0.38
  9
$DIMRND
 40
0.0
  9
$DIMDLE
 40
0.0
  9
$DIMEXE
 40
0.18
  9
$DIMTP
 40
0.0
  9
$DIMTM
 40
0.0
  9
$DIMTXT
 40
0.18
  9
$DIMCEN
 40
0.09
  9
$DIMTSZ
 40
0.0
  9
$DIMTOL
 70
     0
  9
$DIMLIM
 70
     0
  9
$DIMTIH
 70
     1
  9
$DIMTOH
 70
     1
  9
$DIMSE1
 70
     0
  9
$DIMSE2
 70
     0
  9
$DIMTAD
 70
     0
  9
$DIMZIN
 70
     0
  9
$DIMBLK
  1

  9
$DIMASO
 70
     1
  9
$DIMSHO
 70
     1
  9
$DIMPOST
  1

  9
$DIMAPOST
  1

  9
$DIMALT
 70
     0
  9
$DIMALTD
 70
     2
  9
$DIMALTF
 40
25.4
  9
$DIMLFAC
 40
1.0
  9
$DIMTOFL
 70
     0
  9
$DIMTVP
 40
0.0
  9
$DIMTIX
 70
     0
  9
$DIMSOXD
 70
     0
  9
$DIMSAH
 70
     0
  9
$DIMBLK1
  1

  9
$DIMBLK2
  1

  9
$DIMSTYLE
  2
STANDARD
  9
$DIMCLRD
 70
     0
  9
$DIMCLRE
 70
     0
  9
$DIMCLRT
 70
     0
  9
$DIMTFAC
 40
1.0
  9
$DIMGAP
 40
0.09
  9
$LUNITS
 70
     2
  9
$LUPREC
 70
     4
  9
$SKETCHINC
 40
0.1
  9
$FILLETRAD
 40
0.5
  9
$AUNITS
 70
     0
  9
$AUPREC
 70
     0
  9
$MENU
  1
.
  9
$ELEVATION
 40
0.0
  9
$PELEVATION
 40
0.0
  9
$THICKNESS
 40
0.0
  9
$LIMCHECK
 70
     0
  9
$CHAMFERA
 40
0.0
  9
$CHAMFERB
 40
0.0
  9
$SKPOLY
 70
     0
  9
$TDCREATE
 40
2454910.5
  9
$TDUPDATE
 40
2457928.583994317
  9
$TDINDWG
 40
0.0000000116
  9
$TDUSRTIMER
 40
0.0000000116
  9
$USRTIMER
 70
     1
  9
$ANGBASE
 50
0.0
  9
$ANGDIR
 70
     0
  9
$PDMODE
 70
     0
  9
$PDSIZE
 40
0.0
  9
$PLINEWID
 40
0.0
  9
$COORDS
 70
     1
  9
$SPLFRAME
 70
     0
  9
$SPLINETYPE
 70
     6
  9
$SPLINESEGS
 70
     8
  9
$ATTDIA
 70
     0
  9
$ATTREQ
 70
     1
  9
$HANDLING
 70
     1
  9
$HANDSEED
  5
2EA
  9
$SURFTAB1
 70
     6
  9
$SURFTAB2
 70
     6
  9
$SURFTYPE
 70
     6
  9
$SURFU
 70
     6
  9
$SURFV
 70
     6
  9
$UCSNAME
  2

  9
$UCSORG
 10
0.0
 20
0.0
 30
0.0
  9
$UCSXDIR
 10
1.0
 20
0.0
 30
0.0
  9
$UCSYDIR
 10
0.0
 20
1.0
 30
0.0
  9
$PUCSNAME
  2

  9
$PUCSORG
 10
0.0
 20
0.0
 30
0.0
  9
$PUCSXDIR
 10
1.0
 20
0.0
 30
0.0
  9
$PUCSYDIR
 10
0.0
 20
1.0
 30
0.0
  9
$USERI1
 70
     0
  9
$USERI2
 70
     0
  9
$USERI3
 70
     0
  9
$USERI4
 70
     0
  9
$USERI5
 70
     0
  9
$USERR1
 40
0.0
  9
$USERR2
 40
0.0
  9
$USERR3
 40
0.0
  9
$USERR4
 40
0.0
  9
$USERR5
 40
0.0
  9
$WORLDVIEW
 70
     1
  9
$SHADEDGE
 70
     3
  9
$SHADEDIF
 70
    70
  9
$TILEMODE
 70
     1
  9
$MAXACTVP
 70
    64
  9
$PLIMCHECK
 70
     0
  9
$PEXTMIN
 10
1.000000000000000E+20
 20
1.000000000000000E+20
 30
1.000000000000000E+20
  9
$PEXTMAX
 10
-1.000000000000000E+20
 20
-1.000000000000000E+20
 30
-1.000000000000000E+20
  9
$PLIMMIN
 10
0.0
 20
0.0
  9
$PLIMMAX
 10
12.0
 20
9.0
  9
$UNITMODE
 70
     0
  9
$VISRETAIN
 70
     1
  9
$PLINEGEN
 70
     0
  9
$PSLTSCALE
 70
     1
  0
ENDSEC
  0
SECTION
  2
TABLES
  0
TABLE
  2
VPORT
 70
     1
  0
VPORT
  2
*ACTIVE
 70
     0
 10
0.0
 20
0.0
 11
1.0
 21
1.0
 12
10.42990654205607
 22
4.5
 13
0.0
 23
0.0
 14
0.5
 24
0.5
 15
0.5
 25
0.5
 16
0.0
 26
0.0
 36
1.0
 17
0.0
 27
0.0
 37
0.0
 40
9.0
 41
1.972972972850329
 42
50.0
 43
0.0
 44
0.0
 50
0.0
 51
0.0
 71
     0
 72
   100
 73
     1
 74
     3
 75
     0
 76
     0
 77
     0
 78
     0
  0
ENDTAB
  0
TABLE
  2
LTYPE
 70
     2
  0
LTYPE
  2
CONTINUOUS
 70
     0
  3
Solid line
 72
    65
 73
     0
 40
0.0
  0
LTYPE
  2
CONTINUOUS2
 70
     0
  3
Solid Line
 72
    65
 73
     0
 40
0.0
  0
ENDTAB
  0
TABLE
  2
LAYER
 70
     3
  0
LAYER
  2
0
 70
     0
 62
     7
  6
CONTINUOUS
  0
LAYER
  2
SCREW_LOCATION_MARKERS
 70
     0
 62
     1
  6
CONTINUOUS
  0
LAYER
  2
THRUCUT
 70
     0
 62
    18
  6
CONTINUOUS
  0
ENDTAB
  0
TABLE
  2
STYLE
 70
     1
  0
STYLE
  2
STANDARD
 70
     0
 40
0.0
 41
1.0
 50
0.0
 71
     0
 42
0.2
  3
txt
  4

  0
ENDTAB
  0
TABLE
  2
VIEW
 70
     0
  0
ENDTAB
  0
TABLE
  2
UCS
 70
     0
  0
ENDTAB
  0
TABLE
  2
APPID
 70
     1
  0
APPID
  2
ACAD
 70
     0
  0
ENDTAB
  0
TABLE
  2
DIMSTYLE
 70
     1
  0
DIMSTYLE
  2
STANDARD
 70
     0
  3

  4

  5

  6

  7

 40
1.0
 41
0.18
 42
0.0625
 43
0.38
 44
0.18
 45
0.0
 46
0.0
 47
0.0
 48
0.0
140
0.18
141
0.09
142
0.0
143
25.4
144
1.0
145
0.0
146
1.0
147
0.09
 71
     0
 72
     0
 73
     1
 74
     1
 75
     0
 76
     0
 77
     0
 78
     0
170
     0
171
     2
172
     0
173
     0
174
     0
175
     0
176
     0
177
     0
178
     0
  0
ENDTAB
  0
ENDSEC
  0
SECTION
  2
BLOCKS
  0
BLOCK
  8
0
  2
$MODEL_SPACE
 70
     0
 10
0.0
 20
0.0
 30
0.0
  3
$MODEL_SPACE
  1

  0
ENDBLK
  5
21
  8
0
  0
BLOCK
 67
     1
  8
0
  2
$PAPER_SPACE
 70
     0
 10
0.0
 20
0.0
 30
0.0
  3
$PAPER_SPACE
  1

  0
ENDBLK
  5
1D
 67
     1
  8
0
  0
ENDSEC
  0
SECTION
  2
ENTITIES
  0
POLYLINE
  5
70
  8
SCREW_LOCATION_MARKERS
 66
     1
 10
0.0
 20
0.0
 30
0.0
 70
     1
  0
VERTEX
  5
A8
  8
SCREW_LOCATION_MARKERS
 10
70.01557823530396
 20
41.02446279567506
 30
0.0
 42
0.4142135623730951
  0
VERTEX
  5
A9
  8
SCREW_LOCATION_MARKERS
 10
69.88557823530397
 20
41.15446279567504
 30
0.0
 42
0.4142135623730951
  0
VERTEX
  5
AA
  8
SCREW_LOCATION_MARKERS
 10
69.75557823530397
 20
41.02446279567506
 30
0.0
 42
0.4142135623730951
  0
VERTEX
  5
AB
  8
SCREW_LOCATION_MARKERS
 10
69.88557823530397
 20
40.89446279567505
 30
0.0
 42
0.4142135623730951
  0
SEQEND
  5
2BA
  8
SCREW_LOCATION_MARKERS
  0
POLYLINE
  5
71
  8
SCREW_LOCATION_MARKERS
 66
     1
 10
0.0
 20
0.0
 30
0.0
 70
     1
  0
VERTEX
  5
AC
  8
SCREW_LOCATION_MARKERS
 10
47.5230782353044
 20
41.02446279567516
 30
0.0
 42
0.4142135623730951
  0
VERTEX
  5
AD
  8
SCREW_LOCATION_MARKERS
 10
47.39307823530441
 20
41.15446279567515
 30
0.0
 42
0.4142135623730951
  0
VERTEX
  5
AE
  8
SCREW_LOCATION_MARKERS
 10
47.26307823530441
 20
41.02446279567516
 30
0.0
 42
0.4142135623730951
  0
VERTEX
  5
AF
  8
SCREW_LOCATION_MARKERS
 10
47.39307823530441
 20
40.89446279567516
 30
0.0
 42
0.4142135623730951
  0
SEQEND
  5
2BB
  8
SCREW_LOCATION_MARKERS
  0
POLYLINE
  5
72
  8
SCREW_LOCATION_MARKERS
 66
     1
 10
0.0
 20
0.0
 30
0.0
 70
     1
  0
VERTEX
  5
B0
  8
SCREW_LOCATION_MARKERS
 10
25.03057823530423
 20
41.02446279567528
 30
0.0
 42
0.4142135623730951
  0
VERTEX
  5
B1
  8
SCREW_LOCATION_MARKERS
 10
24.90057823530423
 20
41.15446279567527
 30
0.0
 42
0.4142135623730951
  0
VERTEX
  5
B2
  8
SCREW_LOCATION_MARKERS
 10
24.77057823530424
 20
41.02446279567528
 30
0.0
 42
0.4142135623730951
  0
VERTEX
  5
B3
  8
SCREW_LOCATION_MARKERS
 10
24.90057823530423
 20
40.89446279567528
 30
0.0
 42
0.4142135623730951
  0
SEQEND
  5
2BC
  8
SCREW_LOCATION_MARKERS
  0
POLYLINE
  5
73
  8
SCREW_LOCATION_MARKERS
 66
     1
 10
0.0
 20
0.0
 30
0.0
 70
     1
  0
VERTEX
  5
B4
  8
SCREW_LOCATION_MARKERS
 10
9.646885540496106
 20
46.36453364655674
 30
0.0
 42
-0.4142135623730951
  0
VERTEX
  5
B5
  8
SCREW_LOCATION_MARKERS
 10
9.516885540496107
 20
46.49453364655673
 30
0.0
 42
-0.4142135623730951
  0
VERTEX
  5
B6
  8
SCREW_LOCATION_MARKERS
 10
9.646885540496106
 20
46.62453364655673
 30
0.0
 42
-0.4142135623730951
  0
VERTEX
  5
B7
  8
SCREW_LOCATION_MARKERS
 10
9.776885540496107
 20
46.49453364655673
 30
0.0
 42
-0.4142135623730951
  0
SEQEND
  5
2BD
  8
SCREW_LOCATION_MARKERS
  0
POLYLINE
  5
74
  8
SCREW_LOCATION_MARKERS
 66
     1
 10
0.0
 20
0.0
 30
0.0
 70
     1
  0
VERTEX
  5
B8
  8
SCREW_LOCATION_MARKERS
 10
17.64688554049611
 20
46.36453364655674
 30
0.0
 42
-0.4142135623730951
  0
VERTEX
  5
B9
  8
SCREW_LOCATION_MARKERS
 10
17.51688554049611
 20
46.49453364655673
 30
0.0
 42
-0.4142135623730951
  0
VERTEX
  5
BA
  8
SCREW_LOCATION_MARKERS
 10
17.64688554049611
 20
46.62453364655673
 30
0.0
 42
-0.4142135623730951
  0
VERTEX
  5
BB
  8
SCREW_LOCATION_MARKERS
 10
17.77688554049611
 20
46.49453364655673
 30
0.0
 42
-0.4142135623730951
  0
SEQEND
  5
2BE
  8
SCREW_LOCATION_MARKERS
  0
POLYLINE
  5
75
  8
SCREW_LOCATION_MARKERS
 66
     1
 10
0.0
 20
0.0
 30
0.0
 70
     1
  0
VERTEX
  5
BC
  8
SCREW_LOCATION_MARKERS
 10
32.1468855404956
 20
46.36453364655674
 30
0.0
 42
-0.4142135623730951
  0
VERTEX
  5
BD
  8
SCREW_LOCATION_MARKERS
 10
32.01688554049561
 20
46.49453364655673
 30
0.0
 42
-0.4142135623730951
  0
VERTEX
  5
BE
  8
SCREW_LOCATION_MARKERS
 10
32.1468855404956
 20
46.62453364655673
 30
0.0
 42
-0.4142135623730951
  0
VERTEX
  5
BF
  8
SCREW_LOCATION_MARKERS
 10
32.27688554049561
 20
46.49453364655673
 30
0.0
 42
-0.4142135623730951
  0
SEQEND
  5
2BF
  8
SCREW_LOCATION_MARKERS
  0
POLYLINE
  5
76
  8
SCREW_LOCATION_MARKERS
 66
     1
 10
0.0
 20
0.0
 30
0.0
 70
     1
  0
VERTEX
  5
C0
  8
SCREW_LOCATION_MARKERS
 10
40.1468855404956
 20
46.36453364655674
 30
0.0
 42
-0.4142135623730951
  0
VERTEX
  5
C1
  8
SCREW_LOCATION_MARKERS
 10
40.01688554049561
 20
46.49453364655673
 30
0.0
 42
-0.4142135623730951
  0
VERTEX
  5
C2
  8
SCREW_LOCATION_MARKERS
 10
40.1468855404956
 20
46.62453364655673
 30
0.0
 42
-0.4142135623730951
  0
VERTEX
  5
C3
  8
SCREW_LOCATION_MARKERS
 10
40.27688554049561
 20
46.49453364655673
 30
0.0
 42
-0.4142135623730951
  0
SEQEND
  5
2C0
  8
SCREW_LOCATION_MARKERS
  0
POLYLINE
  5
77
  8
SCREW_LOCATION_MARKERS
 66
     1
 10
0.0
 20
0.0
 30
0.0
 70
     1
  0
VERTEX
  5
C4
  8
SCREW_LOCATION_MARKERS
 10
54.6393855404956
 20
46.36453364655647
 30
0.0
 42
-0.4142135623730951
  0
VERTEX
  5
C5
  8
SCREW_LOCATION_MARKERS
 10
54.50938554049559
 20
46.49453364655648
 30
0.0
 42
-0.4142135623730951
  0
VERTEX
  5
C6
  8
SCREW_LOCATION_MARKERS
 10
54.6393855404956
 20
46.62453364655646
 30
0.0
 42
-0.4142135623730951
  0
VERTEX
  5
C7
  8
SCREW_LOCATION_MARKERS
 10
54.7693855404956
 20
46.49453364655648
 30
0.0
 42
-0.4142135623730951
  0
SEQEND
  5
2C1
  8
SCREW_LOCATION_MARKERS
  0
POLYLINE
  5
78
  8
SCREW_LOCATION_MARKERS
 66
     1
 10
0.0
 20
0.0
 30
0.0
 70
     1
  0
VERTEX
  5
C8
  8
SCREW_LOCATION_MARKERS
 10
62.6393855404956
 20
46.36453364655647
 30
0.0
 42
-0.4142135623730951
  0
VERTEX
  5
C9
  8
SCREW_LOCATION_MARKERS
 10
62.50938554049559
 20
46.49453364655648
 30
0.0
 42
-0.4142135623730951
  0
VERTEX
  5
CA
  8
SCREW_LOCATION_MARKERS
 10
62.6393855404956
 20
46.62453364655646
 30
0.0
 42
-0.4142135623730951
  0
VERTEX
  5
CB
  8
SCREW_LOCATION_MARKERS
 10
62.7693855404956
 20
46.49453364655648
 30
0.0
 42
-0.4142135623730951
  0
SEQEND
  5
2C2
  8
SCREW_LOCATION_MARKERS
  0
POLYLINE
  5
79
  8
SCREW_LOCATION_MARKERS
 66
     1
 10
0.0
 20
0.0
 30
0.0
 70
     1
  0
VERTEX
  5
CC
  8
SCREW_LOCATION_MARKERS
 10
77.13938554049619
 20
46.36453364655647
 30
0.0
 42
-0.4142135623730951
  0
VERTEX
  5
CD
  8
SCREW_LOCATION_MARKERS
 10
77.0093855404962
 20
46.49453364655648
 30
0.0
 42
-0.4142135623730951
  0
VERTEX
  5
CE
  8
SCREW_LOCATION_MARKERS
 10
77.13938554049619
 20
46.62453364655646
 30
0.0
 42
-0.4142135623730951
  0
VERTEX
  5
CF
  8
SCREW_LOCATION_MARKERS
 10
77.26938554049619
 20
46.49453364655648
 30
0.0
 42
-0.4142135623730951
  0
SEQEND
  5
2C3
  8
SCREW_LOCATION_MARKERS
  0
POLYLINE
  5
7A
  8
SCREW_LOCATION_MARKERS
 66
     1
 10
0.0
 20
0.0
 30
0.0
 70
     1
  0
VERTEX
  5
D0
  8
SCREW_LOCATION_MARKERS
 10
85.13938554049619
 20
46.36453364655647
 30
0.0
 42
-0.4142135623730951
  0
VERTEX
  5
D1
  8
SCREW_LOCATION_MARKERS
 10
85.0093855404962
 20
46.49453364655648
 30
0.0
 42
-0.4142135623730951
  0
VERTEX
  5
D2
  8
SCREW_LOCATION_MARKERS
 10
85.13938554049619
 20
46.62453364655646
 30
0.0
 42
-0.4142135623730951
  0
VERTEX
  5
D3
  8
SCREW_LOCATION_MARKERS
 10
85.26938554049619
 20
46.49453364655648
 30
0.0
 42
-0.4142135623730951
  0
SEQEND
  5
2C4
  8
SCREW_LOCATION_MARKERS
  0
POLYLINE
  5
7B
  8
SCREW_LOCATION_MARKERS
 66
     1
 10
0.0
 20
0.0
 30
0.0
 70
     1
  0
VERTEX
  5
D4
  8
SCREW_LOCATION_MARKERS
 10
70.01557264944137
 20
30.02451479730455
 30
0.0
 42
-0.4142135623730951
  0
VERTEX
  5
D5
  8
SCREW_LOCATION_MARKERS
 10
69.88557264944137
 20
29.89451479730455
 30
0.0
 42
-0.4142135623730951
  0
VERTEX
  5
D6
  8
SCREW_LOCATION_MARKERS
 10
69.75557264944138
 20
30.02451479730455
 30
0.0
 42
-0.4142135623730951
  0
VERTEX
  5
D7
  8
SCREW_LOCATION_MARKERS
 10
69.88557264944137
 20
30.15451479730454
 30
0.0
 42
-0.4142135623730951
  0
SEQEND
  5
2C5
  8
SCREW_LOCATION_MARKERS
  0
POLYLINE
  5
7C
  8
SCREW_LOCATION_MARKERS
 66
     1
 10
0.0
 20
0.0
 30
0.0
 70
     1
  0
VERTEX
  5
D8
  8
SCREW_LOCATION_MARKERS
 10
47.52307264944174
 20
30.02451479730466
 30
0.0
 42
-0.4142135623730951
  0
VERTEX
  5
D9
  8
SCREW_LOCATION_MARKERS
 10
47.39307264944176
 20
29.89451479730467
 30
0.0
 42
-0.4142135623730951
  0
VERTEX
  5
DA
  8
SCREW_LOCATION_MARKERS
 10
47.26307264944175
 20
30.02451479730466
 30
0.0
 42
-0.4142135623730951
  0
VERTEX
  5
DB
  8
SCREW_LOCATION_MARKERS
 10
47.39307264944176
 20
30.15451479730466
 30
0.0
 42
-0.4142135623730951
  0
SEQEND
  5
2C6
  8
SCREW_LOCATION_MARKERS
  0
POLYLINE
  5
7D
  8
SCREW_LOCATION_MARKERS
 66
     1
 10
0.0
 20
0.0
 30
0.0
 70
     1
  0
VERTEX
  5
DC
  8
SCREW_LOCATION_MARKERS
 10
25.03057264944158
 20
30.02451479730478
 30
0.0
 42
-0.4142135623730951
  0
VERTEX
  5
DD
  8
SCREW_LOCATION_MARKERS
 10
24.90057264944157
 20
29.89451479730478
 30
0.0
 42
-0.4142135623730951
  0
VERTEX
  5
DE
  8
SCREW_LOCATION_MARKERS
 10
24.77057264944159
 20
30.02451479730478
 30
0.0
 42
-0.4142135623730951
  0
VERTEX
  5
DF
  8
SCREW_LOCATION_MARKERS
 10
24.90057264944157
 20
30.15451479730477
 30
0.0
 42
-0.4142135623730951
  0
SEQEND
  5
2C7
  8
SCREW_LOCATION_MARKERS
  0
POLYLINE
  5
7E
  8
SCREW_LOCATION_MARKERS
 66
     1
 10
0.0
 20
0.0
 30
0.0
 70
     1
  0
VERTEX
  5
E0
  8
SCREW_LOCATION_MARKERS
 10
9.646885540496106
 20
24.68443401985747
 30
0.0
 42
0.4142135623730951
  0
VERTEX
  5
E1
  8
SCREW_LOCATION_MARKERS
 10
9.516885540496107
 20
24.55443401985747
 30
0.0
 42
0.4142135623730951
  0
VERTEX
  5
E2
  8
SCREW_LOCATION_MARKERS
 10
9.646885540496106
 20
24.42443401985748
 30
0.0
 42
0.4142135623730951
  0
VERTEX
  5
E3
  8
SCREW_LOCATION_MARKERS
 10
9.776885540496107
 20
24.55443401985747
 30
0.0
 42
0.4142135623730951
  0
SEQEND
  5
2C8
  8
SCREW_LOCATION_MARKERS
  0
POLYLINE
  5
7F
  8
SCREW_LOCATION_MARKERS
 66
     1
 10
0.0
 20
0.0
 30
0.0
 70
     1
  0
VERTEX
  5
E4
  8
SCREW_LOCATION_MARKERS
 10
17.64688554049611
 20
24.68443401985747
 30
0.0
 42
0.4142135623730951
  0
VERTEX
  5
E5
  8
SCREW_LOCATION_MARKERS
 10
17.51688554049611
 20
24.55443401985747
 30
0.0
 42
0.4142135623730951
  0
VERTEX
  5
E6
  8
SCREW_LOCATION_MARKERS
 10
17.64688554049611
 20
24.42443401985748
 30
0.0
 42
0.4142135623730951
  0
VERTEX
  5
E7
  8
SCREW_LOCATION_MARKERS
 10
17.77688554049611
 20
24.55443401985747
 30
0.0
 42
0.4142135623730951
  0
SEQEND
  5
2C9
  8
SCREW_LOCATION_MARKERS
  0
POLYLINE
  5
80
  8
SCREW_LOCATION_MARKERS
 66
     1
 10
0.0
 20
0.0
 30
0.0
 70
     1
  0
VERTEX
  5
E8
  8
SCREW_LOCATION_MARKERS
 10
32.1468855404956
 20
24.68443401985747
 30
0.0
 42
0.4142135623730951
  0
VERTEX
  5
E9
  8
SCREW_LOCATION_MARKERS
 10
32.01688554049561
 20
24.55443401985747
 30
0.0
 42
0.4142135623730951
  0
VERTEX
  5
EA
  8
SCREW_LOCATION_MARKERS
 10
32.1468855404956
 20
24.42443401985748
 30
0.0
 42
0.4142135623730951
  0
VERTEX
  5
EB
  8
SCREW_LOCATION_MARKERS
 10
32.27688554049561
 20
24.55443401985747
 30
0.0
 42
0.4142135623730951
  0
SEQEND
  5
2CA
  8
SCREW_LOCATION_MARKERS
  0
POLYLINE
  5
81
  8
SCREW_LOCATION_MARKERS
 66
     1
 10
0.0
 20
0.0
 30
0.0
 70
     1
  0
VERTEX
  5
EC
  8
SCREW_LOCATION_MARKERS
 10
40.1468855404956
 20
24.68443401985747
 30
0.0
 42
0.4142135623730951
  0
VERTEX
  5
ED
  8
SCREW_LOCATION_MARKERS
 10
40.01688554049561
 20
24.55443401985747
 30
0.0
 42
0.4142135623730951
  0
VERTEX
  5
EE
  8
SCREW_LOCATION_MARKERS
 10
40.1468855404956
 20
24.42443401985748
 30
0.0
 42
0.4142135623730951
  0
VERTEX
  5
EF
  8
SCREW_LOCATION_MARKERS
 10
40.27688554049561
 20
24.55443401985747
 30
0.0
 42
0.4142135623730951
  0
SEQEND
  5
2CB
  8
SCREW_LOCATION_MARKERS
  0
POLYLINE
  5
82
  8
SCREW_LOCATION_MARKERS
 66
     1
 10
0.0
 20
0.0
 30
0.0
 70
     1
  0
VERTEX
  5
F0
  8
SCREW_LOCATION_MARKERS
 10
54.6393855404956
 20
24.68443401985774
 30
0.0
 42
0.4142135623730951
  0
VERTEX
  5
F1
  8
SCREW_LOCATION_MARKERS
 10
54.50938554049559
 20
24.55443401985774
 30
0.0
 42
0.4142135623730951
  0
VERTEX
  5
F2
  8
SCREW_LOCATION_MARKERS
 10
54.6393855404956
 20
24.42443401985773
 30
0.0
 42
0.4142135623730951
  0
VERTEX
  5
F3
  8
SCREW_LOCATION_MARKERS
 10
54.7693855404956
 20
24.55443401985774
 30
0.0
 42
0.4142135623730951
  0
SEQEND
  5
2CC
  8
SCREW_LOCATION_MARKERS
  0
POLYLINE
  5
83
  8
SCREW_LOCATION_MARKERS
 66
     1
 10
0.0
 20
0.0
 30
0.0
 70
     1
  0
VERTEX
  5
F4
  8
SCREW_LOCATION_MARKERS
 10
62.6393855404956
 20
24.68443401985774
 30
0.0
 42
0.4142135623730951
  0
VERTEX
  5
F5
  8
SCREW_LOCATION_MARKERS
 10
62.50938554049559
 20
24.55443401985774
 30
0.0
 42
0.4142135623730951
  0
VERTEX
  5
F6
  8
SCREW_LOCATION_MARKERS
 10
62.6393855404956
 20
24.42443401985773
 30
0.0
 42
0.4142135623730951
  0
VERTEX
  5
F7
  8
SCREW_LOCATION_MARKERS
 10
62.7693855404956
 20
24.55443401985774
 30
0.0
 42
0.4142135623730951
  0
SEQEND
  5
2CD
  8
SCREW_LOCATION_MARKERS
  0
POLYLINE
  5
84
  8
SCREW_LOCATION_MARKERS
 66
     1
 10
0.0
 20
0.0
 30
0.0
 70
     1
  0
VERTEX
  5
F8
  8
SCREW_LOCATION_MARKERS
 10
77.13938554049619
 20
24.68443401985774
 30
0.0
 42
0.4142135623730951
  0
VERTEX
  5
F9
  8
SCREW_LOCATION_MARKERS
 10
77.0093855404962
 20
24.55443401985774
 30
0.0
 42
0.4142135623730951
  0
VERTEX
  5
FA
  8
SCREW_LOCATION_MARKERS
 10
77.13938554049619
 20
24.42443401985773
 30
0.0
 42
0.4142135623730951
  0
VERTEX
  5
FB
  8
SCREW_LOCATION_MARKERS
 10
77.26938554049619
 20
24.55443401985774
 30
0.0
 42
0.4142135623730951
  0
SEQEND
  5
2CE
  8
SCREW_LOCATION_MARKERS
  0
POLYLINE
  5
85
  8
SCREW_LOCATION_MARKERS
 66
     1
 10
0.0
 20
0.0
 30
0.0
 70
     1
  0
VERTEX
  5
FC
  8
SCREW_LOCATION_MARKERS
 10
85.13938554049619
 20
24.68443401985774
 30
0.0
 42
0.4142135623730951
  0
VERTEX
  5
FD
  8
SCREW_LOCATION_MARKERS
 10
85.0093855404962
 20
24.55443401985774
 30
0.0
 42
0.4142135623730951
  0
VERTEX
  5
FE
  8
SCREW_LOCATION_MARKERS
 10
85.13938554049619
 20
24.42443401985773
 30
0.0
 42
0.4142135623730951
  0
VERTEX
  5
FF
  8
SCREW_LOCATION_MARKERS
 10
85.26938554049619
 20
24.55443401985774
 30
0.0
 42
0.4142135623730951
  0
SEQEND
  5
2CF
  8
SCREW_LOCATION_MARKERS
  0
POLYLINE
  5
86
  8
SCREW_LOCATION_MARKERS
 66
     1
 10
0.0
 20
0.0
 30
0.0
 70
     1
  0
VERTEX
  5
100
  8
SCREW_LOCATION_MARKERS
 10
2.999999999999993
 20
2.346079962428584
 30
0.0
 42
0.4142135623730951
  0
VERTEX
  5
101
  8
SCREW_LOCATION_MARKERS
 10
2.864999999999993
 20
2.211079962428584
 30
0.0
 42
0.4142135623730951
  0
VERTEX
  5
102
  8
SCREW_LOCATION_MARKERS
 10
2.999999999999993
 20
2.076079962428584
 30
0.0
 42
0.4142135623730951
  0
VERTEX
  5
103
  8
SCREW_LOCATION_MARKERS
 10
3.134999999999993
 20
2.211079962428584
 30
0.0
 42
0.4142135623730951
  0
SEQEND
  5
2D0
  8
SCREW_LOCATION_MARKERS
  0
POLYLINE
  5
87
  8
SCREW_LOCATION_MARKERS
 66
     1
 10
0.0
 20
0.0
 30
0.0
 70
     1
  0
VERTEX
  5
104
  8
SCREW_LOCATION_MARKERS
 10
25.50749999999999
 20
2.346079962428584
 30
0.0
 42
0.4142135623730951
  0
VERTEX
  5
105
  8
SCREW_LOCATION_MARKERS
 10
25.37249999999999
 20
2.211079962428584
 30
0.0
 42
0.4142135623730951
  0
VERTEX
  5
106
  8
SCREW_LOCATION_MARKERS
 10
25.50749999999999
 20
2.076079962428584
 30
0.0
 42
0.4142135623730951
  0
VERTEX
  5
107
  8
SCREW_LOCATION_MARKERS
 10
25.64249999999999
 20
2.211079962428584
 30
0.0
 42
0.4142135623730951
  0
SEQEND
  5
2D1
  8
SCREW_LOCATION_MARKERS
  0
POLYLINE
  5
88
  8
SCREW_LOCATION_MARKERS
 66
     1
 10
0.0
 20
0.0
 30
0.0
 70
     1
  0
VERTEX
  5
108
  8
SCREW_LOCATION_MARKERS
 10
47.99999999999999
 20
2.345979962428584
 30
0.0
 42
0.4142135623730951
  0
VERTEX
  5
109
  8
SCREW_LOCATION_MARKERS
 10
47.86499999999999
 20
2.210979962428584
 30
0.0
 42
0.4142135623730951
  0
VERTEX
  5
10A
  8
SCREW_LOCATION_MARKERS
 10
47.99999999999999
 20
2.075979962428584
 30
0.0
 42
0.4142135623730951
  0
VERTEX
  5
10B
  8
SCREW_LOCATION_MARKERS
 10
48.13499999999999
 20
2.210979962428584
 30
0.0
 42
0.4142135623730951
  0
SEQEND
  5
2D2
  8
SCREW_LOCATION_MARKERS
  0
POLYLINE
  5
89
  8
SCREW_LOCATION_MARKERS
 66
     1
 10
0.0
 20
0.0
 30
0.0
 70
     1
  0
VERTEX
  5
10C
  8
SCREW_LOCATION_MARKERS
 10
70.4925
 20
2.346079962428584
 30
0.0
 42
0.4142135623730951
  0
VERTEX
  5
10D
  8
SCREW_LOCATION_MARKERS
 10
70.35749999999999
 20
2.211079962428584
 30
0.0
 42
0.4142135623730951
  0
VERTEX
  5
10E
  8
SCREW_LOCATION_MARKERS
 10
70.4925
 20
2.076079962428584
 30
0.0
 42
0.4142135623730951
  0
VERTEX
  5
10F
  8
SCREW_LOCATION_MARKERS
 10
70.6275
 20
2.211079962428584
 30
0.0
 42
0.4142135623730951
  0
SEQEND
  5
2D3
  8
SCREW_LOCATION_MARKERS
  0
POLYLINE
  5
8A
  8
SCREW_LOCATION_MARKERS
 66
     1
 10
0.0
 20
0.0
 30
0.0
 70
     1
  0
VERTEX
  5
110
  8
SCREW_LOCATION_MARKERS
 10
93.0
 20
2.346079962428584
 30
0.0
 42
0.4142135623730951
  0
VERTEX
  5
111
  8
SCREW_LOCATION_MARKERS
 10
92.86499999999998
 20
2.211079962428584
 30
0.0
 42
0.4142135623730951
  0
VERTEX
  5
112
  8
SCREW_LOCATION_MARKERS
 10
93.0
 20
2.076079962428584
 30
0.0
 42
0.4142135623730951
  0
VERTEX
  5
113
  8
SCREW_LOCATION_MARKERS
 10
93.13499999999999
 20
2.211079962428584
 30
0.0
 42
0.4142135623730951
  0
SEQEND
  5
2D4
  8
SCREW_LOCATION_MARKERS
  0
POLYLINE
  5
8B
  8
SCREW_LOCATION_MARKERS
 66
     1
 10
0.0
 20
0.0
 30
0.0
 70
     1
  0
VERTEX
  5
114
  8
SCREW_LOCATION_MARKERS
 10
2.999999999999993
 20
6.03240532247966
 30
0.0
 42
0.4142135623730951
  0
VERTEX
  5
115
  8
SCREW_LOCATION_MARKERS
 10
2.864999999999993
 20
5.89740532247966
 30
0.0
 42
0.4142135623730951
  0
VERTEX
  5
116
  8
SCREW_LOCATION_MARKERS
 10
2.999999999999993
 20
5.76240532247966
 30
0.0
 42
0.4142135623730951
  0
VERTEX
  5
117
  8
SCREW_LOCATION_MARKERS
 10
3.134999999999993
 20
5.89740532247966
 30
0.0
 42
0.4142135623730951
  0
SEQEND
  5
2D5
  8
SCREW_LOCATION_MARKERS
  0
POLYLINE
  5
8C
  8
SCREW_LOCATION_MARKERS
 66
     1
 10
0.0
 20
0.0
 30
0.0
 70
     1
  0
VERTEX
  5
118
  8
SCREW_LOCATION_MARKERS
 10
25.50749999999999
 20
6.03240532247966
 30
0.0
 42
0.4142135623730951
  0
VERTEX
  5
119
  8
SCREW_LOCATION_MARKERS
 10
25.37249999999999
 20
5.89740532247966
 30
0.0
 42
0.4142135623730951
  0
VERTEX
  5
11A
  8
SCREW_LOCATION_MARKERS
 10
25.50749999999999
 20
5.76240532247966
 30
0.0
 42
0.4142135623730951
  0
VERTEX
  5
11B
  8
SCREW_LOCATION_MARKERS
 10
25.64249999999999
 20
5.89740532247966
 30
0.0
 42
0.4142135623730951
  0
SEQEND
  5
2D6
  8
SCREW_LOCATION_MARKERS
  0
POLYLINE
  5
8D
  8
SCREW_LOCATION_MARKERS
 66
     1
 10
0.0
 20
0.0
 30
0.0
 70
     1
  0
VERTEX
  5
11C
  8
SCREW_LOCATION_MARKERS
 10
47.99999999999999
 20
6.03230532247966
 30
0.0
 42
0.4142135623730951
  0
VERTEX
  5
11D
  8
SCREW_LOCATION_MARKERS
 10
47.86499999999999
 20
5.89730532247966
 30
0.0
 42
0.4142135623730951
  0
VERTEX
  5
11E
  8
SCREW_LOCATION_MARKERS
 10
47.99999999999999
 20
5.76230532247966
 30
0.0
 42
0.4142135623730951
  0
VERTEX
  5
11F
  8
SCREW_LOCATION_MARKERS
 10
48.13499999999999
 20
5.89730532247966
 30
0.0
 42
0.4142135623730951
  0
SEQEND
  5
2D7
  8
SCREW_LOCATION_MARKERS
  0
POLYLINE
  5
8E
  8
SCREW_LOCATION_MARKERS
 66
     1
 10
0.0
 20
0.0
 30
0.0
 70
     1
  0
VERTEX
  5
120
  8
SCREW_LOCATION_MARKERS
 10
70.4925
 20
6.03240532247966
 30
0.0
 42
0.4142135623730951
  0
VERTEX
  5
121
  8
SCREW_LOCATION_MARKERS
 10
70.35749999999999
 20
5.89740532247966
 30
0.0
 42
0.4142135623730951
  0
VERTEX
  5
122
  8
SCREW_LOCATION_MARKERS
 10
70.4925
 20
5.76240532247966
 30
0.0
 42
0.4142135623730951
  0
VERTEX
  5
123
  8
SCREW_LOCATION_MARKERS
 10
70.6275
 20
5.89740532247966
 30
0.0
 42
0.4142135623730951
  0
SEQEND
  5
2D8
  8
SCREW_LOCATION_MARKERS
  0
POLYLINE
  5
8F
  8
SCREW_LOCATION_MARKERS
 66
     1
 10
0.0
 20
0.0
 30
0.0
 70
     1
  0
VERTEX
  5
124
  8
SCREW_LOCATION_MARKERS
 10
93.0
 20
6.03240532247966
 30
0.0
 42
0.4142135623730951
  0
VERTEX
  5
125
  8
SCREW_LOCATION_MARKERS
 10
92.86499999999998
 20
5.89740532247966
 30
0.0
 42
0.4142135623730951
  0
VERTEX
  5
126
  8
SCREW_LOCATION_MARKERS
 10
93.0
 20
5.76240532247966
 30
0.0
 42
0.4142135623730951
  0
VERTEX
  5
127
  8
SCREW_LOCATION_MARKERS
 10
93.13499999999999
 20
5.89740532247966
 30
0.0
 42
0.4142135623730951
  0
SEQEND
  5
2D9
  8
SCREW_LOCATION_MARKERS
  0
POLYLINE
  5
91
  8
THRUCUT
 66
     1
 10
0.0
 20
0.0
 30
0.0
 70
     1
  0
VERTEX
  5
128
  8
THRUCUT
 10
37.06225617977528
 20
7.397346023789416
 30
0.0
  0
VERTEX
  5
129
  8
THRUCUT
 10
47.61999999999966
 20
7.39734602378967
 30
0.0
 42
-0.4142135623736434
  0
VERTEX
  5
12A
  8
THRUCUT
 10
47.74999999999965
 20
7.267346023789674
 30
0.0
  0
VERTEX
  5
12B
  8
THRUCUT
 10
47.74999999999965
 20
7.081193786898144
 30
0.0
 42
1.0
  0
VERTEX
  5
12C
  8
THRUCUT
 10
47.93384776310813
 20
6.89734602378967
 30
0.0
  0
VERTEX
  5
12D
  8
THRUCUT
 10
48.06615223689117
 20
6.89734602378967
 30
0.0
 42
1.0
  0
VERTEX
  5
12E
  8
THRUCUT
 10
48.24999999999965
 20
7.081193786898144
 30
0.0
  0
VERTEX
  5
12F
  8
THRUCUT
 10
48.24999999999965
 20
7.267346023789674
 30
0.0
 42
-0.4142135623732267
  0
VERTEX
  5
130
  8
THRUCUT
 10
48.37999999999964
 20
7.39734602378967
 30
0.0
  0
VERTEX
  5
131
  8
THRUCUT
 10
70.11249999999956
 20
7.397346023789158
 30
0.0
 42
-0.4142135623736434
  0
VERTEX
  5
132
  8
THRUCUT
 10
70.24249999999967
 20
7.267346023789163
 30
0.0
  0
VERTEX
  5
133
  8
THRUCUT
 10
70.24249999999967
 20
7.081193786897689
 30
0.0
 42
1.0
  0
VERTEX
  5
134
  8
THRUCUT
 10
70.42634776310803
 20
6.897346023789158
 30
0.0
  0
VERTEX
  5
135
  8
THRUCUT
 10
70.55865223689108
 20
6.897346023789158
 30
0.0
 42
1.0
  0
VERTEX
  5
136
  8
THRUCUT
 10
70.74249999999967
 20
7.081193786897689
 30
0.0
  0
VERTEX
  5
137
  8
THRUCUT
 10
70.74249999999967
 20
7.267346023789163
 30
0.0
 42
-0.4142135623732267
  0
VERTEX
  5
138
  8
THRUCUT
 10
70.87249999999955
 20
7.397346023789158
 30
0.0
  0
VERTEX
  5
139
  8
THRUCUT
 10
92.62000000000089
 20
7.397346023789666
 30
0.0
 42
-0.4142135623929817
  0
VERTEX
  5
13A
  8
THRUCUT
 10
92.75000000000088
 20
7.26734602379087
 30
0.0
  0
VERTEX
  5
13B
  8
THRUCUT
 10
92.75000000000261
 20
7.081193786898215
 30
0.0
 42
1.0
  0
VERTEX
  5
13C
  8
THRUCUT
 10
92.9338477631112
 20
6.897346023789684
 30
0.0
  0
VERTEX
  5
13D
  8
THRUCUT
 10
93.25000000000252
 20
6.897346023789623
 30
0.0
  0
VERTEX
  5
13E
  8
THRUCUT
 10
93.25000000000249
 20
4.89734602378968
 30
0.0
  0
VERTEX
  5
13F
  8
THRUCUT
 10
92.9338477631112
 20
4.897346023789686
 30
0.0
 42
1.0
  0
VERTEX
  5
140
  8
THRUCUT
 10
92.75000000000261
 20
4.713498260681212
 30
0.0
  0
VERTEX
  5
141
  8
THRUCUT
 10
92.75000000000094
 20
4.527346023788512
 30
0.0
 42
-0.4142135623571974
  0
VERTEX
  5
142
  8
THRUCUT
 10
92.62000000000094
 20
4.397346023789669
 30
0.0
  0
VERTEX
  5
143
  8
THRUCUT
 10
70.87249999999955
 20
4.397346023789245
 30
0.0
 42
-0.4142135623736935
  0
VERTEX
  5
144
  8
THRUCUT
 10
70.74249999999967
 20
4.527346023789212
 30
0.0
  0
VERTEX
  5
145
  8
THRUCUT
 10
70.74249999999967
 20
4.713498260680685
 30
0.0
 42
1.0
  0
VERTEX
  5
146
  8
THRUCUT
 10
70.55865223689108
 20
4.89734602378916
 30
0.0
  0
VERTEX
  5
147
  8
THRUCUT
 10
70.42634776310803
 20
4.89734602378916
 30
0.0
 42
1.0
  0
VERTEX
  5
148
  8
THRUCUT
 10
70.24249999999967
 20
4.713498260680685
 30
0.0
  0
VERTEX
  5
149
  8
THRUCUT
 10
70.24249999999967
 20
4.527346023789212
 30
0.0
 42
-0.4142135623747849
  0
VERTEX
  5
14A
  8
THRUCUT
 10
70.11249999999956
 20
4.397346023789245
 30
0.0
  0
VERTEX
  5
14B
  8
THRUCUT
 10
48.37999999999964
 20
4.3973460237897
 30
0.0
 42
-0.4142135623736935
  0
VERTEX
  5
14C
  8
THRUCUT
 10
48.24999999999965
 20
4.527346023789667
 30
0.0
  0
VERTEX
  5
14D
  8
THRUCUT
 10
48.24999999999965
 20
4.713498260681197
 30
0.0
 42
1.0
  0
VERTEX
  5
14E
  8
THRUCUT
 10
48.06615223689117
 20
4.897346023789671
 30
0.0
  0
VERTEX
  5
14F
  8
THRUCUT
 10
47.93384776310813
 20
4.897346023789671
 30
0.0
 42
1.0
  0
VERTEX
  5
150
  8
THRUCUT
 10
47.74999999999965
 20
4.713498260681197
 30
0.0
  0
VERTEX
  5
151
  8
THRUCUT
 10
47.74999999999965
 20
4.527346023789667
 30
0.0
 42
-0.4142135623747849
  0
VERTEX
  5
152
  8
THRUCUT
 10
47.61999999999966
 20
4.3973460237897
 30
0.0
  0
VERTEX
  5
153
  8
THRUCUT
 10
25.88750000000001
 20
4.397346023789248
 30
0.0
 42
-0.4142135623702022
  0
VERTEX
  5
154
  8
THRUCUT
 10
25.75750000000001
 20
4.52734602378913
 30
0.0
  0
VERTEX
  5
155
  8
THRUCUT
 10
25.75749999999984
 20
4.713498260680685
 30
0.0
 42
1.0
  0
VERTEX
  5
156
  8
THRUCUT
 10
25.57365223689137
 20
4.89734602378916
 30
0.0
  0
VERTEX
  5
157
  8
THRUCUT
 10
25.44134776310843
 20
4.89734602378916
 30
0.0
 42
1.0
  0
VERTEX
  5
158
  8
THRUCUT
 10
25.25749999999984
 20
4.713498260680685
 30
0.0
  0
VERTEX
  5
159
  8
THRUCUT
 10
25.25749999999812
 20
4.527346023788017
 30
0.0
 42
-0.4142135623674379
  0
VERTEX
  5
15A
  8
THRUCUT
 10
25.12749999999812
 20
4.397346023789218
 30
0.0
  0
VERTEX
  5
15B
  8
THRUCUT
 10
3.380000000000187
 20
4.397346023789471
 30
0.0
 42
-0.4142135623727946
  0
VERTEX
  5
15C
  8
THRUCUT
 10
3.250000000000189
 20
4.527346023789354
 30
0.0
  0
VERTEX
  5
15D
  8
THRUCUT
 10
3.250000000000021
 20
4.713498260680685
 30
0.0
 42
1.0
  0
VERTEX
  5
15E
  8
THRUCUT
 10
3.066152236891547
 20
4.89734602378916
 30
0.0
  0
VERTEX
  5
15F
  8
THRUCUT
 10
2.750000000001718
 20
4.89734602378916
 30
0.0
  0
VERTEX
  5
160
  8
THRUCUT
 10
2.75000000000172
 20
6.897346023789156
 30
0.0
  0
VERTEX
  5
161
  8
THRUCUT
 10
3.066152236891547
 20
6.897346023789158
 30
0.0
 42
1.0
  0
VERTEX
  5
162
  8
THRUCUT
 10
3.250000000000021
 20
7.081193786897689
 30
0.0
  0
VERTEX
  5
163
  8
THRUCUT
 10
3.250000000000189
 20
7.267346023789783
 30
0.0
 42
-0.4142135623729316
  0
VERTEX
  5
164
  8
THRUCUT
 10
3.380000000000192
 20
7.397346023789666
 30
0.0
  0
VERTEX
  5
165
  8
THRUCUT
 10
25.12749999999813
 20
7.397346023789147
 30
0.0
 42
-0.4142135623708788
  0
VERTEX
  5
166
  8
THRUCUT
 10
25.25749999999812
 20
7.267346023790347
 30
0.0
  0
VERTEX
  5
167
  8
THRUCUT
 10
25.25749999999984
 20
7.081193786897689
 30
0.0
 42
1.0
  0
VERTEX
  5
168
  8
THRUCUT
 10
25.44134776310843
 20
6.897346023789158
 30
0.0
  0
VERTEX
  5
169
  8
THRUCUT
 10
25.57365223689137
 20
6.897346023789158
 30
0.0
 42
1.0
  0
VERTEX
  5
16A
  8
THRUCUT
 10
25.75749999999984
 20
7.081193786897689
 30
0.0
  0
VERTEX
  5
16B
  8
THRUCUT
 10
25.75750000000001
 20
7.26734602378968
 30
0.0
 42
-0.4142135623697945
  0
VERTEX
  5
16C
  8
THRUCUT
 10
25.88750000000011
 20
7.397346023789564
 30
0.0
  0
VERTEX
  5
16D
  8
THRUCUT
 10
26.38749999999984
 20
7.397346023789158
 30
0.0
  0
SEQEND
  5
2DA
  8
THRUCUT
  0
POLYLINE
  5
92
  8
THRUCUT
 66
     1
 10
0.0
 20
0.0
 30
0.0
 70
     1
  0
VERTEX
  5
16E
  8
THRUCUT
 10
37.21326741573034
 20
3.711020663738342
 30
0.0
  0
VERTEX
  5
16F
  8
THRUCUT
 10
47.61999999999966
 20
3.711020663738593
 30
0.0
 42
-0.4142135623736434
  0
VERTEX
  5
170
  8
THRUCUT
 10
47.74999999999965
 20
3.581020663738598
 30
0.0
  0
VERTEX
  5
171
  8
THRUCUT
 10
47.74999999999965
 20
3.394868426847068
 30
0.0
 42
1.0
  0
VERTEX
  5
172
  8
THRUCUT
 10
47.93384776310813
 20
3.211020663738594
 30
0.0
  0
VERTEX
  5
173
  8
THRUCUT
 10
48.06615223689117
 20
3.211020663738594
 30
0.0
 42
1.0
  0
VERTEX
  5
174
  8
THRUCUT
 10
48.24999999999965
 20
3.394868426847068
 30
0.0
  0
VERTEX
  5
175
  8
THRUCUT
 10
48.24999999999965
 20
3.581020663738598
 30
0.0
 42
-0.4142135623732267
  0
VERTEX
  5
176
  8
THRUCUT
 10
48.37999999999964
 20
3.711020663738593
 30
0.0
  0
VERTEX
  5
177
  8
THRUCUT
 10
70.11249999999956
 20
3.711020663738081
 30
0.0
 42
-0.4142135623736434
  0
VERTEX
  5
178
  8
THRUCUT
 10
70.24249999999967
 20
3.581020663738086
 30
0.0
  0
VERTEX
  5
179
  8
THRUCUT
 10
70.24249999999967
 20
3.394868426846613
 30
0.0
 42
1.0
  0
VERTEX
  5
17A
  8
THRUCUT
 10
70.42634776310803
 20
3.211020663738082
 30
0.0
  0
VERTEX
  5
17B
  8
THRUCUT
 10
70.55865223689108
 20
3.211020663738082
 30
0.0
 42
1.0
  0
VERTEX
  5
17C
  8
THRUCUT
 10
70.74249999999967
 20
3.394868426846613
 30
0.0
  0
VERTEX
  5
17D
  8
THRUCUT
 10
70.74249999999967
 20
3.581020663738086
 30
0.0
 42
-0.4142135623732267
  0
VERTEX
  5
17E
  8
THRUCUT
 10
70.87249999999955
 20
3.711020663738081
 30
0.0
  0
VERTEX
  5
17F
  8
THRUCUT
 10
92.62000000000089
 20
3.711020663738589
 30
0.0
 42
-0.4142135623929817
  0
VERTEX
  5
180
  8
THRUCUT
 10
92.75000000000088
 20
3.581020663739793
 30
0.0
  0
VERTEX
  5
181
  8
THRUCUT
 10
92.75000000000261
 20
3.394868426847139
 30
0.0
 42
1.0
  0
VERTEX
  5
182
  8
THRUCUT
 10
92.9338477631112
 20
3.211020663738608
 30
0.0
  0
VERTEX
  5
183
  8
THRUCUT
 10
93.25000000000244
 20
3.211020663738623
 30
0.0
  0
VERTEX
  5
184
  8
THRUCUT
 10
93.25000000000243
 20
1.211020663738609
 30
0.0
  0
VERTEX
  5
185
  8
THRUCUT
 10
92.9338477631112
 20
1.211020663738609
 30
0.0
 42
1.0
  0
VERTEX
  5
186
  8
THRUCUT
 10
92.75000000000261
 20
1.027172900630135
 30
0.0
  0
VERTEX
  5
187
  8
THRUCUT
 10
92.75000000000094
 20
0.8410206637374359
 30
0.0
 42
-0.4142135623571974
  0
VERTEX
  5
188
  8
THRUCUT
 10
92.62000000000094
 20
0.7110206637385924
 30
0.0
  0
VERTEX
  5
189
  8
THRUCUT
 10
70.87249999999955
 20
0.7110206637381687
 30
0.0
 42
-0.4142135623736935
  0
VERTEX
  5
18A
  8
THRUCUT
 10
70.74249999999967
 20
0.8410206637381358
 30
0.0
  0
VERTEX
  5
18B
  8
THRUCUT
 10
70.74249999999967
 20
1.027172900629609
 30
0.0
 42
1.0
  0
VERTEX
  5
18C
  8
THRUCUT
 10
70.55865223689108
 20
1.211020663738083
 30
0.0
  0
VERTEX
  5
18D
  8
THRUCUT
 10
70.42634776310803
 20
1.211020663738083
 30
0.0
 42
1.0
  0
VERTEX
  5
18E
  8
THRUCUT
 10
70.24249999999967
 20
1.027172900629609
 30
0.0
  0
VERTEX
  5
18F
  8
THRUCUT
 10
70.24249999999967
 20
0.8410206637381358
 30
0.0
 42
-0.4142135623747849
  0
VERTEX
  5
190
  8
THRUCUT
 10
70.11249999999956
 20
0.7110206637381687
 30
0.0
  0
VERTEX
  5
191
  8
THRUCUT
 10
48.37999999999964
 20
0.7110206637386235
 30
0.0
 42
-0.4142135623736935
  0
VERTEX
  5
192
  8
THRUCUT
 10
48.24999999999965
 20
0.8410206637385905
 30
0.0
  0
VERTEX
  5
193
  8
THRUCUT
 10
48.24999999999965
 20
1.027172900630121
 30
0.0
 42
1.0
  0
VERTEX
  5
194
  8
THRUCUT
 10
48.06615223689117
 20
1.211020663738595
 30
0.0
  0
VERTEX
  5
195
  8
THRUCUT
 10
47.93384776310813
 20
1.211020663738595
 30
0.0
 42
1.0
  0
VERTEX
  5
196
  8
THRUCUT
 10
47.74999999999965
 20
1.027172900630121
 30
0.0
  0
VERTEX
  5
197
  8
THRUCUT
 10
47.74999999999965
 20
0.8410206637385905
 30
0.0
 42
-0.4142135623747849
  0
VERTEX
  5
198
  8
THRUCUT
 10
47.61999999999966
 20
0.7110206637386235
 30
0.0
  0
VERTEX
  5
199
  8
THRUCUT
 10
25.88750000000001
 20
0.7110206637381714
 30
0.0
 42
-0.4142135623702022
  0
VERTEX
  5
19A
  8
THRUCUT
 10
25.75750000000001
 20
0.8410206637380545
 30
0.0
  0
VERTEX
  5
19B
  8
THRUCUT
 10
25.75749999999984
 20
1.027172900629609
 30
0.0
 42
1.0
  0
VERTEX
  5
19C
  8
THRUCUT
 10
25.57365223689137
 20
1.211020663738083
 30
0.0
  0
VERTEX
  5
19D
  8
THRUCUT
 10
25.44134776310843
 20
1.211020663738083
 30
0.0
 42
1.0
  0
VERTEX
  5
19E
  8
THRUCUT
 10
25.25749999999984
 20
1.027172900629609
 30
0.0
  0
VERTEX
  5
19F
  8
THRUCUT
 10
25.25749999999812
 20
0.8410206637369407
 30
0.0
 42
-0.4142135623674379
  0
VERTEX
  5
1A0
  8
THRUCUT
 10
25.12749999999812
 20
0.7110206637381421
 30
0.0
  0
VERTEX
  5
1A1
  8
THRUCUT
 10
3.380000000000187
 20
0.7110206637383948
 30
0.0
 42
-0.4142135623727946
  0
VERTEX
  5
1A2
  8
THRUCUT
 10
3.250000000000189
 20
0.8410206637382779
 30
0.0
  0
VERTEX
  5
1A3
  8
THRUCUT
 10
3.250000000000021
 20
1.027172900629609
 30
0.0
 42
1.0
  0
VERTEX
  5
1A4
  8
THRUCUT
 10
3.066152236891547
 20
1.211020663738083
 30
0.0
  0
VERTEX
  5
1A5
  8
THRUCUT
 10
2.750000000001719
 20
1.211020663738083
 30
0.0
  0
VERTEX
  5
1A6
  8
THRUCUT
 10
2.750000000001719
 20
3.211020663738083
 30
0.0
  0
VERTEX
  5
1A7
  8
THRUCUT
 10
3.066152236891547
 20
3.211020663738082
 30
0.0
 42
1.0
  0
VERTEX
  5
1A8
  8
THRUCUT
 10
3.250000000000021
 20
3.394868426846613
 30
0.0
  0
VERTEX
  5
1A9
  8
THRUCUT
 10
3.250000000000189
 20
3.581020663738706
 30
0.0
 42
-0.4142135623729316
  0
VERTEX
  5
1AA
  8
THRUCUT
 10
3.380000000000192
 20
3.711020663738589
 30
0.0
  0
VERTEX
  5
1AB
  8
THRUCUT
 10
25.12749999999813
 20
3.711020663738071
 30
0.0
 42
-0.4142135623708788
  0
VERTEX
  5
1AC
  8
THRUCUT
 10
25.25749999999812
 20
3.581020663739272
 30
0.0
  0
VERTEX
  5
1AD
  8
THRUCUT
 10
25.25749999999984
 20
3.394868426846613
 30
0.0
 42
1.0
  0
VERTEX
  5
1AE
  8
THRUCUT
 10
25.44134776310843
 20
3.211020663738082
 30
0.0
  0
VERTEX
  5
1AF
  8
THRUCUT
 10
25.57365223689137
 20
3.211020663738082
 30
0.0
 42
1.0
  0
VERTEX
  5
1B0
  8
THRUCUT
 10
25.75749999999984
 20
3.394868426846613
 30
0.0
  0
VERTEX
  5
1B1
  8
THRUCUT
 10
25.75750000000001
 20
3.581020663738605
 30
0.0
 42
-0.4142135623697945
  0
VERTEX
  5
1B2
  8
THRUCUT
 10
25.88750000000011
 20
3.711020663738487
 30
0.0
  0
VERTEX
  5
1B3
  8
THRUCUT
 10
26.38749999999984
 20
3.711020663738081
 30
0.0
  0
SEQEND
  5
2DB
  8
THRUCUT
  0
POLYLINE
  5
93
  8
THRUCUT
 66
     1
 10
0.0
 20
0.0
 30
0.0
 70
     1
  0
VERTEX
  5
1B4
  8
THRUCUT
 10
36.68472808988764
 20
15.17560920043955
 30
0.0
  0
VERTEX
  5
1B5
  8
THRUCUT
 10
47.61999999999875
 20
15.17560920043981
 30
0.0
 42
-0.4142135623967204
  0
VERTEX
  5
1B6
  8
THRUCUT
 10
47.74999999999875
 20
15.04560920043982
 30
0.0
  0
VERTEX
  5
1B7
  8
THRUCUT
 10
47.74999999999881
 20
13.43560920043982
 30
0.0
 42
1.0
  0
VERTEX
  5
1B8
  8
THRUCUT
 10
47.74999999999883
 20
13.17560920043981
 30
0.0
  0
VERTEX
  5
1B9
  8
THRUCUT
 10
48.24999999999883
 20
13.17560920043981
 30
0.0
 42
1.0
  0
VERTEX
  5
1BA
  8
THRUCUT
 10
48.24999999999883
 20
13.43560920043982
 30
0.0
  0
VERTEX
  5
1BB
  8
THRUCUT
 10
48.24999999999887
 20
15.04560920043981
 30
0.0
 42
-0.414213562345812
  0
VERTEX
  5
1BC
  8
THRUCUT
 10
48.37999999999889
 20
15.17560920043981
 30
0.0
  0
VERTEX
  5
1BD
  8
THRUCUT
 10
59.40067741817268
 20
15.17560920043955
 30
0.0
  0
VERTEX
  5
1BE
  8
THRUCUT
 10
70.11249999999902
 20
15.17560920043929
 30
0.0
 42
-0.4142135623843519
  0
VERTEX
  5
1BF
  8
THRUCUT
 10
70.24249999999901
 20
15.0456092004393
 30
0.0
  0
VERTEX
  5
1C0
  8
THRUCUT
 10
70.24249999999901
 20
13.4356092004393
 30
0.0
 42
1.0
  0
VERTEX
  5
1C1
  8
THRUCUT
 10
70.24249999999901
 20
13.1756092004393
 30
0.0
  0
VERTEX
  5
1C2
  8
THRUCUT
 10
70.74249999999901
 20
13.1756092004393
 30
0.0
 42
1.0
  0
VERTEX
  5
1C3
  8
THRUCUT
 10
70.74249999999901
 20
13.4356092004393
 30
0.0
  0
VERTEX
  5
1C4
  8
THRUCUT
 10
70.74249999999901
 20
15.0456092004393
 30
0.0
 42
-0.4142135623535799
  0
VERTEX
  5
1C5
  8
THRUCUT
 10
70.87249999999901
 20
15.17560920043929
 30
0.0
  0
VERTEX
  5
1C6
  8
THRUCUT
 10
92.62
 20
15.17560920043981
 30
0.0
 42
-0.4142135623981962
  0
VERTEX
  5
1C7
  8
THRUCUT
 10
92.75
 20
15.04560920043981
 30
0.0
  0
VERTEX
  5
1C8
  8
THRUCUT
 10
92.75000000000003
 20
13.43560920043982
 30
0.0
 42
1.0
  0
VERTEX
  5
1C9
  8
THRUCUT
 10
92.74999999996737
 20
13.17560920043981
 30
0.0
  0
VERTEX
  5
1CA
  8
THRUCUT
 10
93.75
 20
13.17560920043981
 30
0.0
 42
1.0
  0
VERTEX
  5
1CB
  8
THRUCUT
 10
93.75
 20
13.43560920043982
 30
0.0
  0
VERTEX
  5
1CC
  8
THRUCUT
 10
93.74999999999997
 20
15.04560920043981
 30
0.0
 42
-0.414213562423721
  0
VERTEX
  5
1CD
  8
THRUCUT
 10
93.87999999999997
 20
15.17560920043981
 30
0.0
  0
VERTEX
  5
1CE
  8
THRUCUT
 10
93.9543624161075
 20
15.17560920043981
 30
0.0
  0
VERTEX
  5
1CF
  8
THRUCUT
 10
94.39308200000042
 20
15.17560920043967
 30
0.0
 42
-0.4142135623731007
  0
VERTEX
  5
1D0
  8
THRUCUT
 10
95.39308200000042
 20
14.17560920043967
 30
0.0
  0
VERTEX
  5
1D1
  8
THRUCUT
 10
95.39308200000022
 20
11.17560920042247
 30
0.0
 42
-0.4142135572611445
  0
VERTEX
  5
1D2
  8
THRUCUT
 10
92.39308202630068
 20
8.175609200439839
 30
0.0
  0
VERTEX
  5
1D3
  8
THRUCUT
 10
3.606917973820003
 20
8.175609200439839
 30
0.0
 42
-0.4142135572611445
  0
VERTEX
  5
1D4
  8
THRUCUT
 10
0.6069179999998084
 20
11.17560920042247
 30
0.0
  0
VERTEX
  5
1D5
  8
THRUCUT
 10
0.6069179999995811
 20
14.17560920043967
 30
0.0
 42
-0.4142135623731007
  0
VERTEX
  5
1D6
  8
THRUCUT
 10
1.606918000000036
 20
15.17560920043981
 30
0.0
  0
VERTEX
  5
1D7
  8
THRUCUT
 10
2.12000000000009
 20
15.17560920043981
 30
0.0
 42
-0.4142135623741676
  0
VERTEX
  5
1D8
  8
THRUCUT
 10
2.250000000000085
 20
15.04560920043979
 30
0.0
  0
VERTEX
  5
1D9
  8
THRUCUT
 10
2.249999999999858
 20
13.43560920043982
 30
0.0
 42
1.0
  0
VERTEX
  5
1DA
  8
THRUCUT
 10
2.249999999999858
 20
13.17560920043981
 30
0.0
  0
VERTEX
  5
1DB
  8
THRUCUT
 10
3.250000000000654
 20
13.17560920043981
 30
0.0
 42
1.0
  0
VERTEX
  5
1DC
  8
THRUCUT
 10
3.249999999999744
 20
13.43560920043982
 30
0.0
  0
VERTEX
  5
1DD
  8
THRUCUT
 10
3.249999999999744
 20
15.0456092004398
 30
0.0
 42
-0.4142135623617773
  0
VERTEX
  5
1DE
  8
THRUCUT
 10
3.37999999999974
 20
15.17560920043981
 30
0.0
  0
VERTEX
  5
1DF
  8
THRUCUT
 10
25.1274999999992
 20
15.17560920043929
 30
0.0
 42
-0.4142135623737483
  0
VERTEX
  5
1E0
  8
THRUCUT
 10
25.2574999999992
 20
15.0456092004393
 30
0.0
  0
VERTEX
  5
1E1
  8
THRUCUT
 10
25.25749999999926
 20
13.4356092004393
 30
0.0
 42
1.0
  0
VERTEX
  5
1E2
  8
THRUCUT
 10
25.25749999999926
 20
13.1756092004393
 30
0.0
  0
VERTEX
  5
1E3
  8
THRUCUT
 10
25.75749999999926
 20
13.1756092004393
 30
0.0
 42
1.0
  0
VERTEX
  5
1E4
  8
THRUCUT
 10
25.75749999999926
 20
13.4356092004393
 30
0.0
  0
VERTEX
  5
1E5
  8
THRUCUT
 10
25.7574999999992
 20
15.04560920043929
 30
0.0
 42
-0.4142135623756308
  0
VERTEX
  5
1E6
  8
THRUCUT
 10
25.8874999999992
 20
15.17560920043929
 30
0.0
  0
SEQEND
  5
2DC
  8
THRUCUT
  0
POLYLINE
  5
94
  8
THRUCUT
 66
     1
 10
0.0
 20
0.0
 30
0.0
 70
     1
  0
VERTEX
  5
1E7
  8
THRUCUT
 10
36.60922247191012
 20
22.99936229609015
 30
0.0
  0
VERTEX
  5
1E8
  8
THRUCUT
 10
47.61999999999875
 20
22.99936229609041
 30
0.0
 42
-0.4142135623967204
  0
VERTEX
  5
1E9
  8
THRUCUT
 10
47.74999999999875
 20
22.86936229609042
 30
0.0
  0
VERTEX
  5
1EA
  8
THRUCUT
 10
47.74999999999881
 20
21.25936229609041
 30
0.0
 42
1.0
  0
VERTEX
  5
1EB
  8
THRUCUT
 10
47.74999999999883
 20
20.9993622960904
 30
0.0
  0
VERTEX
  5
1EC
  8
THRUCUT
 10
48.24999999999883
 20
20.9993622960904
 30
0.0
 42
1.0
  0
VERTEX
  5
1ED
  8
THRUCUT
 10
48.24999999999883
 20
21.25936229609041
 30
0.0
  0
VERTEX
  5
1EE
  8
THRUCUT
 10
48.24999999999887
 20
22.8693622960904
 30
0.0
 42
-0.414213562345812
  0
VERTEX
  5
1EF
  8
THRUCUT
 10
48.37999999999889
 20
22.99936229609041
 30
0.0
  0
VERTEX
  5
1F0
  8
THRUCUT
 10
59.40067741817268
 20
22.99936229609014
 30
0.0
  0
VERTEX
  5
1F1
  8
THRUCUT
 10
70.11249999999902
 20
22.9993622960899
 30
0.0
 42
-0.4142135623843519
  0
VERTEX
  5
1F2
  8
THRUCUT
 10
70.24249999999901
 20
22.86936229608989
 30
0.0
  0
VERTEX
  5
1F3
  8
THRUCUT
 10
70.24249999999901
 20
21.2593622960899
 30
0.0
 42
1.0
  0
VERTEX
  5
1F4
  8
THRUCUT
 10
70.24249999999901
 20
20.9993622960899
 30
0.0
  0
VERTEX
  5
1F5
  8
THRUCUT
 10
70.74249999999901
 20
20.9993622960899
 30
0.0
 42
1.0
  0
VERTEX
  5
1F6
  8
THRUCUT
 10
70.74249999999901
 20
21.2593622960899
 30
0.0
  0
VERTEX
  5
1F7
  8
THRUCUT
 10
70.74249999999901
 20
22.86936229608989
 30
0.0
 42
-0.4142135623535799
  0
VERTEX
  5
1F8
  8
THRUCUT
 10
70.87249999999901
 20
22.9993622960899
 30
0.0
  0
VERTEX
  5
1F9
  8
THRUCUT
 10
92.62
 20
22.99936229609041
 30
0.0
 42
-0.4142135623981962
  0
VERTEX
  5
1FA
  8
THRUCUT
 10
92.75
 20
22.8693622960904
 30
0.0
  0
VERTEX
  5
1FB
  8
THRUCUT
 10
92.75000000000003
 20
21.25936229609041
 30
0.0
 42
1.0
  0
VERTEX
  5
1FC
  8
THRUCUT
 10
92.74999999996737
 20
20.9993622960904
 30
0.0
  0
VERTEX
  5
1FD
  8
THRUCUT
 10
93.75
 20
20.9993622960904
 30
0.0
 42
1.0
  0
VERTEX
  5
1FE
  8
THRUCUT
 10
93.75
 20
21.25936229609041
 30
0.0
  0
VERTEX
  5
1FF
  8
THRUCUT
 10
93.74999999999997
 20
22.8693622960904
 30
0.0
 42
-0.414213562423721
  0
VERTEX
  5
200
  8
THRUCUT
 10
93.87999999999997
 20
22.99936229609041
 30
0.0
  0
VERTEX
  5
201
  8
THRUCUT
 10
93.9543624161075
 20
22.99936229609041
 30
0.0
  0
VERTEX
  5
202
  8
THRUCUT
 10
94.39308200000042
 20
22.99936229609026
 30
0.0
 42
-0.4142135623731007
  0
VERTEX
  5
203
  8
THRUCUT
 10
95.39308200000042
 20
21.99936229609026
 30
0.0
  0
VERTEX
  5
204
  8
THRUCUT
 10
95.39308200000022
 20
18.99936229607307
 30
0.0
 42
-0.4142135572611445
  0
VERTEX
  5
205
  8
THRUCUT
 10
92.39308202630068
 20
15.99936229609043
 30
0.0
  0
VERTEX
  5
206
  8
THRUCUT
 10
3.606917973820003
 20
15.99936229609043
 30
0.0
 42
-0.4142135572611445
  0
VERTEX
  5
207
  8
THRUCUT
 10
0.6069179999998084
 20
18.99936229607307
 30
0.0
  0
VERTEX
  5
208
  8
THRUCUT
 10
0.6069179999995811
 20
21.99936229609026
 30
0.0
 42
-0.4142135623731007
  0
VERTEX
  5
209
  8
THRUCUT
 10
1.606918000000036
 20
22.99936229609041
 30
0.0
  0
VERTEX
  5
20A
  8
THRUCUT
 10
2.12000000000009
 20
22.99936229609041
 30
0.0
 42
-0.4142135623741676
  0
VERTEX
  5
20B
  8
THRUCUT
 10
2.250000000000085
 20
22.86936229609038
 30
0.0
  0
VERTEX
  5
20C
  8
THRUCUT
 10
2.249999999999858
 20
21.25936229609041
 30
0.0
 42
1.0
  0
VERTEX
  5
20D
  8
THRUCUT
 10
2.249999999999858
 20
20.9993622960904
 30
0.0
  0
VERTEX
  5
20E
  8
THRUCUT
 10
3.250000000000654
 20
20.9993622960904
 30
0.0
 42
1.0
  0
VERTEX
  5
20F
  8
THRUCUT
 10
3.249999999999744
 20
21.25936229609041
 30
0.0
  0
VERTEX
  5
210
  8
THRUCUT
 10
3.249999999999744
 20
22.8693622960904
 30
0.0
 42
-0.4142135623617773
  0
VERTEX
  5
211
  8
THRUCUT
 10
3.37999999999974
 20
22.99936229609041
 30
0.0
  0
VERTEX
  5
212
  8
THRUCUT
 10
25.1274999999992
 20
22.9993622960899
 30
0.0
 42
-0.4142135623737483
  0
VERTEX
  5
213
  8
THRUCUT
 10
25.2574999999992
 20
22.86936229608989
 30
0.0
  0
VERTEX
  5
214
  8
THRUCUT
 10
25.25749999999926
 20
21.2593622960899
 30
0.0
 42
1.0
  0
VERTEX
  5
215
  8
THRUCUT
 10
25.25749999999926
 20
20.9993622960899
 30
0.0
  0
VERTEX
  5
216
  8
THRUCUT
 10
25.75749999999926
 20
20.9993622960899
 30
0.0
 42
1.0
  0
VERTEX
  5
217
  8
THRUCUT
 10
25.75749999999926
 20
21.2593622960899
 30
0.0
  0
VERTEX
  5
218
  8
THRUCUT
 10
25.7574999999992
 20
22.86936229608989
 30
0.0
 42
-0.4142135623756308
  0
VERTEX
  5
219
  8
THRUCUT
 10
25.8874999999992
 20
22.9993622960899
 30
0.0
  0
SEQEND
  5
2DD
  8
THRUCUT
  0
POLYLINE
  5
95
  8
THRUCUT
 66
     1
 10
0.0
 20
0.0
 30
0.0
 70
     1
  0
VERTEX
  5
21A
  8
THRUCUT
 10
70.13559543469978
 20
34.28449390704736
 30
0.0
  0
VERTEX
  5
21B
  8
THRUCUT
 10
70.13559543469978
 20
36.76449390704738
 30
0.0
 42
1.0
  0
VERTEX
  5
21C
  8
THRUCUT
 10
70.13559543469978
 20
37.02449390704737
 30
0.0
  0
VERTEX
  5
21D
  8
THRUCUT
 10
69.63561211325128
 20
37.02449390704737
 30
0.0
 42
1.0
  0
VERTEX
  5
21E
  8
THRUCUT
 10
69.63561211325128
 20
36.76449390704738
 30
0.0
  0
VERTEX
  5
21F
  8
THRUCUT
 10
69.63561211325128
 20
34.28449390704736
 30
0.0
 42
1.0
  0
VERTEX
  5
220
  8
THRUCUT
 10
69.63561211325128
 20
34.02449390704737
 30
0.0
  0
VERTEX
  5
221
  8
THRUCUT
 10
70.13559543469978
 20
34.02449390704737
 30
0.0
 42
1.0
  0
SEQEND
  5
2DE
  8
THRUCUT
  0
POLYLINE
  5
96
  8
THRUCUT
 66
     1
 10
0.0
 20
0.0
 30
0.0
 70
     1
  0
VERTEX
  5
222
  8
THRUCUT
 10
47.64309543470023
 20
34.28449390704748
 30
0.0
  0
VERTEX
  5
223
  8
THRUCUT
 10
47.64309543470023
 20
36.76449390704749
 30
0.0
 42
1.0
  0
VERTEX
  5
224
  8
THRUCUT
 10
47.64309543470023
 20
37.02449390704749
 30
0.0
  0
VERTEX
  5
225
  8
THRUCUT
 10
47.14311211325167
 20
37.02449390704749
 30
0.0
 42
1.0
  0
VERTEX
  5
226
  8
THRUCUT
 10
47.14311211325167
 20
36.76449390704749
 30
0.0
  0
VERTEX
  5
227
  8
THRUCUT
 10
47.14311211325167
 20
34.28449390704748
 30
0.0
 42
1.0
  0
VERTEX
  5
228
  8
THRUCUT
 10
47.14311211325167
 20
34.02449390704749
 30
0.0
  0
VERTEX
  5
229
  8
THRUCUT
 10
47.64309543470023
 20
34.02449390704749
 30
0.0
 42
1.0
  0
SEQEND
  5
2DF
  8
THRUCUT
  0
POLYLINE
  5
97
  8
THRUCUT
 66
     1
 10
0.0
 20
0.0
 30
0.0
 70
     1
  0
VERTEX
  5
22A
  8
THRUCUT
 10
25.15059543470005
 20
34.28449390704759
 30
0.0
  0
VERTEX
  5
22B
  8
THRUCUT
 10
25.15059543470005
 20
36.7644939070476
 30
0.0
 42
1.0
  0
VERTEX
  5
22C
  8
THRUCUT
 10
25.15059543470005
 20
37.02449390704761
 30
0.0
  0
VERTEX
  5
22D
  8
THRUCUT
 10
24.65061211325155
 20
37.02449390704761
 30
0.0
 42
1.0
  0
VERTEX
  5
22E
  8
THRUCUT
 10
24.65061211325155
 20
36.7644939070476
 30
0.0
  0
VERTEX
  5
22F
  8
THRUCUT
 10
24.65061211325155
 20
34.28449390704759
 30
0.0
 42
1.0
  0
VERTEX
  5
230
  8
THRUCUT
 10
24.65061211325155
 20
34.02449390704761
 30
0.0
  0
VERTEX
  5
231
  8
THRUCUT
 10
25.15059543470005
 20
34.02449390704761
 30
0.0
 42
1.0
  0
SEQEND
  5
2E0
  8
THRUCUT
  0
POLYLINE
  5
98
  8
THRUCUT
 66
     1
 10
0.0
 20
0.0
 30
0.0
 70
     1
  0
VERTEX
  5
232
  8
THRUCUT
 10
11.99997596389957
 20
12.30558349685554
 30
0.0
 42
0.4142135623730951
  0
VERTEX
  5
233
  8
THRUCUT
 10
11.86997596389955
 20
12.17558349685554
 30
0.0
 42
0.4142135623730951
  0
VERTEX
  5
234
  8
THRUCUT
 10
11.99997596389957
 20
12.04558349685555
 30
0.0
 42
0.4142135623730951
  0
VERTEX
  5
235
  8
THRUCUT
 10
12.12997596389956
 20
12.17558349685554
 30
0.0
 42
0.4142135623730951
  0
SEQEND
  5
2E1
  8
THRUCUT
  0
POLYLINE
  5
99
  8
THRUCUT
 66
     1
 10
0.0
 20
0.0
 30
0.0
 70
     1
  0
VERTEX
  5
236
  8
THRUCUT
 10
35.99997596389956
 20
12.30558349685554
 30
0.0
 42
0.4142135623730951
  0
VERTEX
  5
237
  8
THRUCUT
 10
35.86997596389955
 20
12.17558349685554
 30
0.0
 42
0.4142135623730951
  0
VERTEX
  5
238
  8
THRUCUT
 10
35.99997596389956
 20
12.04558349685555
 30
0.0
 42
0.4142135623730951
  0
VERTEX
  5
239
  8
THRUCUT
 10
36.12997596389957
 20
12.17558349685554
 30
0.0
 42
0.4142135623730951
  0
SEQEND
  5
2E2
  8
THRUCUT
  0
POLYLINE
  5
9A
  8
THRUCUT
 66
     1
 10
0.0
 20
0.0
 30
0.0
 70
     1
  0
VERTEX
  5
23A
  8
THRUCUT
 10
59.99997596389957
 20
12.30558349685554
 30
0.0
 42
0.4142135623730951
  0
VERTEX
  5
23B
  8
THRUCUT
 10
59.86997596389955
 20
12.17558349685554
 30
0.0
 42
0.4142135623730951
  0
VERTEX
  5
23C
  8
THRUCUT
 10
59.99997596389957
 20
12.04558349685555
 30
0.0
 42
0.4142135623730951
  0
VERTEX
  5
23D
  8
THRUCUT
 10
60.12997596389956
 20
12.17558349685554
 30
0.0
 42
0.4142135623730951
  0
SEQEND
  5
2E3
  8
THRUCUT
  0
POLYLINE
  5
9B
  8
THRUCUT
 66
     1
 10
0.0
 20
0.0
 30
0.0
 70
     1
  0
VERTEX
  5
23E
  8
THRUCUT
 10
83.99997596389954
 20
12.30558349685554
 30
0.0
 42
0.4142135623730951
  0
VERTEX
  5
23F
  8
THRUCUT
 10
83.86997596389953
 20
12.17558349685554
 30
0.0
 42
0.4142135623730951
  0
VERTEX
  5
240
  8
THRUCUT
 10
83.99997596389954
 20
12.04558349685555
 30
0.0
 42
0.4142135623730951
  0
VERTEX
  5
241
  8
THRUCUT
 10
84.12997596389954
 20
12.17558349685554
 30
0.0
 42
0.4142135623730951
  0
SEQEND
  5
2E4
  8
THRUCUT
  0
POLYLINE
  5
9C
  8
THRUCUT
 66
     1
 10
0.0
 20
0.0
 30
0.0
 70
     1
  0
VERTEX
  5
242
  8
THRUCUT
 10
11.99997596389956
 20
20.12933659250614
 30
0.0
 42
0.4142135623730951
  0
VERTEX
  5
243
  8
THRUCUT
 10
11.86997596389955
 20
19.99933659250614
 30
0.0
 42
0.4142135623730951
  0
VERTEX
  5
244
  8
THRUCUT
 10
11.99997596389956
 20
19.86933659250615
 30
0.0
 42
0.4142135623730951
  0
VERTEX
  5
245
  8
THRUCUT
 10
12.12997596389956
 20
19.99933659250614
 30
0.0
 42
0.4142135623730951
  0
SEQEND
  5
2E5
  8
THRUCUT
  0
POLYLINE
  5
9D
  8
THRUCUT
 66
     1
 10
0.0
 20
0.0
 30
0.0
 70
     1
  0
VERTEX
  5
246
  8
THRUCUT
 10
35.99997596389956
 20
20.12933659250614
 30
0.0
 42
0.4142135623730951
  0
VERTEX
  5
247
  8
THRUCUT
 10
35.86997596389955
 20
19.99933659250614
 30
0.0
 42
0.4142135623730951
  0
VERTEX
  5
248
  8
THRUCUT
 10
35.99997596389956
 20
19.86933659250615
 30
0.0
 42
0.4142135623730951
  0
VERTEX
  5
249
  8
THRUCUT
 10
36.12997596389955
 20
19.99933659250614
 30
0.0
 42
0.4142135623730951
  0
SEQEND
  5
2E6
  8
THRUCUT
  0
POLYLINE
  5
9E
  8
THRUCUT
 66
     1
 10
0.0
 20
0.0
 30
0.0
 70
     1
  0
VERTEX
  5
24A
  8
THRUCUT
 10
83.99997596389954
 20
20.12933659250614
 30
0.0
 42
0.4142135623730951
  0
VERTEX
  5
24B
  8
THRUCUT
 10
83.86997596389953
 20
19.99933659250614
 30
0.0
 42
0.4142135623730951
  0
VERTEX
  5
24C
  8
THRUCUT
 10
83.99997596389954
 20
19.86933659250615
 30
0.0
 42
0.4142135623730951
  0
VERTEX
  5
24D
  8
THRUCUT
 10
84.12997596389954
 20
19.99933659250614
 30
0.0
 42
0.4142135623730951
  0
SEQEND
  5
2E7
  8
THRUCUT
  0
POLYLINE
  5
9F
  8
THRUCUT
 66
     1
 10
0.0
 20
0.0
 30
0.0
 70
     1
  0
VERTEX
  5
24E
  8
THRUCUT
 10
59.99997596389954
 20
20.15433659250614
 30
0.0
 42
0.4142135623730951
  0
VERTEX
  5
24F
  8
THRUCUT
 10
59.84497596389954
 20
19.99933659250614
 30
0.0
 42
0.4142135623730951
  0
VERTEX
  5
250
  8
THRUCUT
 10
59.99997596389954
 20
19.84433659250615
 30
0.0
 42
0.4142135623730951
  0
VERTEX
  5
251
  8
THRUCUT
 10
60.15497596389956
 20
19.99933659250614
 30
0.0
 42
0.4142135623730951
  0
SEQEND
  5
2E8
  8
THRUCUT
  0
POLYLINE
  5
A0
  8
THRUCUT
 66
     1
 10
0.0
 20
0.0
 30
0.0
 70
     1
  0
VERTEX
  5
252
  8
THRUCUT
 10
47.8595595505618
 20
47.24452782861094
 30
0.0
  0
VERTEX
  5
253
  8
THRUCUT
 10
2.143158158549106
 20
47.24452782861094
 30
0.0
  0
VERTEX
  5
254
  8
THRUCUT
 10
2.143158158549106
 20
45.94452782861094
 30
0.0
 42
0.4142135623493832
  0
VERTEX
  5
255
  8
THRUCUT
 10
2.273158158549101
 20
45.81452782861084
 30
0.0
  0
VERTEX
  5
256
  8
THRUCUT
 10
2.643158158549106
 20
45.81452782861084
 30
0.0
 42
-1.0
  0
VERTEX
  5
257
  8
THRUCUT
 10
2.643158158517842
 20
45.55452782861084
 30
0.0
  0
VERTEX
  5
258
  8
THRUCUT
 10
2.643161138669818
 20
41.52936995988715
 30
0.0
  0
VERTEX
  5
259
  8
THRUCUT
 10
3.243166723897055
 20
41.52941523224124
 30
0.0
  0
VERTEX
  5
25A
  8
THRUCUT
 10
3.243166701241769
 20
42.21557264293049
 30
0.0
 42
-1.0
  0
VERTEX
  5
25B
  8
THRUCUT
 10
3.427016752719744
 20
42.39942041209495
 30
0.0
  0
VERTEX
  5
25C
  8
THRUCUT
 10
3.559321201175187
 20
42.3994187652897
 30
0.0
 42
-1.0
  0
VERTEX
  5
25D
  8
THRUCUT
 10
3.743166675914161
 20
42.21557100219271
 30
0.0
  0
VERTEX
  5
25E
  8
THRUCUT
 10
3.743166675904156
 20
41.52941523224124
 30
0.0
  0
VERTEX
  5
25F
  8
THRUCUT
 10
4.243166702046899
 20
41.52941523224124
 30
0.0
  0
VERTEX
  5
260
  8
THRUCUT
 10
4.243166702046899
 20
41.26941523224102
 30
0.0
  0
VERTEX
  5
261
  8
THRUCUT
 10
3.743166675904156
 20
41.26941523224125
 30
0.0
  0
VERTEX
  5
262
  8
THRUCUT
 10
3.743166675903474
 20
40.58326299534858
 30
0.0
 42
-1.0
  0
VERTEX
  5
263
  8
THRUCUT
 10
3.559318912793749
 20
40.39941523224022
 30
0.0
  0
VERTEX
  5
264
  8
THRUCUT
 10
3.427014518244285
 20
40.39941523224113
 30
0.0
 42
-1.0
  0
VERTEX
  5
265
  8
THRUCUT
 10
3.243166755137288
 20
40.5832629892793
 30
0.0
  0
VERTEX
  5
266
  8
THRUCUT
 10
3.243166732482003
 20
41.26941523224125
 30
0.0
  0
VERTEX
  5
267
  8
THRUCUT
 10
2.643164205624309
 20
41.26941523231968
 30
0.0
  0
VERTEX
  5
268
  8
THRUCUT
 10
2.643131315772045
 20
37.26448372455133
 30
0.0
 42
-1.0
  0
VERTEX
  5
269
  8
THRUCUT
 10
2.643129142685545
 20
37.00448383320708
 30
0.0
  0
VERTEX
  5
26A
  8
THRUCUT
 10
2.273129142685654
 20
37.00448383320708
 30
0.0
 42
0.4142135623719716
  0
VERTEX
  5
26B
  8
THRUCUT
 10
2.143129142685545
 20
36.8744838332072
 30
0.0
  0
VERTEX
  5
26C
  8
THRUCUT
 10
2.143129142685545
 20
34.17448383320697
 30
0.0
 42
0.414213562373507
  0
VERTEX
  5
26D
  8
THRUCUT
 10
2.273129142685654
 20
34.04448383320708
 30
0.0
  0
VERTEX
  5
26E
  8
THRUCUT
 10
2.643129142684863
 20
34.04448383320732
 30
0.0
 42
-1.0
  0
VERTEX
  5
26F
  8
THRUCUT
 10
2.643131315802059
 20
33.78448394186329
 30
0.0
  0
VERTEX
  5
270
  8
THRUCUT
 10
2.643156635883194
 20
29.77937134499511
 30
0.0
  0
VERTEX
  5
271
  8
THRUCUT
 10
3.243158142015666
 20
29.77946188956575
 30
0.0
  0
VERTEX
  5
272
  8
THRUCUT
 10
3.24315811936038
 20
30.46561930025499
 30
0.0
 42
-1.0
  0
VERTEX
  5
273
  8
THRUCUT
 10
3.427008170838356
 20
30.64946706941945
 30
0.0
  0
VERTEX
  5
274
  8
THRUCUT
 10
3.559312619293799
 20
30.64946542261421
 30
0.0
 42
-1.0
  0
VERTEX
  5
275
  8
THRUCUT
 10
3.743158094032772
 20
30.46561765951721
 30
0.0
  0
VERTEX
  5
276
  8
THRUCUT
 10
3.743158094022768
 20
29.77946188956575
 30
0.0
  0
VERTEX
  5
277
  8
THRUCUT
 10
4.243158120165511
 20
29.77946188956575
 30
0.0
  0
VERTEX
  5
278
  8
THRUCUT
 10
4.243158120165511
 20
29.51946188956553
 30
0.0
  0
VERTEX
  5
279
  8
THRUCUT
 10
3.743158094022768
 20
29.51946188956575
 30
0.0
  0
VERTEX
  5
27A
  8
THRUCUT
 10
3.743158094022085
 20
28.83330965267309
 30
0.0
 42
-1.0
  0
VERTEX
  5
27B
  8
THRUCUT
 10
3.559310330912361
 20
28.64946188956472
 30
0.0
  0
VERTEX
  5
27C
  8
THRUCUT
 10
3.427005936362896
 20
28.64946188956563
 30
0.0
 42
-1.0
  0
VERTEX
  5
27D
  8
THRUCUT
 10
3.2431581732559
 20
28.8333096466038
 30
0.0
  0
VERTEX
  5
27E
  8
THRUCUT
 10
3.243158150600614
 20
29.51946188956575
 30
0.0
  0
VERTEX
  5
27F
  8
THRUCUT
 10
2.643155623742921
 20
29.51946188964418
 30
0.0
  0
VERTEX
  5
280
  8
THRUCUT
 10
2.643158158517842
 20
25.49443983780339
 30
0.0
 42
-1.0
  0
VERTEX
  5
281
  8
THRUCUT
 10
2.643158158549106
 20
25.2344398378034
 30
0.0
  0
VERTEX
  5
282
  8
THRUCUT
 10
2.273158158549101
 20
25.2344398378034
 30
0.0
 42
0.4142135623493832
  0
VERTEX
  5
283
  8
THRUCUT
 10
2.143158158549106
 20
25.10443983780329
 30
0.0
  0
VERTEX
  5
284
  8
THRUCUT
 10
2.143158158549106
 20
23.80443983780329
 30
0.0
  0
VERTEX
  5
285
  8
THRUCUT
 10
92.64300584145178
 20
23.80443983780329
 30
0.0
  0
VERTEX
  5
286
  8
THRUCUT
 10
92.64300584145175
 20
25.10443983780329
 30
0.0
 42
0.4142135623493832
  0
VERTEX
  5
287
  8
THRUCUT
 10
92.51300584145176
 20
25.2344398378034
 30
0.0
  0
VERTEX
  5
288
  8
THRUCUT
 10
92.14300584145175
 20
25.2344398378034
 30
0.0
 42
-1.0
  0
VERTEX
  5
289
  8
THRUCUT
 10
92.14300584148302
 20
25.49443983780339
 30
0.0
  0
VERTEX
  5
28A
  8
THRUCUT
 10
92.14300837625794
 20
29.51946188964418
 30
0.0
  0
VERTEX
  5
28B
  8
THRUCUT
 10
91.54301061065925
 20
29.51937134504696
 30
0.0
  0
VERTEX
  5
28C
  8
THRUCUT
 10
91.54301063331454
 20
28.83321393435772
 30
0.0
 42
-1.0
  0
VERTEX
  5
28D
  8
THRUCUT
 10
91.35916058183656
 20
28.64936616519326
 30
0.0
  0
VERTEX
  5
28E
  8
THRUCUT
 10
91.22685613338112
 20
28.6493678119985
 30
0.0
 42
-1.0
  0
VERTEX
  5
28F
  8
THRUCUT
 10
91.04301065864215
 20
28.83321557509549
 30
0.0
  0
VERTEX
  5
290
  8
THRUCUT
 10
91.04301065865215
 20
29.51937134504696
 30
0.0
  0
VERTEX
  5
291
  8
THRUCUT
 10
90.54301063250941
 20
29.51937134504696
 30
0.0
  0
VERTEX
  5
292
  8
THRUCUT
 10
90.54301063250941
 20
29.77937134504718
 30
0.0
  0
VERTEX
  5
293
  8
THRUCUT
 10
91.04301065865215
 20
29.77937134504695
 30
0.0
  0
VERTEX
  5
294
  8
THRUCUT
 10
91.04301065865283
 20
30.46552358193962
 30
0.0
 42
-1.0
  0
VERTEX
  5
295
  8
THRUCUT
 10
91.22685842176256
 20
30.64937134504799
 30
0.0
  0
VERTEX
  5
296
  8
THRUCUT
 10
91.35916281631202
 20
30.64937134504708
 30
0.0
 42
-1.0
  0
VERTEX
  5
297
  8
THRUCUT
 10
91.54301057941902
 20
30.46552358800891
 30
0.0
  0
VERTEX
  5
298
  8
THRUCUT
 10
91.5430106020743
 20
29.77937134504695
 30
0.0
  0
VERTEX
  5
299
  8
THRUCUT
 10
92.14301211679171
 20
29.77937134499511
 30
0.0
  0
VERTEX
  5
29A
  8
THRUCUT
 10
92.1430326841988
 20
33.78448394186329
 30
0.0
 42
-1.0
  0
VERTEX
  5
29B
  8
THRUCUT
 10
92.143034857316
 20
34.04448383320732
 30
0.0
  0
VERTEX
  5
29C
  8
THRUCUT
 10
92.5130348573152
 20
34.04448383320708
 30
0.0
 42
0.414213562373507
  0
VERTEX
  5
29D
  8
THRUCUT
 10
92.64303485731531
 20
34.17448383320697
 30
0.0
  0
VERTEX
  5
29E
  8
THRUCUT
 10
92.64303485731531
 20
36.8744838332072
 30
0.0
 42
0.4142135623719716
  0
VERTEX
  5
29F
  8
THRUCUT
 10
92.5130348573152
 20
37.00448383320708
 30
0.0
  0
VERTEX
  5
2A0
  8
THRUCUT
 10
92.14303485731531
 20
37.00448383320708
 30
0.0
 42
-1.0
  0
VERTEX
  5
2A1
  8
THRUCUT
 10
92.14303268422881
 20
37.26448372455133
 30
0.0
  0
VERTEX
  5
2A2
  8
THRUCUT
 10
92.14299979437655
 20
41.26941523231968
 30
0.0
  0
VERTEX
  5
2A3
  8
THRUCUT
 10
91.54300202877786
 20
41.26932468772246
 30
0.0
  0
VERTEX
  5
2A4
  8
THRUCUT
 10
91.54300205143315
 20
40.58316727703321
 30
0.0
 42
-1.0
  0
VERTEX
  5
2A5
  8
THRUCUT
 10
91.35915199995517
 20
40.39931950786875
 30
0.0
  0
VERTEX
  5
2A6
  8
THRUCUT
 10
91.22684755149973
 20
40.399321154674
 30
0.0
 42
-1.0
  0
VERTEX
  5
2A7
  8
THRUCUT
 10
91.04300207676076
 20
40.58316891777099
 30
0.0
  0
VERTEX
  5
2A8
  8
THRUCUT
 10
91.04300207677076
 20
41.26932468772246
 30
0.0
  0
VERTEX
  5
2A9
  8
THRUCUT
 10
90.54300205062802
 20
41.26932468772246
 30
0.0
  0
VERTEX
  5
2AA
  8
THRUCUT
 10
90.54300205062802
 20
41.52932468772268
 30
0.0
  0
VERTEX
  5
2AB
  8
THRUCUT
 10
91.04300207677076
 20
41.52932468772245
 30
0.0
  0
VERTEX
  5
2AC
  8
THRUCUT
 10
91.04300207677144
 20
42.21547692461512
 30
0.0
 42
-1.0
  0
VERTEX
  5
2AD
  8
THRUCUT
 10
91.22684983988117
 20
42.39932468772349
 30
0.0
  0
VERTEX
  5
2AE
  8
THRUCUT
 10
91.35915423443063
 20
42.39932468772258
 30
0.0
 42
-1.0
  0
VERTEX
  5
2AF
  8
THRUCUT
 10
91.54300199753763
 20
42.2154769306844
 30
0.0
  0
VERTEX
  5
2B0
  8
THRUCUT
 10
91.54300202019292
 20
41.52932468772245
 30
0.0
  0
VERTEX
  5
2B1
  8
THRUCUT
 10
92.14300761400509
 20
41.52936995988715
 30
0.0
  0
VERTEX
  5
2B2
  8
THRUCUT
 10
92.14300584148302
 20
45.55452782861084
 30
0.0
 42
-1.0
  0
VERTEX
  5
2B3
  8
THRUCUT
 10
92.14300584145175
 20
45.81452782861084
 30
0.0
  0
VERTEX
  5
2B4
  8
THRUCUT
 10
92.51300584145176
 20
45.81452782861084
 30
0.0
 42
0.4142135623493832
  0
VERTEX
  5
2B5
  8
THRUCUT
 10
92.64300584145175
 20
45.94452782861094
 30
0.0
  0
VERTEX
  5
2B6
  8
THRUCUT
 10
92.64300584145164
 20
47.24452782861093
 30
0.0
  0
VERTEX
  5
2B7
  8
THRUCUT
 10
69.65969840629256
 20
47.24452782861094
 30
0.0
  0
SEQEND
  5
2E9
  8
THRUCUT
  0
ENDSEC
  0
EOF
