  0
SECTION
  2
HEADER
  9
$ACADVER
  1
AC1009
  9
$DWGCODEPAGE
  3
ansi_1252
  9
$INSBASE
 10
0.0
 20
0.0
 30
0.0
  9
$EXTMIN
 10
0.6069179999995811
 20
0.8562524598444985
 30
0.0
  9
$EXTMAX
 10
95.39308200000042
 20
47.1437475401555
 30
0.0
  9
$LIMMIN
 10
0.0
 20
0.0
  9
$LIMMAX
 10
12.0
 20
9.0
  9
$ORTHOMODE
 70
     0
  9
$REGENMODE
 70
     1
  9
$FILLMODE
 70
     1
  9
$QTEXTMODE
 70
     0
  9
$MIRRTEXT
 70
     1
  9
$DRAGMODE
 70
     2
  9
$LTSCALE
 40
1.0
  9
$OSMODE
 70
    37
  9
$ATTMODE
 70
     1
  9
$TEXTSIZE
 40
0.2
  9
$TRACEWID
 40
0.05
  9
$TEXTSTYLE
  7
STANDARD
  9
$CLAYER
  8
0
  9
$CELTYPE
  6
BYLAYER
  9
$CECOLOR
 62
   256
  9
$DIMSCALE
 40
1.0
  9
$DIMASZ
 40
0.18
  9
$DIMEXO
 40
0.0625
  9
$DIMDLI
 40
0.38
  9
$DIMRND
 40
0.0
  9
$DIMDLE
 40
0.0
  9
$DIMEXE
 40
0.18
  9
$DIMTP
 40
0.0
  9
$DIMTM
 40
0.0
  9
$DIMTXT
 40
0.18
  9
$DIMCEN
 40
0.09
  9
$DIMTSZ
 40
0.0
  9
$DIMTOL
 70
     0
  9
$DIMLIM
 70
     0
  9
$DIMTIH
 70
     1
  9
$DIMTOH
 70
     1
  9
$DIMSE1
 70
     0
  9
$DIMSE2
 70
     0
  9
$DIMTAD
 70
     0
  9
$DIMZIN
 70
     0
  9
$DIMBLK
  1

  9
$DIMASO
 70
     1
  9
$DIMSHO
 70
     1
  9
$DIMPOST
  1

  9
$DIMAPOST
  1

  9
$DIMALT
 70
     0
  9
$DIMALTD
 70
     2
  9
$DIMALTF
 40
25.4
  9
$DIMLFAC
 40
1.0
  9
$DIMTOFL
 70
     0
  9
$DIMTVP
 40
0.0
  9
$DIMTIX
 70
     0
  9
$DIMSOXD
 70
     0
  9
$DIMSAH
 70
     0
  9
$DIMBLK1
  1

  9
$DIMBLK2
  1

  9
$DIMSTYLE
  2
STANDARD
  9
$DIMCLRD
 70
     0
  9
$DIMCLRE
 70
     0
  9
$DIMCLRT
 70
     0
  9
$DIMTFAC
 40
1.0
  9
$DIMGAP
 40
0.09
  9
$LUNITS
 70
     2
  9
$LUPREC
 70
     4
  9
$SKETCHINC
 40
0.1
  9
$FILLETRAD
 40
0.5
  9
$AUNITS
 70
     0
  9
$AUPREC
 70
     0
  9
$MENU
  1
.
  9
$ELEVATION
 40
0.0
  9
$PELEVATION
 40
0.0
  9
$THICKNESS
 40
0.0
  9
$LIMCHECK
 70
     0
  9
$CHAMFERA
 40
0.0
  9
$CHAMFERB
 40
0.0
  9
$SKPOLY
 70
     0
  9
$TDCREATE
 40
2454910.5
  9
$TDUPDATE
 40
2457916.366149537
  9
$TDINDWG
 40
0.0000000116
  9
$TDUSRTIMER
 40
0.0000000116
  9
$USRTIMER
 70
     1
  9
$ANGBASE
 50
0.0
  9
$ANGDIR
 70
     0
  9
$PDMODE
 70
     0
  9
$PDSIZE
 40
0.0
  9
$PLINEWID
 40
0.0
  9
$COORDS
 70
     1
  9
$SPLFRAME
 70
     0
  9
$SPLINETYPE
 70
     6
  9
$SPLINESEGS
 70
     8
  9
$ATTDIA
 70
     0
  9
$ATTREQ
 70
     1
  9
$HANDLING
 70
     1
  9
$HANDSEED
  5
2C5
  9
$SURFTAB1
 70
     6
  9
$SURFTAB2
 70
     6
  9
$SURFTYPE
 70
     6
  9
$SURFU
 70
     6
  9
$SURFV
 70
     6
  9
$UCSNAME
  2

  9
$UCSORG
 10
0.0
 20
0.0
 30
0.0
  9
$UCSXDIR
 10
1.0
 20
0.0
 30
0.0
  9
$UCSYDIR
 10
0.0
 20
1.0
 30
0.0
  9
$PUCSNAME
  2

  9
$PUCSORG
 10
0.0
 20
0.0
 30
0.0
  9
$PUCSXDIR
 10
1.0
 20
0.0
 30
0.0
  9
$PUCSYDIR
 10
0.0
 20
1.0
 30
0.0
  9
$USERI1
 70
     0
  9
$USERI2
 70
     0
  9
$USERI3
 70
     0
  9
$USERI4
 70
     0
  9
$USERI5
 70
     0
  9
$USERR1
 40
0.0
  9
$USERR2
 40
0.0
  9
$USERR3
 40
0.0
  9
$USERR4
 40
0.0
  9
$USERR5
 40
0.0
  9
$WORLDVIEW
 70
     1
  9
$SHADEDGE
 70
     3
  9
$SHADEDIF
 70
    70
  9
$TILEMODE
 70
     1
  9
$MAXACTVP
 70
    64
  9
$PLIMCHECK
 70
     0
  9
$PEXTMIN
 10
1.000000000000000E+20
 20
1.000000000000000E+20
 30
1.000000000000000E+20
  9
$PEXTMAX
 10
-1.000000000000000E+20
 20
-1.000000000000000E+20
 30
-1.000000000000000E+20
  9
$PLIMMIN
 10
0.0
 20
0.0
  9
$PLIMMAX
 10
12.0
 20
9.0
  9
$UNITMODE
 70
     0
  9
$VISRETAIN
 70
     1
  9
$PLINEGEN
 70
     0
  9
$PSLTSCALE
 70
     1
  0
ENDSEC
  0
SECTION
  2
TABLES
  0
TABLE
  2
VPORT
 70
     1
  0
VPORT
  2
*ACTIVE
 70
     0
 10
0.0
 20
0.0
 11
1.0
 21
1.0
 12
10.42990654205607
 22
4.5
 13
0.0
 23
0.0
 14
0.5
 24
0.5
 15
0.5
 25
0.5
 16
0.0
 26
0.0
 36
1.0
 17
0.0
 27
0.0
 37
0.0
 40
9.0
 41
1.972972972850329
 42
50.0
 43
0.0
 44
0.0
 50
0.0
 51
0.0
 71
     0
 72
   100
 73
     1
 74
     3
 75
     0
 76
     0
 77
     0
 78
     0
  0
ENDTAB
  0
TABLE
  2
LTYPE
 70
     2
  0
LTYPE
  2
CONTINUOUS
 70
     0
  3
Solid line
 72
    65
 73
     0
 40
0.0
  0
LTYPE
  2
CONTINUOUS2
 70
     0
  3
Solid Line
 72
    65
 73
     0
 40
0.0
  0
ENDTAB
  0
TABLE
  2
LAYER
 70
     3
  0
LAYER
  2
0
 70
     0
 62
     7
  6
CONTINUOUS
  0
LAYER
  2
THRUCUT
 70
     0
 62
    18
  6
CONTINUOUS
  0
LAYER
  2
SCREW_LOCATION_MARKERS
 70
     0
 62
     1
  6
CONTINUOUS
  0
ENDTAB
  0
TABLE
  2
STYLE
 70
     1
  0
STYLE
  2
STANDARD
 70
     0
 40
0.0
 41
1.0
 50
0.0
 71
     0
 42
0.2
  3
txt
  4

  0
ENDTAB
  0
TABLE
  2
VIEW
 70
     0
  0
ENDTAB
  0
TABLE
  2
UCS
 70
     0
  0
ENDTAB
  0
TABLE
  2
APPID
 70
     1
  0
APPID
  2
ACAD
 70
     0
  0
ENDTAB
  0
TABLE
  2
DIMSTYLE
 70
     1
  0
DIMSTYLE
  2
STANDARD
 70
     0
  3

  4

  5

  6

  7

 40
1.0
 41
0.18
 42
0.0625
 43
0.38
 44
0.18
 45
0.0
 46
0.0
 47
0.0
 48
0.0
140
0.18
141
0.09
142
0.0
143
25.4
144
1.0
145
0.0
146
1.0
147
0.09
 71
     0
 72
     0
 73
     1
 74
     1
 75
     0
 76
     0
 77
     0
 78
     0
170
     0
171
     2
172
     0
173
     0
174
     0
175
     0
176
     0
177
     0
178
     0
  0
ENDTAB
  0
ENDSEC
  0
SECTION
  2
BLOCKS
  0
BLOCK
  8
0
  2
$MODEL_SPACE
 70
     0
 10
0.0
 20
0.0
 30
0.0
  3
$MODEL_SPACE
  1

  0
ENDBLK
  5
21
  8
0
  0
BLOCK
 67
     1
  8
0
  2
$PAPER_SPACE
 70
     0
 10
0.0
 20
0.0
 30
0.0
  3
$PAPER_SPACE
  1

  0
ENDBLK
  5
1D
 67
     1
  8
0
  0
ENDSEC
  0
SECTION
  2
ENTITIES
  0
POLYLINE
  5
70
  8
THRUCUT
 66
     1
 10
0.0
 20
0.0
 30
0.0
 70
     1
  0
VERTEX
  5
94
  8
THRUCUT
 10
59.40067741817268
 20
7.856252459844208
 30
0.0
  0
VERTEX
  5
95
  8
THRUCUT
 10
70.11249999999902
 20
7.856252459843951
 30
0.0
 42
-0.4142135623843519
  0
VERTEX
  5
96
  8
THRUCUT
 10
70.24249999999901
 20
7.726252459843955
 30
0.0
  0
VERTEX
  5
97
  8
THRUCUT
 10
70.24249999999901
 20
6.116252459843963
 30
0.0
 42
1.0
  0
VERTEX
  5
98
  8
THRUCUT
 10
70.24249999999901
 20
5.856252459843958
 30
0.0
  0
VERTEX
  5
99
  8
THRUCUT
 10
70.74249999999901
 20
5.856252459843958
 30
0.0
 42
1.0
  0
VERTEX
  5
9A
  8
THRUCUT
 10
70.74249999999901
 20
6.116252459843963
 30
0.0
  0
VERTEX
  5
9B
  8
THRUCUT
 10
70.74249999999901
 20
7.726252459843955
 30
0.0
 42
-0.4142135623535799
  0
VERTEX
  5
9C
  8
THRUCUT
 10
70.87249999999901
 20
7.856252459843951
 30
0.0
  0
VERTEX
  5
9D
  8
THRUCUT
 10
92.62
 20
7.85625245984447
 30
0.0
 42
-0.4142135623981962
  0
VERTEX
  5
9E
  8
THRUCUT
 10
92.75
 20
7.726252459844467
 30
0.0
  0
VERTEX
  5
9F
  8
THRUCUT
 10
92.75000000000003
 20
6.116252459844476
 30
0.0
 42
1.0
  0
VERTEX
  5
A0
  8
THRUCUT
 10
92.74999999996737
 20
5.85625245984447
 30
0.0
  0
VERTEX
  5
A1
  8
THRUCUT
 10
93.75
 20
5.85625245984447
 30
0.0
 42
1.0
  0
VERTEX
  5
A2
  8
THRUCUT
 10
93.75
 20
6.116252459844476
 30
0.0
  0
VERTEX
  5
A3
  8
THRUCUT
 10
93.74999999999997
 20
7.726252459844467
 30
0.0
 42
-0.414213562423721
  0
VERTEX
  5
A4
  8
THRUCUT
 10
93.87999999999997
 20
7.85625245984447
 30
0.0
  0
VERTEX
  5
A5
  8
THRUCUT
 10
93.9543624161075
 20
7.85625245984447
 30
0.0
  0
VERTEX
  5
A6
  8
THRUCUT
 10
94.39308200000042
 20
7.856252459844328
 30
0.0
 42
-0.4142135623731007
  0
VERTEX
  5
A7
  8
THRUCUT
 10
95.39308200000042
 20
6.856252459844328
 30
0.0
  0
VERTEX
  5
A8
  8
THRUCUT
 10
95.39308200000022
 20
3.856252459827132
 30
0.0
 42
-0.4142135572611445
  0
VERTEX
  5
A9
  8
THRUCUT
 10
92.39308202630068
 20
0.8562524598444985
 30
0.0
  0
VERTEX
  5
AA
  8
THRUCUT
 10
3.606917973820003
 20
0.8562524598444985
 30
0.0
 42
-0.4142135572611445
  0
VERTEX
  5
AB
  8
THRUCUT
 10
0.6069179999998084
 20
3.856252459827132
 30
0.0
  0
VERTEX
  5
AC
  8
THRUCUT
 10
0.6069179999995811
 20
6.856252459844328
 30
0.0
 42
-0.4142135623731007
  0
VERTEX
  5
AD
  8
THRUCUT
 10
1.606918000000036
 20
7.85625245984447
 30
0.0
  0
VERTEX
  5
AE
  8
THRUCUT
 10
2.12000000000009
 20
7.85625245984447
 30
0.0
 42
-0.4142135623741676
  0
VERTEX
  5
AF
  8
THRUCUT
 10
2.250000000000085
 20
7.726252459844447
 30
0.0
  0
VERTEX
  5
B0
  8
THRUCUT
 10
2.249999999999858
 20
6.116252459844476
 30
0.0
 42
1.0
  0
VERTEX
  5
B1
  8
THRUCUT
 10
2.249999999999858
 20
5.85625245984447
 30
0.0
  0
VERTEX
  5
B2
  8
THRUCUT
 10
3.250000000000654
 20
5.85625245984447
 30
0.0
 42
1.0
  0
VERTEX
  5
B3
  8
THRUCUT
 10
3.249999999999744
 20
6.116252459844476
 30
0.0
  0
VERTEX
  5
B4
  8
THRUCUT
 10
3.249999999999744
 20
7.72625245984446
 30
0.0
 42
-0.4142135623617773
  0
VERTEX
  5
B5
  8
THRUCUT
 10
3.37999999999974
 20
7.85625245984447
 30
0.0
  0
VERTEX
  5
B6
  8
THRUCUT
 10
25.1274999999992
 20
7.856252459843951
 30
0.0
 42
-0.4142135623737483
  0
VERTEX
  5
B7
  8
THRUCUT
 10
25.2574999999992
 20
7.726252459843955
 30
0.0
  0
VERTEX
  5
B8
  8
THRUCUT
 10
25.25749999999925
 20
6.116252459843963
 30
0.0
 42
1.0
  0
VERTEX
  5
B9
  8
THRUCUT
 10
25.25749999999925
 20
5.856252459843958
 30
0.0
  0
VERTEX
  5
BA
  8
THRUCUT
 10
25.75749999999925
 20
5.856252459843958
 30
0.0
 42
1.0
  0
VERTEX
  5
BB
  8
THRUCUT
 10
25.75749999999925
 20
6.116252459843963
 30
0.0
  0
VERTEX
  5
BC
  8
THRUCUT
 10
25.7574999999992
 20
7.726252459843948
 30
0.0
 42
-0.4142135623756308
  0
VERTEX
  5
BD
  8
THRUCUT
 10
25.88749999999919
 20
7.856252459843951
 30
0.0
  0
VERTEX
  5
BE
  8
THRUCUT
 10
47.61999999999875
 20
7.85625245984447
 30
0.0
 42
-0.4142135623967204
  0
VERTEX
  5
BF
  8
THRUCUT
 10
47.74999999999875
 20
7.726252459844474
 30
0.0
  0
VERTEX
  5
C0
  8
THRUCUT
 10
47.74999999999881
 20
6.116252459844476
 30
0.0
 42
1.0
  0
VERTEX
  5
C1
  8
THRUCUT
 10
47.74999999999883
 20
5.85625245984447
 30
0.0
  0
VERTEX
  5
C2
  8
THRUCUT
 10
48.24999999999883
 20
5.85625245984447
 30
0.0
 42
1.0
  0
VERTEX
  5
C3
  8
THRUCUT
 10
48.24999999999883
 20
6.116252459844476
 30
0.0
  0
VERTEX
  5
C4
  8
THRUCUT
 10
48.24999999999886
 20
7.726252459844467
 30
0.0
 42
-0.414213562345812
  0
VERTEX
  5
C5
  8
THRUCUT
 10
48.37999999999889
 20
7.85625245984447
 30
0.0
  0
SEQEND
  5
2A9
  8
THRUCUT
  0
POLYLINE
  5
71
  8
THRUCUT
 66
     1
 10
0.0
 20
0.0
 30
0.0
 70
     1
  0
VERTEX
  5
C6
  8
THRUCUT
 10
59.40067741817268
 20
15.94260002740522
 30
0.0
  0
VERTEX
  5
C7
  8
THRUCUT
 10
70.11249999999902
 20
15.94260002740496
 30
0.0
 42
-0.4142135623843519
  0
VERTEX
  5
C8
  8
THRUCUT
 10
70.24249999999901
 20
15.81260002740497
 30
0.0
  0
VERTEX
  5
C9
  8
THRUCUT
 10
70.24249999999901
 20
14.20260002740498
 30
0.0
 42
1.0
  0
VERTEX
  5
CA
  8
THRUCUT
 10
70.24249999999901
 20
13.94260002740497
 30
0.0
  0
VERTEX
  5
CB
  8
THRUCUT
 10
70.74249999999901
 20
13.94260002740497
 30
0.0
 42
1.0
  0
VERTEX
  5
CC
  8
THRUCUT
 10
70.74249999999901
 20
14.20260002740498
 30
0.0
  0
VERTEX
  5
CD
  8
THRUCUT
 10
70.74249999999901
 20
15.81260002740497
 30
0.0
 42
-0.4142135623535799
  0
VERTEX
  5
CE
  8
THRUCUT
 10
70.87249999999901
 20
15.94260002740496
 30
0.0
  0
VERTEX
  5
CF
  8
THRUCUT
 10
92.62
 20
15.94260002740548
 30
0.0
 42
-0.4142135623981962
  0
VERTEX
  5
D0
  8
THRUCUT
 10
92.75
 20
15.81260002740548
 30
0.0
  0
VERTEX
  5
D1
  8
THRUCUT
 10
92.75000000000003
 20
14.20260002740549
 30
0.0
 42
1.0
  0
VERTEX
  5
D2
  8
THRUCUT
 10
92.74999999996737
 20
13.94260002740548
 30
0.0
  0
VERTEX
  5
D3
  8
THRUCUT
 10
93.75
 20
13.94260002740548
 30
0.0
 42
1.0
  0
VERTEX
  5
D4
  8
THRUCUT
 10
93.75
 20
14.20260002740549
 30
0.0
  0
VERTEX
  5
D5
  8
THRUCUT
 10
93.74999999999997
 20
15.81260002740548
 30
0.0
 42
-0.414213562423721
  0
VERTEX
  5
D6
  8
THRUCUT
 10
93.87999999999997
 20
15.94260002740548
 30
0.0
  0
VERTEX
  5
D7
  8
THRUCUT
 10
93.9543624161075
 20
15.94260002740548
 30
0.0
  0
VERTEX
  5
D8
  8
THRUCUT
 10
94.39308200000042
 20
15.94260002740534
 30
0.0
 42
-0.4142135623731007
  0
VERTEX
  5
D9
  8
THRUCUT
 10
95.39308200000042
 20
14.94260002740534
 30
0.0
  0
VERTEX
  5
DA
  8
THRUCUT
 10
95.39308200000022
 20
11.94260002738815
 30
0.0
 42
-0.4142135572611445
  0
VERTEX
  5
DB
  8
THRUCUT
 10
92.39308202630068
 20
8.942600027405511
 30
0.0
  0
VERTEX
  5
DC
  8
THRUCUT
 10
3.606917973820003
 20
8.942600027405511
 30
0.0
 42
-0.4142135572611445
  0
VERTEX
  5
DD
  8
THRUCUT
 10
0.6069179999998084
 20
11.94260002738815
 30
0.0
  0
VERTEX
  5
DE
  8
THRUCUT
 10
0.6069179999995811
 20
14.94260002740534
 30
0.0
 42
-0.4142135623731007
  0
VERTEX
  5
DF
  8
THRUCUT
 10
1.606918000000036
 20
15.94260002740548
 30
0.0
  0
VERTEX
  5
E0
  8
THRUCUT
 10
2.12000000000009
 20
15.94260002740548
 30
0.0
 42
-0.4142135623741676
  0
VERTEX
  5
E1
  8
THRUCUT
 10
2.250000000000085
 20
15.81260002740546
 30
0.0
  0
VERTEX
  5
E2
  8
THRUCUT
 10
2.249999999999858
 20
14.20260002740549
 30
0.0
 42
1.0
  0
VERTEX
  5
E3
  8
THRUCUT
 10
2.249999999999858
 20
13.94260002740548
 30
0.0
  0
VERTEX
  5
E4
  8
THRUCUT
 10
3.250000000000654
 20
13.94260002740548
 30
0.0
 42
1.0
  0
VERTEX
  5
E5
  8
THRUCUT
 10
3.249999999999744
 20
14.20260002740549
 30
0.0
  0
VERTEX
  5
E6
  8
THRUCUT
 10
3.249999999999744
 20
15.81260002740547
 30
0.0
 42
-0.4142135623617773
  0
VERTEX
  5
E7
  8
THRUCUT
 10
3.37999999999974
 20
15.94260002740548
 30
0.0
  0
VERTEX
  5
E8
  8
THRUCUT
 10
25.1274999999992
 20
15.94260002740496
 30
0.0
 42
-0.4142135623737483
  0
VERTEX
  5
E9
  8
THRUCUT
 10
25.2574999999992
 20
15.81260002740497
 30
0.0
  0
VERTEX
  5
EA
  8
THRUCUT
 10
25.25749999999925
 20
14.20260002740498
 30
0.0
 42
1.0
  0
VERTEX
  5
EB
  8
THRUCUT
 10
25.25749999999925
 20
13.94260002740497
 30
0.0
  0
VERTEX
  5
EC
  8
THRUCUT
 10
25.75749999999925
 20
13.94260002740497
 30
0.0
 42
1.0
  0
VERTEX
  5
ED
  8
THRUCUT
 10
25.75749999999925
 20
14.20260002740498
 30
0.0
  0
VERTEX
  5
EE
  8
THRUCUT
 10
25.7574999999992
 20
15.81260002740496
 30
0.0
 42
-0.4142135623756308
  0
VERTEX
  5
EF
  8
THRUCUT
 10
25.88749999999919
 20
15.94260002740496
 30
0.0
  0
VERTEX
  5
F0
  8
THRUCUT
 10
47.61999999999875
 20
15.94260002740548
 30
0.0
 42
-0.4142135623967204
  0
VERTEX
  5
F1
  8
THRUCUT
 10
47.74999999999875
 20
15.81260002740549
 30
0.0
  0
VERTEX
  5
F2
  8
THRUCUT
 10
47.74999999999881
 20
14.20260002740549
 30
0.0
 42
1.0
  0
VERTEX
  5
F3
  8
THRUCUT
 10
47.74999999999883
 20
13.94260002740548
 30
0.0
  0
VERTEX
  5
F4
  8
THRUCUT
 10
48.24999999999883
 20
13.94260002740548
 30
0.0
 42
1.0
  0
VERTEX
  5
F5
  8
THRUCUT
 10
48.24999999999883
 20
14.20260002740549
 30
0.0
  0
VERTEX
  5
F6
  8
THRUCUT
 10
48.24999999999886
 20
15.81260002740548
 30
0.0
 42
-0.414213562345812
  0
VERTEX
  5
F7
  8
THRUCUT
 10
48.37999999999889
 20
15.94260002740548
 30
0.0
  0
SEQEND
  5
2AA
  8
THRUCUT
  0
POLYLINE
  5
72
  8
THRUCUT
 66
     1
 10
0.0
 20
0.0
 30
0.0
 70
     1
  0
VERTEX
  5
F8
  8
THRUCUT
 10
25.25750833927547
 20
35.37879153556165
 30
0.0
  0
VERTEX
  5
F9
  8
THRUCUT
 10
25.25750833927547
 20
36.61878146172002
 30
0.0
 42
-1.0
  0
VERTEX
  5
FA
  8
THRUCUT
 10
25.25750833927547
 20
36.87878146172001
 30
0.0
  0
VERTEX
  5
FB
  8
THRUCUT
 10
25.75749166072403
 20
36.87878146172001
 30
0.0
 42
-1.0
  0
VERTEX
  5
FC
  8
THRUCUT
 10
25.75749166072403
 20
36.61878146172002
 30
0.0
  0
VERTEX
  5
FD
  8
THRUCUT
 10
25.75749166072411
 20
35.37879153556224
 30
0.0
  0
VERTEX
  5
FE
  8
THRUCUT
 10
25.7574916607243
 20
34.1387814617227
 30
0.0
 42
-1.0
  0
VERTEX
  5
FF
  8
THRUCUT
 10
25.7574916607243
 20
33.87878146172271
 30
0.0
  0
VERTEX
  5
100
  8
THRUCUT
 10
25.25750833927574
 20
33.87878146172271
 30
0.0
 42
-1.0
  0
VERTEX
  5
101
  8
THRUCUT
 10
25.25750833927574
 20
34.1387814617227
 30
0.0
  0
SEQEND
  5
2AB
  8
THRUCUT
  0
POLYLINE
  5
73
  8
THRUCUT
 66
     1
 10
0.0
 20
0.0
 30
0.0
 70
     1
  0
VERTEX
  5
102
  8
THRUCUT
 10
48.24999166072382
 20
35.37879153556331
 30
0.0
  0
VERTEX
  5
103
  8
THRUCUT
 10
48.24999166072428
 20
34.1387814617227
 30
0.0
 42
-1.0
  0
VERTEX
  5
104
  8
THRUCUT
 10
48.24999166072428
 20
33.87878146172271
 30
0.0
  0
VERTEX
  5
105
  8
THRUCUT
 10
47.75000833927572
 20
33.87878146172271
 30
0.0
 42
-1.0
  0
VERTEX
  5
106
  8
THRUCUT
 10
47.75000833927572
 20
34.1387814617227
 30
0.0
  0
VERTEX
  5
107
  8
THRUCUT
 10
47.75000833927551
 20
35.37879153556236
 30
0.0
  0
VERTEX
  5
108
  8
THRUCUT
 10
47.75000833927508
 20
36.61878146172002
 30
0.0
 42
-1.0
  0
VERTEX
  5
109
  8
THRUCUT
 10
47.75000833927508
 20
36.87878146172001
 30
0.0
  0
VERTEX
  5
10A
  8
THRUCUT
 10
48.24999166072364
 20
36.87878146172001
 30
0.0
 42
-1.0
  0
VERTEX
  5
10B
  8
THRUCUT
 10
48.24999166072364
 20
36.61878146172002
 30
0.0
  0
SEQEND
  5
2AC
  8
THRUCUT
  0
POLYLINE
  5
74
  8
THRUCUT
 66
     1
 10
0.0
 20
0.0
 30
0.0
 70
     1
  0
VERTEX
  5
10C
  8
THRUCUT
 10
70.24250833927526
 20
35.37879153556095
 30
0.0
  0
VERTEX
  5
10D
  8
THRUCUT
 10
70.24250833927526
 20
36.61878146171981
 30
0.0
 42
-1.0
  0
VERTEX
  5
10E
  8
THRUCUT
 10
70.24250833927526
 20
36.87878146171978
 30
0.0
  0
VERTEX
  5
10F
  8
THRUCUT
 10
70.7424916607237
 20
36.87878146171978
 30
0.0
 42
-1.0
  0
VERTEX
  5
110
  8
THRUCUT
 10
70.7424916607237
 20
36.61878146171981
 30
0.0
  0
VERTEX
  5
111
  8
THRUCUT
 10
70.74249166072458
 20
35.37879153556204
 30
0.0
  0
VERTEX
  5
112
  8
THRUCUT
 10
70.7424916607257
 20
34.13878146172149
 30
0.0
 42
-1.0
  0
VERTEX
  5
113
  8
THRUCUT
 10
70.7424916607257
 20
33.87878146172152
 30
0.0
  0
VERTEX
  5
114
  8
THRUCUT
 10
70.24250833927715
 20
33.87878146172152
 30
0.0
 42
-1.0
  0
VERTEX
  5
115
  8
THRUCUT
 10
70.24250833927715
 20
34.13878146172149
 30
0.0
  0
SEQEND
  5
2AD
  8
THRUCUT
  0
POLYLINE
  5
75
  8
THRUCUT
 66
     1
 10
0.0
 20
0.0
 30
0.0
 70
     1
  0
VERTEX
  5
116
  8
THRUCUT
 10
11.99997596389956
 20
13.0725743238212
 30
0.0
 42
0.4142135623730951
  0
VERTEX
  5
117
  8
THRUCUT
 10
11.86997596389955
 20
12.94257432382121
 30
0.0
 42
0.4142135623730951
  0
VERTEX
  5
118
  8
THRUCUT
 10
11.99997596389956
 20
12.81257432382122
 30
0.0
 42
0.4142135623730951
  0
VERTEX
  5
119
  8
THRUCUT
 10
12.12997596389955
 20
12.94257432382121
 30
0.0
 42
0.4142135623730951
  0
SEQEND
  5
2AE
  8
THRUCUT
  0
POLYLINE
  5
76
  8
THRUCUT
 66
     1
 10
0.0
 20
0.0
 30
0.0
 70
     1
  0
VERTEX
  5
11A
  8
THRUCUT
 10
83.99997596389956
 20
13.0725743238212
 30
0.0
 42
0.4142135623730951
  0
VERTEX
  5
11B
  8
THRUCUT
 10
83.86997596389955
 20
12.94257432382121
 30
0.0
 42
0.4142135623730951
  0
VERTEX
  5
11C
  8
THRUCUT
 10
83.99997596389956
 20
12.81257432382122
 30
0.0
 42
0.4142135623730951
  0
VERTEX
  5
11D
  8
THRUCUT
 10
84.12997596389955
 20
12.94257432382121
 30
0.0
 42
0.4142135623730951
  0
SEQEND
  5
2AF
  8
THRUCUT
  0
POLYLINE
  5
77
  8
THRUCUT
 66
     1
 10
0.0
 20
0.0
 30
0.0
 70
     1
  0
VERTEX
  5
11E
  8
THRUCUT
 10
35.99997596389956
 20
13.0725743238212
 30
0.0
 42
0.4142135623730951
  0
VERTEX
  5
11F
  8
THRUCUT
 10
35.86997596389955
 20
12.94257432382121
 30
0.0
 42
0.4142135623730951
  0
VERTEX
  5
120
  8
THRUCUT
 10
35.99997596389956
 20
12.81257432382122
 30
0.0
 42
0.4142135623730951
  0
VERTEX
  5
121
  8
THRUCUT
 10
36.12997596389955
 20
12.94257432382121
 30
0.0
 42
0.4142135623730951
  0
SEQEND
  5
2B0
  8
THRUCUT
  0
POLYLINE
  5
78
  8
THRUCUT
 66
     1
 10
0.0
 20
0.0
 30
0.0
 70
     1
  0
VERTEX
  5
122
  8
THRUCUT
 10
59.99997596389956
 20
13.0725743238212
 30
0.0
 42
0.4142135623730951
  0
VERTEX
  5
123
  8
THRUCUT
 10
59.86997596389955
 20
12.94257432382121
 30
0.0
 42
0.4142135623730951
  0
VERTEX
  5
124
  8
THRUCUT
 10
59.99997596389956
 20
12.81257432382122
 30
0.0
 42
0.4142135623730951
  0
VERTEX
  5
125
  8
THRUCUT
 10
60.12997596389955
 20
12.94257432382121
 30
0.0
 42
0.4142135623730951
  0
SEQEND
  5
2B1
  8
THRUCUT
  0
POLYLINE
  5
79
  8
THRUCUT
 66
     1
 10
0.0
 20
0.0
 30
0.0
 70
     1
  0
VERTEX
  5
126
  8
THRUCUT
 10
11.99997596389959
 20
4.986226756260194
 30
0.0
 42
0.4142135623730951
  0
VERTEX
  5
127
  8
THRUCUT
 10
11.86997596389958
 20
4.856226756260199
 30
0.0
 42
0.4142135623730951
  0
VERTEX
  5
128
  8
THRUCUT
 10
11.99997596389959
 20
4.72622675626021
 30
0.0
 42
0.4142135623730951
  0
VERTEX
  5
129
  8
THRUCUT
 10
12.12997596389958
 20
4.856226756260199
 30
0.0
 42
0.4142135623730951
  0
SEQEND
  5
2B2
  8
THRUCUT
  0
POLYLINE
  5
7A
  8
THRUCUT
 66
     1
 10
0.0
 20
0.0
 30
0.0
 70
     1
  0
VERTEX
  5
12A
  8
THRUCUT
 10
35.99997596389959
 20
4.986226756260194
 30
0.0
 42
0.4142135623730951
  0
VERTEX
  5
12B
  8
THRUCUT
 10
35.86997596389958
 20
4.856226756260199
 30
0.0
 42
0.4142135623730951
  0
VERTEX
  5
12C
  8
THRUCUT
 10
35.99997596389959
 20
4.72622675626021
 30
0.0
 42
0.4142135623730951
  0
VERTEX
  5
12D
  8
THRUCUT
 10
36.12997596389958
 20
4.856226756260199
 30
0.0
 42
0.4142135623730951
  0
SEQEND
  5
2B3
  8
THRUCUT
  0
POLYLINE
  5
7B
  8
THRUCUT
 66
     1
 10
0.0
 20
0.0
 30
0.0
 70
     1
  0
VERTEX
  5
12E
  8
THRUCUT
 10
83.99997596389959
 20
4.986226756260194
 30
0.0
 42
0.4142135623730951
  0
VERTEX
  5
12F
  8
THRUCUT
 10
83.86997596389958
 20
4.856226756260199
 30
0.0
 42
0.4142135623730951
  0
VERTEX
  5
130
  8
THRUCUT
 10
83.99997596389959
 20
4.72622675626021
 30
0.0
 42
0.4142135623730951
  0
VERTEX
  5
131
  8
THRUCUT
 10
84.12997596389958
 20
4.856226756260199
 30
0.0
 42
0.4142135623730951
  0
SEQEND
  5
2B4
  8
THRUCUT
  0
POLYLINE
  5
7C
  8
THRUCUT
 66
     1
 10
0.0
 20
0.0
 30
0.0
 70
     1
  0
VERTEX
  5
132
  8
THRUCUT
 10
59.99997596389959
 20
4.986226756260194
 30
0.0
 42
0.4142135623730951
  0
VERTEX
  5
133
  8
THRUCUT
 10
59.86997596389958
 20
4.856226756260199
 30
0.0
 42
0.4142135623730951
  0
VERTEX
  5
134
  8
THRUCUT
 10
59.99997596389959
 20
4.72622675626021
 30
0.0
 42
0.4142135623730951
  0
VERTEX
  5
135
  8
THRUCUT
 10
60.12997596389958
 20
4.856226756260199
 30
0.0
 42
0.4142135623730951
  0
SEQEND
  5
2B5
  8
THRUCUT
  0
POLYLINE
  5
7D
  8
THRUCUT
 66
     1
 10
0.0
 20
0.0
 30
0.0
 70
     1
  0
VERTEX
  5
136
  8
THRUCUT
 10
47.74437069505323
 20
47.1437475401555
 30
0.0
  0
VERTEX
  5
137
  8
THRUCUT
 10
2.75007615854868
 20
47.1437475401555
 30
0.0
  0
VERTEX
  5
138
  8
THRUCUT
 10
2.75007615854868
 20
45.7887475401555
 30
0.0
 42
0.4142135623674054
  0
VERTEX
  5
139
  8
THRUCUT
 10
2.880076158548789
 20
45.65874754015562
 30
0.0
  0
VERTEX
  5
13A
  8
THRUCUT
 10
3.250076158547998
 20
45.65874754015584
 30
0.0
 42
-1.0
  0
VERTEX
  5
13B
  8
THRUCUT
 10
3.250076158580057
 20
45.39874754015676
 30
0.0
  0
VERTEX
  5
13C
  8
THRUCUT
 10
3.250080986401386
 20
41.41367899302446
 30
0.0
  0
VERTEX
  5
13D
  8
THRUCUT
 10
3.850080994370586
 20
41.41376953762035
 30
0.0
  0
VERTEX
  5
13E
  8
THRUCUT
 10
3.850080971715301
 20
42.09992694830959
 30
0.0
 42
-1.0
  0
VERTEX
  5
13F
  8
THRUCUT
 10
4.033931023193276
 20
42.28377471747405
 30
0.0
  0
VERTEX
  5
140
  8
THRUCUT
 10
4.166235471648719
 20
42.28377307066881
 30
0.0
 42
-1.0
  0
VERTEX
  5
141
  8
THRUCUT
 10
4.350080946387692
 20
42.09992530757182
 30
0.0
  0
VERTEX
  5
142
  8
THRUCUT
 10
4.350080946377687
 20
41.41376953762035
 30
0.0
  0
VERTEX
  5
143
  8
THRUCUT
 10
4.850080972520431
 20
41.41376953762035
 30
0.0
  0
VERTEX
  5
144
  8
THRUCUT
 10
4.850080972520431
 20
41.15376953762013
 30
0.0
  0
VERTEX
  5
145
  8
THRUCUT
 10
4.350080946377687
 20
41.15376953762036
 30
0.0
  0
VERTEX
  5
146
  8
THRUCUT
 10
4.350080946377005
 20
40.46761730072769
 30
0.0
 42
-1.0
  0
VERTEX
  5
147
  8
THRUCUT
 10
4.166233183267281
 20
40.28376953761933
 30
0.0
  0
VERTEX
  5
148
  8
THRUCUT
 10
4.033928788717816
 20
40.28376953762024
 30
0.0
 42
-1.0
  0
VERTEX
  5
149
  8
THRUCUT
 10
3.85008102561082
 20
40.4676172946584
 30
0.0
  0
VERTEX
  5
14A
  8
THRUCUT
 10
3.850081002955534
 20
41.15376953762036
 30
0.0
  0
VERTEX
  5
14B
  8
THRUCUT
 10
3.250078476097841
 20
41.15376953769879
 30
0.0
  0
VERTEX
  5
14C
  8
THRUCUT
 10
3.250044970839397
 20
37.12379153555391
 30
0.0
 42
-1.0
  0
VERTEX
  5
14D
  8
THRUCUT
 10
3.24998911350265
 20
36.86379153555913
 30
0.0
  0
VERTEX
  5
14E
  8
THRUCUT
 10
2.879989113502646
 20
36.86379153555936
 30
0.0
 42
0.4142135623719716
  0
VERTEX
  5
14F
  8
THRUCUT
 10
2.74998911350265
 20
36.73379153555925
 30
0.0
  0
VERTEX
  5
150
  8
THRUCUT
 10
2.750010887478211
 20
34.02379153556056
 30
0.0
 42
0.414213562373507
  0
VERTEX
  5
151
  8
THRUCUT
 10
2.880010887478321
 20
33.89379153556058
 30
0.0
  0
VERTEX
  5
152
  8
THRUCUT
 10
3.250010887477529
 20
33.89379153556092
 30
0.0
 42
-1.0
  0
VERTEX
  5
153
  8
THRUCUT
 10
3.250010887506861
 20
33.63379153556171
 30
0.0
  0
VERTEX
  5
154
  8
THRUCUT
 10
3.250072788016965
 20
31.00944008003718
 30
0.0
  0
VERTEX
  5
155
  8
THRUCUT
 10
3.850070553615665
 20
31.00953062463439
 30
0.0
  0
VERTEX
  5
156
  8
THRUCUT
 10
3.85007053096038
 20
31.69568803532364
 30
0.0
 42
-1.0
  0
VERTEX
  5
157
  8
THRUCUT
 10
4.033920582438355
 20
31.8795358044881
 30
0.0
  0
VERTEX
  5
158
  8
THRUCUT
 10
4.166225030893798
 20
31.87953415768286
 30
0.0
 42
-1.0
  0
VERTEX
  5
159
  8
THRUCUT
 10
4.350070505632772
 20
31.69568639458587
 30
0.0
  0
VERTEX
  5
15A
  8
THRUCUT
 10
4.350070505622767
 20
31.00953062463439
 30
0.0
  0
VERTEX
  5
15B
  8
THRUCUT
 10
4.85007053176551
 20
31.00953062463439
 30
0.0
  0
VERTEX
  5
15C
  8
THRUCUT
 10
4.85007053176551
 20
30.74953062463418
 30
0.0
  0
VERTEX
  5
15D
  8
THRUCUT
 10
4.350070505622767
 20
30.7495306246344
 30
0.0
  0
VERTEX
  5
15E
  8
THRUCUT
 10
4.350070505622085
 20
30.06337838774174
 30
0.0
 42
-1.0
  0
VERTEX
  5
15F
  8
THRUCUT
 10
4.16622274251236
 20
29.87953062463338
 30
0.0
  0
VERTEX
  5
160
  8
THRUCUT
 10
4.033918347962896
 20
29.87953062463428
 30
0.0
 42
-1.0
  0
VERTEX
  5
161
  8
THRUCUT
 10
3.850070584855899
 20
30.06337838167245
 30
0.0
  0
VERTEX
  5
162
  8
THRUCUT
 10
3.850070562200613
 20
30.7495306246344
 30
0.0
  0
VERTEX
  5
163
  8
THRUCUT
 10
3.25006803534292
 20
30.74953062471284
 30
0.0
  0
VERTEX
  5
164
  8
THRUCUT
 10
3.250036375397386
 20
28.12526971426413
 30
0.0
 42
-1.0
  0
VERTEX
  5
165
  8
THRUCUT
 10
3.2500399028619
 20
27.86526971427824
 30
0.0
  0
VERTEX
  5
166
  8
THRUCUT
 10
2.880039902862009
 20
27.86526971427835
 30
0.0
 42
0.4142135623719716
  0
VERTEX
  5
167
  8
THRUCUT
 10
2.7500399028619
 20
27.73526971427836
 30
0.0
  0
VERTEX
  5
168
  8
THRUCUT
 10
2.7500399028619
 20
25.02526971427824
 30
0.0
 42
0.414213562373507
  0
VERTEX
  5
169
  8
THRUCUT
 10
2.880039902862009
 20
24.89526971427824
 30
0.0
  0
VERTEX
  5
16A
  8
THRUCUT
 10
3.250039902861218
 20
24.89526971427858
 30
0.0
 42
-1.0
  0
VERTEX
  5
16B
  8
THRUCUT
 10
3.250043430323231
 20
24.63526989065474
 30
0.0
  0
VERTEX
  5
16C
  8
THRUCUT
 10
3.25007233754009
 20
22.01100880354078
 30
0.0
  0
VERTEX
  5
16D
  8
THRUCUT
 10
3.850070103138847
 20
22.01109934813802
 30
0.0
  0
VERTEX
  5
16E
  8
THRUCUT
 10
3.850070080483562
 20
22.69725675882727
 30
0.0
 42
-1.0
  0
VERTEX
  5
16F
  8
THRUCUT
 10
4.033920131961537
 20
22.88110452799173
 30
0.0
  0
VERTEX
  5
170
  8
THRUCUT
 10
4.16622458041698
 20
22.88110288118649
 30
0.0
 42
-1.0
  0
VERTEX
  5
171
  8
THRUCUT
 10
4.350070055155953
 20
22.6972551180895
 30
0.0
  0
VERTEX
  5
172
  8
THRUCUT
 10
4.350070055145949
 20
22.01109934813802
 30
0.0
  0
VERTEX
  5
173
  8
THRUCUT
 10
4.850070081288692
 20
22.01109934813802
 30
0.0
  0
VERTEX
  5
174
  8
THRUCUT
 10
4.850070081288692
 20
21.75109934813781
 30
0.0
  0
VERTEX
  5
175
  8
THRUCUT
 10
4.350070055145949
 20
21.75109934813803
 30
0.0
  0
VERTEX
  5
176
  8
THRUCUT
 10
4.350070055145267
 20
21.06494711124537
 30
0.0
 42
-1.0
  0
VERTEX
  5
177
  8
THRUCUT
 10
4.166222292035542
 20
20.88109934813701
 30
0.0
  0
VERTEX
  5
178
  8
THRUCUT
 10
4.033917897486077
 20
20.88109934813792
 30
0.0
 42
-1.0
  0
VERTEX
  5
179
  8
THRUCUT
 10
3.850070134379081
 20
21.06494710517608
 30
0.0
  0
VERTEX
  5
17A
  8
THRUCUT
 10
3.850070111723795
 20
21.75109934813803
 30
0.0
  0
VERTEX
  5
17B
  8
THRUCUT
 10
3.250067584866102
 20
21.75109934821647
 30
0.0
  0
VERTEX
  5
17C
  8
THRUCUT
 10
3.250068918214211
 20
19.14174789299589
 30
0.0
 42
-1.0
  0
VERTEX
  5
17D
  8
THRUCUT
 10
3.250068918227171
 20
18.88174789299591
 30
0.0
  0
VERTEX
  5
17E
  8
THRUCUT
 10
2.880068918193402
 20
18.88174789299591
 30
0.0
 42
0.4142135623344873
  0
VERTEX
  5
17F
  8
THRUCUT
 10
2.750068918193293
 20
18.7517478930299
 30
0.0
  0
VERTEX
  5
180
  8
THRUCUT
 10
2.75006891786974
 20
17.5125751343952
 30
0.0
 42
0.4142135624624326
  0
VERTEX
  5
181
  8
THRUCUT
 10
2.880068917869849
 20
17.38257513436121
 30
0.0
  0
VERTEX
  5
182
  8
THRUCUT
 10
3.250068917443869
 20
17.38257513436155
 30
0.0
  0
VERTEX
  5
183
  8
THRUCUT
 10
5.370129967423603
 20
17.38257456676027
 30
0.0
  0
VERTEX
  5
184
  8
THRUCUT
 10
5.370039422793733
 20
17.98256979403429
 30
0.0
  0
VERTEX
  5
185
  8
THRUCUT
 10
4.683882012104482
 20
17.982569771379
 30
0.0
 42
-1.0
  0
VERTEX
  5
186
  8
THRUCUT
 10
4.500034242940023
 20
18.16641982285698
 30
0.0
  0
VERTEX
  5
187
  8
THRUCUT
 10
4.500035889745261
 20
18.29872427131242
 30
0.0
 42
-1.0
  0
VERTEX
  5
188
  8
THRUCUT
 10
4.683883652842253
 20
18.4825697460514
 30
0.0
  0
VERTEX
  5
189
  8
THRUCUT
 10
5.370039422793733
 20
18.48256974604139
 30
0.0
  0
VERTEX
  5
18A
  8
THRUCUT
 10
5.370039422793734
 20
18.98256977218414
 30
0.0
  0
VERTEX
  5
18B
  8
THRUCUT
 10
5.630039422793953
 20
18.98256977218414
 30
0.0
  0
VERTEX
  5
18C
  8
THRUCUT
 10
5.630039422793724
 20
18.48256974604139
 30
0.0
  0
VERTEX
  5
18D
  8
THRUCUT
 10
6.316191659686391
 20
18.48256974604071
 30
0.0
 42
-1.0
  0
VERTEX
  5
18E
  8
THRUCUT
 10
6.500039422794751
 20
18.29872198293099
 30
0.0
  0
VERTEX
  5
18F
  8
THRUCUT
 10
6.500039422793842
 20
18.16641758838152
 30
0.0
 42
-1.0
  0
VERTEX
  5
190
  8
THRUCUT
 10
6.316191665755673
 20
17.98256982527452
 30
0.0
  0
VERTEX
  5
191
  8
THRUCUT
 10
5.630039422793724
 20
17.98256980261924
 30
0.0
  0
VERTEX
  5
192
  8
THRUCUT
 10
5.630039422749262
 20
17.38257120506018
 30
0.0
  0
VERTEX
  5
193
  8
THRUCUT
 10
10.23993942278416
 20
17.38257513434586
 30
0.0
 42
-1.0
  0
VERTEX
  5
194
  8
THRUCUT
 10
10.49993942278324
 20
17.38257513436144
 30
0.0
  0
VERTEX
  5
195
  8
THRUCUT
 10
10.49993942278324
 20
17.01257513436143
 30
0.0
 42
0.4142135623493832
  0
VERTEX
  5
196
  8
THRUCUT
 10
10.62993942278335
 20
16.88257513436143
 30
0.0
  0
VERTEX
  5
197
  8
THRUCUT
 10
13.36993942278313
 20
16.88257513436143
 30
0.0
 42
0.4142135623444521
  0
VERTEX
  5
198
  8
THRUCUT
 10
13.49993942278324
 20
17.01257513436154
 30
0.0
  0
VERTEX
  5
199
  8
THRUCUT
 10
13.49993942278302
 20
17.38257513436075
 30
0.0
 42
-1.0
  0
VERTEX
  5
19A
  8
THRUCUT
 10
13.7599394227821
 20
17.38257513437724
 30
0.0
  0
VERTEX
  5
19B
  8
THRUCUT
 10
19.37754527232021
 20
17.38257456690388
 30
0.0
  0
VERTEX
  5
19C
  8
THRUCUT
 10
19.37745472769034
 20
17.9825697941779
 30
0.0
  0
VERTEX
  5
19D
  8
THRUCUT
 10
18.69129731700109
 20
17.98256977152262
 30
0.0
 42
-1.0
  0
VERTEX
  5
19E
  8
THRUCUT
 10
18.50744954783663
 20
18.16641982300059
 30
0.0
  0
VERTEX
  5
19F
  8
THRUCUT
 10
18.50745119464187
 20
18.29872427145603
 30
0.0
 42
-1.0
  0
VERTEX
  5
1A0
  8
THRUCUT
 10
18.69129895773886
 20
18.48256974619501
 30
0.0
  0
VERTEX
  5
1A1
  8
THRUCUT
 10
19.37745472769034
 20
18.482569746185
 30
0.0
  0
VERTEX
  5
1A2
  8
THRUCUT
 10
19.37745472769034
 20
18.98256977232775
 30
0.0
  0
VERTEX
  5
1A3
  8
THRUCUT
 10
19.63745472769056
 20
18.98256977232775
 30
0.0
  0
VERTEX
  5
1A4
  8
THRUCUT
 10
19.63745472769033
 20
18.482569746185
 30
0.0
  0
VERTEX
  5
1A5
  8
THRUCUT
 10
20.323606964583
 20
18.48256974618432
 30
0.0
 42
-1.0
  0
VERTEX
  5
1A6
  8
THRUCUT
 10
20.50745472769136
 20
18.2987219830746
 30
0.0
  0
VERTEX
  5
1A7
  8
THRUCUT
 10
20.50745472769045
 20
18.16641758852513
 30
0.0
 42
-1.0
  0
VERTEX
  5
1A8
  8
THRUCUT
 10
20.32360697065228
 20
17.98256982541814
 30
0.0
  0
VERTEX
  5
1A9
  8
THRUCUT
 10
19.63745472769033
 20
17.98256980276285
 30
0.0
  0
VERTEX
  5
1AA
  8
THRUCUT
 10
19.63745472764587
 20
17.38257148900336
 30
0.0
  0
VERTEX
  5
1AB
  8
THRUCUT
 10
29.37754527232021
 20
17.3825745669756
 30
0.0
  0
VERTEX
  5
1AC
  8
THRUCUT
 10
29.37745472769034
 20
17.98256979424962
 30
0.0
  0
VERTEX
  5
1AD
  8
THRUCUT
 10
28.69129731700109
 20
17.98256977159433
 30
0.0
 42
-1.0
  0
VERTEX
  5
1AE
  8
THRUCUT
 10
28.50744954783663
 20
18.16641982307231
 30
0.0
  0
VERTEX
  5
1AF
  8
THRUCUT
 10
28.50745119464187
 20
18.29872427152775
 30
0.0
 42
-1.0
  0
VERTEX
  5
1B0
  8
THRUCUT
 10
28.69129895773886
 20
18.48256974626673
 30
0.0
  0
VERTEX
  5
1B1
  8
THRUCUT
 10
29.37745472769034
 20
18.48256974625672
 30
0.0
  0
VERTEX
  5
1B2
  8
THRUCUT
 10
29.37745472769034
 20
18.98256977239947
 30
0.0
  0
VERTEX
  5
1B3
  8
THRUCUT
 10
29.63745472769056
 20
18.98256977239947
 30
0.0
  0
VERTEX
  5
1B4
  8
THRUCUT
 10
29.63745472769033
 20
18.48256974625672
 30
0.0
  0
VERTEX
  5
1B5
  8
THRUCUT
 10
30.323606964583
 20
18.48256974625604
 30
0.0
 42
-1.0
  0
VERTEX
  5
1B6
  8
THRUCUT
 10
30.50745472769136
 20
18.29872198314632
 30
0.0
  0
VERTEX
  5
1B7
  8
THRUCUT
 10
30.50745472769045
 20
18.16641758859685
 30
0.0
 42
-1.0
  0
VERTEX
  5
1B8
  8
THRUCUT
 10
30.32360697065228
 20
17.98256982548985
 30
0.0
  0
VERTEX
  5
1B9
  8
THRUCUT
 10
29.63745472769033
 20
17.98256980283457
 30
0.0
  0
VERTEX
  5
1BA
  8
THRUCUT
 10
29.63745472764587
 20
17.38257148907507
 30
0.0
  0
VERTEX
  5
1BB
  8
THRUCUT
 10
34.23993108281346
 20
17.38257513467101
 30
0.0
 42
-1.0
  0
VERTEX
  5
1BC
  8
THRUCUT
 10
34.49993108281276
 20
17.38257513468669
 30
0.0
  0
VERTEX
  5
1BD
  8
THRUCUT
 10
34.49993108281276
 20
17.01257513468669
 30
0.0
 42
0.4142135623493832
  0
VERTEX
  5
1BE
  8
THRUCUT
 10
34.62993108281276
 20
16.88257513468669
 30
0.0
  0
VERTEX
  5
1BF
  8
THRUCUT
 10
37.36993108281271
 20
16.88257513468669
 30
0.0
 42
0.4142135623444521
  0
VERTEX
  5
1C0
  8
THRUCUT
 10
37.49993108281271
 20
17.01257513468669
 30
0.0
  0
VERTEX
  5
1C1
  8
THRUCUT
 10
37.49993108281248
 20
17.38257513468601
 30
0.0
 42
-1.0
  0
VERTEX
  5
1C2
  8
THRUCUT
 10
37.75993108281168
 20
17.38257513470238
 30
0.0
  0
VERTEX
  5
1C3
  8
THRUCUT
 10
43.8700452723202
 20
17.38257456676546
 30
0.0
  0
VERTEX
  5
1C4
  8
THRUCUT
 10
43.86995472769033
 20
17.98256979403948
 30
0.0
  0
VERTEX
  5
1C5
  8
THRUCUT
 10
43.18379731700108
 20
17.9825697713842
 30
0.0
 42
-1.0
  0
VERTEX
  5
1C6
  8
THRUCUT
 10
42.99994954783662
 20
18.16641982286217
 30
0.0
  0
VERTEX
  5
1C7
  8
THRUCUT
 10
42.99995119464185
 20
18.29872427131761
 30
0.0
 42
-1.0
  0
VERTEX
  5
1C8
  8
THRUCUT
 10
43.18379895773884
 20
18.48256974605659
 30
0.0
  0
VERTEX
  5
1C9
  8
THRUCUT
 10
43.86995472769033
 20
18.48256974604658
 30
0.0
  0
VERTEX
  5
1CA
  8
THRUCUT
 10
43.86995472769033
 20
18.98256977218933
 30
0.0
  0
VERTEX
  5
1CB
  8
THRUCUT
 10
44.12995472769055
 20
18.98256977218933
 30
0.0
  0
VERTEX
  5
1CC
  8
THRUCUT
 10
44.12995472769032
 20
18.48256974604658
 30
0.0
  0
VERTEX
  5
1CD
  8
THRUCUT
 10
44.81610696458299
 20
18.4825697460459
 30
0.0
 42
-1.0
  0
VERTEX
  5
1CE
  8
THRUCUT
 10
44.99995472769135
 20
18.29872198293618
 30
0.0
  0
VERTEX
  5
1CF
  8
THRUCUT
 10
44.99995472769044
 20
18.16641758838671
 30
0.0
 42
-1.0
  0
VERTEX
  5
1D0
  8
THRUCUT
 10
44.81610697065227
 20
17.98256982527971
 30
0.0
  0
VERTEX
  5
1D1
  8
THRUCUT
 10
44.12995472769032
 20
17.98256980262443
 30
0.0
  0
VERTEX
  5
1D2
  8
THRUCUT
 10
44.12995472764585
 20
17.38257148885846
 30
0.0
  0
VERTEX
  5
1D3
  8
THRUCUT
 10
47.78775280898782
 20
17.38257513384669
 30
0.0
  0
VERTEX
  5
1D4
  8
THRUCUT
 10
51.87004527232017
 20
17.38257456642414
 30
0.0
  0
VERTEX
  5
1D5
  8
THRUCUT
 10
51.8699547276903
 20
17.98256979369816
 30
0.0
  0
VERTEX
  5
1D6
  8
THRUCUT
 10
51.18379731700105
 20
17.98256977104288
 30
0.0
 42
-1.0
  0
VERTEX
  5
1D7
  8
THRUCUT
 10
50.99994954783659
 20
18.16641982252085
 30
0.0
  0
VERTEX
  5
1D8
  8
THRUCUT
 10
50.99995119464182
 20
18.29872427097629
 30
0.0
 42
-1.0
  0
VERTEX
  5
1D9
  8
THRUCUT
 10
51.18379895773882
 20
18.48256974571527
 30
0.0
  0
VERTEX
  5
1DA
  8
THRUCUT
 10
51.8699547276903
 20
18.48256974570526
 30
0.0
  0
VERTEX
  5
1DB
  8
THRUCUT
 10
51.8699547276903
 20
18.98256977184801
 30
0.0
  0
VERTEX
  5
1DC
  8
THRUCUT
 10
52.12995472769052
 20
18.98256977184801
 30
0.0
  0
VERTEX
  5
1DD
  8
THRUCUT
 10
52.12995472769029
 20
18.48256974570526
 30
0.0
  0
VERTEX
  5
1DE
  8
THRUCUT
 10
52.81610696458296
 20
18.48256974570458
 30
0.0
 42
-1.0
  0
VERTEX
  5
1DF
  8
THRUCUT
 10
52.99995472769132
 20
18.29872198259486
 30
0.0
  0
VERTEX
  5
1E0
  8
THRUCUT
 10
52.99995472769041
 20
18.16641758804539
 30
0.0
 42
-1.0
  0
VERTEX
  5
1E1
  8
THRUCUT
 10
52.81610697065224
 20
17.98256982493839
 30
0.0
  0
VERTEX
  5
1E2
  8
THRUCUT
 10
52.12995472769029
 20
17.98256980228311
 30
0.0
  0
VERTEX
  5
1E3
  8
THRUCUT
 10
52.12995472764584
 20
17.38257148851714
 30
0.0
  0
VERTEX
  5
1E4
  8
THRUCUT
 10
58.23993108391937
 20
17.38257513295479
 30
0.0
 42
-1.0
  0
VERTEX
  5
1E5
  8
THRUCUT
 10
58.49993108391868
 20
17.38257513297036
 30
0.0
  0
VERTEX
  5
1E6
  8
THRUCUT
 10
58.49993108391868
 20
17.01257513297036
 30
0.0
 42
0.4142135623493832
  0
VERTEX
  5
1E7
  8
THRUCUT
 10
58.62993108391868
 20
16.88257513297036
 30
0.0
  0
VERTEX
  5
1E8
  8
THRUCUT
 10
61.36993108391857
 20
16.88257513297036
 30
0.0
 42
0.4142135623444521
  0
VERTEX
  5
1E9
  8
THRUCUT
 10
61.49993108391857
 20
17.01257513297047
 30
0.0
  0
VERTEX
  5
1EA
  8
THRUCUT
 10
61.49993108391834
 20
17.38257513296968
 30
0.0
 42
-1.0
  0
VERTEX
  5
1EB
  8
THRUCUT
 10
61.75993108391754
 20
17.38257513298617
 30
0.0
  0
VERTEX
  5
1EC
  8
THRUCUT
 10
66.36254527232177
 20
17.38257456632024
 30
0.0
  0
VERTEX
  5
1ED
  8
THRUCUT
 10
66.3624547276919
 20
17.98256979359426
 30
0.0
  0
VERTEX
  5
1EE
  8
THRUCUT
 10
65.67629731700265
 20
17.98256977093898
 30
0.0
 42
-1.0
  0
VERTEX
  5
1EF
  8
THRUCUT
 10
65.49244954783819
 20
18.16641982241695
 30
0.0
  0
VERTEX
  5
1F0
  8
THRUCUT
 10
65.49245119464342
 20
18.29872427087239
 30
0.0
 42
-1.0
  0
VERTEX
  5
1F1
  8
THRUCUT
 10
65.67629895774041
 20
18.48256974561137
 30
0.0
  0
VERTEX
  5
1F2
  8
THRUCUT
 10
66.3624547276919
 20
18.48256974560136
 30
0.0
  0
VERTEX
  5
1F3
  8
THRUCUT
 10
66.3624547276919
 20
18.98256977174411
 30
0.0
  0
VERTEX
  5
1F4
  8
THRUCUT
 10
66.62245472769212
 20
18.98256977174411
 30
0.0
  0
VERTEX
  5
1F5
  8
THRUCUT
 10
66.62245472769189
 20
18.48256974560136
 30
0.0
  0
VERTEX
  5
1F6
  8
THRUCUT
 10
67.30860696458456
 20
18.48256974560068
 30
0.0
 42
-1.0
  0
VERTEX
  5
1F7
  8
THRUCUT
 10
67.49245472769292
 20
18.29872198249096
 30
0.0
  0
VERTEX
  5
1F8
  8
THRUCUT
 10
67.492454727692
 20
18.16641758794149
 30
0.0
 42
-1.0
  0
VERTEX
  5
1F9
  8
THRUCUT
 10
67.30860697065384
 20
17.9825698248345
 30
0.0
  0
VERTEX
  5
1FA
  8
THRUCUT
 10
66.62245472769189
 20
17.98256980217921
 30
0.0
  0
VERTEX
  5
1FB
  8
THRUCUT
 10
66.62245472764735
 20
17.3825714884231
 30
0.0
  0
VERTEX
  5
1FC
  8
THRUCUT
 10
76.3625452723216
 20
17.3825745666522
 30
0.0
  0
VERTEX
  5
1FD
  8
THRUCUT
 10
76.36245472769173
 20
17.98256979392622
 30
0.0
  0
VERTEX
  5
1FE
  8
THRUCUT
 10
75.67629731700248
 20
17.98256977127093
 30
0.0
 42
-1.0
  0
VERTEX
  5
1FF
  8
THRUCUT
 10
75.49244954783802
 20
18.16641982274891
 30
0.0
  0
VERTEX
  5
200
  8
THRUCUT
 10
75.49245119464325
 20
18.29872427120435
 30
0.0
 42
-1.0
  0
VERTEX
  5
201
  8
THRUCUT
 10
75.67629895774024
 20
18.48256974594333
 30
0.0
  0
VERTEX
  5
202
  8
THRUCUT
 10
76.36245472769173
 20
18.48256974593332
 30
0.0
  0
VERTEX
  5
203
  8
THRUCUT
 10
76.36245472769173
 20
18.98256977207607
 30
0.0
  0
VERTEX
  5
204
  8
THRUCUT
 10
76.62245472769195
 20
18.98256977207607
 30
0.0
  0
VERTEX
  5
205
  8
THRUCUT
 10
76.62245472769172
 20
18.48256974593332
 30
0.0
  0
VERTEX
  5
206
  8
THRUCUT
 10
77.30860696458438
 20
18.48256974593264
 30
0.0
 42
-1.0
  0
VERTEX
  5
207
  8
THRUCUT
 10
77.49245472769275
 20
18.29872198282292
 30
0.0
  0
VERTEX
  5
208
  8
THRUCUT
 10
77.49245472769184
 20
18.16641758827345
 30
0.0
 42
-1.0
  0
VERTEX
  5
209
  8
THRUCUT
 10
77.30860697065367
 20
17.98256982516645
 30
0.0
  0
VERTEX
  5
20A
  8
THRUCUT
 10
76.62245472769172
 20
17.98256980251117
 30
0.0
  0
VERTEX
  5
20B
  8
THRUCUT
 10
76.62245472764727
 20
17.38257148875505
 30
0.0
  0
VERTEX
  5
20C
  8
THRUCUT
 10
82.23993108324964
 20
17.38257513434586
 30
0.0
 42
-1.0
  0
VERTEX
  5
20D
  8
THRUCUT
 10
82.49993108324827
 20
17.38257513436144
 30
0.0
  0
VERTEX
  5
20E
  8
THRUCUT
 10
82.49993108324827
 20
17.01257513436143
 30
0.0
 42
0.4142135623493832
  0
VERTEX
  5
20F
  8
THRUCUT
 10
82.62993108324815
 20
16.88257513436143
 30
0.0
  0
VERTEX
  5
210
  8
THRUCUT
 10
85.36993108324816
 20
16.88257513436143
 30
0.0
 42
0.4142135623444521
  0
VERTEX
  5
211
  8
THRUCUT
 10
85.49993108324804
 20
17.01257513436154
 30
0.0
  0
VERTEX
  5
212
  8
THRUCUT
 10
85.49993108324782
 20
17.38257513436075
 30
0.0
 42
-1.0
  0
VERTEX
  5
213
  8
THRUCUT
 10
85.7599310832469
 20
17.38257513437724
 30
0.0
  0
VERTEX
  5
214
  8
THRUCUT
 10
90.36983108324785
 20
17.38257513436689
 30
0.0
  0
VERTEX
  5
215
  8
THRUCUT
 10
90.36974053861798
 20
17.98257036164091
 30
0.0
  0
VERTEX
  5
216
  8
THRUCUT
 10
89.68358312792873
 20
17.98257033898562
 30
0.0
 42
-1.0
  0
VERTEX
  5
217
  8
THRUCUT
 10
89.49973535876427
 20
18.1664203904636
 30
0.0
  0
VERTEX
  5
218
  8
THRUCUT
 10
89.4997370055695
 20
18.29872483891904
 30
0.0
 42
-1.0
  0
VERTEX
  5
219
  8
THRUCUT
 10
89.68358476866649
 20
18.48257031365802
 30
0.0
  0
VERTEX
  5
21A
  8
THRUCUT
 10
90.36974053861798
 20
18.48257031364801
 30
0.0
  0
VERTEX
  5
21B
  8
THRUCUT
 10
90.36974053861798
 20
18.98257033979075
 30
0.0
  0
VERTEX
  5
21C
  8
THRUCUT
 10
90.6297405386182
 20
18.98257033979075
 30
0.0
  0
VERTEX
  5
21D
  8
THRUCUT
 10
90.62974053861797
 20
18.48257031364801
 30
0.0
  0
VERTEX
  5
21E
  8
THRUCUT
 10
91.31589277551063
 20
18.48257031364733
 30
0.0
 42
-1.0
  0
VERTEX
  5
21F
  8
THRUCUT
 10
91.499740538619
 20
18.2987225505376
 30
0.0
  0
VERTEX
  5
220
  8
THRUCUT
 10
91.49974053861808
 20
18.16641815598814
 30
0.0
 42
-1.0
  0
VERTEX
  5
221
  8
THRUCUT
 10
91.31589278157992
 20
17.98257039288114
 30
0.0
  0
VERTEX
  5
222
  8
THRUCUT
 10
90.62974053861797
 20
17.98257037022586
 30
0.0
  0
VERTEX
  5
223
  8
THRUCUT
 10
90.62974053857349
 20
17.38257177266527
 30
0.0
  0
VERTEX
  5
224
  8
THRUCUT
 10
92.74993108255615
 20
17.38257513436155
 30
0.0
  0
VERTEX
  5
225
  8
THRUCUT
 10
93.24993108216438
 20
17.38257513436135
 30
0.0
  0
VERTEX
  5
226
  8
THRUCUT
 10
93.24993108180672
 20
18.7517478930299
 30
0.0
 42
0.4142135623344873
  0
VERTEX
  5
227
  8
THRUCUT
 10
93.11993108180661
 20
18.88174789299591
 30
0.0
  0
VERTEX
  5
228
  8
THRUCUT
 10
92.74993108177284
 20
18.88174789299591
 30
0.0
 42
-1.0
  0
VERTEX
  5
229
  8
THRUCUT
 10
92.7499310817858
 20
19.14174789299589
 30
0.0
  0
VERTEX
  5
22A
  8
THRUCUT
 10
92.74993241513391
 20
21.75109934821647
 30
0.0
  0
VERTEX
  5
22B
  8
THRUCUT
 10
92.14993718785989
 20
21.7510088035866
 30
0.0
  0
VERTEX
  5
22C
  8
THRUCUT
 10
92.14993721051518
 20
21.06485139289735
 30
0.0
 42
-1.0
  0
VERTEX
  5
22D
  8
THRUCUT
 10
91.9660871590372
 20
20.88100362373289
 30
0.0
  0
VERTEX
  5
22E
  8
THRUCUT
 10
91.83378271058176
 20
20.88100527053813
 30
0.0
 42
-1.0
  0
VERTEX
  5
22F
  8
THRUCUT
 10
91.64993723584278
 20
21.06485303363512
 30
0.0
  0
VERTEX
  5
230
  8
THRUCUT
 10
91.64993723585279
 20
21.7510088035866
 30
0.0
  0
VERTEX
  5
231
  8
THRUCUT
 10
91.14993720971005
 20
21.7510088035866
 30
0.0
  0
VERTEX
  5
232
  8
THRUCUT
 10
91.14993720971005
 20
22.01100880358682
 30
0.0
  0
VERTEX
  5
233
  8
THRUCUT
 10
91.64993723585279
 20
22.01100880358659
 30
0.0
  0
VERTEX
  5
234
  8
THRUCUT
 10
91.64993723585347
 20
22.69716104047926
 30
0.0
 42
-1.0
  0
VERTEX
  5
235
  8
THRUCUT
 10
91.8337849989632
 20
22.88100880358762
 30
0.0
  0
VERTEX
  5
236
  8
THRUCUT
 10
91.96608939351266
 20
22.88100880358671
 30
0.0
 42
-1.0
  0
VERTEX
  5
237
  8
THRUCUT
 10
92.14993715661966
 20
22.69716104654854
 30
0.0
  0
VERTEX
  5
238
  8
THRUCUT
 10
92.14993717927494
 20
22.01100880358659
 30
0.0
  0
VERTEX
  5
239
  8
THRUCUT
 10
92.74993495345865
 20
22.01100880354078
 30
0.0
  0
VERTEX
  5
23A
  8
THRUCUT
 10
92.74995656967678
 20
24.63526989065474
 30
0.0
 42
-1.0
  0
VERTEX
  5
23B
  8
THRUCUT
 10
92.7499600971388
 20
24.89526971427858
 30
0.0
  0
VERTEX
  5
23C
  8
THRUCUT
 10
93.119960097138
 20
24.89526971427824
 30
0.0
 42
0.414213562373507
  0
VERTEX
  5
23D
  8
THRUCUT
 10
93.24996009713811
 20
25.02526971427824
 30
0.0
  0
VERTEX
  5
23E
  8
THRUCUT
 10
93.24996009713811
 20
27.73526971427836
 30
0.0
 42
0.4142135623719716
  0
VERTEX
  5
23F
  8
THRUCUT
 10
93.119960097138
 20
27.86526971427835
 30
0.0
  0
VERTEX
  5
240
  8
THRUCUT
 10
92.74996009713811
 20
27.86526971427824
 30
0.0
 42
-1.0
  0
VERTEX
  5
241
  8
THRUCUT
 10
92.74996362460263
 20
28.12526971426413
 30
0.0
  0
VERTEX
  5
242
  8
THRUCUT
 10
92.7499319646571
 20
30.74953062471284
 30
0.0
  0
VERTEX
  5
243
  8
THRUCUT
 10
92.14993673738307
 20
30.74944008008297
 30
0.0
  0
VERTEX
  5
244
  8
THRUCUT
 10
92.14993676003836
 20
30.06328266939372
 30
0.0
 42
-1.0
  0
VERTEX
  5
245
  8
THRUCUT
 10
91.96608670856038
 20
29.87943490022926
 30
0.0
  0
VERTEX
  5
246
  8
THRUCUT
 10
91.83378226010494
 20
29.87943654703449
 30
0.0
 42
-1.0
  0
VERTEX
  5
247
  8
THRUCUT
 10
91.64993678536597
 20
30.06328431013149
 30
0.0
  0
VERTEX
  5
248
  8
THRUCUT
 10
91.64993678537597
 20
30.74944008008297
 30
0.0
  0
VERTEX
  5
249
  8
THRUCUT
 10
91.14993675923323
 20
30.74944008008297
 30
0.0
  0
VERTEX
  5
24A
  8
THRUCUT
 10
91.14993675923323
 20
31.00944008008319
 30
0.0
  0
VERTEX
  5
24B
  8
THRUCUT
 10
91.64993678537597
 20
31.00944008008296
 30
0.0
  0
VERTEX
  5
24C
  8
THRUCUT
 10
91.64993678537665
 20
31.69559231697563
 30
0.0
 42
-1.0
  0
VERTEX
  5
24D
  8
THRUCUT
 10
91.83378454848638
 20
31.87944008008399
 30
0.0
  0
VERTEX
  5
24E
  8
THRUCUT
 10
91.96608894303584
 20
31.87944008008308
 30
0.0
 42
-1.0
  0
VERTEX
  5
24F
  8
THRUCUT
 10
92.14993670614284
 20
31.69559232304491
 30
0.0
  0
VERTEX
  5
250
  8
THRUCUT
 10
92.14993672879812
 20
31.00944008008296
 30
0.0
  0
VERTEX
  5
251
  8
THRUCUT
 10
92.74993450298177
 20
31.00944008003717
 30
0.0
  0
VERTEX
  5
252
  8
THRUCUT
 10
92.74998911249315
 20
33.63379153556171
 30
0.0
 42
-1.0
  0
VERTEX
  5
253
  8
THRUCUT
 10
92.74998911252248
 20
33.89379153556092
 30
0.0
  0
VERTEX
  5
254
  8
THRUCUT
 10
93.1199891125217
 20
33.89379153556058
 30
0.0
 42
0.414213562373507
  0
VERTEX
  5
255
  8
THRUCUT
 10
93.2499891125218
 20
34.02379153556056
 30
0.0
  0
VERTEX
  5
256
  8
THRUCUT
 10
93.25001088649735
 20
36.73379153555925
 30
0.0
 42
0.4142135623719716
  0
VERTEX
  5
257
  8
THRUCUT
 10
93.12001088649735
 20
36.86379153555936
 30
0.0
  0
VERTEX
  5
258
  8
THRUCUT
 10
92.75001088649735
 20
36.86379153555913
 30
0.0
 42
-1.0
  0
VERTEX
  5
259
  8
THRUCUT
 10
92.7499550291606
 20
37.12379153555391
 30
0.0
  0
VERTEX
  5
25A
  8
THRUCUT
 10
92.74992152390216
 20
41.15376953769879
 30
0.0
  0
VERTEX
  5
25B
  8
THRUCUT
 10
92.14992629662814
 20
41.15367899306892
 30
0.0
  0
VERTEX
  5
25C
  8
THRUCUT
 10
92.14992631928342
 20
40.46752158237967
 30
0.0
 42
-1.0
  0
VERTEX
  5
25D
  8
THRUCUT
 10
91.96607626780545
 20
40.28367381321522
 30
0.0
  0
VERTEX
  5
25E
  8
THRUCUT
 10
91.83377181935
 20
40.28367546002045
 30
0.0
 42
-1.0
  0
VERTEX
  5
25F
  8
THRUCUT
 10
91.64992634461103
 20
40.46752322311744
 30
0.0
  0
VERTEX
  5
260
  8
THRUCUT
 10
91.64992634462104
 20
41.15367899306892
 30
0.0
  0
VERTEX
  5
261
  8
THRUCUT
 10
91.1499263184783
 20
41.15367899306892
 30
0.0
  0
VERTEX
  5
262
  8
THRUCUT
 10
91.1499263184783
 20
41.41367899306914
 30
0.0
  0
VERTEX
  5
263
  8
THRUCUT
 10
91.64992634462104
 20
41.41367899306891
 30
0.0
  0
VERTEX
  5
264
  8
THRUCUT
 10
91.64992634462172
 20
42.09983122996158
 30
0.0
 42
-1.0
  0
VERTEX
  5
265
  8
THRUCUT
 10
91.83377410773144
 20
42.28367899306994
 30
0.0
  0
VERTEX
  5
266
  8
THRUCUT
 10
91.96607850228091
 20
42.28367899306903
 30
0.0
 42
-1.0
  0
VERTEX
  5
267
  8
THRUCUT
 10
92.1499262653879
 20
42.09983123603087
 30
0.0
  0
VERTEX
  5
268
  8
THRUCUT
 10
92.14992628804319
 20
41.41367899306891
 30
0.0
  0
VERTEX
  5
269
  8
THRUCUT
 10
92.74992630459734
 20
41.41367899302446
 30
0.0
  0
VERTEX
  5
26A
  8
THRUCUT
 10
92.74992384141994
 20
45.39874754015676
 30
0.0
 42
-1.0
  0
VERTEX
  5
26B
  8
THRUCUT
 10
92.749923841452
 20
45.65874754015584
 30
0.0
  0
VERTEX
  5
26C
  8
THRUCUT
 10
93.11992384145121
 20
45.65874754015562
 30
0.0
 42
0.4142135623674054
  0
VERTEX
  5
26D
  8
THRUCUT
 10
93.24992384145132
 20
45.7887475401555
 30
0.0
  0
VERTEX
  5
26E
  8
THRUCUT
 10
93.24992384145132
 20
47.1437475401555
 30
0.0
  0
SEQEND
  5
2B6
  8
THRUCUT
  0
POLYLINE
  5
7F
  8
SCREW_LOCATION_MARKERS
 66
     1
 10
0.0
 20
0.0
 30
0.0
 70
     1
  0
VERTEX
  5
26F
  8
SCREW_LOCATION_MARKERS
 10
25.63749064944115
 20
40.90882249965702
 30
0.0
 42
-0.4142135623730951
  0
VERTEX
  5
270
  8
SCREW_LOCATION_MARKERS
 10
25.50749064944115
 20
40.77882249965702
 30
0.0
 42
-0.4142135623730951
  0
VERTEX
  5
271
  8
SCREW_LOCATION_MARKERS
 10
25.37749064944116
 20
40.90882249965702
 30
0.0
 42
-0.4142135623730951
  0
VERTEX
  5
272
  8
SCREW_LOCATION_MARKERS
 10
25.50749064944115
 20
41.03882249965702
 30
0.0
 42
-0.4142135623730951
  0
SEQEND
  5
2B7
  8
SCREW_LOCATION_MARKERS
  0
POLYLINE
  5
80
  8
SCREW_LOCATION_MARKERS
 66
     1
 10
0.0
 20
0.0
 30
0.0
 70
     1
  0
VERTEX
  5
273
  8
SCREW_LOCATION_MARKERS
 10
48.12999064944132
 20
40.90882249965689
 30
0.0
 42
-0.4142135623730951
  0
VERTEX
  5
274
  8
SCREW_LOCATION_MARKERS
 10
47.99999064944133
 20
40.77882249965691
 30
0.0
 42
-0.4142135623730951
  0
VERTEX
  5
275
  8
SCREW_LOCATION_MARKERS
 10
47.86999064944133
 20
40.90882249965689
 30
0.0
 42
-0.4142135623730951
  0
VERTEX
  5
276
  8
SCREW_LOCATION_MARKERS
 10
47.99999064944133
 20
41.0388224996569
 30
0.0
 42
-0.4142135623730951
  0
SEQEND
  5
2B8
  8
SCREW_LOCATION_MARKERS
  0
POLYLINE
  5
81
  8
SCREW_LOCATION_MARKERS
 66
     1
 10
0.0
 20
0.0
 30
0.0
 70
     1
  0
VERTEX
  5
277
  8
SCREW_LOCATION_MARKERS
 10
70.62249064944093
 20
40.90882249965679
 30
0.0
 42
-0.4142135623730951
  0
VERTEX
  5
278
  8
SCREW_LOCATION_MARKERS
 10
70.49249064944094
 20
40.77882249965678
 30
0.0
 42
-0.4142135623730951
  0
VERTEX
  5
279
  8
SCREW_LOCATION_MARKERS
 10
70.36249064944094
 20
40.90882249965679
 30
0.0
 42
-0.4142135623730951
  0
VERTEX
  5
27A
  8
SCREW_LOCATION_MARKERS
 10
70.49249064944094
 20
41.03882249965679
 30
0.0
 42
-0.4142135623730951
  0
SEQEND
  5
2B9
  8
SCREW_LOCATION_MARKERS
  0
POLYLINE
  5
82
  8
SCREW_LOCATION_MARKERS
 66
     1
 10
0.0
 20
0.0
 30
0.0
 70
     1
  0
VERTEX
  5
27B
  8
SCREW_LOCATION_MARKERS
 10
85.74630354049576
 20
46.27875335810101
 30
0.0
 42
-0.4142135623730951
  0
VERTEX
  5
27C
  8
SCREW_LOCATION_MARKERS
 10
85.61630354049576
 20
46.40875335810102
 30
0.0
 42
-0.4142135623730951
  0
VERTEX
  5
27D
  8
SCREW_LOCATION_MARKERS
 10
85.74630354049576
 20
46.53875335810102
 30
0.0
 42
-0.4142135623730951
  0
VERTEX
  5
27E
  8
SCREW_LOCATION_MARKERS
 10
85.87630354049575
 20
46.40875335810102
 30
0.0
 42
-0.4142135623730951
  0
SEQEND
  5
2BA
  8
SCREW_LOCATION_MARKERS
  0
POLYLINE
  5
83
  8
SCREW_LOCATION_MARKERS
 66
     1
 10
0.0
 20
0.0
 30
0.0
 70
     1
  0
VERTEX
  5
27F
  8
SCREW_LOCATION_MARKERS
 10
77.74630354049576
 20
46.27875335810101
 30
0.0
 42
-0.4142135623730951
  0
VERTEX
  5
280
  8
SCREW_LOCATION_MARKERS
 10
77.61630354049576
 20
46.40875335810102
 30
0.0
 42
-0.4142135623730951
  0
VERTEX
  5
281
  8
SCREW_LOCATION_MARKERS
 10
77.74630354049576
 20
46.53875335810102
 30
0.0
 42
-0.4142135623730951
  0
VERTEX
  5
282
  8
SCREW_LOCATION_MARKERS
 10
77.87630354049575
 20
46.40875335810102
 30
0.0
 42
-0.4142135623730951
  0
SEQEND
  5
2BB
  8
SCREW_LOCATION_MARKERS
  0
POLYLINE
  5
84
  8
SCREW_LOCATION_MARKERS
 66
     1
 10
0.0
 20
0.0
 30
0.0
 70
     1
  0
VERTEX
  5
283
  8
SCREW_LOCATION_MARKERS
 10
63.24630354049517
 20
46.27875335810101
 30
0.0
 42
-0.4142135623730951
  0
VERTEX
  5
284
  8
SCREW_LOCATION_MARKERS
 10
63.11630354049517
 20
46.40875335810102
 30
0.0
 42
-0.4142135623730951
  0
VERTEX
  5
285
  8
SCREW_LOCATION_MARKERS
 10
63.24630354049517
 20
46.53875335810102
 30
0.0
 42
-0.4142135623730951
  0
VERTEX
  5
286
  8
SCREW_LOCATION_MARKERS
 10
63.37630354049517
 20
46.40875335810102
 30
0.0
 42
-0.4142135623730951
  0
SEQEND
  5
2BC
  8
SCREW_LOCATION_MARKERS
  0
POLYLINE
  5
85
  8
SCREW_LOCATION_MARKERS
 66
     1
 10
0.0
 20
0.0
 30
0.0
 70
     1
  0
VERTEX
  5
287
  8
SCREW_LOCATION_MARKERS
 10
55.24630354049517
 20
46.27875335810101
 30
0.0
 42
-0.4142135623730951
  0
VERTEX
  5
288
  8
SCREW_LOCATION_MARKERS
 10
55.11630354049517
 20
46.40875335810102
 30
0.0
 42
-0.4142135623730951
  0
VERTEX
  5
289
  8
SCREW_LOCATION_MARKERS
 10
55.24630354049517
 20
46.53875335810102
 30
0.0
 42
-0.4142135623730951
  0
VERTEX
  5
28A
  8
SCREW_LOCATION_MARKERS
 10
55.37630354049517
 20
46.40875335810102
 30
0.0
 42
-0.4142135623730951
  0
SEQEND
  5
2BD
  8
SCREW_LOCATION_MARKERS
  0
POLYLINE
  5
86
  8
SCREW_LOCATION_MARKERS
 66
     1
 10
0.0
 20
0.0
 30
0.0
 70
     1
  0
VERTEX
  5
28B
  8
SCREW_LOCATION_MARKERS
 10
40.75380354049518
 20
46.27875335810128
 30
0.0
 42
-0.4142135623730951
  0
VERTEX
  5
28C
  8
SCREW_LOCATION_MARKERS
 10
40.62380354049519
 20
46.40875335810128
 30
0.0
 42
-0.4142135623730951
  0
VERTEX
  5
28D
  8
SCREW_LOCATION_MARKERS
 10
40.75380354049518
 20
46.53875335810129
 30
0.0
 42
-0.4142135623730951
  0
VERTEX
  5
28E
  8
SCREW_LOCATION_MARKERS
 10
40.88380354049519
 20
46.40875335810128
 30
0.0
 42
-0.4142135623730951
  0
SEQEND
  5
2BE
  8
SCREW_LOCATION_MARKERS
  0
POLYLINE
  5
87
  8
SCREW_LOCATION_MARKERS
 66
     1
 10
0.0
 20
0.0
 30
0.0
 70
     1
  0
VERTEX
  5
28F
  8
SCREW_LOCATION_MARKERS
 10
32.75380354049518
 20
46.27875335810128
 30
0.0
 42
-0.4142135623730951
  0
VERTEX
  5
290
  8
SCREW_LOCATION_MARKERS
 10
32.62380354049519
 20
46.40875335810128
 30
0.0
 42
-0.4142135623730951
  0
VERTEX
  5
291
  8
SCREW_LOCATION_MARKERS
 10
32.75380354049518
 20
46.53875335810129
 30
0.0
 42
-0.4142135623730951
  0
VERTEX
  5
292
  8
SCREW_LOCATION_MARKERS
 10
32.88380354049519
 20
46.40875335810128
 30
0.0
 42
-0.4142135623730951
  0
SEQEND
  5
2BF
  8
SCREW_LOCATION_MARKERS
  0
POLYLINE
  5
88
  8
SCREW_LOCATION_MARKERS
 66
     1
 10
0.0
 20
0.0
 30
0.0
 70
     1
  0
VERTEX
  5
293
  8
SCREW_LOCATION_MARKERS
 10
18.25380354049568
 20
46.27875335810128
 30
0.0
 42
-0.4142135623730951
  0
VERTEX
  5
294
  8
SCREW_LOCATION_MARKERS
 10
18.12380354049568
 20
46.40875335810128
 30
0.0
 42
-0.4142135623730951
  0
VERTEX
  5
295
  8
SCREW_LOCATION_MARKERS
 10
18.25380354049568
 20
46.53875335810129
 30
0.0
 42
-0.4142135623730951
  0
VERTEX
  5
296
  8
SCREW_LOCATION_MARKERS
 10
18.38380354049568
 20
46.40875335810128
 30
0.0
 42
-0.4142135623730951
  0
SEQEND
  5
2C0
  8
SCREW_LOCATION_MARKERS
  0
POLYLINE
  5
89
  8
SCREW_LOCATION_MARKERS
 66
     1
 10
0.0
 20
0.0
 30
0.0
 70
     1
  0
VERTEX
  5
297
  8
SCREW_LOCATION_MARKERS
 10
10.25380354049568
 20
46.27875335810128
 30
0.0
 42
-0.4142135623730951
  0
VERTEX
  5
298
  8
SCREW_LOCATION_MARKERS
 10
10.12380354049568
 20
46.40875335810128
 30
0.0
 42
-0.4142135623730951
  0
VERTEX
  5
299
  8
SCREW_LOCATION_MARKERS
 10
10.25380354049568
 20
46.53875335810129
 30
0.0
 42
-0.4142135623730951
  0
VERTEX
  5
29A
  8
SCREW_LOCATION_MARKERS
 10
10.38380354049568
 20
46.40875335810128
 30
0.0
 42
-0.4142135623730951
  0
SEQEND
  5
2C1
  8
SCREW_LOCATION_MARKERS
  0
POLYLINE
  5
8A
  8
SCREW_LOCATION_MARKERS
 66
     1
 10
0.0
 20
0.0
 30
0.0
 70
     1
  0
VERTEX
  5
29B
  8
SCREW_LOCATION_MARKERS
 10
25.37752553867135
 20
29.87880624573493
 30
0.0
 42
0.4142135623730951
  0
VERTEX
  5
29C
  8
SCREW_LOCATION_MARKERS
 10
25.50752553867146
 20
29.74880624573494
 30
0.0
 42
0.4142135623730951
  0
VERTEX
  5
29D
  8
SCREW_LOCATION_MARKERS
 10
25.63752553867134
 20
29.87880624573493
 30
0.0
 42
0.4142135623730951
  0
VERTEX
  5
29E
  8
SCREW_LOCATION_MARKERS
 10
25.50752553867146
 20
30.00880624573493
 30
0.0
 42
0.4142135623730951
  0
SEQEND
  5
2C2
  8
SCREW_LOCATION_MARKERS
  0
POLYLINE
  5
8B
  8
SCREW_LOCATION_MARKERS
 66
     1
 10
0.0
 20
0.0
 30
0.0
 70
     1
  0
VERTEX
  5
29F
  8
SCREW_LOCATION_MARKERS
 10
47.87002553867096
 20
29.87880624573482
 30
0.0
 42
0.4142135623730951
  0
VERTEX
  5
2A0
  8
SCREW_LOCATION_MARKERS
 10
48.00002553867084
 20
29.74880624573482
 30
0.0
 42
0.4142135623730951
  0
VERTEX
  5
2A1
  8
SCREW_LOCATION_MARKERS
 10
48.13002553867095
 20
29.87880624573482
 30
0.0
 42
0.4142135623730951
  0
VERTEX
  5
2A2
  8
SCREW_LOCATION_MARKERS
 10
48.00002553867084
 20
30.00880624573481
 30
0.0
 42
0.4142135623730951
  0
SEQEND
  5
2C3
  8
SCREW_LOCATION_MARKERS
  0
POLYLINE
  5
8C
  8
SCREW_LOCATION_MARKERS
 66
     1
 10
0.0
 20
0.0
 30
0.0
 70
     1
  0
VERTEX
  5
2A3
  8
SCREW_LOCATION_MARKERS
 10
70.36252553867239
 20
29.87880624573368
 30
0.0
 42
0.4142135623730951
  0
VERTEX
  5
2A4
  8
SCREW_LOCATION_MARKERS
 10
70.49252553867227
 20
29.74880624573369
 30
0.0
 42
0.4142135623730951
  0
VERTEX
  5
2A5
  8
SCREW_LOCATION_MARKERS
 10
70.62252553867238
 20
29.87880624573368
 30
0.0
 42
0.4142135623730951
  0
VERTEX
  5
2A6
  8
SCREW_LOCATION_MARKERS
 10
70.49252553867227
 20
30.00880624573368
 30
0.0
 42
0.4142135623730951
  0
SEQEND
  5
2C4
  8
SCREW_LOCATION_MARKERS
  0
ENDSEC
  0
EOF
