  0
SECTION
  2
HEADER
  9
$ACADVER
  1
AC1009
  9
$DWGCODEPAGE
  3
ansi_1252
  9
$INSBASE
 10
0.0
 20
0.0
 30
0.0
  9
$EXTMIN
 10
2.819999999999696
 20
2.024999999998967
 30
0.0
  9
$EXTMAX
 10
93.1800000000003
 20
45.97500000000103
 30
0.0
  9
$LIMMIN
 10
0.0
 20
0.0
  9
$LIMMAX
 10
12.0
 20
9.0
  9
$ORTHOMODE
 70
     0
  9
$REGENMODE
 70
     1
  9
$FILLMODE
 70
     1
  9
$QTEXTMODE
 70
     0
  9
$MIRRTEXT
 70
     1
  9
$DRAGMODE
 70
     2
  9
$LTSCALE
 40
1.0
  9
$OSMODE
 70
    37
  9
$ATTMODE
 70
     1
  9
$TEXTSIZE
 40
0.2
  9
$TRACEWID
 40
0.05
  9
$TEXTSTYLE
  7
STANDARD
  9
$CLAYER
  8
0
  9
$CELTYPE
  6
BYLAYER
  9
$CECOLOR
 62
   256
  9
$DIMSCALE
 40
1.0
  9
$DIMASZ
 40
0.18
  9
$DIMEXO
 40
0.0625
  9
$DIMDLI
 40
0.38
  9
$DIMRND
 40
0.0
  9
$DIMDLE
 40
0.0
  9
$DIMEXE
 40
0.18
  9
$DIMTP
 40
0.0
  9
$DIMTM
 40
0.0
  9
$DIMTXT
 40
0.18
  9
$DIMCEN
 40
0.09
  9
$DIMTSZ
 40
0.0
  9
$DIMTOL
 70
     0
  9
$DIMLIM
 70
     0
  9
$DIMTIH
 70
     1
  9
$DIMTOH
 70
     1
  9
$DIMSE1
 70
     0
  9
$DIMSE2
 70
     0
  9
$DIMTAD
 70
     0
  9
$DIMZIN
 70
     0
  9
$DIMBLK
  1

  9
$DIMASO
 70
     1
  9
$DIMSHO
 70
     1
  9
$DIMPOST
  1

  9
$DIMAPOST
  1

  9
$DIMALT
 70
     0
  9
$DIMALTD
 70
     2
  9
$DIMALTF
 40
25.4
  9
$DIMLFAC
 40
1.0
  9
$DIMTOFL
 70
     0
  9
$DIMTVP
 40
0.0
  9
$DIMTIX
 70
     0
  9
$DIMSOXD
 70
     0
  9
$DIMSAH
 70
     0
  9
$DIMBLK1
  1

  9
$DIMBLK2
  1

  9
$DIMSTYLE
  2
STANDARD
  9
$DIMCLRD
 70
     0
  9
$DIMCLRE
 70
     0
  9
$DIMCLRT
 70
     0
  9
$DIMTFAC
 40
1.0
  9
$DIMGAP
 40
0.09
  9
$LUNITS
 70
     2
  9
$LUPREC
 70
     4
  9
$SKETCHINC
 40
0.1
  9
$FILLETRAD
 40
0.5
  9
$AUNITS
 70
     0
  9
$AUPREC
 70
     0
  9
$MENU
  1
.
  9
$ELEVATION
 40
0.0
  9
$PELEVATION
 40
0.0
  9
$THICKNESS
 40
0.0
  9
$LIMCHECK
 70
     0
  9
$CHAMFERA
 40
0.0
  9
$CHAMFERB
 40
0.0
  9
$SKPOLY
 70
     0
  9
$TDCREATE
 40
2454910.5
  9
$TDUPDATE
 40
2457916.369305278
  9
$TDINDWG
 40
0.0000000116
  9
$TDUSRTIMER
 40
0.0000000116
  9
$USRTIMER
 70
     1
  9
$ANGBASE
 50
0.0
  9
$ANGDIR
 70
     0
  9
$PDMODE
 70
     0
  9
$PDSIZE
 40
0.0
  9
$PLINEWID
 40
0.0
  9
$COORDS
 70
     1
  9
$SPLFRAME
 70
     0
  9
$SPLINETYPE
 70
     6
  9
$SPLINESEGS
 70
     8
  9
$ATTDIA
 70
     0
  9
$ATTREQ
 70
     1
  9
$HANDLING
 70
     1
  9
$HANDSEED
  5
33B
  9
$SURFTAB1
 70
     6
  9
$SURFTAB2
 70
     6
  9
$SURFTYPE
 70
     6
  9
$SURFU
 70
     6
  9
$SURFV
 70
     6
  9
$UCSNAME
  2

  9
$UCSORG
 10
0.0
 20
0.0
 30
0.0
  9
$UCSXDIR
 10
1.0
 20
0.0
 30
0.0
  9
$UCSYDIR
 10
0.0
 20
1.0
 30
0.0
  9
$PUCSNAME
  2

  9
$PUCSORG
 10
0.0
 20
0.0
 30
0.0
  9
$PUCSXDIR
 10
1.0
 20
0.0
 30
0.0
  9
$PUCSYDIR
 10
0.0
 20
1.0
 30
0.0
  9
$USERI1
 70
     0
  9
$USERI2
 70
     0
  9
$USERI3
 70
     0
  9
$USERI4
 70
     0
  9
$USERI5
 70
     0
  9
$USERR1
 40
0.0
  9
$USERR2
 40
0.0
  9
$USERR3
 40
0.0
  9
$USERR4
 40
0.0
  9
$USERR5
 40
0.0
  9
$WORLDVIEW
 70
     1
  9
$SHADEDGE
 70
     3
  9
$SHADEDIF
 70
    70
  9
$TILEMODE
 70
     1
  9
$MAXACTVP
 70
    64
  9
$PLIMCHECK
 70
     0
  9
$PEXTMIN
 10
1.000000000000000E+20
 20
1.000000000000000E+20
 30
1.000000000000000E+20
  9
$PEXTMAX
 10
-1.000000000000000E+20
 20
-1.000000000000000E+20
 30
-1.000000000000000E+20
  9
$PLIMMIN
 10
0.0
 20
0.0
  9
$PLIMMAX
 10
12.0
 20
9.0
  9
$UNITMODE
 70
     0
  9
$VISRETAIN
 70
     1
  9
$PLINEGEN
 70
     0
  9
$PSLTSCALE
 70
     1
  0
ENDSEC
  0
SECTION
  2
TABLES
  0
TABLE
  2
VPORT
 70
     1
  0
VPORT
  2
*ACTIVE
 70
     0
 10
0.0
 20
0.0
 11
1.0
 21
1.0
 12
10.42990654205607
 22
4.5
 13
0.0
 23
0.0
 14
0.5
 24
0.5
 15
0.5
 25
0.5
 16
0.0
 26
0.0
 36
1.0
 17
0.0
 27
0.0
 37
0.0
 40
9.0
 41
1.972972972850329
 42
50.0
 43
0.0
 44
0.0
 50
0.0
 51
0.0
 71
     0
 72
   100
 73
     1
 74
     3
 75
     0
 76
     0
 77
     0
 78
     0
  0
ENDTAB
  0
TABLE
  2
LTYPE
 70
     2
  0
LTYPE
  2
CONTINUOUS
 70
     0
  3
Solid line
 72
    65
 73
     0
 40
0.0
  0
LTYPE
  2
CONTINUOUS2
 70
     0
  3
Solid Line
 72
    65
 73
     0
 40
0.0
  0
ENDTAB
  0
TABLE
  2
LAYER
 70
     2
  0
LAYER
  2
0
 70
     0
 62
     7
  6
CONTINUOUS
  0
LAYER
  2
THRUCUT
 70
     0
 62
    18
  6
CONTINUOUS
  0
ENDTAB
  0
TABLE
  2
STYLE
 70
     1
  0
STYLE
  2
STANDARD
 70
     0
 40
0.0
 41
1.0
 50
0.0
 71
     0
 42
0.2
  3
txt
  4

  0
ENDTAB
  0
TABLE
  2
VIEW
 70
     0
  0
ENDTAB
  0
TABLE
  2
UCS
 70
     0
  0
ENDTAB
  0
TABLE
  2
APPID
 70
     1
  0
APPID
  2
ACAD
 70
     0
  0
ENDTAB
  0
TABLE
  2
DIMSTYLE
 70
     1
  0
DIMSTYLE
  2
STANDARD
 70
     0
  3

  4

  5

  6

  7

 40
1.0
 41
0.18
 42
0.0625
 43
0.38
 44
0.18
 45
0.0
 46
0.0
 47
0.0
 48
0.0
140
0.18
141
0.09
142
0.0
143
25.4
144
1.0
145
0.0
146
1.0
147
0.09
 71
     0
 72
     0
 73
     1
 74
     1
 75
     0
 76
     0
 77
     0
 78
     0
170
     0
171
     2
172
     0
173
     0
174
     0
175
     0
176
     0
177
     0
178
     0
  0
ENDTAB
  0
ENDSEC
  0
SECTION
  2
BLOCKS
  0
BLOCK
  8
0
  2
$MODEL_SPACE
 70
     0
 10
0.0
 20
0.0
 30
0.0
  3
$MODEL_SPACE
  1

  0
ENDBLK
  5
21
  8
0
  0
BLOCK
 67
     1
  8
0
  2
$PAPER_SPACE
 70
     0
 10
0.0
 20
0.0
 30
0.0
  3
$PAPER_SPACE
  1

  0
ENDBLK
  5
1D
 67
     1
  8
0
  0
ENDSEC
  0
SECTION
  2
ENTITIES
  0
POLYLINE
  5
70
  8
THRUCUT
 66
     1
 10
0.0
 20
0.0
 30
0.0
 70
     1
  0
VERTEX
  5
78
  8
THRUCUT
 10
2.819999999999696
 20
2.024999999999044
 30
0.0
  0
VERTEX
  5
79
  8
THRUCUT
 10
2.819999999999696
 20
3.194999999999045
 30
0.0
 42
-0.4142135623730713
  0
VERTEX
  5
7A
  8
THRUCUT
 10
3.069999999999697
 20
3.444999999999045
 30
0.0
  0
VERTEX
  5
7B
  8
THRUCUT
 10
3.249999999999681
 20
3.444999999999045
 30
0.0
 42
1.0
  0
VERTEX
  5
7C
  8
THRUCUT
 10
3.249999999999681
 20
3.705787401573844
 30
0.0
  0
VERTEX
  5
7D
  8
THRUCUT
 10
3.249999999999685
 20
11.25921259842446
 30
0.0
 42
1.0
  0
VERTEX
  5
7E
  8
THRUCUT
 10
3.249999999999685
 20
11.51999999999924
 30
0.0
  0
VERTEX
  5
7F
  8
THRUCUT
 10
2.999999999999699
 20
11.51999999999924
 30
0.0
 42
-0.4142135623716262
  0
VERTEX
  5
80
  8
THRUCUT
 10
2.819999999999699
 20
11.69999999999924
 30
0.0
  0
VERTEX
  5
81
  8
THRUCUT
 10
2.819999999999699
 20
14.30999999999924
 30
0.0
 42
-0.4142135623735827
  0
VERTEX
  5
82
  8
THRUCUT
 10
2.999999999999697
 20
14.48999999999924
 30
0.0
  0
VERTEX
  5
83
  8
THRUCUT
 10
3.249999999999685
 20
14.48999999999925
 30
0.0
 42
1.0
  0
VERTEX
  5
84
  8
THRUCUT
 10
3.249999999999685
 20
14.7507874015739
 30
0.0
  0
VERTEX
  5
85
  8
THRUCUT
 10
3.249999999999688
 20
22.25421259842425
 30
0.0
 42
1.0
  0
VERTEX
  5
86
  8
THRUCUT
 10
3.249999999999688
 20
22.51499999999904
 30
0.0
  0
VERTEX
  5
87
  8
THRUCUT
 10
2.999999999999703
 20
22.51499999999904
 30
0.0
 42
-0.4142135623716262
  0
VERTEX
  5
88
  8
THRUCUT
 10
2.819999999999704
 20
22.69499999999904
 30
0.0
  0
VERTEX
  5
89
  8
THRUCUT
 10
2.819999999999704
 20
25.30499999999905
 30
0.0
 42
-0.4142135623735827
  0
VERTEX
  5
8A
  8
THRUCUT
 10
2.999999999999701
 20
25.48499999999905
 30
0.0
  0
VERTEX
  5
8B
  8
THRUCUT
 10
3.249999999999689
 20
25.48499999999905
 30
0.0
 42
1.0
  0
VERTEX
  5
8C
  8
THRUCUT
 10
3.249999999999689
 20
25.74578740157385
 30
0.0
  0
VERTEX
  5
8D
  8
THRUCUT
 10
3.249999999999692
 20
33.24921259842455
 30
0.0
 42
1.0
  0
VERTEX
  5
8E
  8
THRUCUT
 10
3.249999999999692
 20
33.50999999999924
 30
0.0
  0
VERTEX
  5
8F
  8
THRUCUT
 10
2.999999999999707
 20
33.50999999999924
 30
0.0
 42
-0.4142135623716262
  0
VERTEX
  5
90
  8
THRUCUT
 10
2.819999999999708
 20
33.68999999999923
 30
0.0
  0
VERTEX
  5
91
  8
THRUCUT
 10
2.819999999999708
 20
36.29999999999923
 30
0.0
 42
-0.4142135623735827
  0
VERTEX
  5
92
  8
THRUCUT
 10
2.999999999999705
 20
36.47999999999924
 30
0.0
  0
VERTEX
  5
93
  8
THRUCUT
 10
3.249999999999693
 20
36.47999999999925
 30
0.0
 42
1.0
  0
VERTEX
  5
94
  8
THRUCUT
 10
3.249999999999693
 20
36.74078740157371
 30
0.0
  0
VERTEX
  5
95
  8
THRUCUT
 10
3.249999999999696
 20
44.29421259842425
 30
0.0
 42
1.0
  0
VERTEX
  5
96
  8
THRUCUT
 10
3.249999999999696
 20
44.55499999999904
 30
0.0
  0
VERTEX
  5
97
  8
THRUCUT
 10
3.069999999999697
 20
44.55499999999907
 30
0.0
 42
-0.4142135623733295
  0
VERTEX
  5
98
  8
THRUCUT
 10
2.819999999999718
 20
44.80499999999907
 30
0.0
  0
VERTEX
  5
99
  8
THRUCUT
 10
2.819999999999706
 20
45.974999999999
 30
0.0
  0
VERTEX
  5
9A
  8
THRUCUT
 10
25.25750000000057
 20
45.97500000000103
 30
0.0
  0
VERTEX
  5
9B
  8
THRUCUT
 10
25.25750000000058
 20
44.69338709677521
 30
0.0
  0
VERTEX
  5
9C
  8
THRUCUT
 10
25.24950195312558
 20
44.69319257182562
 30
0.0
  0
VERTEX
  5
9D
  8
THRUCUT
 10
25.24175781250058
 20
44.692617187501
 30
0.0
  0
VERTEX
  5
9E
  8
THRUCUT
 10
25.23426757812558
 20
44.69167322958771
 30
0.0
  0
VERTEX
  5
9F
  8
THRUCUT
 10
25.22703125000058
 20
44.69037298387198
 30
0.0
  0
VERTEX
  5
A0
  8
THRUCUT
 10
25.22004882812558
 20
44.68872873614012
 30
0.0
  0
VERTEX
  5
A1
  8
THRUCUT
 10
25.21332031250058
 20
44.68675277217844
 30
0.0
  0
VERTEX
  5
A2
  8
THRUCUT
 10
25.20684570312558
 20
44.6844573777732
 30
0.0
  0
VERTEX
  5
A3
  8
THRUCUT
 10
25.20062500000058
 20
44.68185483871069
 30
0.0
  0
VERTEX
  5
A4
  8
THRUCUT
 10
25.19465820312558
 20
44.67895744077721
 30
0.0
  0
VERTEX
  5
A5
  8
THRUCUT
 10
25.18894531250058
 20
44.67577746975908
 30
0.0
  0
VERTEX
  5
A6
  8
THRUCUT
 10
25.18348632812558
 20
44.67232721144255
 30
0.0
  0
VERTEX
  5
A7
  8
THRUCUT
 10
25.17828125000058
 20
44.66861895161392
 30
0.0
  0
VERTEX
  5
A8
  8
THRUCUT
 10
25.17333007812558
 20
44.66466497605947
 30
0.0
  0
VERTEX
  5
A9
  8
THRUCUT
 10
25.16863281250058
 20
44.66047757056553
 30
0.0
  0
VERTEX
  5
AA
  8
THRUCUT
 10
25.16418945312559
 20
44.65606902091837
 30
0.0
  0
VERTEX
  5
AB
  8
THRUCUT
 10
25.16000000000058
 20
44.65145161290425
 30
0.0
  0
VERTEX
  5
AC
  8
THRUCUT
 10
25.15606445312558
 20
44.64663763230949
 30
0.0
  0
VERTEX
  5
AD
  8
THRUCUT
 10
25.15238281250058
 20
44.64163936492038
 30
0.0
  0
VERTEX
  5
AE
  8
THRUCUT
 10
25.14578125000059
 20
44.63113911290425
 30
0.0
  0
VERTEX
  5
AF
  8
THRUCUT
 10
25.14019531250058
 20
44.62004914314618
 30
0.0
  0
VERTEX
  5
B0
  8
THRUCUT
 10
25.13562500000058
 20
44.60846774193651
 30
0.0
  0
VERTEX
  5
B1
  8
THRUCUT
 10
25.13207031250058
 20
44.59649319556554
 30
0.0
  0
VERTEX
  5
B2
  8
THRUCUT
 10
25.12953125000058
 20
44.58422379032361
 30
0.0
  0
VERTEX
  5
B3
  8
THRUCUT
 10
25.12800781250058
 20
44.57175781250103
 30
0.0
  0
VERTEX
  5
B4
  8
THRUCUT
 10
25.12750000000058
 20
44.55919354838812
 30
0.0
  0
VERTEX
  5
B5
  8
THRUCUT
 10
25.12800781250058
 20
44.54662928427521
 30
0.0
  0
VERTEX
  5
B6
  8
THRUCUT
 10
25.12953125000058
 20
44.53416330645264
 30
0.0
  0
VERTEX
  5
B7
  8
THRUCUT
 10
25.13207031250058
 20
44.5218939012107
 30
0.0
  0
VERTEX
  5
B8
  8
THRUCUT
 10
25.13562500000058
 20
44.50991935483974
 30
0.0
  0
VERTEX
  5
B9
  8
THRUCUT
 10
25.14019531250058
 20
44.49833795363006
 30
0.0
  0
VERTEX
  5
BA
  8
THRUCUT
 10
25.14578125000059
 20
44.487247983872
 30
0.0
  0
VERTEX
  5
BB
  8
THRUCUT
 10
25.14895507812559
 20
44.48191800025305
 30
0.0
  0
VERTEX
  5
BC
  8
THRUCUT
 10
25.15238281250058
 20
44.47674773185587
 30
0.0
  0
VERTEX
  5
BD
  8
THRUCUT
 10
25.15606445312558
 20
44.47174946446674
 30
0.0
  0
VERTEX
  5
BE
  8
THRUCUT
 10
25.16000000000058
 20
44.46693548387199
 30
0.0
  0
VERTEX
  5
BF
  8
THRUCUT
 10
25.16418945312559
 20
44.46231807585788
 30
0.0
  0
VERTEX
  5
C0
  8
THRUCUT
 10
25.16863281250058
 20
44.45790952621071
 30
0.0
  0
VERTEX
  5
C1
  8
THRUCUT
 10
25.17333007812558
 20
44.45372212071676
 30
0.0
  0
VERTEX
  5
C2
  8
THRUCUT
 10
25.17828125000058
 20
44.44976814516231
 30
0.0
  0
VERTEX
  5
C3
  8
THRUCUT
 10
25.18348632812558
 20
44.44605988533368
 30
0.0
  0
VERTEX
  5
C4
  8
THRUCUT
 10
25.18894531250058
 20
44.44260962701716
 30
0.0
  0
VERTEX
  5
C5
  8
THRUCUT
 10
25.19465820312558
 20
44.43942965599902
 30
0.0
  0
VERTEX
  5
C6
  8
THRUCUT
 10
25.20062500000058
 20
44.43653225806554
 30
0.0
  0
VERTEX
  5
C7
  8
THRUCUT
 10
25.20684570312558
 20
44.43392971900305
 30
0.0
  0
VERTEX
  5
C8
  8
THRUCUT
 10
25.21332031250058
 20
44.43163432459779
 30
0.0
  0
VERTEX
  5
C9
  8
THRUCUT
 10
25.22004882812558
 20
44.42965836063611
 30
0.0
  0
VERTEX
  5
CA
  8
THRUCUT
 10
25.22703125000058
 20
44.42801411290425
 30
0.0
  0
VERTEX
  5
CB
  8
THRUCUT
 10
25.23426757812558
 20
44.42671386718854
 30
0.0
  0
VERTEX
  5
CC
  8
THRUCUT
 10
25.24175781250058
 20
44.42576990927523
 30
0.0
  0
VERTEX
  5
CD
  8
THRUCUT
 10
25.24950195312558
 20
44.42519452495063
 30
0.0
  0
VERTEX
  5
CE
  8
THRUCUT
 10
25.25750000000058
 20
44.42500000000102
 30
0.0
  0
VERTEX
  5
CF
  8
THRUCUT
 10
25.75750000000058
 20
44.42500000000102
 30
0.0
  0
VERTEX
  5
D0
  8
THRUCUT
 10
25.76549804687558
 20
44.42519452495063
 30
0.0
  0
VERTEX
  5
D1
  8
THRUCUT
 10
25.77324218750058
 20
44.42576990927523
 30
0.0
  0
VERTEX
  5
D2
  8
THRUCUT
 10
25.78073242187558
 20
44.42671386718854
 30
0.0
  0
VERTEX
  5
D3
  8
THRUCUT
 10
25.78796875000058
 20
44.42801411290425
 30
0.0
  0
VERTEX
  5
D4
  8
THRUCUT
 10
25.79495117187558
 20
44.42965836063611
 30
0.0
  0
VERTEX
  5
D5
  8
THRUCUT
 10
25.80167968750058
 20
44.43163432459779
 30
0.0
  0
VERTEX
  5
D6
  8
THRUCUT
 10
25.80815429687558
 20
44.43392971900305
 30
0.0
  0
VERTEX
  5
D7
  8
THRUCUT
 10
25.81437500000058
 20
44.43653225806554
 30
0.0
  0
VERTEX
  5
D8
  8
THRUCUT
 10
25.82034179687557
 20
44.43942965599902
 30
0.0
  0
VERTEX
  5
D9
  8
THRUCUT
 10
25.82605468750058
 20
44.44260962701716
 30
0.0
  0
VERTEX
  5
DA
  8
THRUCUT
 10
25.83151367187558
 20
44.44605988533368
 30
0.0
  0
VERTEX
  5
DB
  8
THRUCUT
 10
25.83671875000058
 20
44.44976814516231
 30
0.0
  0
VERTEX
  5
DC
  8
THRUCUT
 10
25.84166992187558
 20
44.45372212071676
 30
0.0
  0
VERTEX
  5
DD
  8
THRUCUT
 10
25.84636718750058
 20
44.45790952621071
 30
0.0
  0
VERTEX
  5
DE
  8
THRUCUT
 10
25.85081054687557
 20
44.46231807585788
 30
0.0
  0
VERTEX
  5
DF
  8
THRUCUT
 10
25.85500000000058
 20
44.46693548387199
 30
0.0
  0
VERTEX
  5
E0
  8
THRUCUT
 10
25.85893554687557
 20
44.47174946446674
 30
0.0
  0
VERTEX
  5
E1
  8
THRUCUT
 10
25.86261718750058
 20
44.47674773185587
 30
0.0
  0
VERTEX
  5
E2
  8
THRUCUT
 10
25.86921875000057
 20
44.487247983872
 30
0.0
  0
VERTEX
  5
E3
  8
THRUCUT
 10
25.87480468750057
 20
44.49833795363006
 30
0.0
  0
VERTEX
  5
E4
  8
THRUCUT
 10
25.87937500000058
 20
44.50991935483974
 30
0.0
  0
VERTEX
  5
E5
  8
THRUCUT
 10
25.88292968750058
 20
44.5218939012107
 30
0.0
  0
VERTEX
  5
E6
  8
THRUCUT
 10
25.88546875000058
 20
44.53416330645264
 30
0.0
  0
VERTEX
  5
E7
  8
THRUCUT
 10
25.88699218750057
 20
44.54662928427521
 30
0.0
  0
VERTEX
  5
E8
  8
THRUCUT
 10
25.88750000000057
 20
44.55919354838812
 30
0.0
  0
VERTEX
  5
E9
  8
THRUCUT
 10
25.88699218750057
 20
44.57175781250103
 30
0.0
  0
VERTEX
  5
EA
  8
THRUCUT
 10
25.88546875000058
 20
44.58422379032361
 30
0.0
  0
VERTEX
  5
EB
  8
THRUCUT
 10
25.88292968750058
 20
44.59649319556554
 30
0.0
  0
VERTEX
  5
EC
  8
THRUCUT
 10
25.87937500000058
 20
44.60846774193651
 30
0.0
  0
VERTEX
  5
ED
  8
THRUCUT
 10
25.87480468750057
 20
44.62004914314618
 30
0.0
  0
VERTEX
  5
EE
  8
THRUCUT
 10
25.86921875000057
 20
44.63113911290425
 30
0.0
  0
VERTEX
  5
EF
  8
THRUCUT
 10
25.86604492187557
 20
44.6364690965232
 30
0.0
  0
VERTEX
  5
F0
  8
THRUCUT
 10
25.86261718750058
 20
44.64163936492038
 30
0.0
  0
VERTEX
  5
F1
  8
THRUCUT
 10
25.85893554687557
 20
44.64663763230949
 30
0.0
  0
VERTEX
  5
F2
  8
THRUCUT
 10
25.85500000000058
 20
44.65145161290425
 30
0.0
  0
VERTEX
  5
F3
  8
THRUCUT
 10
25.85081054687557
 20
44.65606902091837
 30
0.0
  0
VERTEX
  5
F4
  8
THRUCUT
 10
25.84636718750058
 20
44.66047757056553
 30
0.0
  0
VERTEX
  5
F5
  8
THRUCUT
 10
25.84166992187558
 20
44.66466497605947
 30
0.0
  0
VERTEX
  5
F6
  8
THRUCUT
 10
25.83671875000058
 20
44.66861895161392
 30
0.0
  0
VERTEX
  5
F7
  8
THRUCUT
 10
25.83151367187558
 20
44.67232721144255
 30
0.0
  0
VERTEX
  5
F8
  8
THRUCUT
 10
25.82605468750058
 20
44.67577746975908
 30
0.0
  0
VERTEX
  5
F9
  8
THRUCUT
 10
25.82034179687557
 20
44.67895744077721
 30
0.0
  0
VERTEX
  5
FA
  8
THRUCUT
 10
25.81437500000058
 20
44.68185483871069
 30
0.0
  0
VERTEX
  5
FB
  8
THRUCUT
 10
25.80815429687558
 20
44.6844573777732
 30
0.0
  0
VERTEX
  5
FC
  8
THRUCUT
 10
25.80167968750058
 20
44.68675277217844
 30
0.0
  0
VERTEX
  5
FD
  8
THRUCUT
 10
25.79495117187558
 20
44.68872873614012
 30
0.0
  0
VERTEX
  5
FE
  8
THRUCUT
 10
25.78796875000058
 20
44.69037298387198
 30
0.0
  0
VERTEX
  5
FF
  8
THRUCUT
 10
25.78073242187558
 20
44.69167322958771
 30
0.0
  0
VERTEX
  5
100
  8
THRUCUT
 10
25.77324218750058
 20
44.692617187501
 30
0.0
  0
VERTEX
  5
101
  8
THRUCUT
 10
25.76549804687558
 20
44.69319257182562
 30
0.0
  0
VERTEX
  5
102
  8
THRUCUT
 10
25.75750000000058
 20
44.69338709677521
 30
0.0
  0
VERTEX
  5
103
  8
THRUCUT
 10
25.75750000000057
 20
45.97500000000102
 30
0.0
  0
VERTEX
  5
104
  8
THRUCUT
 10
47.75000000000082
 20
45.97499999999907
 30
0.0
  0
VERTEX
  5
105
  8
THRUCUT
 10
47.75000000000086
 20
44.69338709677325
 30
0.0
  0
VERTEX
  5
106
  8
THRUCUT
 10
47.74200195312586
 20
44.69319257182367
 30
0.0
  0
VERTEX
  5
107
  8
THRUCUT
 10
47.73425781250086
 20
44.69261718749907
 30
0.0
  0
VERTEX
  5
108
  8
THRUCUT
 10
47.72676757812586
 20
44.69167322958576
 30
0.0
  0
VERTEX
  5
109
  8
THRUCUT
 10
47.71953125000086
 20
44.69037298387003
 30
0.0
  0
VERTEX
  5
10A
  8
THRUCUT
 10
47.71254882812586
 20
44.68872873613819
 30
0.0
  0
VERTEX
  5
10B
  8
THRUCUT
 10
47.70582031250086
 20
44.68675277217649
 30
0.0
  0
VERTEX
  5
10C
  8
THRUCUT
 10
47.69934570312586
 20
44.68445737777125
 30
0.0
  0
VERTEX
  5
10D
  8
THRUCUT
 10
47.69312500000086
 20
44.68185483870874
 30
0.0
  0
VERTEX
  5
10E
  8
THRUCUT
 10
47.68715820312586
 20
44.67895744077528
 30
0.0
  0
VERTEX
  5
10F
  8
THRUCUT
 10
47.68144531250086
 20
44.67577746975714
 30
0.0
  0
VERTEX
  5
110
  8
THRUCUT
 10
47.67598632812586
 20
44.6723272114406
 30
0.0
  0
VERTEX
  5
111
  8
THRUCUT
 10
47.67078125000086
 20
44.66861895161198
 30
0.0
  0
VERTEX
  5
112
  8
THRUCUT
 10
47.66583007812586
 20
44.66466497605754
 30
0.0
  0
VERTEX
  5
113
  8
THRUCUT
 10
47.66113281250087
 20
44.66047757056359
 30
0.0
  0
VERTEX
  5
114
  8
THRUCUT
 10
47.65668945312586
 20
44.65606902091641
 30
0.0
  0
VERTEX
  5
115
  8
THRUCUT
 10
47.65250000000086
 20
44.65145161290229
 30
0.0
  0
VERTEX
  5
116
  8
THRUCUT
 10
47.64856445312586
 20
44.64663763230753
 30
0.0
  0
VERTEX
  5
117
  8
THRUCUT
 10
47.64488281250086
 20
44.64163936491842
 30
0.0
  0
VERTEX
  5
118
  8
THRUCUT
 10
47.63828125000086
 20
44.63113911290229
 30
0.0
  0
VERTEX
  5
119
  8
THRUCUT
 10
47.63269531250086
 20
44.62004914314421
 30
0.0
  0
VERTEX
  5
11A
  8
THRUCUT
 10
47.62812500000086
 20
44.60846774193455
 30
0.0
  0
VERTEX
  5
11B
  8
THRUCUT
 10
47.62457031250086
 20
44.59649319556358
 30
0.0
  0
VERTEX
  5
11C
  8
THRUCUT
 10
47.62203125000085
 20
44.58422379032163
 30
0.0
  0
VERTEX
  5
11D
  8
THRUCUT
 10
47.62050781250085
 20
44.57175781249907
 30
0.0
  0
VERTEX
  5
11E
  8
THRUCUT
 10
47.62000000000086
 20
44.55919354838616
 30
0.0
  0
VERTEX
  5
11F
  8
THRUCUT
 10
47.62050781250085
 20
44.54662928427325
 30
0.0
  0
VERTEX
  5
120
  8
THRUCUT
 10
47.62203125000085
 20
44.53416330645068
 30
0.0
  0
VERTEX
  5
121
  8
THRUCUT
 10
47.62457031250086
 20
44.52189390120874
 30
0.0
  0
VERTEX
  5
122
  8
THRUCUT
 10
47.62812500000086
 20
44.50991935483778
 30
0.0
  0
VERTEX
  5
123
  8
THRUCUT
 10
47.63269531250086
 20
44.49833795362809
 30
0.0
  0
VERTEX
  5
124
  8
THRUCUT
 10
47.63828125000086
 20
44.48724798387002
 30
0.0
  0
VERTEX
  5
125
  8
THRUCUT
 10
47.64145507812586
 20
44.48191800025107
 30
0.0
  0
VERTEX
  5
126
  8
THRUCUT
 10
47.64488281250086
 20
44.47674773185391
 30
0.0
  0
VERTEX
  5
127
  8
THRUCUT
 10
47.64856445312586
 20
44.47174946446479
 30
0.0
  0
VERTEX
  5
128
  8
THRUCUT
 10
47.65250000000086
 20
44.46693548387003
 30
0.0
  0
VERTEX
  5
129
  8
THRUCUT
 10
47.65668945312586
 20
44.46231807585592
 30
0.0
  0
VERTEX
  5
12A
  8
THRUCUT
 10
47.66113281250087
 20
44.45790952620874
 30
0.0
  0
VERTEX
  5
12B
  8
THRUCUT
 10
47.66583007812586
 20
44.45372212071479
 30
0.0
  0
VERTEX
  5
12C
  8
THRUCUT
 10
47.67078125000086
 20
44.44976814516035
 30
0.0
  0
VERTEX
  5
12D
  8
THRUCUT
 10
47.67598632812586
 20
44.44605988533171
 30
0.0
  0
VERTEX
  5
12E
  8
THRUCUT
 10
47.68144531250086
 20
44.44260962701519
 30
0.0
  0
VERTEX
  5
12F
  8
THRUCUT
 10
47.68715820312586
 20
44.43942965599705
 30
0.0
  0
VERTEX
  5
130
  8
THRUCUT
 10
47.69312500000086
 20
44.43653225806356
 30
0.0
  0
VERTEX
  5
131
  8
THRUCUT
 10
47.69934570312586
 20
44.43392971900107
 30
0.0
  0
VERTEX
  5
132
  8
THRUCUT
 10
47.70582031250086
 20
44.43163432459582
 30
0.0
  0
VERTEX
  5
133
  8
THRUCUT
 10
47.71254882812586
 20
44.42965836063414
 30
0.0
  0
VERTEX
  5
134
  8
THRUCUT
 10
47.71953125000086
 20
44.42801411290228
 30
0.0
  0
VERTEX
  5
135
  8
THRUCUT
 10
47.72676757812586
 20
44.42671386718655
 30
0.0
  0
VERTEX
  5
136
  8
THRUCUT
 10
47.73425781250086
 20
44.42576990927326
 30
0.0
  0
VERTEX
  5
137
  8
THRUCUT
 10
47.74200195312586
 20
44.42519452494865
 30
0.0
  0
VERTEX
  5
138
  8
THRUCUT
 10
47.75000000000086
 20
44.42499999999906
 30
0.0
  0
VERTEX
  5
139
  8
THRUCUT
 10
48.25000000000086
 20
44.42499999999906
 30
0.0
  0
VERTEX
  5
13A
  8
THRUCUT
 10
48.25799804687585
 20
44.42519452494865
 30
0.0
  0
VERTEX
  5
13B
  8
THRUCUT
 10
48.26574218750086
 20
44.42576990927326
 30
0.0
  0
VERTEX
  5
13C
  8
THRUCUT
 10
48.27323242187586
 20
44.42671386718655
 30
0.0
  0
VERTEX
  5
13D
  8
THRUCUT
 10
48.28046875000086
 20
44.42801411290228
 30
0.0
  0
VERTEX
  5
13E
  8
THRUCUT
 10
48.28745117187586
 20
44.42965836063414
 30
0.0
  0
VERTEX
  5
13F
  8
THRUCUT
 10
48.29417968750086
 20
44.43163432459582
 30
0.0
  0
VERTEX
  5
140
  8
THRUCUT
 10
48.30065429687586
 20
44.43392971900107
 30
0.0
  0
VERTEX
  5
141
  8
THRUCUT
 10
48.30687500000086
 20
44.43653225806356
 30
0.0
  0
VERTEX
  5
142
  8
THRUCUT
 10
48.31284179687586
 20
44.43942965599705
 30
0.0
  0
VERTEX
  5
143
  8
THRUCUT
 10
48.31855468750086
 20
44.44260962701519
 30
0.0
  0
VERTEX
  5
144
  8
THRUCUT
 10
48.32401367187586
 20
44.44605988533171
 30
0.0
  0
VERTEX
  5
145
  8
THRUCUT
 10
48.32921875000086
 20
44.44976814516035
 30
0.0
  0
VERTEX
  5
146
  8
THRUCUT
 10
48.33416992187585
 20
44.45372212071479
 30
0.0
  0
VERTEX
  5
147
  8
THRUCUT
 10
48.33886718750085
 20
44.45790952620874
 30
0.0
  0
VERTEX
  5
148
  8
THRUCUT
 10
48.34331054687586
 20
44.46231807585589
 30
0.0
  0
VERTEX
  5
149
  8
THRUCUT
 10
48.34750000000086
 20
44.46693548387002
 30
0.0
  0
VERTEX
  5
14A
  8
THRUCUT
 10
48.35143554687586
 20
44.47174946446478
 30
0.0
  0
VERTEX
  5
14B
  8
THRUCUT
 10
48.35511718750086
 20
44.47674773185389
 30
0.0
  0
VERTEX
  5
14C
  8
THRUCUT
 10
48.36171875000086
 20
44.48724798387002
 30
0.0
  0
VERTEX
  5
14D
  8
THRUCUT
 10
48.36730468750086
 20
44.49833795362808
 30
0.0
  0
VERTEX
  5
14E
  8
THRUCUT
 10
48.37187500000086
 20
44.50991935483776
 30
0.0
  0
VERTEX
  5
14F
  8
THRUCUT
 10
48.37542968750086
 20
44.52189390120873
 30
0.0
  0
VERTEX
  5
150
  8
THRUCUT
 10
48.37796875000087
 20
44.53416330645067
 30
0.0
  0
VERTEX
  5
151
  8
THRUCUT
 10
48.37949218750087
 20
44.54662928427325
 30
0.0
  0
VERTEX
  5
152
  8
THRUCUT
 10
48.38000000000086
 20
44.55919354838615
 30
0.0
  0
VERTEX
  5
153
  8
THRUCUT
 10
48.37949218750087
 20
44.57175781249906
 30
0.0
  0
VERTEX
  5
154
  8
THRUCUT
 10
48.37796875000087
 20
44.58422379032163
 30
0.0
  0
VERTEX
  5
155
  8
THRUCUT
 10
48.37542968750086
 20
44.59649319556358
 30
0.0
  0
VERTEX
  5
156
  8
THRUCUT
 10
48.37187500000086
 20
44.60846774193455
 30
0.0
  0
VERTEX
  5
157
  8
THRUCUT
 10
48.36730468750086
 20
44.62004914314421
 30
0.0
  0
VERTEX
  5
158
  8
THRUCUT
 10
48.36171875000086
 20
44.63113911290229
 30
0.0
  0
VERTEX
  5
159
  8
THRUCUT
 10
48.35854492187586
 20
44.63646909652124
 30
0.0
  0
VERTEX
  5
15A
  8
THRUCUT
 10
48.35511718750086
 20
44.64163936491842
 30
0.0
  0
VERTEX
  5
15B
  8
THRUCUT
 10
48.35143554687586
 20
44.64663763230753
 30
0.0
  0
VERTEX
  5
15C
  8
THRUCUT
 10
48.34750000000086
 20
44.65145161290229
 30
0.0
  0
VERTEX
  5
15D
  8
THRUCUT
 10
48.34331054687586
 20
44.65606902091641
 30
0.0
  0
VERTEX
  5
15E
  8
THRUCUT
 10
48.33886718750085
 20
44.66047757056357
 30
0.0
  0
VERTEX
  5
15F
  8
THRUCUT
 10
48.33416992187585
 20
44.66466497605752
 30
0.0
  0
VERTEX
  5
160
  8
THRUCUT
 10
48.32921875000086
 20
44.66861895161196
 30
0.0
  0
VERTEX
  5
161
  8
THRUCUT
 10
48.32401367187586
 20
44.6723272114406
 30
0.0
  0
VERTEX
  5
162
  8
THRUCUT
 10
48.31855468750086
 20
44.67577746975712
 30
0.0
  0
VERTEX
  5
163
  8
THRUCUT
 10
48.31284179687586
 20
44.67895744077525
 30
0.0
  0
VERTEX
  5
164
  8
THRUCUT
 10
48.30687500000086
 20
44.68185483870873
 30
0.0
  0
VERTEX
  5
165
  8
THRUCUT
 10
48.30065429687586
 20
44.68445737777124
 30
0.0
  0
VERTEX
  5
166
  8
THRUCUT
 10
48.29417968750086
 20
44.68675277217648
 30
0.0
  0
VERTEX
  5
167
  8
THRUCUT
 10
48.28745117187586
 20
44.68872873613816
 30
0.0
  0
VERTEX
  5
168
  8
THRUCUT
 10
48.28046875000086
 20
44.69037298387002
 30
0.0
  0
VERTEX
  5
169
  8
THRUCUT
 10
48.27323242187586
 20
44.69167322958575
 30
0.0
  0
VERTEX
  5
16A
  8
THRUCUT
 10
48.26574218750086
 20
44.69261718749905
 30
0.0
  0
VERTEX
  5
16B
  8
THRUCUT
 10
48.25799804687585
 20
44.69319257182366
 30
0.0
  0
VERTEX
  5
16C
  8
THRUCUT
 10
48.25000000000086
 20
44.69338709677325
 30
0.0
  0
VERTEX
  5
16D
  8
THRUCUT
 10
48.25000000000085
 20
45.97499999999906
 30
0.0
  0
VERTEX
  5
16E
  8
THRUCUT
 10
70.24250000000211
 20
45.97499999999907
 30
0.0
  0
VERTEX
  5
16F
  8
THRUCUT
 10
70.24250000000197
 20
44.69338709677325
 30
0.0
  0
VERTEX
  5
170
  8
THRUCUT
 10
70.23450195312698
 20
44.69319257182366
 30
0.0
  0
VERTEX
  5
171
  8
THRUCUT
 10
70.22675781250199
 20
44.69261718749905
 30
0.0
  0
VERTEX
  5
172
  8
THRUCUT
 10
70.21926757812699
 20
44.69167322958575
 30
0.0
  0
VERTEX
  5
173
  8
THRUCUT
 10
70.21203125000198
 20
44.69037298387002
 30
0.0
  0
VERTEX
  5
174
  8
THRUCUT
 10
70.20504882812699
 20
44.68872873613816
 30
0.0
  0
VERTEX
  5
175
  8
THRUCUT
 10
70.19832031250199
 20
44.68675277217648
 30
0.0
  0
VERTEX
  5
176
  8
THRUCUT
 10
70.19184570312699
 20
44.68445737777124
 30
0.0
  0
VERTEX
  5
177
  8
THRUCUT
 10
70.18562500000198
 20
44.68185483870873
 30
0.0
  0
VERTEX
  5
178
  8
THRUCUT
 10
70.17965820312698
 20
44.67895744077525
 30
0.0
  0
VERTEX
  5
179
  8
THRUCUT
 10
70.17394531250198
 20
44.67577746975712
 30
0.0
  0
VERTEX
  5
17A
  8
THRUCUT
 10
70.16848632812699
 20
44.6723272114406
 30
0.0
  0
VERTEX
  5
17B
  8
THRUCUT
 10
70.16328125000197
 20
44.66861895161196
 30
0.0
  0
VERTEX
  5
17C
  8
THRUCUT
 10
70.15833007812697
 20
44.66466497605752
 30
0.0
  0
VERTEX
  5
17D
  8
THRUCUT
 10
70.15363281250197
 20
44.66047757056357
 30
0.0
  0
VERTEX
  5
17E
  8
THRUCUT
 10
70.14918945312698
 20
44.65606902091641
 30
0.0
  0
VERTEX
  5
17F
  8
THRUCUT
 10
70.14500000000197
 20
44.65145161290229
 30
0.0
  0
VERTEX
  5
180
  8
THRUCUT
 10
70.14106445312697
 20
44.64663763230753
 30
0.0
  0
VERTEX
  5
181
  8
THRUCUT
 10
70.13738281250198
 20
44.64163936491842
 30
0.0
  0
VERTEX
  5
182
  8
THRUCUT
 10
70.13078125000197
 20
44.63113911290229
 30
0.0
  0
VERTEX
  5
183
  8
THRUCUT
 10
70.12519531250197
 20
44.62004914314421
 30
0.0
  0
VERTEX
  5
184
  8
THRUCUT
 10
70.12062500000198
 20
44.60846774193455
 30
0.0
  0
VERTEX
  5
185
  8
THRUCUT
 10
70.11707031250197
 20
44.59649319556358
 30
0.0
  0
VERTEX
  5
186
  8
THRUCUT
 10
70.11453125000196
 20
44.58422379032163
 30
0.0
  0
VERTEX
  5
187
  8
THRUCUT
 10
70.11300781250198
 20
44.57175781249907
 30
0.0
  0
VERTEX
  5
188
  8
THRUCUT
 10
70.11250000000197
 20
44.55919354838616
 30
0.0
  0
VERTEX
  5
189
  8
THRUCUT
 10
70.11300781250198
 20
44.54662928427325
 30
0.0
  0
VERTEX
  5
18A
  8
THRUCUT
 10
70.11453125000196
 20
44.53416330645068
 30
0.0
  0
VERTEX
  5
18B
  8
THRUCUT
 10
70.11707031250197
 20
44.52189390120874
 30
0.0
  0
VERTEX
  5
18C
  8
THRUCUT
 10
70.12062500000198
 20
44.50991935483778
 30
0.0
  0
VERTEX
  5
18D
  8
THRUCUT
 10
70.12519531250197
 20
44.49833795362809
 30
0.0
  0
VERTEX
  5
18E
  8
THRUCUT
 10
70.13078125000197
 20
44.48724798387002
 30
0.0
  0
VERTEX
  5
18F
  8
THRUCUT
 10
70.13395507812697
 20
44.48191800025107
 30
0.0
  0
VERTEX
  5
190
  8
THRUCUT
 10
70.13738281250198
 20
44.47674773185391
 30
0.0
  0
VERTEX
  5
191
  8
THRUCUT
 10
70.14106445312697
 20
44.47174946446479
 30
0.0
  0
VERTEX
  5
192
  8
THRUCUT
 10
70.14500000000197
 20
44.46693548387003
 30
0.0
  0
VERTEX
  5
193
  8
THRUCUT
 10
70.14918945312698
 20
44.46231807585592
 30
0.0
  0
VERTEX
  5
194
  8
THRUCUT
 10
70.15363281250197
 20
44.45790952620875
 30
0.0
  0
VERTEX
  5
195
  8
THRUCUT
 10
70.15833007812697
 20
44.4537221207148
 30
0.0
  0
VERTEX
  5
196
  8
THRUCUT
 10
70.16328125000197
 20
44.44976814516036
 30
0.0
  0
VERTEX
  5
197
  8
THRUCUT
 10
70.16848632812699
 20
44.44605988533172
 30
0.0
  0
VERTEX
  5
198
  8
THRUCUT
 10
70.17394531250198
 20
44.4426096270152
 30
0.0
  0
VERTEX
  5
199
  8
THRUCUT
 10
70.17965820312698
 20
44.43942965599706
 30
0.0
  0
VERTEX
  5
19A
  8
THRUCUT
 10
70.18562500000198
 20
44.43653225806359
 30
0.0
  0
VERTEX
  5
19B
  8
THRUCUT
 10
70.19184570312699
 20
44.43392971900109
 30
0.0
  0
VERTEX
  5
19C
  8
THRUCUT
 10
70.19832031250199
 20
44.43163432459583
 30
0.0
  0
VERTEX
  5
19D
  8
THRUCUT
 10
70.20504882812699
 20
44.42965836063415
 30
0.0
  0
VERTEX
  5
19E
  8
THRUCUT
 10
70.21203125000198
 20
44.42801411290229
 30
0.0
  0
VERTEX
  5
19F
  8
THRUCUT
 10
70.21926757812699
 20
44.42671386718658
 30
0.0
  0
VERTEX
  5
1A0
  8
THRUCUT
 10
70.22675781250199
 20
44.42576990927327
 30
0.0
  0
VERTEX
  5
1A1
  8
THRUCUT
 10
70.23450195312698
 20
44.42519452494867
 30
0.0
  0
VERTEX
  5
1A2
  8
THRUCUT
 10
70.24250000000197
 20
44.42499999999907
 30
0.0
  0
VERTEX
  5
1A3
  8
THRUCUT
 10
70.74250000000197
 20
44.42499999999907
 30
0.0
  0
VERTEX
  5
1A4
  8
THRUCUT
 10
70.75049804687697
 20
44.42519452494867
 30
0.0
  0
VERTEX
  5
1A5
  8
THRUCUT
 10
70.75824218750196
 20
44.42576990927327
 30
0.0
  0
VERTEX
  5
1A6
  8
THRUCUT
 10
70.76573242187698
 20
44.42671386718658
 30
0.0
  0
VERTEX
  5
1A7
  8
THRUCUT
 10
70.77296875000198
 20
44.42801411290229
 30
0.0
  0
VERTEX
  5
1A8
  8
THRUCUT
 10
70.77995117187697
 20
44.42965836063415
 30
0.0
  0
VERTEX
  5
1A9
  8
THRUCUT
 10
70.78667968750197
 20
44.43163432459583
 30
0.0
  0
VERTEX
  5
1AA
  8
THRUCUT
 10
70.79315429687698
 20
44.43392971900109
 30
0.0
  0
VERTEX
  5
1AB
  8
THRUCUT
 10
70.79937500000197
 20
44.43653225806359
 30
0.0
  0
VERTEX
  5
1AC
  8
THRUCUT
 10
70.80534179687696
 20
44.43942965599706
 30
0.0
  0
VERTEX
  5
1AD
  8
THRUCUT
 10
70.81105468750197
 20
44.4426096270152
 30
0.0
  0
VERTEX
  5
1AE
  8
THRUCUT
 10
70.81651367187698
 20
44.44605988533172
 30
0.0
  0
VERTEX
  5
1AF
  8
THRUCUT
 10
70.82171875000198
 20
44.44976814516036
 30
0.0
  0
VERTEX
  5
1B0
  8
THRUCUT
 10
70.82666992187697
 20
44.4537221207148
 30
0.0
  0
VERTEX
  5
1B1
  8
THRUCUT
 10
70.83136718750197
 20
44.45790952620875
 30
0.0
  0
VERTEX
  5
1B2
  8
THRUCUT
 10
70.83581054687696
 20
44.46231807585592
 30
0.0
  0
VERTEX
  5
1B3
  8
THRUCUT
 10
70.84000000000196
 20
44.46693548387003
 30
0.0
  0
VERTEX
  5
1B4
  8
THRUCUT
 10
70.84393554687696
 20
44.47174946446479
 30
0.0
  0
VERTEX
  5
1B5
  8
THRUCUT
 10
70.84761718750195
 20
44.47674773185391
 30
0.0
  0
VERTEX
  5
1B6
  8
THRUCUT
 10
70.85421875000196
 20
44.48724798387002
 30
0.0
  0
VERTEX
  5
1B7
  8
THRUCUT
 10
70.85980468750196
 20
44.49833795362809
 30
0.0
  0
VERTEX
  5
1B8
  8
THRUCUT
 10
70.86437500000196
 20
44.50991935483778
 30
0.0
  0
VERTEX
  5
1B9
  8
THRUCUT
 10
70.86792968750197
 20
44.52189390120874
 30
0.0
  0
VERTEX
  5
1BA
  8
THRUCUT
 10
70.87046875000198
 20
44.53416330645068
 30
0.0
  0
VERTEX
  5
1BB
  8
THRUCUT
 10
70.87199218750196
 20
44.54662928427325
 30
0.0
  0
VERTEX
  5
1BC
  8
THRUCUT
 10
70.87250000000196
 20
44.55919354838616
 30
0.0
  0
VERTEX
  5
1BD
  8
THRUCUT
 10
70.87199218750196
 20
44.57175781249907
 30
0.0
  0
VERTEX
  5
1BE
  8
THRUCUT
 10
70.87046875000198
 20
44.58422379032163
 30
0.0
  0
VERTEX
  5
1BF
  8
THRUCUT
 10
70.86792968750197
 20
44.59649319556358
 30
0.0
  0
VERTEX
  5
1C0
  8
THRUCUT
 10
70.86437500000196
 20
44.60846774193455
 30
0.0
  0
VERTEX
  5
1C1
  8
THRUCUT
 10
70.85980468750196
 20
44.62004914314421
 30
0.0
  0
VERTEX
  5
1C2
  8
THRUCUT
 10
70.85421875000196
 20
44.63113911290229
 30
0.0
  0
VERTEX
  5
1C3
  8
THRUCUT
 10
70.85104492187696
 20
44.63646909652124
 30
0.0
  0
VERTEX
  5
1C4
  8
THRUCUT
 10
70.84761718750195
 20
44.64163936491842
 30
0.0
  0
VERTEX
  5
1C5
  8
THRUCUT
 10
70.84393554687696
 20
44.64663763230753
 30
0.0
  0
VERTEX
  5
1C6
  8
THRUCUT
 10
70.84000000000196
 20
44.65145161290229
 30
0.0
  0
VERTEX
  5
1C7
  8
THRUCUT
 10
70.83581054687696
 20
44.65606902091641
 30
0.0
  0
VERTEX
  5
1C8
  8
THRUCUT
 10
70.83136718750197
 20
44.66047757056357
 30
0.0
  0
VERTEX
  5
1C9
  8
THRUCUT
 10
70.82666992187697
 20
44.66466497605752
 30
0.0
  0
VERTEX
  5
1CA
  8
THRUCUT
 10
70.82171875000198
 20
44.66861895161196
 30
0.0
  0
VERTEX
  5
1CB
  8
THRUCUT
 10
70.81651367187698
 20
44.6723272114406
 30
0.0
  0
VERTEX
  5
1CC
  8
THRUCUT
 10
70.81105468750197
 20
44.67577746975712
 30
0.0
  0
VERTEX
  5
1CD
  8
THRUCUT
 10
70.80534179687696
 20
44.67895744077525
 30
0.0
  0
VERTEX
  5
1CE
  8
THRUCUT
 10
70.79937500000197
 20
44.68185483870873
 30
0.0
  0
VERTEX
  5
1CF
  8
THRUCUT
 10
70.79315429687698
 20
44.68445737777124
 30
0.0
  0
VERTEX
  5
1D0
  8
THRUCUT
 10
70.78667968750197
 20
44.68675277217648
 30
0.0
  0
VERTEX
  5
1D1
  8
THRUCUT
 10
70.77995117187697
 20
44.68872873613816
 30
0.0
  0
VERTEX
  5
1D2
  8
THRUCUT
 10
70.77296875000198
 20
44.69037298387002
 30
0.0
  0
VERTEX
  5
1D3
  8
THRUCUT
 10
70.76573242187698
 20
44.69167322958575
 30
0.0
  0
VERTEX
  5
1D4
  8
THRUCUT
 10
70.75824218750196
 20
44.69261718749905
 30
0.0
  0
VERTEX
  5
1D5
  8
THRUCUT
 10
70.75049804687697
 20
44.69319257182366
 30
0.0
  0
VERTEX
  5
1D6
  8
THRUCUT
 10
70.74250000000197
 20
44.69338709677325
 30
0.0
  0
VERTEX
  5
1D7
  8
THRUCUT
 10
70.742500000002
 20
45.97499999999906
 30
0.0
  0
VERTEX
  5
1D8
  8
THRUCUT
 10
93.1800000000003
 20
45.974999999999
 30
0.0
  0
VERTEX
  5
1D9
  8
THRUCUT
 10
93.17999999999981
 20
44.80499999999839
 30
0.0
 42
-0.4142135623507107
  0
VERTEX
  5
1DA
  8
THRUCUT
 10
92.92999999999911
 20
44.5549999999985
 30
0.0
  0
VERTEX
  5
1DB
  8
THRUCUT
 10
92.74999999999976
 20
44.554999999999
 30
0.0
 42
1.0
  0
VERTEX
  5
1DC
  8
THRUCUT
 10
92.74999999999976
 20
44.2942125984242
 30
0.0
  0
VERTEX
  5
1DD
  8
THRUCUT
 10
92.74999999999976
 20
36.74078740157354
 30
0.0
 42
1.0
  0
VERTEX
  5
1DE
  8
THRUCUT
 10
92.74999999999976
 20
36.47999999999875
 30
0.0
  0
VERTEX
  5
1DF
  8
THRUCUT
 10
92.99999999999974
 20
36.47999999999875
 30
0.0
 42
-0.4142135623716262
  0
VERTEX
  5
1E0
  8
THRUCUT
 10
93.17999999999975
 20
36.29999999999875
 30
0.0
  0
VERTEX
  5
1E1
  8
THRUCUT
 10
93.17999999999975
 20
33.68999999999875
 30
0.0
 42
-0.4142135623735827
  0
VERTEX
  5
1E2
  8
THRUCUT
 10
92.99999999999974
 20
33.50999999999874
 30
0.0
  0
VERTEX
  5
1E3
  8
THRUCUT
 10
92.74999999999976
 20
33.50999999999874
 30
0.0
 42
1.0
  0
VERTEX
  5
1E4
  8
THRUCUT
 10
92.74999999999976
 20
33.24921259842799
 30
0.0
  0
VERTEX
  5
1E5
  8
THRUCUT
 10
92.74999999999976
 20
25.74578740157368
 30
0.0
 42
1.0
  0
VERTEX
  5
1E6
  8
THRUCUT
 10
92.74999999999976
 20
25.48499999999888
 30
0.0
  0
VERTEX
  5
1E7
  8
THRUCUT
 10
92.9999999999997
 20
25.48499999999895
 30
0.0
 42
-0.4142135623883968
  0
VERTEX
  5
1E8
  8
THRUCUT
 10
93.17999999999975
 20
25.30499999999895
 30
0.0
  0
VERTEX
  5
1E9
  8
THRUCUT
 10
93.17999999999975
 20
22.69499999999896
 30
0.0
 42
-0.4142135623436715
  0
VERTEX
  5
1EA
  8
THRUCUT
 10
92.99999999999979
 20
22.51499999999896
 30
0.0
  0
VERTEX
  5
1EB
  8
THRUCUT
 10
92.74999999999976
 20
22.51499999999891
 30
0.0
 42
1.0
  0
VERTEX
  5
1EC
  8
THRUCUT
 10
92.74999999999976
 20
22.2542125984241
 30
0.0
  0
VERTEX
  5
1ED
  8
THRUCUT
 10
92.74999999999976
 20
14.75078740157073
 30
0.0
 42
1.0
  0
VERTEX
  5
1EE
  8
THRUCUT
 10
92.74999999999976
 20
14.48999999999876
 30
0.0
  0
VERTEX
  5
1EF
  8
THRUCUT
 10
92.99999999999974
 20
14.48999999999876
 30
0.0
 42
-0.4142135623716262
  0
VERTEX
  5
1F0
  8
THRUCUT
 10
93.17999999999975
 20
14.30999999999875
 30
0.0
  0
VERTEX
  5
1F1
  8
THRUCUT
 10
93.17999999999975
 20
11.69999999999875
 30
0.0
 42
-0.4142135623735827
  0
VERTEX
  5
1F2
  8
THRUCUT
 10
92.99999999999974
 20
11.51999999999875
 30
0.0
  0
VERTEX
  5
1F3
  8
THRUCUT
 10
92.74999999999976
 20
11.51999999999875
 30
0.0
 42
1.0
  0
VERTEX
  5
1F4
  8
THRUCUT
 10
92.74999999999976
 20
11.25921259843057
 30
0.0
  0
VERTEX
  5
1F5
  8
THRUCUT
 10
92.74999999999976
 20
3.705787401573784
 30
0.0
 42
1.0
  0
VERTEX
  5
1F6
  8
THRUCUT
 10
92.74999999999976
 20
3.444999999998986
 30
0.0
  0
VERTEX
  5
1F7
  8
THRUCUT
 10
92.9299999999998
 20
3.444999999998946
 30
0.0
 42
-0.4142135623905343
  0
VERTEX
  5
1F8
  8
THRUCUT
 10
93.17999999999974
 20
3.194999999998943
 30
0.0
  0
VERTEX
  5
1F9
  8
THRUCUT
 10
93.17999999999972
 20
2.024999999998967
 30
0.0
  0
VERTEX
  5
1FA
  8
THRUCUT
 10
70.74250000000195
 20
2.024999999999074
 30
0.0
  0
VERTEX
  5
1FB
  8
THRUCUT
 10
70.74250000000193
 20
3.306612903224873
 30
0.0
  0
VERTEX
  5
1FC
  8
THRUCUT
 10
70.75049804687693
 20
3.306807428174469
 30
0.0
  0
VERTEX
  5
1FD
  8
THRUCUT
 10
70.75824218750192
 20
3.307382812499066
 30
0.0
  0
VERTEX
  5
1FE
  8
THRUCUT
 10
70.76573242187692
 20
3.308326770412374
 30
0.0
  0
VERTEX
  5
1FF
  8
THRUCUT
 10
70.77296875000192
 20
3.309627016128098
 30
0.0
  0
VERTEX
  5
200
  8
THRUCUT
 10
70.77995117187692
 20
3.311271263859954
 30
0.0
  0
VERTEX
  5
201
  8
THRUCUT
 10
70.78667968750192
 20
3.313247227821646
 30
0.0
  0
VERTEX
  5
202
  8
THRUCUT
 10
70.79315429687692
 20
3.315542622226888
 30
0.0
  0
VERTEX
  5
203
  8
THRUCUT
 10
70.79937500000193
 20
3.318145161289388
 30
0.0
  0
VERTEX
  5
204
  8
THRUCUT
 10
70.80534179687693
 20
3.321042559222856
 30
0.0
  0
VERTEX
  5
205
  8
THRUCUT
 10
70.81105468750192
 20
3.324222530241002
 30
0.0
  0
VERTEX
  5
206
  8
THRUCUT
 10
70.81651367187692
 20
3.327672788557533
 30
0.0
  0
VERTEX
  5
207
  8
THRUCUT
 10
70.82171875000193
 20
3.331381048386163
 30
0.0
  0
VERTEX
  5
208
  8
THRUCUT
 10
70.82666992187694
 20
3.335335023940598
 30
0.0
  0
VERTEX
  5
209
  8
THRUCUT
 10
70.83136718750194
 20
3.339522429434548
 30
0.0
  0
VERTEX
  5
20A
  8
THRUCUT
 10
70.83581054687693
 20
3.343930979081727
 30
0.0
  0
VERTEX
  5
20B
  8
THRUCUT
 10
70.84000000000194
 20
3.348548387095839
 30
0.0
  0
VERTEX
  5
20C
  8
THRUCUT
 10
70.84393554687693
 20
3.353362367690596
 30
0.0
  0
VERTEX
  5
20D
  8
THRUCUT
 10
70.84761718750192
 20
3.358360635079709
 30
0.0
  0
VERTEX
  5
20E
  8
THRUCUT
 10
70.85421875000193
 20
3.368860887095838
 30
0.0
  0
VERTEX
  5
20F
  8
THRUCUT
 10
70.85980468750193
 20
3.379950856853903
 30
0.0
  0
VERTEX
  5
210
  8
THRUCUT
 10
70.86437500000193
 20
3.39153225806358
 30
0.0
  0
VERTEX
  5
211
  8
THRUCUT
 10
70.86792968750194
 20
3.403506804434548
 30
0.0
  0
VERTEX
  5
212
  8
THRUCUT
 10
70.87046875000195
 20
3.415776209676483
 30
0.0
  0
VERTEX
  5
213
  8
THRUCUT
 10
70.87199218750193
 20
3.428242187499063
 30
0.0
  0
VERTEX
  5
214
  8
THRUCUT
 10
70.87250000000193
 20
3.440806451611965
 30
0.0
  0
VERTEX
  5
215
  8
THRUCUT
 10
70.87199218750193
 20
3.45337071572487
 30
0.0
  0
VERTEX
  5
216
  8
THRUCUT
 10
70.87046875000195
 20
3.46583669354745
 30
0.0
  0
VERTEX
  5
217
  8
THRUCUT
 10
70.86792968750194
 20
3.478106098789385
 30
0.0
  0
VERTEX
  5
218
  8
THRUCUT
 10
70.86437500000193
 20
3.490080645160352
 30
0.0
  0
VERTEX
  5
219
  8
THRUCUT
 10
70.85980468750193
 20
3.50166204637003
 30
0.0
  0
VERTEX
  5
21A
  8
THRUCUT
 10
70.85421875000193
 20
3.512752016128093
 30
0.0
  0
VERTEX
  5
21B
  8
THRUCUT
 10
70.85104492187693
 20
3.518081999747044
 30
0.0
  0
VERTEX
  5
21C
  8
THRUCUT
 10
70.84761718750192
 20
3.523252268144223
 30
0.0
  0
VERTEX
  5
21D
  8
THRUCUT
 10
70.84393554687693
 20
3.528250535533334
 30
0.0
  0
VERTEX
  5
21E
  8
THRUCUT
 10
70.84000000000194
 20
3.533064516128092
 30
0.0
  0
VERTEX
  5
21F
  8
THRUCUT
 10
70.83581054687693
 20
3.537681924142206
 30
0.0
  0
VERTEX
  5
220
  8
THRUCUT
 10
70.83136718750194
 20
3.542090473789382
 30
0.0
  0
VERTEX
  5
221
  8
THRUCUT
 10
70.82666992187694
 20
3.546277879283334
 30
0.0
  0
VERTEX
  5
222
  8
THRUCUT
 10
70.82171875000193
 20
3.55023185483777
 30
0.0
  0
VERTEX
  5
223
  8
THRUCUT
 10
70.81651367187692
 20
3.553940114666398
 30
0.0
  0
VERTEX
  5
224
  8
THRUCUT
 10
70.81105468750192
 20
3.557390372982931
 30
0.0
  0
VERTEX
  5
225
  8
THRUCUT
 10
70.80534179687693
 20
3.560570344001075
 30
0.0
  0
VERTEX
  5
226
  8
THRUCUT
 10
70.79937500000193
 20
3.563467741934543
 30
0.0
  0
VERTEX
  5
227
  8
THRUCUT
 10
70.79315429687692
 20
3.566070280997043
 30
0.0
  0
VERTEX
  5
228
  8
THRUCUT
 10
70.78667968750192
 20
3.568365675402286
 30
0.0
  0
VERTEX
  5
229
  8
THRUCUT
 10
70.77995117187692
 20
3.570341639363979
 30
0.0
  0
VERTEX
  5
22A
  8
THRUCUT
 10
70.77296875000192
 20
3.571985887095833
 30
0.0
  0
VERTEX
  5
22B
  8
THRUCUT
 10
70.76573242187692
 20
3.573286132811559
 30
0.0
  0
VERTEX
  5
22C
  8
THRUCUT
 10
70.75824218750192
 20
3.574230090724865
 30
0.0
  0
VERTEX
  5
22D
  8
THRUCUT
 10
70.75049804687693
 20
3.574805475049462
 30
0.0
  0
VERTEX
  5
22E
  8
THRUCUT
 10
70.74250000000193
 20
3.57499999999906
 30
0.0
  0
VERTEX
  5
22F
  8
THRUCUT
 10
70.24250000000193
 20
3.57499999999906
 30
0.0
  0
VERTEX
  5
230
  8
THRUCUT
 10
70.23450195312692
 20
3.574805475049462
 30
0.0
  0
VERTEX
  5
231
  8
THRUCUT
 10
70.22675781250193
 20
3.574230090724865
 30
0.0
  0
VERTEX
  5
232
  8
THRUCUT
 10
70.21926757812693
 20
3.573286132811559
 30
0.0
  0
VERTEX
  5
233
  8
THRUCUT
 10
70.21203125000193
 20
3.571985887095833
 30
0.0
  0
VERTEX
  5
234
  8
THRUCUT
 10
70.20504882812693
 20
3.570341639363979
 30
0.0
  0
VERTEX
  5
235
  8
THRUCUT
 10
70.19832031250193
 20
3.568365675402286
 30
0.0
  0
VERTEX
  5
236
  8
THRUCUT
 10
70.19184570312693
 20
3.566070280997043
 30
0.0
  0
VERTEX
  5
237
  8
THRUCUT
 10
70.18562500000193
 20
3.563467741934543
 30
0.0
  0
VERTEX
  5
238
  8
THRUCUT
 10
70.17965820312695
 20
3.560570344001075
 30
0.0
  0
VERTEX
  5
239
  8
THRUCUT
 10
70.17394531250194
 20
3.557390372982931
 30
0.0
  0
VERTEX
  5
23A
  8
THRUCUT
 10
70.16848632812693
 20
3.553940114666398
 30
0.0
  0
VERTEX
  5
23B
  8
THRUCUT
 10
70.16328125000193
 20
3.55023185483777
 30
0.0
  0
VERTEX
  5
23C
  8
THRUCUT
 10
70.15833007812694
 20
3.546277879283334
 30
0.0
  0
VERTEX
  5
23D
  8
THRUCUT
 10
70.15363281250194
 20
3.542090473789382
 30
0.0
  0
VERTEX
  5
23E
  8
THRUCUT
 10
70.14918945312692
 20
3.537681924142206
 30
0.0
  0
VERTEX
  5
23F
  8
THRUCUT
 10
70.14500000000193
 20
3.533064516128092
 30
0.0
  0
VERTEX
  5
240
  8
THRUCUT
 10
70.14106445312693
 20
3.528250535533334
 30
0.0
  0
VERTEX
  5
241
  8
THRUCUT
 10
70.13738281250193
 20
3.523252268144223
 30
0.0
  0
VERTEX
  5
242
  8
THRUCUT
 10
70.13078125000192
 20
3.512752016128093
 30
0.0
  0
VERTEX
  5
243
  8
THRUCUT
 10
70.12519531250194
 20
3.50166204637003
 30
0.0
  0
VERTEX
  5
244
  8
THRUCUT
 10
70.12062500000192
 20
3.490080645160352
 30
0.0
  0
VERTEX
  5
245
  8
THRUCUT
 10
70.11707031250194
 20
3.478106098789385
 30
0.0
  0
VERTEX
  5
246
  8
THRUCUT
 10
70.11453125000193
 20
3.46583669354745
 30
0.0
  0
VERTEX
  5
247
  8
THRUCUT
 10
70.11300781250193
 20
3.45337071572487
 30
0.0
  0
VERTEX
  5
248
  8
THRUCUT
 10
70.11250000000193
 20
3.440806451611965
 30
0.0
  0
VERTEX
  5
249
  8
THRUCUT
 10
70.11300781250193
 20
3.428242187499063
 30
0.0
  0
VERTEX
  5
24A
  8
THRUCUT
 10
70.11453125000193
 20
3.415776209676483
 30
0.0
  0
VERTEX
  5
24B
  8
THRUCUT
 10
70.11707031250194
 20
3.403506804434548
 30
0.0
  0
VERTEX
  5
24C
  8
THRUCUT
 10
70.12062500000192
 20
3.39153225806358
 30
0.0
  0
VERTEX
  5
24D
  8
THRUCUT
 10
70.12519531250194
 20
3.379950856853903
 30
0.0
  0
VERTEX
  5
24E
  8
THRUCUT
 10
70.13078125000192
 20
3.368860887095838
 30
0.0
  0
VERTEX
  5
24F
  8
THRUCUT
 10
70.13395507812692
 20
3.363530903476887
 30
0.0
  0
VERTEX
  5
250
  8
THRUCUT
 10
70.13738281250193
 20
3.358360635079709
 30
0.0
  0
VERTEX
  5
251
  8
THRUCUT
 10
70.14106445312693
 20
3.353362367690596
 30
0.0
  0
VERTEX
  5
252
  8
THRUCUT
 10
70.14500000000193
 20
3.348548387095839
 30
0.0
  0
VERTEX
  5
253
  8
THRUCUT
 10
70.14918945312692
 20
3.343930979081727
 30
0.0
  0
VERTEX
  5
254
  8
THRUCUT
 10
70.15363281250194
 20
3.339522429434548
 30
0.0
  0
VERTEX
  5
255
  8
THRUCUT
 10
70.15833007812694
 20
3.335335023940598
 30
0.0
  0
VERTEX
  5
256
  8
THRUCUT
 10
70.16328125000193
 20
3.331381048386163
 30
0.0
  0
VERTEX
  5
257
  8
THRUCUT
 10
70.16848632812693
 20
3.327672788557533
 30
0.0
  0
VERTEX
  5
258
  8
THRUCUT
 10
70.17394531250194
 20
3.324222530241002
 30
0.0
  0
VERTEX
  5
259
  8
THRUCUT
 10
70.17965820312695
 20
3.321042559222856
 30
0.0
  0
VERTEX
  5
25A
  8
THRUCUT
 10
70.18562500000193
 20
3.318145161289388
 30
0.0
  0
VERTEX
  5
25B
  8
THRUCUT
 10
70.19184570312693
 20
3.315542622226888
 30
0.0
  0
VERTEX
  5
25C
  8
THRUCUT
 10
70.19832031250193
 20
3.313247227821646
 30
0.0
  0
VERTEX
  5
25D
  8
THRUCUT
 10
70.20504882812693
 20
3.311271263859954
 30
0.0
  0
VERTEX
  5
25E
  8
THRUCUT
 10
70.21203125000193
 20
3.309627016128098
 30
0.0
  0
VERTEX
  5
25F
  8
THRUCUT
 10
70.21926757812693
 20
3.308326770412374
 30
0.0
  0
VERTEX
  5
260
  8
THRUCUT
 10
70.22675781250193
 20
3.307382812499066
 30
0.0
  0
VERTEX
  5
261
  8
THRUCUT
 10
70.23450195312692
 20
3.306807428174469
 30
0.0
  0
VERTEX
  5
262
  8
THRUCUT
 10
70.24250000000193
 20
3.306612903224873
 30
0.0
  0
VERTEX
  5
263
  8
THRUCUT
 10
70.24250000000195
 20
2.024999999999074
 30
0.0
  0
VERTEX
  5
264
  8
THRUCUT
 10
48.25000000000085
 20
2.024999999999063
 30
0.0
  0
VERTEX
  5
265
  8
THRUCUT
 10
48.25000000000083
 20
3.306612903224865
 30
0.0
  0
VERTEX
  5
266
  8
THRUCUT
 10
48.25799804687583
 20
3.306807428174463
 30
0.0
  0
VERTEX
  5
267
  8
THRUCUT
 10
48.26574218750083
 20
3.30738281249906
 30
0.0
  0
VERTEX
  5
268
  8
THRUCUT
 10
48.27323242187583
 20
3.308326770412366
 30
0.0
  0
VERTEX
  5
269
  8
THRUCUT
 10
48.28046875000084
 20
3.309627016128092
 30
0.0
  0
VERTEX
  5
26A
  8
THRUCUT
 10
48.28745117187583
 20
3.311271263859946
 30
0.0
  0
VERTEX
  5
26B
  8
THRUCUT
 10
48.29417968750083
 20
3.313247227821639
 30
0.0
  0
VERTEX
  5
26C
  8
THRUCUT
 10
48.30065429687583
 20
3.315542622226881
 30
0.0
  0
VERTEX
  5
26D
  8
THRUCUT
 10
48.30687500000083
 20
3.318145161289381
 30
0.0
  0
VERTEX
  5
26E
  8
THRUCUT
 10
48.31284179687583
 20
3.32104255922285
 30
0.0
  0
VERTEX
  5
26F
  8
THRUCUT
 10
48.31855468750083
 20
3.324222530240994
 30
0.0
  0
VERTEX
  5
270
  8
THRUCUT
 10
48.32401367187583
 20
3.327672788557527
 30
0.0
  0
VERTEX
  5
271
  8
THRUCUT
 10
48.32921875000083
 20
3.331381048386155
 30
0.0
  0
VERTEX
  5
272
  8
THRUCUT
 10
48.33416992187583
 20
3.335335023940589
 30
0.0
  0
VERTEX
  5
273
  8
THRUCUT
 10
48.33886718750082
 20
3.33952242943454
 30
0.0
  0
VERTEX
  5
274
  8
THRUCUT
 10
48.34331054687583
 20
3.343930979081719
 30
0.0
  0
VERTEX
  5
275
  8
THRUCUT
 10
48.34750000000083
 20
3.348548387095831
 30
0.0
  0
VERTEX
  5
276
  8
THRUCUT
 10
48.35143554687583
 20
3.353362367690588
 30
0.0
  0
VERTEX
  5
277
  8
THRUCUT
 10
48.35511718750083
 20
3.358360635079702
 30
0.0
  0
VERTEX
  5
278
  8
THRUCUT
 10
48.36171875000083
 20
3.368860887095829
 30
0.0
  0
VERTEX
  5
279
  8
THRUCUT
 10
48.36730468750083
 20
3.379950856853894
 30
0.0
  0
VERTEX
  5
27A
  8
THRUCUT
 10
48.37187500000083
 20
3.39153225806357
 30
0.0
  0
VERTEX
  5
27B
  8
THRUCUT
 10
48.37542968750083
 20
3.403506804434537
 30
0.0
  0
VERTEX
  5
27C
  8
THRUCUT
 10
48.37796875000084
 20
3.415776209676472
 30
0.0
  0
VERTEX
  5
27D
  8
THRUCUT
 10
48.37949218750084
 20
3.428242187499052
 30
0.0
  0
VERTEX
  5
27E
  8
THRUCUT
 10
48.38000000000083
 20
3.440806451611956
 30
0.0
  0
VERTEX
  5
27F
  8
THRUCUT
 10
48.37949218750084
 20
3.453370715724858
 30
0.0
  0
VERTEX
  5
280
  8
THRUCUT
 10
48.37796875000084
 20
3.465836693547438
 30
0.0
  0
VERTEX
  5
281
  8
THRUCUT
 10
48.37542968750083
 20
3.478106098789373
 30
0.0
  0
VERTEX
  5
282
  8
THRUCUT
 10
48.37187500000083
 20
3.490080645160341
 30
0.0
  0
VERTEX
  5
283
  8
THRUCUT
 10
48.36730468750083
 20
3.501662046370016
 30
0.0
  0
VERTEX
  5
284
  8
THRUCUT
 10
48.36171875000083
 20
3.512752016128081
 30
0.0
  0
VERTEX
  5
285
  8
THRUCUT
 10
48.35854492187583
 20
3.518081999747032
 30
0.0
  0
VERTEX
  5
286
  8
THRUCUT
 10
48.35511718750083
 20
3.523252268144209
 30
0.0
  0
VERTEX
  5
287
  8
THRUCUT
 10
48.35143554687583
 20
3.528250535533322
 30
0.0
  0
VERTEX
  5
288
  8
THRUCUT
 10
48.34750000000083
 20
3.533064516128079
 30
0.0
  0
VERTEX
  5
289
  8
THRUCUT
 10
48.34331054687583
 20
3.537681924142193
 30
0.0
  0
VERTEX
  5
28A
  8
THRUCUT
 10
48.33886718750082
 20
3.542090473789369
 30
0.0
  0
VERTEX
  5
28B
  8
THRUCUT
 10
48.33416992187583
 20
3.54627787928332
 30
0.0
  0
VERTEX
  5
28C
  8
THRUCUT
 10
48.32921875000083
 20
3.550231854837755
 30
0.0
  0
VERTEX
  5
28D
  8
THRUCUT
 10
48.32401367187583
 20
3.553940114666384
 30
0.0
  0
VERTEX
  5
28E
  8
THRUCUT
 10
48.31855468750083
 20
3.557390372982916
 30
0.0
  0
VERTEX
  5
28F
  8
THRUCUT
 10
48.31284179687583
 20
3.560570344001062
 30
0.0
  0
VERTEX
  5
290
  8
THRUCUT
 10
48.30687500000083
 20
3.56346774193453
 30
0.0
  0
VERTEX
  5
291
  8
THRUCUT
 10
48.30065429687583
 20
3.566070280997029
 30
0.0
  0
VERTEX
  5
292
  8
THRUCUT
 10
48.29417968750083
 20
3.568365675402271
 30
0.0
  0
VERTEX
  5
293
  8
THRUCUT
 10
48.28745117187583
 20
3.570341639363964
 30
0.0
  0
VERTEX
  5
294
  8
THRUCUT
 10
48.28046875000084
 20
3.571985887095818
 30
0.0
  0
VERTEX
  5
295
  8
THRUCUT
 10
48.27323242187583
 20
3.573286132811544
 30
0.0
  0
VERTEX
  5
296
  8
THRUCUT
 10
48.26574218750083
 20
3.574230090724852
 30
0.0
  0
VERTEX
  5
297
  8
THRUCUT
 10
48.25799804687583
 20
3.574805475049447
 30
0.0
  0
VERTEX
  5
298
  8
THRUCUT
 10
48.25000000000083
 20
3.574999999999044
 30
0.0
  0
VERTEX
  5
299
  8
THRUCUT
 10
47.75000000000083
 20
3.574999999999037
 30
0.0
  0
VERTEX
  5
29A
  8
THRUCUT
 10
47.74200195312584
 20
3.57480547504944
 30
0.0
  0
VERTEX
  5
29B
  8
THRUCUT
 10
47.73425781250083
 20
3.574230090724845
 30
0.0
  0
VERTEX
  5
29C
  8
THRUCUT
 10
47.72676757812583
 20
3.573286132811537
 30
0.0
  0
VERTEX
  5
29D
  8
THRUCUT
 10
47.71953125000083
 20
3.571985887095812
 30
0.0
  0
VERTEX
  5
29E
  8
THRUCUT
 10
47.71254882812583
 20
3.570341639363957
 30
0.0
  0
VERTEX
  5
29F
  8
THRUCUT
 10
47.70582031250083
 20
3.568365675402263
 30
0.0
  0
VERTEX
  5
2A0
  8
THRUCUT
 10
47.69934570312584
 20
3.566070280997022
 30
0.0
  0
VERTEX
  5
2A1
  8
THRUCUT
 10
47.69312500000083
 20
3.563467741934522
 30
0.0
  0
VERTEX
  5
2A2
  8
THRUCUT
 10
47.68715820312583
 20
3.560570344001055
 30
0.0
  0
VERTEX
  5
2A3
  8
THRUCUT
 10
47.68144531250083
 20
3.557390372982908
 30
0.0
  0
VERTEX
  5
2A4
  8
THRUCUT
 10
47.67598632812583
 20
3.553940114666376
 30
0.0
  0
VERTEX
  5
2A5
  8
THRUCUT
 10
47.67078125000083
 20
3.550231854837747
 30
0.0
  0
VERTEX
  5
2A6
  8
THRUCUT
 10
47.66583007812584
 20
3.546277879283311
 30
0.0
  0
VERTEX
  5
2A7
  8
THRUCUT
 10
47.66113281250084
 20
3.542090473789359
 30
0.0
  0
VERTEX
  5
2A8
  8
THRUCUT
 10
47.65668945312584
 20
3.537681924142182
 30
0.0
  0
VERTEX
  5
2A9
  8
THRUCUT
 10
47.65250000000083
 20
3.53306451612807
 30
0.0
  0
VERTEX
  5
2AA
  8
THRUCUT
 10
47.64856445312583
 20
3.528250535533311
 30
0.0
  0
VERTEX
  5
2AB
  8
THRUCUT
 10
47.64488281250083
 20
3.523252268144198
 30
0.0
  0
VERTEX
  5
2AC
  8
THRUCUT
 10
47.63828125000083
 20
3.512752016128069
 30
0.0
  0
VERTEX
  5
2AD
  8
THRUCUT
 10
47.63269531250083
 20
3.501662046370006
 30
0.0
  0
VERTEX
  5
2AE
  8
THRUCUT
 10
47.62812500000083
 20
3.490080645160327
 30
0.0
  0
VERTEX
  5
2AF
  8
THRUCUT
 10
47.62457031250083
 20
3.478106098789361
 30
0.0
  0
VERTEX
  5
2B0
  8
THRUCUT
 10
47.62203125000082
 20
3.465836693547424
 30
0.0
  0
VERTEX
  5
2B1
  8
THRUCUT
 10
47.62050781250083
 20
3.453370715724843
 30
0.0
  0
VERTEX
  5
2B2
  8
THRUCUT
 10
47.62000000000083
 20
3.440806451611941
 30
0.0
  0
VERTEX
  5
2B3
  8
THRUCUT
 10
47.62050781250083
 20
3.428242187499038
 30
0.0
  0
VERTEX
  5
2B4
  8
THRUCUT
 10
47.62203125000082
 20
3.415776209676456
 30
0.0
  0
VERTEX
  5
2B5
  8
THRUCUT
 10
47.62457031250083
 20
3.40350680443452
 30
0.0
  0
VERTEX
  5
2B6
  8
THRUCUT
 10
47.62812500000083
 20
3.391532258063553
 30
0.0
  0
VERTEX
  5
2B7
  8
THRUCUT
 10
47.63269531250083
 20
3.379950856853875
 30
0.0
  0
VERTEX
  5
2B8
  8
THRUCUT
 10
47.63828125000083
 20
3.368860887095812
 30
0.0
  0
VERTEX
  5
2B9
  8
THRUCUT
 10
47.64145507812583
 20
3.363530903476859
 30
0.0
  0
VERTEX
  5
2BA
  8
THRUCUT
 10
47.64488281250083
 20
3.358360635079682
 30
0.0
  0
VERTEX
  5
2BB
  8
THRUCUT
 10
47.64856445312583
 20
3.353362367690569
 30
0.0
  0
VERTEX
  5
2BC
  8
THRUCUT
 10
47.65250000000083
 20
3.348548387095811
 30
0.0
  0
VERTEX
  5
2BD
  8
THRUCUT
 10
47.65668945312584
 20
3.343930979081698
 30
0.0
  0
VERTEX
  5
2BE
  8
THRUCUT
 10
47.66113281250084
 20
3.339522429434521
 30
0.0
  0
VERTEX
  5
2BF
  8
THRUCUT
 10
47.66583007812584
 20
3.335335023940569
 30
0.0
  0
VERTEX
  5
2C0
  8
THRUCUT
 10
47.67078125000083
 20
3.331381048386133
 30
0.0
  0
VERTEX
  5
2C1
  8
THRUCUT
 10
47.67598632812583
 20
3.327672788557504
 30
0.0
  0
VERTEX
  5
2C2
  8
THRUCUT
 10
47.68144531250083
 20
3.324222530240972
 30
0.0
  0
VERTEX
  5
2C3
  8
THRUCUT
 10
47.68715820312583
 20
3.321042559222827
 30
0.0
  0
VERTEX
  5
2C4
  8
THRUCUT
 10
47.69312500000083
 20
3.31814516128936
 30
0.0
  0
VERTEX
  5
2C5
  8
THRUCUT
 10
47.69934570312584
 20
3.31554262222686
 30
0.0
  0
VERTEX
  5
2C6
  8
THRUCUT
 10
47.70582031250083
 20
3.313247227821618
 30
0.0
  0
VERTEX
  5
2C7
  8
THRUCUT
 10
47.71254882812583
 20
3.311271263859923
 30
0.0
  0
VERTEX
  5
2C8
  8
THRUCUT
 10
47.71953125000083
 20
3.309627016128069
 30
0.0
  0
VERTEX
  5
2C9
  8
THRUCUT
 10
47.72676757812583
 20
3.308326770412343
 30
0.0
  0
VERTEX
  5
2CA
  8
THRUCUT
 10
47.73425781250083
 20
3.307382812499037
 30
0.0
  0
VERTEX
  5
2CB
  8
THRUCUT
 10
47.74200195312584
 20
3.30680742817444
 30
0.0
  0
VERTEX
  5
2CC
  8
THRUCUT
 10
47.75000000000083
 20
3.306612903224843
 30
0.0
  0
VERTEX
  5
2CD
  8
THRUCUT
 10
47.75000000000079
 20
2.024999999999054
 30
0.0
  0
VERTEX
  5
2CE
  8
THRUCUT
 10
25.75750000000055
 20
2.025000000000038
 30
0.0
  0
VERTEX
  5
2CF
  8
THRUCUT
 10
25.75750000000055
 20
3.306612903226811
 30
0.0
  0
VERTEX
  5
2D0
  8
THRUCUT
 10
25.76549804687556
 20
3.306807428176409
 30
0.0
  0
VERTEX
  5
2D1
  8
THRUCUT
 10
25.77324218750056
 20
3.307382812501006
 30
0.0
  0
VERTEX
  5
2D2
  8
THRUCUT
 10
25.78073242187555
 20
3.308326770414312
 30
0.0
  0
VERTEX
  5
2D3
  8
THRUCUT
 10
25.78796875000056
 20
3.309627016130038
 30
0.0
  0
VERTEX
  5
2D4
  8
THRUCUT
 10
25.79495117187556
 20
3.311271263861892
 30
0.0
  0
VERTEX
  5
2D5
  8
THRUCUT
 10
25.80167968750056
 20
3.313247227823585
 30
0.0
  0
VERTEX
  5
2D6
  8
THRUCUT
 10
25.80815429687556
 20
3.315542622228827
 30
0.0
  0
VERTEX
  5
2D7
  8
THRUCUT
 10
25.81437500000056
 20
3.318145161291327
 30
0.0
  0
VERTEX
  5
2D8
  8
THRUCUT
 10
25.82034179687555
 20
3.321042559224796
 30
0.0
  0
VERTEX
  5
2D9
  8
THRUCUT
 10
25.82605468750056
 20
3.32422253024294
 30
0.0
  0
VERTEX
  5
2DA
  8
THRUCUT
 10
25.83151367187556
 20
3.327672788559473
 30
0.0
  0
VERTEX
  5
2DB
  8
THRUCUT
 10
25.83671875000056
 20
3.331381048388101
 30
0.0
  0
VERTEX
  5
2DC
  8
THRUCUT
 10
25.84166992187556
 20
3.335335023942537
 30
0.0
  0
VERTEX
  5
2DD
  8
THRUCUT
 10
25.84636718750055
 20
3.339522429436487
 30
0.0
  0
VERTEX
  5
2DE
  8
THRUCUT
 10
25.85081054687555
 20
3.343930979083666
 30
0.0
  0
VERTEX
  5
2DF
  8
THRUCUT
 10
25.85500000000055
 20
3.348548387097777
 30
0.0
  0
VERTEX
  5
2E0
  8
THRUCUT
 10
25.85893554687555
 20
3.353362367692535
 30
0.0
  0
VERTEX
  5
2E1
  8
THRUCUT
 10
25.86261718750055
 20
3.358360635081648
 30
0.0
  0
VERTEX
  5
2E2
  8
THRUCUT
 10
25.86921875000055
 20
3.368860887097778
 30
0.0
  0
VERTEX
  5
2E3
  8
THRUCUT
 10
25.87480468750055
 20
3.379950856855841
 30
0.0
  0
VERTEX
  5
2E4
  8
THRUCUT
 10
25.87937500000055
 20
3.391532258065519
 30
0.0
  0
VERTEX
  5
2E5
  8
THRUCUT
 10
25.88292968750056
 20
3.403506804436486
 30
0.0
  0
VERTEX
  5
2E6
  8
THRUCUT
 10
25.88546875000056
 20
3.415776209678421
 30
0.0
  0
VERTEX
  5
2E7
  8
THRUCUT
 10
25.88699218750055
 20
3.428242187501001
 30
0.0
  0
VERTEX
  5
2E8
  8
THRUCUT
 10
25.88750000000055
 20
3.440806451613904
 30
0.0
  0
VERTEX
  5
2E9
  8
THRUCUT
 10
25.88699218750055
 20
3.453370715726809
 30
0.0
  0
VERTEX
  5
2EA
  8
THRUCUT
 10
25.88546875000056
 20
3.465836693549389
 30
0.0
  0
VERTEX
  5
2EB
  8
THRUCUT
 10
25.88292968750056
 20
3.478106098791323
 30
0.0
  0
VERTEX
  5
2EC
  8
THRUCUT
 10
25.87937500000055
 20
3.490080645162291
 30
0.0
  0
VERTEX
  5
2ED
  8
THRUCUT
 10
25.87480468750055
 20
3.501662046371969
 30
0.0
  0
VERTEX
  5
2EE
  8
THRUCUT
 10
25.86921875000055
 20
3.512752016130032
 30
0.0
  0
VERTEX
  5
2EF
  8
THRUCUT
 10
25.86604492187555
 20
3.518081999748984
 30
0.0
  0
VERTEX
  5
2F0
  8
THRUCUT
 10
25.86261718750055
 20
3.523252268146162
 30
0.0
  0
VERTEX
  5
2F1
  8
THRUCUT
 10
25.85893554687555
 20
3.528250535535273
 30
0.0
  0
VERTEX
  5
2F2
  8
THRUCUT
 10
25.85500000000055
 20
3.533064516130032
 30
0.0
  0
VERTEX
  5
2F3
  8
THRUCUT
 10
25.85081054687555
 20
3.537681924144144
 30
0.0
  0
VERTEX
  5
2F4
  8
THRUCUT
 10
25.84636718750055
 20
3.542090473791321
 30
0.0
  0
VERTEX
  5
2F5
  8
THRUCUT
 10
25.84166992187556
 20
3.546277879285272
 30
0.0
  0
VERTEX
  5
2F6
  8
THRUCUT
 10
25.83671875000056
 20
3.550231854839708
 30
0.0
  0
VERTEX
  5
2F7
  8
THRUCUT
 10
25.83151367187556
 20
3.553940114668337
 30
0.0
  0
VERTEX
  5
2F8
  8
THRUCUT
 10
25.82605468750056
 20
3.557390372984869
 30
0.0
  0
VERTEX
  5
2F9
  8
THRUCUT
 10
25.82034179687555
 20
3.560570344003014
 30
0.0
  0
VERTEX
  5
2FA
  8
THRUCUT
 10
25.81437500000056
 20
3.563467741936483
 30
0.0
  0
VERTEX
  5
2FB
  8
THRUCUT
 10
25.80815429687556
 20
3.566070280998983
 30
0.0
  0
VERTEX
  5
2FC
  8
THRUCUT
 10
25.80167968750056
 20
3.568365675404225
 30
0.0
  0
VERTEX
  5
2FD
  8
THRUCUT
 10
25.79495117187556
 20
3.570341639365918
 30
0.0
  0
VERTEX
  5
2FE
  8
THRUCUT
 10
25.78796875000056
 20
3.571985887097771
 30
0.0
  0
VERTEX
  5
2FF
  8
THRUCUT
 10
25.78073242187555
 20
3.573286132813497
 30
0.0
  0
VERTEX
  5
300
  8
THRUCUT
 10
25.77324218750056
 20
3.574230090726804
 30
0.0
  0
VERTEX
  5
301
  8
THRUCUT
 10
25.76549804687556
 20
3.5748054750514
 30
0.0
  0
VERTEX
  5
302
  8
THRUCUT
 10
25.75750000000055
 20
3.575000000000998
 30
0.0
  0
VERTEX
  5
303
  8
THRUCUT
 10
25.25750000000055
 20
3.575000000000998
 30
0.0
  0
VERTEX
  5
304
  8
THRUCUT
 10
25.24950195312555
 20
3.5748054750514
 30
0.0
  0
VERTEX
  5
305
  8
THRUCUT
 10
25.24175781250055
 20
3.574230090726804
 30
0.0
  0
VERTEX
  5
306
  8
THRUCUT
 10
25.23426757812556
 20
3.573286132813497
 30
0.0
  0
VERTEX
  5
307
  8
THRUCUT
 10
25.22703125000055
 20
3.571985887097771
 30
0.0
  0
VERTEX
  5
308
  8
THRUCUT
 10
25.22004882812555
 20
3.570341639365918
 30
0.0
  0
VERTEX
  5
309
  8
THRUCUT
 10
25.21332031250055
 20
3.568365675404225
 30
0.0
  0
VERTEX
  5
30A
  8
THRUCUT
 10
25.20684570312555
 20
3.566070280998983
 30
0.0
  0
VERTEX
  5
30B
  8
THRUCUT
 10
25.20062500000055
 20
3.563467741936483
 30
0.0
  0
VERTEX
  5
30C
  8
THRUCUT
 10
25.19465820312556
 20
3.560570344003014
 30
0.0
  0
VERTEX
  5
30D
  8
THRUCUT
 10
25.18894531250055
 20
3.557390372984869
 30
0.0
  0
VERTEX
  5
30E
  8
THRUCUT
 10
25.18348632812555
 20
3.553940114668337
 30
0.0
  0
VERTEX
  5
30F
  8
THRUCUT
 10
25.17828125000055
 20
3.550231854839708
 30
0.0
  0
VERTEX
  5
310
  8
THRUCUT
 10
25.17333007812555
 20
3.546277879285272
 30
0.0
  0
VERTEX
  5
311
  8
THRUCUT
 10
25.16863281250055
 20
3.542090473791321
 30
0.0
  0
VERTEX
  5
312
  8
THRUCUT
 10
25.16418945312556
 20
3.537681924144144
 30
0.0
  0
VERTEX
  5
313
  8
THRUCUT
 10
25.16000000000055
 20
3.533064516130032
 30
0.0
  0
VERTEX
  5
314
  8
THRUCUT
 10
25.15606445312556
 20
3.528250535535273
 30
0.0
  0
VERTEX
  5
315
  8
THRUCUT
 10
25.15238281250056
 20
3.523252268146162
 30
0.0
  0
VERTEX
  5
316
  8
THRUCUT
 10
25.14578125000056
 20
3.512752016130032
 30
0.0
  0
VERTEX
  5
317
  8
THRUCUT
 10
25.14019531250056
 20
3.501662046371969
 30
0.0
  0
VERTEX
  5
318
  8
THRUCUT
 10
25.13562500000056
 20
3.490080645162291
 30
0.0
  0
VERTEX
  5
319
  8
THRUCUT
 10
25.13207031250055
 20
3.478106098791323
 30
0.0
  0
VERTEX
  5
31A
  8
THRUCUT
 10
25.12953125000055
 20
3.465836693549389
 30
0.0
  0
VERTEX
  5
31B
  8
THRUCUT
 10
25.12800781250056
 20
3.453370715726809
 30
0.0
  0
VERTEX
  5
31C
  8
THRUCUT
 10
25.12750000000056
 20
3.440806451613904
 30
0.0
  0
VERTEX
  5
31D
  8
THRUCUT
 10
25.12800781250056
 20
3.428242187501001
 30
0.0
  0
VERTEX
  5
31E
  8
THRUCUT
 10
25.12953125000055
 20
3.415776209678421
 30
0.0
  0
VERTEX
  5
31F
  8
THRUCUT
 10
25.13207031250055
 20
3.403506804436486
 30
0.0
  0
VERTEX
  5
320
  8
THRUCUT
 10
25.13562500000056
 20
3.391532258065519
 30
0.0
  0
VERTEX
  5
321
  8
THRUCUT
 10
25.14019531250056
 20
3.379950856855841
 30
0.0
  0
VERTEX
  5
322
  8
THRUCUT
 10
25.14578125000056
 20
3.368860887097778
 30
0.0
  0
VERTEX
  5
323
  8
THRUCUT
 10
25.14895507812556
 20
3.363530903478825
 30
0.0
  0
VERTEX
  5
324
  8
THRUCUT
 10
25.15238281250056
 20
3.358360635081648
 30
0.0
  0
VERTEX
  5
325
  8
THRUCUT
 10
25.15606445312556
 20
3.353362367692535
 30
0.0
  0
VERTEX
  5
326
  8
THRUCUT
 10
25.16000000000055
 20
3.348548387097777
 30
0.0
  0
VERTEX
  5
327
  8
THRUCUT
 10
25.16418945312556
 20
3.343930979083666
 30
0.0
  0
VERTEX
  5
328
  8
THRUCUT
 10
25.16863281250055
 20
3.339522429436487
 30
0.0
  0
VERTEX
  5
329
  8
THRUCUT
 10
25.17333007812555
 20
3.335335023942537
 30
0.0
  0
VERTEX
  5
32A
  8
THRUCUT
 10
25.17828125000055
 20
3.331381048388101
 30
0.0
  0
VERTEX
  5
32B
  8
THRUCUT
 10
25.18348632812555
 20
3.327672788559473
 30
0.0
  0
VERTEX
  5
32C
  8
THRUCUT
 10
25.18894531250055
 20
3.32422253024294
 30
0.0
  0
VERTEX
  5
32D
  8
THRUCUT
 10
25.19465820312556
 20
3.321042559224796
 30
0.0
  0
VERTEX
  5
32E
  8
THRUCUT
 10
25.20062500000055
 20
3.318145161291327
 30
0.0
  0
VERTEX
  5
32F
  8
THRUCUT
 10
25.20684570312555
 20
3.315542622228827
 30
0.0
  0
VERTEX
  5
330
  8
THRUCUT
 10
25.21332031250055
 20
3.313247227823585
 30
0.0
  0
VERTEX
  5
331
  8
THRUCUT
 10
25.22004882812555
 20
3.311271263861892
 30
0.0
  0
VERTEX
  5
332
  8
THRUCUT
 10
25.22703125000055
 20
3.309627016130038
 30
0.0
  0
VERTEX
  5
333
  8
THRUCUT
 10
25.23426757812556
 20
3.308326770414312
 30
0.0
  0
VERTEX
  5
334
  8
THRUCUT
 10
25.24175781250055
 20
3.307382812501006
 30
0.0
  0
VERTEX
  5
335
  8
THRUCUT
 10
25.24950195312555
 20
3.306807428176409
 30
0.0
  0
VERTEX
  5
336
  8
THRUCUT
 10
25.25750000000055
 20
3.306612903226811
 30
0.0
  0
VERTEX
  5
337
  8
THRUCUT
 10
25.25750000000054
 20
2.02500000000102
 30
0.0
  0
SEQEND
  5
33A
  8
THRUCUT
  0
ENDSEC
  0
EOF
