  0
SECTION
  2
HEADER
  9
$ACADVER
  1
AC1009
  9
$DWGCODEPAGE
  3
ansi_1252
  9
$INSBASE
 10
0.0
 20
0.0
 30
0.0
  9
$EXTMIN
 10
2.228446869995309
 20
-41.18842276051573
 30
0.0
  9
$EXTMAX
 10
156.5883525013311
 20
20.46022834219866
 30
0.0
  9
$LIMMIN
 10
0.0
 20
0.0
  9
$LIMMAX
 10
12.0
 20
9.0
  9
$ORTHOMODE
 70
     0
  9
$REGENMODE
 70
     1
  9
$FILLMODE
 70
     1
  9
$QTEXTMODE
 70
     0
  9
$MIRRTEXT
 70
     1
  9
$DRAGMODE
 70
     2
  9
$LTSCALE
 40
1.0
  9
$OSMODE
 70
    37
  9
$ATTMODE
 70
     1
  9
$TEXTSIZE
 40
0.2
  9
$TRACEWID
 40
0.05
  9
$TEXTSTYLE
  7
STANDARD
  9
$CLAYER
  8
0
  9
$CELTYPE
  6
BYLAYER
  9
$CECOLOR
 62
   256
  9
$DIMSCALE
 40
1.0
  9
$DIMASZ
 40
0.18
  9
$DIMEXO
 40
0.0625
  9
$DIMDLI
 40
0.38
  9
$DIMRND
 40
0.0
  9
$DIMDLE
 40
0.0
  9
$DIMEXE
 40
0.18
  9
$DIMTP
 40
0.0
  9
$DIMTM
 40
0.0
  9
$DIMTXT
 40
0.18
  9
$DIMCEN
 40
0.09
  9
$DIMTSZ
 40
0.0
  9
$DIMTOL
 70
     0
  9
$DIMLIM
 70
     0
  9
$DIMTIH
 70
     1
  9
$DIMTOH
 70
     1
  9
$DIMSE1
 70
     0
  9
$DIMSE2
 70
     0
  9
$DIMTAD
 70
     0
  9
$DIMZIN
 70
     0
  9
$DIMBLK
  1

  9
$DIMASO
 70
     1
  9
$DIMSHO
 70
     1
  9
$DIMPOST
  1

  9
$DIMAPOST
  1

  9
$DIMALT
 70
     0
  9
$DIMALTD
 70
     2
  9
$DIMALTF
 40
25.4
  9
$DIMLFAC
 40
1.0
  9
$DIMTOFL
 70
     0
  9
$DIMTVP
 40
0.0
  9
$DIMTIX
 70
     0
  9
$DIMSOXD
 70
     0
  9
$DIMSAH
 70
     0
  9
$DIMBLK1
  1

  9
$DIMBLK2
  1

  9
$DIMSTYLE
  2
STANDARD
  9
$DIMCLRD
 70
     0
  9
$DIMCLRE
 70
     0
  9
$DIMCLRT
 70
     0
  9
$DIMTFAC
 40
1.0
  9
$DIMGAP
 40
0.09
  9
$LUNITS
 70
     2
  9
$LUPREC
 70
     4
  9
$SKETCHINC
 40
0.1
  9
$FILLETRAD
 40
0.5
  9
$AUNITS
 70
     0
  9
$AUPREC
 70
     0
  9
$MENU
  1
.
  9
$ELEVATION
 40
0.0
  9
$PELEVATION
 40
0.0
  9
$THICKNESS
 40
0.0
  9
$LIMCHECK
 70
     0
  9
$CHAMFERA
 40
0.0
  9
$CHAMFERB
 40
0.0
  9
$SKPOLY
 70
     0
  9
$TDCREATE
 40
2454910.5
  9
$TDUPDATE
 40
2457887.543437639
  9
$TDINDWG
 40
0.0000000116
  9
$TDUSRTIMER
 40
0.0000000116
  9
$USRTIMER
 70
     1
  9
$ANGBASE
 50
0.0
  9
$ANGDIR
 70
     0
  9
$PDMODE
 70
     0
  9
$PDSIZE
 40
0.0
  9
$PLINEWID
 40
0.0
  9
$COORDS
 70
     1
  9
$SPLFRAME
 70
     0
  9
$SPLINETYPE
 70
     6
  9
$SPLINESEGS
 70
     8
  9
$ATTDIA
 70
     0
  9
$ATTREQ
 70
     1
  9
$HANDLING
 70
     1
  9
$HANDSEED
  5
13D
  9
$SURFTAB1
 70
     6
  9
$SURFTAB2
 70
     6
  9
$SURFTYPE
 70
     6
  9
$SURFU
 70
     6
  9
$SURFV
 70
     6
  9
$UCSNAME
  2

  9
$UCSORG
 10
0.0
 20
0.0
 30
0.0
  9
$UCSXDIR
 10
1.0
 20
0.0
 30
0.0
  9
$UCSYDIR
 10
0.0
 20
1.0
 30
0.0
  9
$PUCSNAME
  2

  9
$PUCSORG
 10
0.0
 20
0.0
 30
0.0
  9
$PUCSXDIR
 10
1.0
 20
0.0
 30
0.0
  9
$PUCSYDIR
 10
0.0
 20
1.0
 30
0.0
  9
$USERI1
 70
     0
  9
$USERI2
 70
     0
  9
$USERI3
 70
     0
  9
$USERI4
 70
     0
  9
$USERI5
 70
     0
  9
$USERR1
 40
0.0
  9
$USERR2
 40
0.0
  9
$USERR3
 40
0.0
  9
$USERR4
 40
0.0
  9
$USERR5
 40
0.0
  9
$WORLDVIEW
 70
     1
  9
$SHADEDGE
 70
     3
  9
$SHADEDIF
 70
    70
  9
$TILEMODE
 70
     1
  9
$MAXACTVP
 70
    64
  9
$PLIMCHECK
 70
     0
  9
$PEXTMIN
 10
1.000000000000000E+20
 20
1.000000000000000E+20
 30
1.000000000000000E+20
  9
$PEXTMAX
 10
-1.000000000000000E+20
 20
-1.000000000000000E+20
 30
-1.000000000000000E+20
  9
$PLIMMIN
 10
0.0
 20
0.0
  9
$PLIMMAX
 10
12.0
 20
9.0
  9
$UNITMODE
 70
     0
  9
$VISRETAIN
 70
     1
  9
$PLINEGEN
 70
     0
  9
$PSLTSCALE
 70
     1
  0
ENDSEC
  0
SECTION
  2
TABLES
  0
TABLE
  2
VPORT
 70
     1
  0
VPORT
  2
*ACTIVE
 70
     0
 10
0.0
 20
0.0
 11
1.0
 21
1.0
 12
10.42990654205607
 22
4.5
 13
0.0
 23
0.0
 14
0.5
 24
0.5
 15
0.5
 25
0.5
 16
0.0
 26
0.0
 36
1.0
 17
0.0
 27
0.0
 37
0.0
 40
9.0
 41
1.972972972850329
 42
50.0
 43
0.0
 44
0.0
 50
0.0
 51
0.0
 71
     0
 72
   100
 73
     1
 74
     3
 75
     0
 76
     0
 77
     0
 78
     0
  0
ENDTAB
  0
TABLE
  2
LTYPE
 70
     2
  0
LTYPE
  2
CONTINUOUS
 70
     0
  3
Solid line
 72
    65
 73
     0
 40
0.0
  0
LTYPE
  2
CONTINUOUS2
 70
     0
  3
Solid Line
 72
    65
 73
     0
 40
0.0
  0
ENDTAB
  0
TABLE
  2
LAYER
 70
     3
  0
LAYER
  2
0
 70
     0
 62
     7
  6
CONTINUOUS
  0
LAYER
  2
OPTIONAL_FIXED_WINDOW
 70
     0
 62
   150
  6
CONTINUOUS
  0
LAYER
  2
ACRYLIC_PANEL
 70
     0
 62
   253
  6
CONTINUOUS
  0
ENDTAB
  0
TABLE
  2
STYLE
 70
     1
  0
STYLE
  2
STANDARD
 70
     0
 40
0.0
 41
1.0
 50
0.0
 71
     0
 42
0.2
  3
txt
  4

  0
ENDTAB
  0
TABLE
  2
VIEW
 70
     0
  0
ENDTAB
  0
TABLE
  2
UCS
 70
     0
  0
ENDTAB
  0
TABLE
  2
APPID
 70
     1
  0
APPID
  2
ACAD
 70
     0
  0
ENDTAB
  0
TABLE
  2
DIMSTYLE
 70
     1
  0
DIMSTYLE
  2
STANDARD
 70
     0
  3

  4

  5

  6

  7

 40
1.0
 41
0.18
 42
0.0625
 43
0.38
 44
0.18
 45
0.0
 46
0.0
 47
0.0
 48
0.0
140
0.18
141
0.09
142
0.0
143
25.4
144
1.0
145
0.0
146
1.0
147
0.09
 71
     0
 72
     0
 73
     1
 74
     1
 75
     0
 76
     0
 77
     0
 78
     0
170
     0
171
     2
172
     0
173
     0
174
     0
175
     0
176
     0
177
     0
178
     0
  0
ENDTAB
  0
ENDSEC
  0
SECTION
  2
BLOCKS
  0
BLOCK
  8
0
  2
$MODEL_SPACE
 70
     0
 10
0.0
 20
0.0
 30
0.0
  3
$MODEL_SPACE
  1

  0
ENDBLK
  5
21
  8
0
  0
BLOCK
 67
     1
  8
0
  2
$PAPER_SPACE
 70
     0
 10
0.0
 20
0.0
 30
0.0
  3
$PAPER_SPACE
  1

  0
ENDBLK
  5
1D
 67
     1
  8
0
  0
ENDSEC
  0
SECTION
  2
ENTITIES
  0
POLYLINE
  5
70
  8
OPTIONAL_FIXED_WINDOW
 66
     1
 10
0.0
 20
0.0
 30
0.0
 70
     1
  0
VERTEX
  5
86
  8
OPTIONAL_FIXED_WINDOW
 10
156.3565854043376
 20
-40.97753111713085
 30
0.0
 42
0.4142135623730951
  0
VERTEX
  5
87
  8
OPTIONAL_FIXED_WINDOW
 10
156.3774608579462
 20
-41.16018985750928
 30
0.0
 42
0.4142135623730951
  0
VERTEX
  5
88
  8
OPTIONAL_FIXED_WINDOW
 10
156.5601195983247
 20
-41.1393144039006
 30
0.0
 42
0.4142135623730951
  0
VERTEX
  5
89
  8
OPTIONAL_FIXED_WINDOW
 10
156.539244144716
 20
-40.95665566352218
 30
0.0
 42
0.4142135623730951
  0
SEQEND
  5
12F
  8
OPTIONAL_FIXED_WINDOW
  0
POLYLINE
  5
72
  8
ACRYLIC_PANEL
 66
     1
 10
0.0
 20
0.0
 30
0.0
 70
     1
  0
VERTEX
  5
8A
  8
ACRYLIC_PANEL
 10
5.75343462842298
 20
20.41431527976166
 30
0.0
 42
0.4673504111467544
  0
VERTEX
  5
8B
  8
ACRYLIC_PANEL
 10
2.228454578233425
 20
17.45443838460516
 30
0.0
  0
VERTEX
  5
8C
  8
ACRYLIC_PANEL
 10
2.228446869995309
 20
5.235461640357023
 30
0.0
 42
0.4133177528682069
  0
VERTEX
  5
8D
  8
ACRYLIC_PANEL
 10
5.219266631766857
 20
2.235473793994338
 30
0.0
  0
VERTEX
  5
8E
  8
ACRYLIC_PANEL
 10
5.22003164534047
 20
2.235472038232682
 30
0.0
  0
VERTEX
  5
8F
  8
ACRYLIC_PANEL
 10
5.221944171021221
 20
2.235469111948621
 30
0.0
  0
VERTEX
  5
90
  8
ACRYLIC_PANEL
 10
25.80826487546969
 20
2.235468668652455
 30
0.0
 42
0.5797895459493343
  0
VERTEX
  5
91
  8
ACRYLIC_PANEL
 10
28.39530671326145
 20
6.754420565113563
 30
0.0
  0
VERTEX
  5
92
  8
ACRYLIC_PANEL
 10
28.37779921050858
 20
6.782118348969881
 30
0.0
  0
VERTEX
  5
93
  8
ACRYLIC_PANEL
 10
28.33179985155124
 20
6.849869606797171
 30
0.0
  0
VERTEX
  5
94
  8
ACRYLIC_PANEL
 10
28.3189807820217
 20
6.866318749861904
 30
0.0
  0
VERTEX
  5
95
  8
ACRYLIC_PANEL
 10
28.14634387142991
 20
7.084446183547271
 30
0.0
  0
VERTEX
  5
96
  8
ACRYLIC_PANEL
 10
27.97210983655708
 20
7.301229043262111
 30
0.0
  0
VERTEX
  5
97
  8
ACRYLIC_PANEL
 10
27.79628739686899
 20
7.516658531016702
 30
0.0
  0
VERTEX
  5
98
  8
ACRYLIC_PANEL
 10
27.61888530011669
 20
7.730725817142712
 30
0.0
  0
VERTEX
  5
99
  8
ACRYLIC_PANEL
 10
27.43991229838952
 20
7.943422070734897
 30
0.0
  0
VERTEX
  5
9A
  8
ACRYLIC_PANEL
 10
27.25937714754031
 20
8.154738460491473
 30
0.0
  0
VERTEX
  5
9B
  8
ACRYLIC_PANEL
 10
27.07728860814217
 20
8.36466615371367
 30
0.0
  0
VERTEX
  5
9C
  8
ACRYLIC_PANEL
 10
26.89365544374954
 20
8.573196318497622
 30
0.0
  0
VERTEX
  5
9D
  8
ACRYLIC_PANEL
 10
26.70848642233426
 20
8.780320122170934
 30
0.0
  0
VERTEX
  5
9E
  8
ACRYLIC_PANEL
 10
26.52179031496138
 20
8.986028732899769
 30
0.0
  0
VERTEX
  5
9F
  8
ACRYLIC_PANEL
 10
26.33357589611927
 20
9.190313319409626
 30
0.0
  0
VERTEX
  5
A0
  8
ACRYLIC_PANEL
 10
26.14385194334585
 20
9.393165051469197
 30
0.0
  0
VERTEX
  5
A1
  8
ACRYLIC_PANEL
 10
25.95262723745321
 20
9.594575099708464
 30
0.0
  0
VERTEX
  5
A2
  8
ACRYLIC_PANEL
 10
25.75991056171273
 20
9.794534636521831
 30
0.0
  0
VERTEX
  5
A3
  8
ACRYLIC_PANEL
 10
25.56571070155036
 20
9.993034836448288
 30
0.0
  0
VERTEX
  5
A4
  8
ACRYLIC_PANEL
 10
25.37003644503505
 20
10.19006687562026
 30
0.0
  0
VERTEX
  5
A5
  8
ACRYLIC_PANEL
 10
25.17289658221392
 20
10.38562193251394
 30
0.0
  0
VERTEX
  5
A6
  8
ACRYLIC_PANEL
 10
24.9742999050722
 20
10.57969118794929
 30
0.0
  0
VERTEX
  5
A7
  8
ACRYLIC_PANEL
 10
24.77425520634273
 20
10.77226582626147
 30
0.0
  0
VERTEX
  5
A8
  8
ACRYLIC_PANEL
 10
24.57277128060826
 20
10.9633370341576
 30
0.0
  0
VERTEX
  5
A9
  8
ACRYLIC_PANEL
 10
24.36985692370575
 20
11.15289600128247
 30
0.0
  0
VERTEX
  5
AA
  8
ACRYLIC_PANEL
 10
24.1655209312957
 20
11.34093392151183
 30
0.0
  0
VERTEX
  5
AB
  8
ACRYLIC_PANEL
 10
23.95977210001541
 20
11.52744199177735
 30
0.0
  0
VERTEX
  5
AC
  8
ACRYLIC_PANEL
 10
23.75261922635576
 20
11.7124114130352
 30
0.0
  0
VERTEX
  5
AD
  8
ACRYLIC_PANEL
 10
23.54407110644473
 20
11.89583339035974
 30
0.0
  0
VERTEX
  5
AE
  8
ACRYLIC_PANEL
 10
23.33413653638576
 20
12.07769913254245
 30
0.0
  0
VERTEX
  5
AF
  8
ACRYLIC_PANEL
 10
23.12282431098077
 20
12.25799985309689
 30
0.0
  0
VERTEX
  5
B0
  8
ACRYLIC_PANEL
 10
22.91014322404402
 20
12.436726769854
 30
0.0
  0
VERTEX
  5
B1
  8
ACRYLIC_PANEL
 10
22.69610206796636
 20
12.61387110519311
 30
0.0
  0
VERTEX
  5
B2
  8
ACRYLIC_PANEL
 10
22.48070963294043
 20
12.78942408653759
 30
0.0
  0
VERTEX
  5
B3
  8
ACRYLIC_PANEL
 10
22.26397470769638
 20
12.96337694559818
 30
0.0
  0
VERTEX
  5
B4
  8
ACRYLIC_PANEL
 10
22.04590607755193
 20
13.13572091977815
 30
0.0
  0
VERTEX
  5
B5
  8
ACRYLIC_PANEL
 10
21.82651252558748
 20
13.30644725102459
 30
0.0
  0
VERTEX
  5
B6
  8
ACRYLIC_PANEL
 10
21.60580283153371
 20
13.47554718656059
 30
0.0
  0
VERTEX
  5
B7
  8
ACRYLIC_PANEL
 10
21.3837857713151
 20
13.64301197898342
 30
0.0
  0
VERTEX
  5
B8
  8
ACRYLIC_PANEL
 10
21.16047011714539
 20
13.80883288601265
 30
0.0
  0
VERTEX
  5
B9
  8
ACRYLIC_PANEL
 10
20.93586463713467
 20
13.97300117055377
 30
0.0
  0
VERTEX
  5
BA
  8
ACRYLIC_PANEL
 10
20.70997809370505
 20
14.13550810161135
 30
0.0
  0
VERTEX
  5
BB
  8
ACRYLIC_PANEL
 10
20.48281924564338
 20
14.2963449525719
 30
0.0
  0
VERTEX
  5
BC
  8
ACRYLIC_PANEL
 10
20.25439684534825
 20
14.45550300292647
 30
0.0
  0
VERTEX
  5
BD
  8
ACRYLIC_PANEL
 10
20.02471963952388
 20
14.61297353749027
 30
0.0
  0
VERTEX
  5
BE
  8
ACRYLIC_PANEL
 10
19.79379636875723
 20
14.76874784643909
 30
0.0
  0
VERTEX
  5
BF
  8
ACRYLIC_PANEL
 10
19.56163576704779
 20
14.92281722533292
 30
0.0
  0
VERTEX
  5
C0
  8
ACRYLIC_PANEL
 10
19.32824656158749
 20
15.07517297498774
 30
0.0
  0
VERTEX
  5
C1
  8
ACRYLIC_PANEL
 10
19.09363747228321
 20
15.22580640147274
 30
0.0
  0
VERTEX
  5
C2
  8
ACRYLIC_PANEL
 10
18.8578172103434
 20
15.37470881672155
 30
0.0
  0
VERTEX
  5
C3
  8
ACRYLIC_PANEL
 10
18.62079448011713
 20
15.52187153701428
 30
0.0
  0
VERTEX
  5
C4
  8
ACRYLIC_PANEL
 10
18.38257797638283
 20
15.66728588437448
 30
0.0
  0
VERTEX
  5
C5
  8
ACRYLIC_PANEL
 10
18.14317638619644
 20
15.81094318508034
 30
0.0
  0
VERTEX
  5
C6
  8
ACRYLIC_PANEL
 10
17.90259838614924
 20
15.95283477098795
 30
0.0
  0
VERTEX
  5
C7
  8
ACRYLIC_PANEL
 10
17.66085264305269
 20
16.09295197872646
 30
0.0
  0
VERTEX
  5
C8
  8
ACRYLIC_PANEL
 10
17.41794781471066
 20
16.23128614890041
 30
0.0
  0
VERTEX
  5
C9
  8
ACRYLIC_PANEL
 10
17.17389254861058
 20
16.36782862650492
 30
0.0
  0
VERTEX
  5
CA
  8
ACRYLIC_PANEL
 10
16.92869547920321
 20
16.5025707620371
 30
0.0
  0
VERTEX
  5
CB
  8
ACRYLIC_PANEL
 10
16.68236523219724
 20
16.63550390869799
 30
0.0
  0
VERTEX
  5
CC
  8
ACRYLIC_PANEL
 10
16.43491042029012
 20
16.7666194243698
 30
0.0
  0
VERTEX
  5
CD
  8
ACRYLIC_PANEL
 10
16.18633964436043
 20
16.89590867053724
 30
0.0
  0
VERTEX
  5
CE
  8
ACRYLIC_PANEL
 10
15.93666149370614
 20
17.02336301174276
 30
0.0
  0
VERTEX
  5
CF
  8
ACRYLIC_PANEL
 10
15.68588454445302
 20
17.1489738160249
 30
0.0
  0
VERTEX
  5
D0
  8
ACRYLIC_PANEL
 10
15.4340173592463
 20
17.27273245459722
 30
0.0
  0
VERTEX
  5
D1
  8
ACRYLIC_PANEL
 10
15.18106848765723
 20
17.39463030120581
 30
0.0
  0
VERTEX
  5
D2
  8
ACRYLIC_PANEL
 10
14.92704646565193
 20
17.51465873196142
 30
0.0
  0
VERTEX
  5
D3
  8
ACRYLIC_PANEL
 10
14.67195981472281
 20
17.63280912529266
 30
0.0
  0
VERTEX
  5
D4
  8
ACRYLIC_PANEL
 10
14.4158170420805
 20
17.7490728613789
 30
0.0
  0
VERTEX
  5
D5
  8
ACRYLIC_PANEL
 10
14.15862664036553
 20
17.8634413218347
 30
0.0
  0
VERTEX
  5
D6
  8
ACRYLIC_PANEL
 10
13.90039708689523
 20
17.97590588956522
 30
0.0
  0
VERTEX
  5
D7
  8
ACRYLIC_PANEL
 10
13.64113684375383
 20
18.08645794824182
 30
0.0
  0
VERTEX
  5
D8
  8
ACRYLIC_PANEL
 10
13.38085435710121
 20
18.19508888211707
 30
0.0
  0
VERTEX
  5
D9
  8
ACRYLIC_PANEL
 10
13.11955805733845
 20
18.30179007545124
 30
0.0
  0
VERTEX
  5
DA
  8
ACRYLIC_PANEL
 10
12.8572563582847
 20
18.4065529123541
 30
0.0
  0
VERTEX
  5
DB
  8
ACRYLIC_PANEL
 10
12.59395765777657
 20
18.50936877604366
 30
0.0
  0
VERTEX
  5
DC
  8
ACRYLIC_PANEL
 10
12.32967033594463
 20
18.61022904900441
 30
0.0
  0
VERTEX
  5
DD
  8
ACRYLIC_PANEL
 10
12.06440275691415
 20
18.70912511181772
 30
0.0
  0
VERTEX
  5
DE
  8
ACRYLIC_PANEL
 10
11.79816326661233
 20
18.80604834347017
 30
0.0
  0
VERTEX
  5
DF
  8
ACRYLIC_PANEL
 10
11.53096019409617
 20
18.90099012033173
 30
0.0
  0
VERTEX
  5
E0
  8
ACRYLIC_PANEL
 10
11.26280185038826
 20
18.99394181604797
 30
0.0
  0
VERTEX
  5
E1
  8
ACRYLIC_PANEL
 10
10.99369652878789
 20
19.08489480089432
 30
0.0
  0
VERTEX
  5
E2
  8
ACRYLIC_PANEL
 10
10.72365250409524
 20
19.17384044149756
 30
0.0
  0
VERTEX
  5
E3
  8
ACRYLIC_PANEL
 10
10.45267803361725
 20
19.26077009996473
 30
0.0
  0
VERTEX
  5
E4
  8
ACRYLIC_PANEL
 10
10.18078135517038
 20
19.34567513397841
 30
0.0
  0
VERTEX
  5
E5
  8
ACRYLIC_PANEL
 10
9.90797068925525
 20
19.42854689556001
 30
0.0
  0
VERTEX
  5
E6
  8
ACRYLIC_PANEL
 10
9.63425423656821
 20
19.509376731294
 30
0.0
  0
VERTEX
  5
E7
  8
ACRYLIC_PANEL
 10
9.359640179674841
 20
19.58815598125242
 30
0.0
  0
VERTEX
  5
E8
  8
ACRYLIC_PANEL
 10
9.084136682524274
 20
19.66487597859626
 30
0.0
  0
VERTEX
  5
E9
  8
ACRYLIC_PANEL
 10
8.807751888979453
 20
19.73952804942818
 30
0.0
  0
VERTEX
  5
EA
  8
ACRYLIC_PANEL
 10
8.530493925297321
 20
19.81210351153939
 30
0.0
  0
VERTEX
  5
EB
  8
ACRYLIC_PANEL
 10
8.250479603705514
 20
19.88307302216802
 30
0.0
  0
VERTEX
  5
EC
  8
ACRYLIC_PANEL
 10
8.112987983206892
 20
19.9170656870829
 30
0.0
  0
VERTEX
  5
ED
  8
ACRYLIC_PANEL
 10
7.973391322674559
 20
19.95100148336227
 30
0.0
  0
VERTEX
  5
EE
  8
ACRYLIC_PANEL
 10
7.833582436139238
 20
19.98441160243513
 30
0.0
  0
VERTEX
  5
EF
  8
ACRYLIC_PANEL
 10
7.693562329787653
 20
20.01729495485828
 30
0.0
  0
VERTEX
  5
F0
  8
ACRYLIC_PANEL
 10
7.553332010521387
 20
20.04965045009434
 30
0.0
  0
VERTEX
  5
F1
  8
ACRYLIC_PANEL
 10
7.412892480659991
 20
20.08147699771238
 30
0.0
  0
VERTEX
  5
F2
  8
ACRYLIC_PANEL
 10
7.272244744458419
 20
20.11277350588128
 30
0.0
  0
VERTEX
  5
F3
  8
ACRYLIC_PANEL
 10
7.131389805576816
 20
20.14353888193958
 30
0.0
  0
VERTEX
  5
F4
  8
ACRYLIC_PANEL
 10
6.990328663635353
 20
20.17377203314166
 30
0.0
  0
VERTEX
  5
F5
  8
ACRYLIC_PANEL
 10
6.849062316795369
 20
20.20347186603297
 30
0.0
  0
VERTEX
  5
F6
  8
ACRYLIC_PANEL
 10
6.707591764644292
 20
20.23263728584383
 30
0.0
  0
VERTEX
  5
F7
  8
ACRYLIC_PANEL
 10
6.565918006138361
 20
20.26126719693096
 30
0.0
  0
VERTEX
  5
F8
  8
ACRYLIC_PANEL
 10
6.424042036266599
 20
20.28936050343058
 30
0.0
  0
VERTEX
  5
F9
  8
ACRYLIC_PANEL
 10
6.281964849203121
 20
20.31691610857618
 30
0.0
  0
VERTEX
  5
FA
  8
ACRYLIC_PANEL
 10
6.139687440700925
 20
20.34393291423797
 30
0.0
  0
VERTEX
  5
FB
  8
ACRYLIC_PANEL
 10
5.997210803173346
 20
20.37040982186958
 30
0.0
  0
VERTEX
  5
FC
  8
ACRYLIC_PANEL
 10
5.854535926790902
 20
20.3963457322366
 30
0.0
  0
SEQEND
  5
130
  8
ACRYLIC_PANEL
  0
POLYLINE
  5
73
  8
ACRYLIC_PANEL
 66
     1
 10
0.0
 20
0.0
 30
0.0
 70
     1
  0
VERTEX
  5
FD
  8
ACRYLIC_PANEL
 10
17.96881965040663
 20
15.12836691205753
 30
0.0
 42
0.4142135623730951
  0
VERTEX
  5
FE
  8
ACRYLIC_PANEL
 10
18.20892068284277
 20
15.18837936262488
 30
0.0
 42
0.4142135623730951
  0
VERTEX
  5
FF
  8
ACRYLIC_PANEL
 10
18.14890823227543
 20
15.42848039506103
 30
0.0
 42
0.4142135623730951
  0
VERTEX
  5
100
  8
ACRYLIC_PANEL
 10
17.90880719983929
 20
15.36846794449368
 30
0.0
 42
0.4142135623730951
  0
SEQEND
  5
131
  8
ACRYLIC_PANEL
  0
POLYLINE
  5
74
  8
ACRYLIC_PANEL
 66
     1
 10
0.0
 20
0.0
 30
0.0
 70
     1
  0
VERTEX
  5
101
  8
ACRYLIC_PANEL
 10
2.697822671978827
 20
5.063161707337812
 30
0.0
 42
0.4142135623730951
  0
VERTEX
  5
102
  8
ACRYLIC_PANEL
 10
2.900746488380918
 20
5.204837127707101
 30
0.0
 42
0.4142135623730951
  0
VERTEX
  5
103
  8
ACRYLIC_PANEL
 10
2.75907106801165
 20
5.407760944109171
 30
0.0
 42
0.4142135623730951
  0
VERTEX
  5
104
  8
ACRYLIC_PANEL
 10
2.556147251609559
 20
5.266085523739889
 30
0.0
 42
0.4142135623730951
  0
SEQEND
  5
132
  8
ACRYLIC_PANEL
  0
POLYLINE
  5
75
  8
ACRYLIC_PANEL
 66
     1
 10
0.0
 20
0.0
 30
0.0
 70
     1
  0
VERTEX
  5
105
  8
ACRYLIC_PANEL
 10
2.556154979520585
 20
17.48562338530168
 30
0.0
 42
0.4142135623730951
  0
VERTEX
  5
106
  8
ACRYLIC_PANEL
 10
2.697830271877081
 20
17.28269947952491
 30
0.0
 42
0.4142135623730951
  0
VERTEX
  5
107
  8
ACRYLIC_PANEL
 10
2.900754177653852
 20
17.42437477188141
 30
0.0
 42
0.4142135623730951
  0
VERTEX
  5
108
  8
ACRYLIC_PANEL
 10
2.759078885297356
 20
17.62729867765819
 30
0.0
 42
0.4142135623730951
  0
SEQEND
  5
133
  8
ACRYLIC_PANEL
  0
POLYLINE
  5
76
  8
ACRYLIC_PANEL
 66
     1
 10
0.0
 20
0.0
 30
0.0
 70
     1
  0
VERTEX
  5
109
  8
ACRYLIC_PANEL
 10
2.556151125224602
 20
11.37585450847407
 30
0.0
 42
0.4142135623730951
  0
VERTEX
  5
10A
  8
ACRYLIC_PANEL
 10
2.697826417581098
 20
11.17293060269729
 30
0.0
 42
0.4142135623730951
  0
VERTEX
  5
10B
  8
ACRYLIC_PANEL
 10
2.900750323357869
 20
11.31460589505378
 30
0.0
 42
0.4142135623730951
  0
VERTEX
  5
10C
  8
ACRYLIC_PANEL
 10
2.759075031001373
 20
11.51752980083056
 30
0.0
 42
0.4142135623730951
  0
SEQEND
  5
134
  8
ACRYLIC_PANEL
  0
POLYLINE
  5
77
  8
ACRYLIC_PANEL
 66
     1
 10
0.0
 20
0.0
 30
0.0
 70
     1
  0
VERTEX
  5
10D
  8
ACRYLIC_PANEL
 10
5.19170249868273
 20
2.563169494214129
 30
0.0
 42
0.4142135623730951
  0
VERTEX
  5
10E
  8
ACRYLIC_PANEL
 10
5.394626318135607
 20
2.704844910213765
 30
0.0
 42
0.4142135623730951
  0
VERTEX
  5
10F
  8
ACRYLIC_PANEL
 10
5.252950902135979
 20
2.907768729666628
 30
0.0
 42
0.4142135623730951
  0
VERTEX
  5
110
  8
ACRYLIC_PANEL
 10
5.050027082683101
 20
2.766093313667003
 30
0.0
 42
0.4142135623730951
  0
SEQEND
  5
135
  8
ACRYLIC_PANEL
  0
POLYLINE
  5
78
  8
ACRYLIC_PANEL
 66
     1
 10
0.0
 20
0.0
 30
0.0
 70
     1
  0
VERTEX
  5
111
  8
ACRYLIC_PANEL
 10
12.05368189395844
 20
2.563169346451488
 30
0.0
 42
0.4142135623730951
  0
VERTEX
  5
112
  8
ACRYLIC_PANEL
 10
12.25660571341129
 20
2.704844762451124
 30
0.0
 42
0.4142135623730951
  0
VERTEX
  5
113
  8
ACRYLIC_PANEL
 10
12.11493029741166
 20
2.907768581903987
 30
0.0
 42
0.4142135623730951
  0
VERTEX
  5
114
  8
ACRYLIC_PANEL
 10
11.91200647795881
 20
2.766093165904362
 30
0.0
 42
0.4142135623730951
  0
SEQEND
  5
136
  8
ACRYLIC_PANEL
  0
POLYLINE
  5
79
  8
ACRYLIC_PANEL
 66
     1
 10
0.0
 20
0.0
 30
0.0
 70
     1
  0
VERTEX
  5
115
  8
ACRYLIC_PANEL
 10
18.91566128923409
 20
2.563169198688843
 30
0.0
 42
0.4142135623730951
  0
VERTEX
  5
116
  8
ACRYLIC_PANEL
 10
19.11858510868697
 20
2.704844614688479
 30
0.0
 42
0.4142135623730951
  0
VERTEX
  5
117
  8
ACRYLIC_PANEL
 10
18.97690969268734
 20
2.907768434141342
 30
0.0
 42
0.4142135623730951
  0
VERTEX
  5
118
  8
ACRYLIC_PANEL
 10
18.77398587323449
 20
2.766093018141717
 30
0.0
 42
0.4142135623730951
  0
SEQEND
  5
137
  8
ACRYLIC_PANEL
  0
POLYLINE
  5
7A
  8
ACRYLIC_PANEL
 66
     1
 10
0.0
 20
0.0
 30
0.0
 70
     1
  0
VERTEX
  5
119
  8
ACRYLIC_PANEL
 10
12.01518328133858
 20
18.00709086178192
 30
0.0
 42
0.4142135623730951
  0
VERTEX
  5
11A
  8
ACRYLIC_PANEL
 10
12.24029086728211
 20
18.10993333720274
 30
0.0
 42
0.4142135623730951
  0
VERTEX
  5
11B
  8
ACRYLIC_PANEL
 10
12.13744839186131
 20
18.33504092314627
 30
0.0
 42
0.4142135623730951
  0
VERTEX
  5
11C
  8
ACRYLIC_PANEL
 10
11.91234080591778
 20
18.23219844772547
 30
0.0
 42
0.4142135623730951
  0
SEQEND
  5
138
  8
ACRYLIC_PANEL
  0
POLYLINE
  5
7B
  8
ACRYLIC_PANEL
 66
     1
 10
0.0
 20
0.0
 30
0.0
 70
     1
  0
VERTEX
  5
11D
  8
ACRYLIC_PANEL
 10
5.665986643492175
 20
20.0970787450593
 30
0.0
 42
0.4142135623730951
  0
VERTEX
  5
11E
  8
ACRYLIC_PANEL
 10
5.490986643492164
 20
19.92207874505928
 30
0.0
 42
0.4142135623730951
  0
VERTEX
  5
11F
  8
ACRYLIC_PANEL
 10
5.665986643492175
 20
19.74707874505928
 30
0.0
 42
0.4142135623730951
  0
VERTEX
  5
120
  8
ACRYLIC_PANEL
 10
5.840986643492158
 20
19.92207874505928
 30
0.0
 42
0.4142135623730951
  0
SEQEND
  5
139
  8
ACRYLIC_PANEL
  0
POLYLINE
  5
7C
  8
ACRYLIC_PANEL
 66
     1
 10
0.0
 20
0.0
 30
0.0
 70
     1
  0
VERTEX
  5
121
  8
ACRYLIC_PANEL
 10
23.29874132063341
 20
11.21267551543342
 30
0.0
 42
0.4142135623730951
  0
VERTEX
  5
122
  8
ACRYLIC_PANEL
 10
23.54572178164869
 20
11.22850750446402
 30
0.0
 42
0.4142135623730951
  0
VERTEX
  5
123
  8
ACRYLIC_PANEL
 10
23.52988979261812
 20
11.47548796547935
 30
0.0
 42
0.4142135623730951
  0
VERTEX
  5
124
  8
ACRYLIC_PANEL
 10
23.28290933160275
 20
11.45965597644874
 30
0.0
 42
0.4142135623730951
  0
SEQEND
  5
13A
  8
ACRYLIC_PANEL
  0
POLYLINE
  5
7D
  8
ACRYLIC_PANEL
 66
     1
 10
0.0
 20
0.0
 30
0.0
 70
     1
  0
VERTEX
  5
125
  8
ACRYLIC_PANEL
 10
27.81934994025693
 20
6.402962164060011
 30
0.0
 42
0.4142135623730951
  0
VERTEX
  5
126
  8
ACRYLIC_PANEL
 10
28.06243283603953
 20
6.356478771563989
 30
0.0
 42
0.4142135623730951
  0
VERTEX
  5
127
  8
ACRYLIC_PANEL
 10
28.10891622853555
 20
6.599561667346617
 30
0.0
 42
0.4142135623730951
  0
VERTEX
  5
128
  8
ACRYLIC_PANEL
 10
27.86583333275294
 20
6.646045059842631
 30
0.0
 42
0.4142135623730951
  0
SEQEND
  5
13B
  8
ACRYLIC_PANEL
  0
POLYLINE
  5
7E
  8
ACRYLIC_PANEL
 66
     1
 10
0.0
 20
0.0
 30
0.0
 70
     1
  0
VERTEX
  5
129
  8
ACRYLIC_PANEL
 10
25.77764068822003
 20
2.563169050266755
 30
0.0
 42
0.4142135623730951
  0
VERTEX
  5
12A
  8
ACRYLIC_PANEL
 10
25.98056450462209
 20
2.704844470636061
 30
0.0
 42
0.4142135623730951
  0
VERTEX
  5
12B
  8
ACRYLIC_PANEL
 10
25.8388890842528
 20
2.907768287038152
 30
0.0
 42
0.4142135623730951
  0
VERTEX
  5
12C
  8
ACRYLIC_PANEL
 10
25.63596526785068
 20
2.766092866668856
 30
0.0
 42
0.4142135623730951
  0
SEQEND
  5
13C
  8
ACRYLIC_PANEL
  0
ENDSEC
  0
EOF
